<?xml version="1.0" encoding="UTF-8"?><svg xmlns="http://www.w3.org/2000/svg" xmlns:xlink="http://www.w3.org/1999/xlink" height="371.1" preserveAspectRatio="xMidYMid meet" version="1.0" viewBox="-0.9 -3.0 522.6 371.1" width="522.6" zoomAndPan="magnify"><defs><clipPath id="a"><path d="M 0 166 L 305 166 L 305 368.101562 L 0 368.101562 Z M 0 166"/></clipPath></defs><g><g id="change1_1"><path d="M 477.03125 187.128906 C 480.089844 184.738281 482.941406 181.886719 485.539062 178.496094 C 521.671875 131.324219 447.496094 79.722656 415.953125 70.609375 C 407.574219 68.1875 399.582031 66.523438 392.03125 65.4375 C 392.085938 65.546875 392.136719 65.65625 392.191406 65.765625 C 392.121094 65.757812 392.054688 65.742188 391.988281 65.734375 L 391.832031 65.710938 L 391.761719 65.570312 C 382.34375 46.332031 371.476562 31.390625 359.453125 21.152344 C 354.925781 17.296875 349.632812 14.074219 343.71875 11.578125 L 343.664062 11.554688 L 343.621094 11.511719 C 336.304688 4.074219 324.445312 0.300781 308.371094 0.300781 C 297.648438 0.300781 287.480469 2.035156 280.839844 3.488281 C 263.53125 7.277344 258.738281 20.828125 259.074219 23.949219 C 259.117188 24.347656 259.230469 24.496094 259.289062 24.496094 C 259.3125 24.496094 259.398438 24.488281 259.558594 24.359375 L 259.984375 24.777344 C 258.570312 26.59375 257.464844 28.484375 256.691406 30.40625 C 253.019531 39.523438 250.921875 46.988281 250.453125 52.597656 L 250.441406 52.75 L 250.308594 52.828125 C 247.957031 54.242188 245.941406 55.917969 244.320312 57.804688 C 241.28125 61.335938 239.359375 65.792969 238.765625 70.695312 C 237.816406 78.550781 240.308594 86.828125 245.429688 92.847656 C 246.085938 93.617188 246.800781 94.367188 247.558594 95.085938 L 247.671875 95.191406 L 247.648438 95.34375 C 245.671875 110.484375 245.777344 120.964844 247.960938 126.492188 L 248.058594 126.738281 L 247.828125 126.863281 C 247.820312 126.867188 247.8125 126.871094 247.808594 126.875 C 247.769531 126.78125 247.722656 126.699219 247.683594 126.601562 C 243.617188 128.839844 239.253906 131.597656 234.027344 135.082031 C 218.140625 146.132812 209.648438 191.898438 200.671875 209.167969 C 198.617188 213.273438 195.597656 216.78125 192.683594 220.238281 C 192.71875 220.355469 192.742188 220.480469 192.777344 220.59375 L 192.554688 220.859375 L 192.394531 220.324219 C 190.78125 214.90625 188.285156 210.769531 184.519531 207.289062 C 178.675781 200.800781 166.699219 198.558594 157.074219 196.753906 C 154.285156 196.230469 151.648438 195.738281 149.339844 195.183594 C 139.074219 192.902344 128.84375 190.328125 118.945312 187.839844 C 107.011719 184.839844 94.671875 181.734375 82.449219 179.195312 C 63.460938 174.882812 44.894531 170.765625 26.511719 167.839844 C 23.40625 167.300781 18.710938 166.484375 14.421875 166.484375 C 5.609375 166.484375 1.011719 169.867188 0.359375 176.832031 C -0.890625 188.90625 18.222656 282.738281 27.257812 302.882812 C 35.890625 322.128906 169.808594 367.800781 206.496094 367.800781 C 208.164062 367.800781 209.601562 367.699219 210.773438 367.496094 C 228.238281 364.496094 273.238281 350.394531 304.445312 339.066406 C 304.558594 339.128906 304.667969 339.199219 304.78125 339.261719 C 313.539062 344.269531 322.597656 347.726562 330.59375 348.816406 C 385.347656 357.777344 457.910156 342.628906 488.773438 294.84375 C 509.867188 262.292969 498.535156 221.152344 477.03125 187.128906" fill="#f57678"/></g><g id="change2_2"><path d="M 247.351562 95.304688 C 248.777344 84.394531 251.050781 72.882812 253.070312 63.695312 C 250.765625 61.640625 249.699219 58.023438 250.15625 52.570312 C 247.863281 53.949219 245.796875 55.625 244.09375 57.605469 C 240.867188 61.351562 239.042969 65.90625 238.46875 70.660156 C 237.519531 78.523438 239.988281 86.917969 245.203125 93.039062 C 245.875 93.828125 246.59375 94.585938 247.351562 95.304688" fill="#fef3e0"/></g><g id="change2_3"><path d="M 83.457031 249.546875 C 83.863281 249.703125 83.925781 249.566406 83.992188 249.40625 C 84.304688 248.6875 84.144531 247.191406 83.734375 245.449219 C 83.253906 246.210938 82.878906 246.988281 82.71875 247.710938 C 82.429688 248.984375 83 249.367188 83.457031 249.546875" fill="#fef3e0"/></g><g id="change2_4"><path d="M 78.296875 248.101562 C 78.429688 248.050781 78.644531 247.570312 78.402344 246.472656 C 78.277344 245.90625 77.957031 245.207031 77.53125 244.472656 C 77.367188 245.941406 77.355469 247.09375 77.542969 247.441406 C 77.84375 247.988281 78.1875 248.140625 78.296875 248.101562" fill="#fef3e0"/></g><g id="change2_5"><path d="M 83.140625 253.265625 C 83.707031 253.167969 84.382812 253 85.136719 252.832031 C 85.320312 252.675781 85.507812 252.519531 85.699219 252.359375 C 86.933594 251.34375 88.339844 250.1875 88.933594 247.789062 C 89.597656 245.132812 88.929688 241.644531 87.964844 241.191406 C 87.960938 241.191406 87.957031 241.191406 87.949219 241.191406 C 87.480469 241.191406 85.824219 242.621094 84.480469 244.378906 C 85.109375 246.777344 85.5 249.367188 84.605469 250.265625 C 84.394531 250.480469 83.910156 250.792969 83.097656 250.476562 C 82.269531 250.15625 81.773438 249.542969 81.664062 248.710938 C 81.488281 247.394531 82.3125 245.6875 83.402344 244.164062 C 82.390625 240.550781 80.632812 236.453125 79.878906 235.910156 C 79.765625 236.003906 79.441406 236.367188 78.992188 237.640625 C 78.460938 239.15625 78.019531 241.132812 77.738281 242.921875 C 78.550781 244.152344 79.183594 245.378906 79.378906 246.253906 C 79.851562 248.40625 78.9375 248.929688 78.648438 249.035156 C 77.96875 249.292969 77.171875 248.84375 76.667969 247.917969 C 76.316406 247.273438 76.382812 245.339844 76.695312 243.167969 C 75.464844 241.394531 73.925781 239.699219 73.246094 239.289062 C 72.808594 240.703125 72.949219 247.757812 76.859375 251.964844 C 78.824219 252.660156 81.398438 253.5625 83.140625 253.265625" fill="#fef3e0"/></g><g id="change2_6"><path d="M 250.859375 336.53125 C 252.847656 336.5 260.90625 334.589844 261.445312 333.53125 C 260.074219 331.96875 239.328125 323.46875 235.574219 323.46875 C 235.429688 323.46875 235.382812 323.484375 235.378906 323.484375 C 234.96875 323.640625 234.410156 323.824219 233.777344 324.027344 C 231.898438 324.632812 227.503906 326.054688 227.871094 327.226562 C 228.585938 328.796875 248.835938 336.53125 250.859375 336.53125" fill="#fef3e0"/></g><g clip-path="url(#a)" id="change2_1"><path d="M 277.882812 335.582031 C 272.53125 337.273438 231.625 350.066406 217.050781 350.066406 C 214.535156 350.066406 212.804688 349.683594 212.175781 348.796875 C 207.988281 342.863281 198.851562 261.359375 198.464844 257.890625 C 198.4375 257.617188 198.632812 257.371094 198.90625 257.339844 C 199.1875 257.3125 199.429688 257.507812 199.460938 257.78125 C 199.625 259.265625 199.800781 260.828125 199.984375 262.445312 L 214.953125 267.808594 C 215.199219 267.738281 215.472656 267.679688 215.738281 267.617188 C 214.109375 268.222656 212.738281 268.949219 211.671875 269.609375 C 212.085938 269.144531 212.6875 268.710938 213.484375 268.34375 L 200.113281 263.550781 C 200.445312 266.464844 200.804688 269.5625 201.1875 272.78125 C 201.359375 272.859375 201.585938 272.960938 201.835938 273.074219 L 206.078125 305.054688 L 206.59375 308.933594 C 206.25 308.8125 205.949219 308.703125 205.734375 308.621094 C 208.46875 328.585938 211.269531 345.78125 212.992188 348.222656 C 215.894531 352.328125 253.207031 342.339844 277.582031 334.625 C 277.84375 334.542969 278.125 334.6875 278.210938 334.953125 C 278.292969 335.214844 278.148438 335.496094 277.882812 335.582031 Z M 233.46875 323.078125 C 234.085938 322.878906 234.628906 322.703125 235.027344 322.550781 C 235.171875 322.496094 235.351562 322.46875 235.574219 322.46875 C 238.96875 322.46875 261.964844 331.191406 262.441406 333.304688 C 262.488281 333.507812 262.484375 333.820312 262.214844 334.164062 C 260.820312 335.933594 252.195312 337.511719 250.875 337.53125 L 250.859375 337.53125 C 249.449219 337.53125 227.691406 329.992188 226.917969 327.527344 C 226.253906 325.410156 230.253906 324.113281 233.46875 323.078125 Z M 86.433594 282.371094 C 77.394531 283.691406 70.308594 270.210938 68.21875 263.855469 C 67.148438 260.507812 63.773438 248.582031 74.953125 251.347656 C 74.992188 251.359375 75.054688 251.378906 75.101562 251.390625 C 71.996094 246.996094 71.78125 240.878906 72.285156 239.046875 C 72.34375 238.847656 72.507812 238.246094 73.035156 238.210938 C 73.792969 238.144531 75.480469 239.824219 76.925781 241.765625 C 77.371094 239.320312 78.066406 236.847656 78.769531 235.714844 C 78.898438 235.503906 79.324219 234.882812 79.921875 234.886719 C 80.210938 234.898438 81.089844 234.933594 82.933594 239.628906 C 82.992188 239.777344 83.59375 241.316406 84.148438 243.195312 C 84.976562 242.195312 85.851562 241.351562 86.519531 240.859375 C 87.339844 240.257812 87.933594 240.074219 88.386719 240.285156 C 90.179688 241.121094 90.535156 245.492188 89.90625 248.03125 C 89.363281 250.214844 88.21875 251.492188 87.121094 252.464844 C 90.796875 251.953125 95.289062 252.539062 97.496094 259.953125 C 98.984375 264.957031 95.570312 281.03125 86.433594 282.371094 Z M 280.589844 332.378906 C 277.019531 331.710938 273.734375 328.566406 270.878906 324.664062 C 270.058594 324.535156 269.222656 324.402344 268.367188 324.265625 C 264.738281 320.078125 258.425781 311.324219 258.25 300.921875 C 258.097656 292.046875 259.304688 287.367188 260.28125 285.054688 C 260.644531 285.335938 261.015625 285.605469 261.40625 285.847656 C 261.421875 285.8125 261.433594 285.777344 261.449219 285.742188 C 263.65625 280.695312 266.855469 280.804688 270.546875 281.578125 C 271.761719 280.074219 273.199219 278.699219 274.820312 277.445312 C 244.648438 265.011719 212.875 253.65625 197.472656 248.074219 C 195.566406 235.953125 194.210938 227.398438 193.996094 226.019531 C 193.660156 224.003906 193.230469 222.078125 192.683594 220.238281 C 191.175781 215.179688 188.753906 210.792969 184.742188 207.089844 C 177.167969 198.675781 159.921875 197.414062 149.402344 194.890625 C 126.6875 189.84375 104.8125 183.53125 82.515625 178.902344 C 64.003906 174.695312 45.074219 170.488281 26.5625 167.546875 C 16.886719 165.863281 1.324219 163.339844 0.0585938 176.800781 C -1.203125 189 17.730469 282.371094 26.984375 303.007812 C 36.238281 323.640625 183.902344 372.417969 210.824219 367.792969 C 227.582031 364.914062 271.710938 351.277344 304.78125 339.261719 C 301.660156 337.476562 298.574219 335.496094 295.589844 333.355469 C 290.335938 333.578125 284.019531 333.066406 280.589844 332.378906" fill="#fef3e0"/></g><g id="change2_7"><path d="M 370.511719 194.582031 C 370.289062 194.75 370.25 195.0625 370.414062 195.28125 C 378.054688 205.269531 380.464844 217.355469 377.203125 229.308594 C 373.539062 242.734375 363.332031 254 349.894531 259.449219 C 341.613281 262.953125 332.6875 263.503906 324.054688 264.035156 C 313.996094 264.65625 303.597656 265.300781 293.902344 270.519531 C 293.65625 270.652344 293.566406 270.957031 293.699219 271.199219 C 293.789062 271.367188 293.960938 271.460938 294.136719 271.460938 C 294.21875 271.460938 294.300781 271.441406 294.375 271.402344 C 303.878906 266.285156 314.164062 265.648438 324.113281 265.035156 C 332.832031 264.496094 341.84375 263.9375 350.277344 260.371094 C 363.996094 254.8125 374.421875 243.296875 378.167969 229.570312 C 381.511719 217.308594 379.042969 204.917969 371.210938 194.675781 C 371.042969 194.453125 370.726562 194.414062 370.511719 194.582031" fill="#fef3e0"/></g><g id="change2_8"><path d="M 237.609375 261.128906 C 237.734375 261.128906 237.859375 261.082031 237.957031 260.988281 C 239.03125 259.953125 264.285156 235.355469 264.089844 214.226562 C 263.953125 199.054688 251.148438 176.394531 244.261719 175.84375 C 243.984375 175.832031 243.746094 176.027344 243.722656 176.304688 C 243.699219 176.578125 243.90625 176.820312 244.179688 176.84375 C 250.011719 177.308594 262.949219 198.816406 263.089844 214.238281 C 263.277344 234.933594 237.523438 260.015625 237.261719 260.269531 C 237.0625 260.460938 237.058594 260.777344 237.25 260.976562 C 237.347656 261.078125 237.480469 261.128906 237.609375 261.128906" fill="#fef3e0"/></g><g id="change2_9"><path d="M 276.003906 291.261719 C 276.003906 301.527344 277.535156 307.585938 286.234375 314.238281 C 286.324219 314.308594 286.433594 314.34375 286.539062 314.34375 C 286.6875 314.34375 286.839844 314.277344 286.9375 314.148438 C 287.101562 313.925781 287.0625 313.613281 286.84375 313.445312 C 278.476562 307.046875 277.003906 301.195312 277.003906 291.261719 C 277.003906 290.984375 276.777344 290.761719 276.503906 290.761719 C 276.226562 290.761719 276.003906 290.984375 276.003906 291.261719" fill="#fef3e0"/></g><g id="change2_10"><path d="M 479.796875 130.355469 L 479.691406 130.140625 C 471.355469 113.28125 455.558594 100.644531 443.769531 93.011719 C 443.542969 92.863281 443.230469 92.929688 443.078125 93.160156 C 442.929688 93.390625 442.996094 93.703125 443.226562 93.851562 C 454.910156 101.414062 470.5625 113.929688 478.796875 130.585938 L 478.898438 130.796875 C 480.125 133.269531 482.671875 138.410156 480.863281 140.984375 C 478.664062 144.121094 471.476562 141.34375 468.023438 140.011719 C 467.605469 139.851562 467.234375 139.707031 466.917969 139.589844 C 459.144531 136.738281 451.519531 133.082031 444.148438 129.542969 C 442.902344 128.945312 441.65625 128.347656 440.410156 127.753906 L 439.703125 127.414062 C 433.046875 124.238281 426.761719 121.238281 419.289062 120.527344 C 419.035156 120.496094 418.769531 120.703125 418.746094 120.980469 C 418.71875 121.253906 418.921875 121.496094 419.195312 121.523438 C 426.488281 122.21875 432.699219 125.179688 439.273438 128.316406 L 439.980469 128.65625 C 441.226562 129.25 442.472656 129.847656 443.714844 130.445312 C 451.109375 133.992188 458.753906 137.664062 466.570312 140.527344 C 466.882812 140.644531 467.25 140.785156 467.660156 140.945312 C 470.1875 141.921875 474.101562 143.429688 477.292969 143.429688 C 479.121094 143.429688 480.71875 142.933594 481.683594 141.558594 C 483.835938 138.5 481.207031 133.199219 479.796875 130.355469" fill="#fef3e0"/></g><g id="change2_11"><path d="M 295.101562 145.574219 C 295.570312 145.277344 295.710938 144.660156 295.414062 144.195312 C 295.117188 143.726562 294.5 143.589844 294.035156 143.882812 C 291.546875 145.457031 289.628906 147.207031 288.171875 149.09375 C 283.085938 145.742188 279.378906 141.058594 277.125 135.078125 C 277.085938 134.976562 277.015625 134.902344 276.929688 134.847656 C 276.800781 134.761719 276.636719 134.730469 276.480469 134.789062 C 276.417969 134.8125 276.363281 134.847656 276.316406 134.890625 C 276.171875 135.027344 276.117188 135.238281 276.191406 135.433594 C 278.476562 141.507812 282.371094 146.398438 287.597656 149.882812 C 281.785156 158.269531 284.519531 169.1875 287.1875 179.824219 C 289.710938 189.882812 292.304688 200.234375 288.371094 209.167969 C 288.367188 209.167969 288.363281 209.164062 288.363281 209.164062 C 286.527344 209.164062 285.789062 210.859375 286.140625 212.230469 C 283.421875 212.476562 280.441406 214.808594 280.808594 215.417969 C 281.046875 215.816406 281.777344 215.726562 282.269531 215.4375 C 282.238281 216.207031 282.386719 217.1875 282.859375 217.402344 C 283.550781 217.714844 284.480469 217.707031 285.15625 217.542969 C 284.957031 218.242188 284.925781 219.121094 285.296875 219.28125 C 285.964844 219.566406 288.117188 216.183594 288.636719 213.925781 C 290.652344 213.722656 291.164062 211.355469 290.183594 210.035156 C 294.4375 200.527344 291.746094 189.78125 289.128906 179.335938 C 286.46875 168.742188 283.933594 158.617188 289.308594 150.945312 C 290.863281 151.847656 292.523438 152.636719 294.285156 153.296875 C 299.273438 155.171875 304.679688 155.972656 310.109375 155.972656 C 314.886719 155.972656 319.679688 155.347656 324.21875 154.285156 C 325.871094 166.632812 335.84375 180.351562 337.429688 182.464844 C 341.835938 188.339844 343.25 192.585938 343.25 199.976562 C 343.5625 206.488281 341.824219 210.996094 338.453125 214.878906 C 338.179688 214.761719 337.863281 214.695312 337.507812 214.695312 C 335.671875 214.695312 334.9375 216.386719 335.285156 217.761719 C 332.570312 218.007812 329.585938 220.339844 329.953125 220.945312 C 330.191406 221.347656 330.921875 221.257812 331.414062 220.96875 C 331.414062 220.972656 331.414062 220.980469 331.414062 220.984375 C 331.316406 221.054688 331.226562 221.121094 331.128906 221.191406 C 330.675781 221.511719 330.570312 222.136719 330.886719 222.585938 C 331.082031 222.863281 331.390625 223.011719 331.707031 223.011719 C 331.820312 223.011719 331.933594 222.984375 332.046875 222.945312 C 332.730469 223.238281 333.636719 223.234375 334.300781 223.074219 C 334.101562 223.773438 334.070312 224.652344 334.441406 224.808594 C 335.109375 225.097656 337.261719 221.714844 337.78125 219.457031 C 339.386719 219.292969 340.039062 217.753906 339.746094 216.46875 C 343.597656 212.195312 345.597656 207.230469 345.25 199.929688 C 345.25 192.175781 343.679688 187.46875 339.027344 181.261719 C 333.84375 174.347656 327.359375 163.203125 326.207031 153.789062 C 331.089844 152.492188 335.625 150.699219 339.449219 148.652344 C 339.691406 148.519531 339.785156 148.21875 339.652344 147.972656 C 339.523438 147.730469 339.21875 147.640625 338.976562 147.769531 C 335.253906 149.765625 330.847656 151.507812 326.101562 152.78125 C 325.738281 148.359375 326.640625 144.382812 329.527344 141.492188 C 329.921875 141.101562 329.921875 140.46875 329.527344 140.078125 C 329.136719 139.6875 328.507812 139.6875 328.113281 140.078125 C 324.578125 143.613281 323.613281 148.308594 324.097656 153.285156 C 314.546875 155.535156 303.855469 155.820312 294.636719 152.359375 C 292.953125 151.726562 291.378906 150.984375 289.898438 150.148438 C 291.210938 148.496094 292.910156 146.960938 295.101562 145.574219" fill="#fef3e0"/></g><g id="change2_12"><path d="M 407.484375 127.21875 C 407.222656 127.164062 406.953125 127.339844 406.894531 127.609375 C 406.839844 127.878906 407.015625 128.144531 407.285156 128.199219 C 442.769531 135.441406 472.773438 183.328125 473.074219 183.808594 C 473.167969 183.964844 473.332031 184.046875 473.5 184.046875 C 473.589844 184.046875 473.679688 184.023438 473.761719 183.972656 C 473.996094 183.824219 474.070312 183.519531 473.925781 183.285156 C 473.621094 182.796875 443.394531 134.546875 407.484375 127.21875" fill="#fef3e0"/></g><g id="change2_13"><path d="M 89.894531 260.628906 C 87.636719 260.628906 88.234375 264.132812 90.492188 264.132812 C 92.753906 264.132812 92.15625 260.628906 89.894531 260.628906" fill="#fef3e0"/></g><g id="change2_14"><path d="M 77.910156 268.996094 C 76.082031 268.996094 76.566406 271.832031 78.394531 271.832031 C 80.222656 271.832031 79.738281 268.996094 77.910156 268.996094" fill="#fef3e0"/></g><g id="change2_15"><path d="M 74.5625 258.621094 C 72.300781 258.621094 72.898438 262.125 75.160156 262.125 C 77.417969 262.125 76.820312 258.621094 74.5625 258.621094" fill="#fef3e0"/></g><g id="change2_16"><path d="M 82.753906 263.691406 C 81.144531 263.691406 81.570312 266.1875 83.175781 266.1875 C 84.785156 266.1875 84.359375 263.691406 82.753906 263.691406" fill="#fef3e0"/></g><g id="change2_17"><path d="M 86.125 272.753906 C 84.320312 272.753906 84.796875 275.550781 86.601562 275.550781 C 88.40625 275.550781 87.929688 272.753906 86.125 272.753906" fill="#fef3e0"/></g><g id="change2_18"><path d="M 357.71875 98.570312 C 351.882812 98.566406 346.058594 95.335938 342.296875 90.617188 C 338.699219 86.105469 336.992188 79.921875 337.652344 74.128906 C 338.046875 70.628906 339.308594 67.273438 341.53125 64.511719 C 346.367188 58.515625 355.355469 56.242188 362.457031 57.878906 C 366.191406 58.742188 370.746094 61.417969 373.089844 64.742188 C 381.742188 77.015625 377.75 98.578125 357.71875 98.570312 Z M 307.984375 8.832031 C 279.394531 5.328125 268.445312 15.066406 268.335938 15.164062 C 268.132812 15.351562 267.816406 15.339844 267.628906 15.136719 C 267.441406 14.933594 267.457031 14.617188 267.660156 14.429688 C 268.113281 14.011719 279.070312 4.277344 308.101562 7.839844 C 337.292969 11.417969 342.941406 51.714844 342.992188 52.121094 C 343.03125 52.394531 342.835938 52.644531 342.5625 52.683594 C 342.539062 52.683594 342.519531 52.6875 342.496094 52.6875 C 342.25 52.6875 342.035156 52.503906 342.003906 52.25 C 341.949219 51.851562 336.402344 12.316406 307.984375 8.832031 Z M 359.351562 53.003906 C 357.71875 42.863281 354.582031 29.335938 348.652344 17.914062 C 347.347656 15.398438 345.714844 13.210938 343.835938 11.300781 C 329.726562 -3.046875 301.003906 -1.234375 280.777344 3.195312 C 259.621094 7.824219 256.769531 26.96875 259.746094 24.59375 C 259.996094 24.398438 260.277344 24.066406 260.601562 23.546875 C 260.601562 23.546875 260.601562 23.546875 260.605469 23.546875 C 261.144531 22.671875 262.113281 21.683594 263.417969 20.648438 C 272.210938 13.699219 296.746094 4.710938 316.261719 14.902344 C 329.933594 22.046875 335.691406 41.207031 338.101562 55.0625 C 334.410156 56.671875 331.082031 58.945312 328.550781 61.890625 C 327.609375 62.980469 326.804688 64.144531 326.097656 65.359375 C 324.382812 68.3125 323.332031 71.574219 322.925781 74.941406 C 321.976562 82.804688 324.445312 91.199219 329.660156 97.320312 C 330.613281 98.441406 331.664062 99.511719 332.785156 100.515625 C 335.03125 102.523438 337.578125 104.253906 340.304688 105.5625 C 338.234375 107.042969 335.945312 108.378906 333.519531 109.566406 C 324.859375 113.804688 314.53125 116.136719 306.597656 116.308594 C 306.257812 115.660156 305.472656 115.050781 304.113281 114.578125 C 299.878906 113.121094 297.925781 113.035156 297.101562 115.277344 C 296.117188 117.945312 297.769531 119.960938 301.152344 120.117188 C 304.167969 120.261719 306.550781 118.851562 306.773438 117.3125 C 314.722656 117.144531 324.949219 114.929688 333.636719 110.742188 C 336.4375 109.390625 339.074219 107.832031 341.425781 106.074219 C 344.796875 107.519531 348.398438 108.296875 352.003906 108.113281 C 383.234375 106.511719 386.816406 78.859375 374.277344 62.199219 C 370.980469 57.820312 364.667969 54.277344 359.351562 53.003906" fill="#fef3e0"/></g><g id="change3_1"><path d="M 315.519531 139.679688 C 315.527344 139.675781 315.53125 139.667969 315.539062 139.664062 C 315.34375 139.703125 315.140625 139.75 314.945312 139.789062 C 315.136719 139.75 315.324219 139.71875 315.519531 139.679688" fill="#f6856d"/></g><g id="change3_2"><path d="M 334.703125 119.546875 C 331.332031 124.175781 327.785156 128.683594 323.703125 132.703125 C 321.109375 135.253906 318.382812 137.570312 315.539062 139.664062 C 322.167969 138.320312 329.984375 135.90625 337.515625 133.207031 C 336.382812 129.410156 335.453125 124.730469 334.703125 119.546875" fill="#f6856d"/></g><g id="change3_3"><path d="M 311.742188 140.34375 C 310.589844 140.511719 309.492188 140.632812 308.457031 140.703125 C 309.492188 140.632812 310.589844 140.511719 311.742188 140.34375" fill="#f6856d"/></g><g id="change3_4"><path d="M 312.578125 58.394531 C 309.566406 54.046875 307.933594 47.90625 307.933594 47.90625 C 307.933594 47.90625 308.140625 52.011719 306.800781 57.363281 C 306.535156 58.425781 305.953125 59.511719 305.128906 60.5625 C 308.492188 60.3125 311.789062 60.242188 314.335938 60.246094 C 313.648438 59.652344 313.050781 59.035156 312.578125 58.394531" fill="#f6856d"/></g><g id="change3_5"><path d="M 265.460938 74.746094 C 264.214844 73.359375 263 71.792969 261.816406 70.292969 C 260.742188 69.621094 259.8125 68.910156 259.023438 68.214844 C 258.929688 70.886719 258.742188 73.976562 258.597656 77.328125 C 258.671875 76.632812 258.835938 76.074219 259.085938 75.816406 C 260.535156 74.304688 262.984375 74.222656 265.460938 74.746094" fill="#f6856d"/></g><g id="change3_6"><path d="M 333.636719 110.742188 C 324.949219 114.929688 314.722656 117.144531 306.773438 117.3125 C 306.550781 118.851562 304.167969 120.261719 301.148438 120.117188 C 297.769531 119.960938 296.117188 117.945312 297.097656 115.277344 C 297.921875 113.035156 299.878906 113.121094 304.109375 114.578125 C 305.472656 115.050781 306.253906 115.660156 306.59375 116.308594 C 314.53125 116.136719 324.859375 113.804688 333.519531 109.566406 C 333.234375 106.601562 332.988281 103.566406 332.785156 100.515625 C 331.664062 99.511719 330.613281 98.441406 329.65625 97.320312 C 324.445312 91.199219 321.972656 82.804688 322.925781 74.941406 C 323.332031 71.574219 324.382812 68.3125 326.097656 65.359375 C 322.683594 64.804688 319.113281 63.480469 316.335938 61.71875 C 315.992188 61.890625 315.621094 62.074219 315.226562 62.273438 C 314.082031 66.226562 311.363281 69.910156 308.277344 72.691406 C 311.96875 72.324219 315.027344 72.386719 315.214844 72.9375 C 315.570312 73.992188 308.046875 75.820312 306.386719 76.011719 C 308.105469 77.617188 308.085938 80.636719 305.945312 82.277344 C 304.160156 83.644531 301.433594 83.84375 299.453125 82.84375 C 297.890625 82.054688 296.535156 79.632812 296.652344 78.660156 C 296.710938 78.171875 294.285156 78.894531 293.683594 78.699219 C 293.242188 78.558594 292.871094 77.664062 294.910156 76.355469 C 293.113281 75.109375 291.953125 73.597656 291.242188 72.269531 C 289.136719 72.445312 287.296875 71.828125 286.296875 69.355469 C 285.953125 68.648438 285.777344 67.84375 285.789062 67.035156 C 285.785156 67.035156 285.785156 67.035156 285.78125 67.035156 C 275.234375 65.292969 274.152344 42.292969 271.585938 43.296875 C 269.621094 44.066406 267.761719 57.484375 262.988281 63.191406 C 267.609375 63.003906 272.628906 63.757812 272.445312 67.96875 C 273.113281 66.933594 273.449219 65.386719 273.449219 64.09375 C 276.125 65.644531 276.460938 68.484375 275.457031 70.550781 C 275.117188 71.390625 274.679688 72.007812 274.171875 72.460938 C 274.429688 74.617188 274.09375 76.828125 273.109375 77.980469 C 273.476562 78.246094 273.675781 78.449219 273.644531 78.535156 C 273.402344 79.148438 267.550781 77.050781 267.804688 77.800781 C 268.605469 80.171875 268.058594 82.496094 266.027344 83.609375 C 264.082031 84.675781 262.15625 84.476562 260.332031 83.171875 C 259.121094 82.304688 258.585938 80.128906 258.554688 78.339844 C 257.800781 97.277344 258.789062 123.539062 285.117188 127.273438 C 286.996094 127.542969 288.988281 127.675781 291.050781 127.699219 C 304.703125 127.855469 321.738281 122.882812 334.140625 115.300781 C 333.960938 113.808594 333.792969 112.285156 333.636719 110.742188" fill="#f6856d"/></g><g id="change3_7"><path d="M 261.40625 285.847656 C 258.605469 284.117188 256.804688 281.296875 252.703125 278.367188 C 245.703125 273.367188 228.636719 267.140625 220.5 267.140625 C 218.238281 267.140625 216.398438 267.394531 214.953125 267.808594 C 214.40625 267.964844 213.917969 268.144531 213.488281 268.34375 C 209.261719 270.289062 210.484375 274.019531 216.5 275.046875 C 220.902344 275.800781 229.140625 278.925781 228.746094 280.113281 C 226.910156 284.242188 204.824219 274.433594 201.1875 272.78125 C 201.652344 276.707031 202.152344 280.816406 202.667969 285 C 202.777344 284.992188 202.894531 285.015625 202.992188 285.082031 C 203.070312 285.140625 211.21875 290.761719 222.375 290.761719 C 222.648438 290.761719 222.875 290.984375 222.875 291.261719 C 222.875 291.535156 222.648438 291.761719 222.375 291.761719 C 212.292969 291.761719 204.601562 287.292969 202.8125 286.160156 C 203.238281 289.585938 203.679688 293.058594 204.128906 296.515625 C 205.125 297.164062 212.027344 301.382812 222.375 301.382812 C 222.652344 301.382812 222.875 301.605469 222.875 301.882812 C 222.875 302.15625 222.652344 302.382812 222.375 302.382812 C 213.039062 302.382812 206.554688 299.128906 204.292969 297.796875 C 204.769531 301.449219 205.25 305.078125 205.738281 308.621094 C 206.851562 309.042969 209.746094 310.066406 214.335938 311.210938 C 221.835938 312.710938 227.207031 313.105469 218.707031 315.105469 C 217.707031 315.605469 212.808594 314.808594 209.667969 315.710938 C 206.527344 316.613281 208.984375 322.042969 215.667969 322.042969 C 222.351562 322.046875 223.667969 321.042969 234.835938 320.542969 C 241.59375 320.242188 258.546875 322.6875 270.878906 324.664062 C 267.308594 319.789062 264.40625 313.730469 262.453125 309.828125 C 259.457031 302.839844 258.453125 292.871094 261.40625 285.847656" fill="#f6856d"/></g><g id="change4_1"><path d="M 334.140625 115.300781 C 321.734375 122.882812 304.703125 127.855469 291.050781 127.699219 C 291.402344 129.449219 292.003906 131.179688 292.871094 132.785156 C 294.84375 136.417969 298.160156 139.398438 302.882812 140.457031 C 303.21875 140.53125 303.578125 140.589844 303.949219 140.636719 C 304.027344 140.648438 304.101562 140.65625 304.183594 140.667969 C 304.554688 140.710938 304.941406 140.742188 305.351562 140.761719 C 305.394531 140.765625 305.4375 140.765625 305.480469 140.765625 C 305.878906 140.78125 306.289062 140.785156 306.714844 140.78125 C 306.769531 140.78125 306.828125 140.78125 306.886719 140.777344 C 307.347656 140.769531 307.828125 140.75 308.320312 140.714844 C 308.367188 140.714844 308.410156 140.710938 308.457031 140.707031 C 309.492188 140.632812 310.589844 140.511719 311.742188 140.34375 C 311.761719 140.339844 311.785156 140.339844 311.808594 140.335938 C 312.992188 140.160156 314.230469 139.941406 315.519531 139.679688 C 318.367188 137.582031 321.101562 135.261719 323.703125 132.703125 C 327.78125 128.6875 331.332031 124.175781 334.703125 119.546875 C 334.503906 118.164062 334.316406 116.746094 334.140625 115.300781" fill="#e44949"/></g><g id="change4_2"><path d="M 294.910156 76.355469 C 295.660156 75.875 296.726562 75.339844 298.246094 74.761719 C 300.960938 73.730469 304.886719 73.027344 308.277344 72.691406 C 311.363281 69.910156 314.082031 66.226562 315.226562 62.273438 C 310.003906 64.878906 300.753906 69.378906 295.664062 71.164062 C 294.183594 71.683594 292.65625 72.15625 291.242188 72.273438 C 291.953125 73.597656 293.113281 75.113281 294.910156 76.355469" fill="#e44949"/></g><g id="change4_3"><path d="M 274.171875 72.460938 C 272.167969 74.246094 269.023438 73.390625 266.089844 72.359375 C 264.464844 71.789062 263.050781 71.066406 261.816406 70.296875 C 263 71.792969 264.214844 73.359375 265.460938 74.746094 C 268.640625 75.417969 271.867188 77.078125 273.109375 77.980469 C 274.09375 76.828125 274.429688 74.617188 274.171875 72.460938" fill="#e44949"/></g><g id="change4_4"><path d="M 273.273438 90.34375 C 273.089844 90.546875 273.105469 90.863281 273.3125 91.050781 C 273.40625 91.136719 273.527344 91.175781 273.644531 91.175781 C 273.78125 91.175781 273.917969 91.121094 274.019531 91.011719 C 274.199219 90.808594 274.402344 90.578125 274.617188 90.328125 C 276.074219 88.65625 278.480469 85.867188 280.464844 85.988281 C 282.289062 86.140625 286.3125 89.1875 287.082031 90.734375 C 287.207031 90.980469 287.507812 91.078125 287.753906 90.957031 C 288 90.832031 288.101562 90.53125 287.976562 90.285156 C 287.050781 88.433594 282.75 85.175781 280.539062 84.992188 C 278.074219 84.820312 275.542969 87.742188 273.863281 89.671875 C 273.648438 89.917969 273.453125 90.144531 273.273438 90.34375" fill="#e44949"/></g><g id="change4_5"><path d="M 293.824219 99.902344 C 293.871094 99.628906 293.6875 99.371094 293.414062 99.324219 C 291.644531 99.03125 289.933594 98.378906 288.113281 97.683594 C 285.9375 96.855469 283.6875 95.996094 281.328125 95.808594 C 278.523438 95.59375 276.726562 97.074219 275.003906 98.511719 C 273.917969 99.417969 272.796875 100.351562 271.414062 100.855469 C 271.15625 100.949219 271.023438 101.234375 271.117188 101.496094 C 271.191406 101.699219 271.382812 101.824219 271.585938 101.824219 C 271.644531 101.824219 271.699219 101.8125 271.757812 101.792969 C 273.304688 101.230469 274.492188 100.238281 275.644531 99.28125 C 277.285156 97.914062 278.839844 96.617188 281.25 96.804688 C 283.464844 96.980469 285.648438 97.816406 287.757812 98.617188 C 289.539062 99.300781 291.382812 100 293.25 100.3125 C 293.515625 100.359375 293.78125 100.171875 293.824219 99.902344" fill="#e44949"/></g><g id="change4_6"><path d="M 222.375 290.761719 C 211.21875 290.761719 203.070312 285.140625 202.992188 285.082031 C 202.894531 285.015625 202.78125 284.992188 202.667969 285 C 202.71875 285.386719 202.765625 285.773438 202.8125 286.160156 C 204.601562 287.292969 212.292969 291.761719 222.371094 291.761719 C 222.648438 291.761719 222.871094 291.535156 222.871094 291.261719 C 222.871094 290.984375 222.648438 290.761719 222.375 290.761719" fill="#e44949"/></g><g id="change4_7"><path d="M 222.375 301.382812 C 212.027344 301.382812 205.125 297.164062 204.125 296.515625 C 204.179688 296.941406 204.238281 297.371094 204.292969 297.796875 C 206.554688 299.128906 213.039062 302.382812 222.375 302.382812 C 222.648438 302.382812 222.875 302.15625 222.875 301.882812 C 222.875 301.605469 222.648438 301.382812 222.375 301.382812" fill="#e44949"/></g><g id="change5_1"><path d="M 305.128906 60.5625 C 305.953125 59.511719 306.535156 58.425781 306.800781 57.363281 C 308.140625 52.011719 307.933594 47.90625 307.933594 47.90625 C 307.933594 47.90625 309.566406 54.046875 312.578125 58.394531 C 313.050781 59.035156 313.648438 59.65625 314.335938 60.242188 C 311.789062 60.242188 308.492188 60.3125 305.128906 60.5625 Z M 316.257812 14.902344 C 296.746094 4.710938 272.207031 13.699219 263.417969 20.648438 C 262.394531 21.582031 261.457031 22.550781 260.601562 23.546875 C 260.28125 24.066406 259.996094 24.398438 259.746094 24.59375 C 258.339844 26.402344 257.214844 28.304688 256.414062 30.292969 C 252.601562 39.761719 250.613281 47.089844 250.15625 52.574219 C 249.699219 58.023438 250.765625 61.640625 253.070312 63.695312 C 251.050781 72.882812 248.777344 84.394531 247.351562 95.304688 C 245.667969 108.203125 245.171875 120.246094 247.683594 126.601562 C 248.390625 128.398438 249.339844 129.746094 250.570312 130.523438 C 257.359375 134.796875 266.96875 135.492188 276.316406 134.894531 C 276.363281 134.851562 276.417969 134.8125 276.480469 134.789062 C 276.636719 134.730469 276.800781 134.761719 276.929688 134.847656 C 282.597656 134.449219 288.136719 133.597656 292.875 132.785156 C 292.003906 131.183594 291.402344 129.449219 291.050781 127.699219 C 288.988281 127.675781 286.996094 127.542969 285.117188 127.277344 C 258.789062 123.542969 257.800781 97.28125 258.554688 78.339844 C 258.585938 80.132812 259.121094 82.308594 260.332031 83.171875 C 262.15625 84.480469 264.082031 84.675781 266.027344 83.609375 C 268.058594 82.5 268.605469 80.171875 267.804688 77.804688 C 267.550781 77.054688 273.402344 79.148438 273.644531 78.535156 C 273.679688 78.449219 273.476562 78.246094 273.109375 77.980469 C 271.871094 77.078125 268.644531 75.417969 265.460938 74.746094 C 262.984375 74.222656 260.539062 74.304688 259.085938 75.816406 C 258.839844 76.074219 258.671875 76.632812 258.597656 77.328125 C 258.742188 73.980469 258.929688 70.886719 259.023438 68.214844 C 259.8125 68.910156 260.742188 69.621094 261.816406 70.296875 C 263.050781 71.066406 264.464844 71.789062 266.089844 72.359375 C 269.023438 73.390625 272.167969 74.246094 274.171875 72.460938 C 274.679688 72.007812 275.117188 71.390625 275.457031 70.554688 C 276.460938 68.484375 276.125 65.644531 273.449219 64.09375 C 273.449219 65.386719 273.113281 66.9375 272.445312 67.96875 C 272.628906 63.757812 267.609375 63.003906 262.988281 63.191406 C 267.761719 57.484375 269.621094 44.066406 271.585938 43.296875 C 274.152344 42.292969 275.234375 65.296875 285.78125 67.035156 C 285.785156 67.039062 285.785156 67.039062 285.789062 67.039062 C 285.78125 67.847656 285.953125 68.648438 286.296875 69.355469 C 287.296875 71.828125 289.136719 72.445312 291.242188 72.273438 C 292.65625 72.15625 294.183594 71.683594 295.664062 71.164062 C 300.753906 69.378906 310.003906 64.878906 315.226562 62.273438 C 315.621094 62.074219 315.992188 61.890625 316.335938 61.71875 C 319.113281 63.480469 322.683594 64.804688 326.097656 65.359375 C 326.800781 64.144531 327.609375 62.980469 328.546875 61.890625 C 331.082031 58.945312 334.410156 56.671875 338.101562 55.0625 C 335.691406 41.207031 329.933594 22.046875 316.257812 14.902344" fill="#472015"/></g><g id="change5_2"><path d="M 308.277344 72.691406 C 304.886719 73.027344 300.960938 73.730469 298.246094 74.761719 C 296.726562 75.339844 295.660156 75.875 294.910156 76.355469 C 292.871094 77.664062 293.242188 78.558594 293.683594 78.699219 C 294.285156 78.894531 296.710938 78.175781 296.652344 78.660156 C 296.535156 79.632812 297.890625 82.054688 299.453125 82.84375 C 301.433594 83.84375 304.160156 83.644531 305.945312 82.277344 C 308.085938 80.640625 308.105469 77.617188 306.386719 76.015625 C 308.046875 75.820312 315.570312 73.996094 315.214844 72.9375 C 315.027344 72.390625 311.96875 72.324219 308.277344 72.691406" fill="#472015"/></g><g id="change5_3"><path d="M 407.386719 106.515625 C 406.820312 103.871094 401.953125 85.699219 392.03125 65.4375 C 384.367188 49.78125 373.691406 32.882812 359.648438 20.925781 C 354.914062 16.894531 349.558594 13.71875 343.835938 11.300781 C 345.71875 13.210938 347.347656 15.398438 348.652344 17.914062 C 354.582031 29.335938 357.714844 42.863281 359.351562 53.003906 C 364.667969 54.277344 370.980469 57.820312 374.273438 62.199219 C 386.816406 78.859375 383.230469 106.511719 352.003906 108.113281 C 348.398438 108.296875 344.796875 107.519531 341.425781 106.074219 C 339.074219 107.832031 336.4375 109.390625 333.636719 110.742188 C 333.789062 112.285156 333.960938 113.808594 334.140625 115.300781 C 334.316406 116.746094 334.503906 118.164062 334.703125 119.546875 C 335.453125 124.730469 336.382812 129.410156 337.515625 133.207031 C 339.25 139.015625 341.46875 142.753906 344.285156 143.035156 C 352.652344 144.039062 409.058594 112.871094 407.386719 106.515625" fill="#472015"/></g><g id="change5_4"><path d="M 332.785156 100.515625 C 332.988281 103.566406 333.234375 106.601562 333.519531 109.566406 C 335.941406 108.378906 338.230469 107.042969 340.304688 105.5625 C 337.578125 104.253906 335.03125 102.523438 332.785156 100.515625" fill="#472015"/></g></g></svg>