<?xml version="1.0" encoding="UTF-8"?><svg xmlns="http://www.w3.org/2000/svg" xmlns:xlink="http://www.w3.org/1999/xlink" height="441.7" preserveAspectRatio="xMidYMid meet" version="1.0" viewBox="0.0 0.0 485.3 441.7" width="485.3" zoomAndPan="magnify"><defs><clipPath id="a"><path d="M 0 13 L 475 13 L 475 441.738281 L 0 441.738281 Z M 0 13"/></clipPath><clipPath id="b"><path d="M 35 176 L 485.261719 176 L 485.261719 423 L 35 423 Z M 35 176"/></clipPath></defs><g><g id="change1_1"><path d="M 386.730469 387.507812 L 394.425781 421.9375 L 361.96875 421.9375 L 359.03125 408.789062 C 323.945312 430.046875 275.886719 440.871094 210.144531 434.367188 C 102.714844 423.738281 28.417969 354.765625 28.417969 246.8125 C 28.417969 138.855469 124.769531 0 232.722656 0 C 340.679688 0 452.191406 68.113281 452.191406 176.066406 C 452.191406 242.257812 443.855469 332.558594 386.730469 387.507812" fill="#5ec9cc"/></g><g clip-path="url(#a)" id="change2_1"><path d="M 80.164062 219.804688 C 80.183594 220.304688 80.21875 220.808594 80.285156 221.304688 C 80.523438 223.457031 81.195312 225.550781 82.164062 227.492188 C 82.839844 228.835938 83.683594 230.09375 84.65625 231.253906 C 85.046875 229.980469 85.441406 228.722656 85.816406 227.496094 C 83.300781 225.484375 81.355469 222.792969 80.164062 219.804688 Z M 140.253906 239.492188 C 140.128906 240.226562 139.96875 240.960938 139.785156 241.6875 C 140.449219 240.609375 140.996094 239.457031 141.398438 238.253906 C 142.832031 233.90625 142.730469 229.210938 142.617188 224.574219 C 142.546875 219.914062 142.574219 215.242188 142.804688 210.582031 C 142.957031 207.3125 143.203125 204.046875 143.527344 200.789062 C 143.230469 200.738281 142.933594 200.683594 142.636719 200.617188 C 139.871094 206.554688 139.765625 213.359375 140.148438 219.894531 C 140.53125 226.433594 141.347656 233.035156 140.253906 239.492188 Z M 144.097656 200.886719 C 143.957031 203.234375 143.84375 205.582031 143.75 207.929688 C 143.949219 205.574219 144.222656 203.234375 144.578125 200.9375 C 144.417969 200.917969 144.257812 200.910156 144.097656 200.886719 Z M 182.472656 156.980469 C 181.292969 158.800781 180.199219 160.703125 179.34375 162.683594 C 188.109375 162.472656 198.84375 164.9375 211.914062 170.960938 C 211.726562 168.675781 211.722656 166.367188 211.726562 164.074219 C 211.730469 162.453125 211.675781 160.722656 211.378906 159.097656 C 210.929688 158.84375 210.472656 158.609375 210 158.425781 C 209.320312 158.167969 208.625 157.960938 207.910156 157.847656 C 207.199219 157.71875 206.472656 157.679688 205.746094 157.695312 C 205.015625 157.71875 204.285156 157.832031 203.550781 157.996094 C 203.445312 158.023438 203.34375 157.957031 203.316406 157.855469 C 203.300781 157.769531 203.339844 157.6875 203.40625 157.644531 C 204.089844 157.234375 204.867188 156.984375 205.660156 156.855469 C 206.457031 156.71875 207.277344 156.738281 208.074219 156.859375 C 208.871094 156.996094 209.65625 157.238281 210.367188 157.621094 C 210.648438 157.769531 210.910156 157.945312 211.167969 158.128906 C 210.949219 157.292969 210.652344 156.503906 210.246094 155.785156 C 210.097656 155.75 209.945312 155.714844 209.796875 155.6875 C 209.324219 155.605469 208.855469 155.53125 208.382812 155.503906 C 207.910156 155.464844 207.4375 155.472656 206.957031 155.488281 C 206.476562 155.507812 205.996094 155.570312 205.492188 155.632812 C 205.386719 155.644531 205.285156 155.570312 205.273438 155.464844 C 205.261719 155.386719 205.300781 155.316406 205.355469 155.273438 C 205.800781 154.972656 206.308594 154.777344 206.835938 154.652344 C 207.359375 154.519531 207.90625 154.484375 208.445312 154.507812 C 208.792969 154.53125 209.136719 154.59375 209.472656 154.675781 C 209.242188 154.40625 208.984375 154.152344 208.703125 153.917969 C 208.003906 153.832031 207.308594 153.8125 206.628906 153.902344 C 205.910156 154 205.207031 154.171875 204.542969 154.449219 C 203.871094 154.714844 203.246094 155.082031 202.660156 155.511719 C 202.078125 155.949219 201.5625 156.476562 201.101562 157.074219 C 201.035156 157.160156 200.914062 157.175781 200.828125 157.113281 C 200.761719 157.0625 200.738281 156.96875 200.765625 156.890625 C 201.324219 155.363281 202.652344 154.15625 204.160156 153.527344 C 204.925781 153.214844 205.742188 153.023438 206.566406 153.019531 C 206.777344 153.015625 206.984375 153.023438 207.191406 153.039062 C 204.007812 151.890625 199.460938 153.8125 198.554688 157.070312 C 198.289062 154.179688 195.992188 151.6875 193.238281 150.890625 C 193.464844 151.070312 193.695312 151.246094 193.90625 151.449219 C 194.519531 152.058594 195.050781 152.75 195.441406 153.515625 C 195.835938 154.28125 196.113281 155.105469 196.199219 155.949219 C 196.207031 156.054688 196.132812 156.148438 196.023438 156.160156 C 195.9375 156.167969 195.859375 156.117188 195.828125 156.042969 C 195.515625 155.296875 195.152344 154.59375 194.714844 153.945312 C 194.269531 153.304688 193.777344 152.699219 193.210938 152.164062 C 192.65625 151.625 192.035156 151.15625 191.375 150.738281 C 191.3125 150.699219 191.246094 150.667969 191.183594 150.632812 C 191.085938 150.636719 190.988281 150.632812 190.890625 150.640625 C 190.035156 150.710938 189.226562 150.933594 188.460938 151.269531 C 189.003906 151.316406 189.542969 151.421875 190.0625 151.582031 C 191.726562 152.113281 193.25 153.261719 194.015625 154.816406 C 194.0625 154.910156 194.023438 155.027344 193.929688 155.074219 C 193.851562 155.113281 193.757812 155.089844 193.699219 155.03125 C 193.148438 154.433594 192.546875 153.917969 191.882812 153.503906 C 191.214844 153.09375 190.507812 152.757812 189.761719 152.535156 C 189.023438 152.300781 188.25 152.175781 187.472656 152.136719 C 187.277344 152.128906 187.085938 152.148438 186.890625 152.15625 C 186.390625 152.5 185.910156 152.886719 185.457031 153.3125 C 185.730469 153.289062 186.003906 153.28125 186.273438 153.285156 C 186.796875 153.308594 187.320312 153.367188 187.820312 153.507812 C 188.324219 153.636719 188.816406 153.816406 189.269531 154.085938 C 189.359375 154.140625 189.390625 154.261719 189.335938 154.355469 C 189.296875 154.421875 189.226562 154.453125 189.152344 154.449219 L 187.6875 154.339844 C 187.203125 154.316406 186.730469 154.285156 186.253906 154.285156 C 185.777344 154.273438 185.300781 154.289062 184.820312 154.296875 L 184.484375 154.3125 C 183.738281 155.148438 183.066406 156.058594 182.472656 156.980469 Z M 78.898438 214.546875 C 78.46875 209.535156 80.175781 204.375 83.511719 200.609375 C 87.007812 196.664062 92.234375 194.097656 94.363281 189.273438 C 96.75 183.859375 94.394531 177.679688 93.695312 171.804688 C 93.515625 170.304688 93.464844 168.792969 93.523438 167.289062 C 93.328125 168.269531 93.195312 169.261719 93.140625 170.265625 C 92.859375 173.988281 93.320312 177.8125 92.75 181.660156 C 92.457031 183.570312 91.898438 185.457031 90.960938 187.167969 C 90.015625 188.863281 88.640625 190.367188 86.902344 191.253906 C 86.808594 191.304688 86.691406 191.265625 86.644531 191.171875 C 86.597656 191.082031 86.632812 190.96875 86.71875 190.917969 C 88.332031 189.984375 89.550781 188.503906 90.363281 186.851562 C 91.199219 185.203125 91.6875 183.382812 91.914062 181.542969 C 92.367188 177.84375 91.914062 174.046875 92.144531 170.199219 C 92.316406 167.46875 93.003906 164.757812 94.164062 162.273438 C 95.957031 153.746094 101.328125 145.929688 108.917969 141.597656 C 117.058594 136.949219 127.472656 135.4375 133.652344 128.386719 C 142.308594 118.511719 155.859375 113.152344 168.929688 114.429688 C 176.671875 115.1875 184.117188 118.277344 190.277344 123.019531 C 202.347656 115.640625 218.65625 124.605469 226.070312 133.351562 C 234.058594 142.769531 235.609375 157.136719 229.8125 168.039062 C 228.128906 171.214844 225.84375 174.21875 225.335938 177.777344 C 224.824219 181.335938 227.339844 185.011719 230.933594 184.941406 C 228.074219 187.847656 223.148438 188.007812 219.613281 185.980469 C 218.140625 185.136719 216.902344 183.972656 215.867188 182.632812 C 215.542969 197.371094 216.164062 225.339844 224.625 239.039062 C 236.429688 258.152344 223.488281 285.976562 223.488281 285.976562 C 223.488281 285.976562 160.78125 284.953125 150.515625 262.222656 C 147.664062 255.90625 144.636719 242.785156 143.652344 228.085938 C 143.644531 231.597656 143.417969 235.148438 142.234375 238.542969 C 141.535156 240.492188 140.484375 242.3125 139.128906 243.878906 C 137.464844 248.71875 134.410156 253.082031 129.878906 255.304688 C 125.136719 257.628906 119.535156 257.300781 114.347656 256.316406 C 109.164062 255.332031 104.015625 254.179688 98.757812 253.683594 C 93.140625 253.152344 88.820312 253.113281 83.023438 255.972656 C 81.582031 253.183594 81.273438 249.808594 81.714844 244.261719 C 82.039062 240.203125 83.21875 235.957031 84.460938 231.886719 C 83.265625 230.714844 82.242188 229.359375 81.421875 227.886719 C 80.308594 225.902344 79.597656 223.691406 79.292969 221.425781 C 79.128906 219.984375 79.152344 218.527344 79.324219 217.09375 C 79.128906 216.253906 78.972656 215.40625 78.898438 214.546875 Z M 410.039062 77.683594 L 410.039062 80.683594 L 422.53125 80.683594 L 422.53125 77.683594 Z M 410.039062 103.285156 L 426.703125 103.285156 L 426.703125 100.285156 L 410.039062 100.285156 Z M 422.796875 99.707031 L 434.820312 99.707031 L 434.820312 96.707031 L 422.796875 96.707031 Z M 410.039062 99.707031 L 422.53125 99.707031 L 422.53125 96.707031 L 410.039062 96.707031 Z M 410.039062 96.132812 L 432.542969 96.132812 L 432.542969 93.132812 L 410.039062 93.132812 Z M 410.039062 91.414062 L 426.703125 91.414062 L 426.703125 88.414062 L 410.039062 88.414062 Z M 437.550781 84.839844 L 422.796875 84.839844 L 422.796875 87.839844 L 437.550781 87.839844 Z M 410.039062 87.839844 L 422.53125 87.839844 L 422.53125 84.839844 L 410.039062 84.839844 Z M 410.039062 84.261719 L 432.542969 84.261719 L 432.542969 81.261719 L 410.039062 81.261719 Z M 377.964844 75.472656 L 402.746094 75.472656 L 402.746094 72.472656 L 377.964844 72.472656 Z M 400.46875 46.070312 L 377.964844 46.070312 L 377.964844 49.070312 L 400.46875 49.070312 Z M 377.964844 72.019531 L 394.628906 72.019531 L 394.628906 69.019531 L 377.964844 69.019531 Z M 402.746094 65.441406 L 390.71875 65.441406 L 390.71875 68.441406 L 402.746094 68.441406 Z M 377.964844 68.441406 L 390.453125 68.441406 L 390.453125 65.441406 L 377.964844 65.441406 Z M 377.964844 64.863281 L 400.46875 64.863281 L 400.46875 61.863281 L 377.964844 61.863281 Z M 377.964844 60.148438 L 394.628906 60.148438 L 394.628906 57.148438 L 377.964844 57.148438 Z M 405.476562 53.570312 L 390.71875 53.570312 L 390.71875 56.570312 L 405.476562 56.570312 Z M 377.964844 56.570312 L 390.453125 56.570312 L 390.453125 53.570312 L 377.964844 53.570312 Z M 377.964844 52.996094 L 400.46875 52.996094 L 400.46875 49.996094 L 377.964844 49.996094 Z M 433.222656 41.773438 L 410.71875 41.773438 L 410.71875 44.773438 L 433.222656 44.773438 Z M 427.382812 38.226562 L 410.71875 38.226562 L 410.71875 41.226562 L 427.382812 41.226562 Z M 423.472656 37.648438 L 435.5 37.648438 L 435.5 34.648438 L 423.472656 34.648438 Z M 423.210938 34.648438 L 410.71875 34.648438 L 410.71875 37.648438 L 423.210938 37.648438 Z M 433.222656 31.074219 L 410.71875 31.074219 L 410.71875 34.074219 L 433.222656 34.074219 Z M 427.382812 26.355469 L 410.71875 26.355469 L 410.71875 29.355469 L 427.382812 29.355469 Z M 423.472656 25.777344 L 438.230469 25.777344 L 438.230469 22.777344 L 423.472656 22.777344 Z M 423.210938 22.777344 L 410.71875 22.777344 L 410.71875 25.777344 L 423.210938 25.777344 Z M 433.222656 19.203125 L 410.71875 19.203125 L 410.71875 22.203125 L 433.222656 22.203125 Z M 436.410156 49.070312 L 412.539062 49.070312 L 412.539062 72.941406 L 436.410156 72.941406 Z M 439.410156 75.941406 L 409.539062 75.941406 L 409.539062 46.070312 L 439.410156 46.070312 Z M 404.332031 80.683594 L 380.464844 80.683594 L 380.464844 99.8125 L 404.332031 99.8125 Z M 407.332031 102.8125 L 377.464844 102.8125 L 377.464844 77.683594 L 407.332031 77.683594 Z M 404.332031 22.203125 L 380.464844 22.203125 L 380.464844 41.773438 L 404.332031 41.773438 Z M 407.332031 44.773438 L 377.464844 44.773438 L 377.464844 19.203125 L 407.332031 19.203125 Z M 429.886719 191.269531 L 413.222656 191.269531 L 413.222656 194.269531 L 429.886719 194.269531 Z M 440.734375 187.691406 L 425.976562 187.691406 L 425.976562 190.691406 L 440.734375 190.691406 Z M 413.222656 190.691406 L 425.710938 190.691406 L 425.710938 187.691406 L 413.222656 187.691406 Z M 435.726562 184.117188 L 413.222656 184.117188 L 413.222656 187.117188 L 435.726562 187.117188 Z M 413.222656 173.058594 L 429.886719 173.058594 L 429.886719 170.058594 L 413.222656 170.058594 Z M 440.734375 166.480469 L 425.976562 166.480469 L 425.976562 169.480469 L 440.734375 169.480469 Z M 413.222656 169.480469 L 425.710938 169.480469 L 425.710938 166.480469 L 413.222656 166.480469 Z M 435.726562 162.902344 L 413.222656 162.902344 L 413.222656 165.902344 L 435.726562 165.902344 Z M 413.222656 151.84375 L 429.886719 151.84375 L 429.886719 148.84375 L 413.222656 148.84375 Z M 440.734375 145.269531 L 425.976562 145.269531 L 425.976562 148.269531 L 440.734375 148.269531 Z M 413.222656 148.269531 L 425.710938 148.269531 L 425.710938 145.269531 L 413.222656 145.269531 Z M 435.726562 141.691406 L 413.222656 141.691406 L 413.222656 144.691406 L 435.726562 144.691406 Z M 394.382812 194.847656 L 405.6875 194.847656 L 405.6875 183.539062 L 394.382812 183.539062 Z M 391.382812 180.539062 L 408.6875 180.539062 L 408.6875 197.847656 L 391.382812 197.847656 Z M 405.6875 162.328125 L 394.382812 162.328125 L 394.382812 173.632812 L 405.6875 173.632812 Z M 408.6875 176.632812 L 391.382812 176.632812 L 391.382812 159.328125 L 408.6875 159.328125 Z M 405.6875 141.117188 L 394.382812 141.117188 L 394.382812 152.421875 L 405.6875 152.421875 Z M 408.6875 155.421875 L 391.382812 155.421875 L 391.382812 138.117188 L 408.6875 138.117188 Z M 375.492188 191.269531 L 358.832031 191.269531 L 358.832031 194.269531 L 375.492188 194.269531 Z M 371.585938 190.691406 L 386.34375 190.691406 L 386.34375 187.691406 L 371.585938 187.691406 Z M 371.320312 187.691406 L 358.832031 187.691406 L 358.832031 190.691406 L 371.320312 190.691406 Z M 381.335938 184.117188 L 358.832031 184.117188 L 358.832031 187.117188 L 381.335938 187.117188 Z M 375.492188 148.84375 L 358.832031 148.84375 L 358.832031 151.84375 L 375.492188 151.84375 Z M 371.585938 148.269531 L 386.34375 148.269531 L 386.34375 145.269531 L 371.585938 145.269531 Z M 371.320312 145.269531 L 358.832031 145.269531 L 358.832031 148.269531 L 371.320312 148.269531 Z M 381.335938 141.691406 L 358.832031 141.691406 L 358.832031 144.691406 L 381.335938 144.691406 Z M 339.992188 194.847656 L 351.296875 194.847656 L 351.296875 183.539062 L 339.992188 183.539062 Z M 336.992188 180.539062 L 354.296875 180.539062 L 354.296875 197.847656 L 336.992188 197.847656 Z M 351.296875 141.117188 L 339.992188 141.117188 L 339.992188 152.421875 L 351.296875 152.421875 Z M 354.296875 155.421875 L 336.992188 155.421875 L 336.992188 138.117188 L 354.296875 138.117188 Z M 348.933594 13.808594 L 274.800781 13.808594 L 274.800781 108.207031 L 348.933594 108.207031 Z M 475 427.628906 C 475 435.421875 368.667969 441.738281 237.5 441.738281 C 106.332031 441.738281 0 435.421875 0 427.628906 C 0 420.800781 81.589844 415.105469 189.988281 413.796875 L 165.390625 352.671875 C 164.875 351.371094 165.511719 349.898438 166.8125 349.382812 C 168.113281 348.867188 169.585938 349.503906 170.101562 350.804688 L 195.425781 413.734375 C 209.082031 413.589844 223.140625 413.515625 237.5 413.515625 C 282.542969 413.515625 324.65625 414.261719 360.542969 415.554688 L 361.96875 421.9375 L 394.425781 421.9375 L 393.316406 416.976562 C 443.359375 419.5625 475 423.375 475 427.628906" fill="#f25044"/></g><g id="change3_1"><path d="M 284.671875 98.871094 L 323 98.871094 L 323 97.871094 L 284.671875 97.871094 Z M 339.0625 91.773438 L 284.671875 91.773438 L 284.671875 92.773438 L 339.0625 92.773438 Z M 339.0625 85.671875 L 284.671875 85.671875 L 284.671875 86.671875 L 339.0625 86.671875 Z M 339.0625 79.574219 L 284.671875 79.574219 L 284.671875 80.574219 L 339.0625 80.574219 Z M 339.0625 73.472656 L 284.671875 73.472656 L 284.671875 74.472656 L 339.0625 74.472656 Z M 339.0625 67.371094 L 284.671875 67.371094 L 284.671875 68.371094 L 339.0625 68.371094 Z M 338.5625 26.039062 L 285.171875 26.039062 L 285.171875 60.507812 L 338.5625 60.507812 Z M 339.5625 61.507812 L 284.171875 61.507812 L 284.171875 25.039062 L 339.5625 25.039062 Z M 352.296875 140.117188 L 338.992188 140.117188 L 338.992188 153.421875 L 352.296875 153.421875 Z M 296.578125 164.757812 L 295.871094 164.050781 L 289.070312 170.851562 L 286.636719 168.414062 L 285.929688 169.121094 L 289.070312 172.265625 Z M 297.90625 174.632812 L 284.601562 174.632812 L 284.601562 161.328125 L 297.90625 161.328125 Z M 439.734375 146.269531 L 426.976562 146.269531 L 426.976562 147.269531 L 439.734375 147.269531 Z M 439.734375 167.480469 L 426.976562 167.480469 L 426.976562 168.480469 L 439.734375 168.480469 Z M 439.734375 188.691406 L 426.976562 188.691406 L 426.976562 189.691406 L 439.734375 189.691406 Z M 428.886719 192.269531 L 414.222656 192.269531 L 414.222656 193.269531 L 428.886719 193.269531 Z M 407.6875 139.117188 L 392.382812 139.117188 L 392.382812 154.421875 L 407.6875 154.421875 Z M 407.6875 160.328125 L 392.382812 160.328125 L 392.382812 175.632812 L 407.6875 175.632812 Z M 407.6875 181.539062 L 392.382812 181.539062 L 392.382812 196.847656 L 407.6875 196.847656 Z M 385.34375 146.269531 L 372.585938 146.269531 L 372.585938 147.269531 L 385.34375 147.269531 Z M 385.34375 167.480469 L 372.585938 167.480469 L 372.585938 168.480469 L 385.34375 168.480469 Z M 385.34375 188.691406 L 372.585938 188.691406 L 372.585938 189.691406 L 385.34375 189.691406 Z M 374.492188 192.269531 L 359.832031 192.269531 L 359.832031 193.269531 L 374.492188 193.269531 Z M 353.296875 139.117188 L 337.992188 139.117188 L 337.992188 154.421875 L 353.296875 154.421875 Z M 353.296875 160.328125 L 337.992188 160.328125 L 337.992188 175.632812 L 353.296875 175.632812 Z M 353.296875 181.539062 L 337.992188 181.539062 L 337.992188 196.847656 L 353.296875 196.847656 Z M 330.949219 146.269531 L 318.195312 146.269531 L 318.195312 147.269531 L 330.949219 147.269531 Z M 330.949219 167.480469 L 318.195312 167.480469 L 318.195312 168.480469 L 330.949219 168.480469 Z M 330.949219 188.691406 L 318.195312 188.691406 L 318.195312 189.691406 L 330.949219 189.691406 Z M 320.101562 192.269531 L 305.4375 192.269531 L 305.4375 193.269531 L 320.101562 193.269531 Z M 298.90625 139.117188 L 283.601562 139.117188 L 283.601562 154.421875 L 298.90625 154.421875 Z M 298.90625 160.328125 L 283.601562 160.328125 L 283.601562 175.632812 L 298.90625 175.632812 Z M 298.90625 181.539062 L 283.601562 181.539062 L 283.601562 196.847656 L 298.90625 196.847656 Z M 305.4375 189.691406 L 315.929688 189.691406 L 315.929688 188.691406 L 305.4375 188.691406 Z M 305.4375 186.117188 L 325.945312 186.117188 L 325.945312 185.117188 L 305.4375 185.117188 Z M 305.4375 172.058594 L 320.101562 172.058594 L 320.101562 171.058594 L 305.4375 171.058594 Z M 305.4375 168.480469 L 315.929688 168.480469 L 315.929688 167.480469 L 305.4375 167.480469 Z M 305.4375 164.902344 L 325.945312 164.902344 L 325.945312 163.902344 L 305.4375 163.902344 Z M 305.4375 150.84375 L 320.101562 150.84375 L 320.101562 149.84375 L 305.4375 149.84375 Z M 305.4375 147.269531 L 315.929688 147.269531 L 315.929688 146.269531 L 305.4375 146.269531 Z M 305.4375 143.691406 L 325.945312 143.691406 L 325.945312 142.691406 L 305.4375 142.691406 Z M 359.832031 189.691406 L 370.320312 189.691406 L 370.320312 188.691406 L 359.832031 188.691406 Z M 359.832031 186.117188 L 380.335938 186.117188 L 380.335938 185.117188 L 359.832031 185.117188 Z M 359.832031 172.058594 L 374.492188 172.058594 L 374.492188 171.058594 L 359.832031 171.058594 Z M 359.832031 168.480469 L 370.320312 168.480469 L 370.320312 167.480469 L 359.832031 167.480469 Z M 359.832031 164.902344 L 380.335938 164.902344 L 380.335938 163.902344 L 359.832031 163.902344 Z M 359.832031 150.84375 L 374.492188 150.84375 L 374.492188 149.84375 L 359.832031 149.84375 Z M 359.832031 147.269531 L 370.320312 147.269531 L 370.320312 146.269531 L 359.832031 146.269531 Z M 359.832031 143.691406 L 380.335938 143.691406 L 380.335938 142.691406 L 359.832031 142.691406 Z M 414.222656 189.691406 L 424.710938 189.691406 L 424.710938 188.691406 L 414.222656 188.691406 Z M 414.222656 186.117188 L 434.726562 186.117188 L 434.726562 185.117188 L 414.222656 185.117188 Z M 414.222656 172.058594 L 428.886719 172.058594 L 428.886719 171.058594 L 414.222656 171.058594 Z M 414.222656 168.480469 L 424.710938 168.480469 L 424.710938 167.480469 L 414.222656 167.480469 Z M 414.222656 164.902344 L 434.726562 164.902344 L 434.726562 163.902344 L 414.222656 163.902344 Z M 414.222656 150.84375 L 428.886719 150.84375 L 428.886719 149.84375 L 414.222656 149.84375 Z M 414.222656 147.269531 L 424.710938 147.269531 L 424.710938 146.269531 L 414.222656 146.269531 Z M 414.222656 143.691406 L 434.726562 143.691406 L 434.726562 142.691406 L 414.222656 142.691406 Z M 449.03125 206.492188 L 274.800781 206.492188 L 274.800781 126.652344 L 449.03125 126.652344 Z M 296.578125 185.96875 L 295.871094 185.261719 L 289.070312 192.0625 L 286.636719 189.628906 L 285.929688 190.335938 L 289.070312 193.476562 Z M 297.90625 195.847656 L 284.601562 195.847656 L 284.601562 182.539062 L 297.90625 182.539062 Z M 352.296875 182.539062 L 338.992188 182.539062 L 338.992188 195.847656 L 352.296875 195.847656 Z M 350.96875 164.757812 L 350.261719 164.050781 L 343.460938 170.851562 L 341.027344 168.414062 L 340.320312 169.121094 L 343.460938 172.265625 Z M 352.296875 174.632812 L 338.992188 174.632812 L 338.992188 161.328125 L 352.296875 161.328125 Z M 406.6875 182.539062 L 393.382812 182.539062 L 393.382812 195.847656 L 406.6875 195.847656 Z M 406.6875 161.328125 L 393.382812 161.328125 L 393.382812 174.632812 L 406.6875 174.632812 Z M 406.6875 140.117188 L 393.382812 140.117188 L 393.382812 153.421875 L 406.6875 153.421875 Z M 296.578125 143.546875 L 295.871094 142.839844 L 289.070312 149.636719 L 286.636719 147.203125 L 285.929688 147.910156 L 289.070312 151.050781 Z M 297.90625 153.421875 L 284.601562 153.421875 L 284.601562 140.117188 L 297.90625 140.117188 Z M 479.054688 222.535156 C 478.980469 222.480469 478.90625 222.429688 478.828125 222.378906 L 478.828125 222.375 C 478.125 221.890625 477.269531 221.597656 476.335938 221.597656 L 267.019531 221.597656 C 264.886719 221.597656 263.0625 223.121094 262.683594 225.21875 L 234.230469 383.527344 C 233.910156 385.316406 234.714844 387.003906 236.09375 387.945312 L 240.304688 390.917969 L 243.554688 388.710938 L 354.542969 388.710938 L 347.621094 357.730469 L 380.074219 357.730469 L 386.996094 388.710938 L 447.882812 388.710938 C 450.011719 388.710938 451.839844 387.183594 452.214844 385.085938 L 480.523438 227.589844 L 483.414062 225.621094 Z M 193.316406 353.875 C 193.679688 353.875 194.023438 353.714844 194.253906 353.441406 C 194.75 352.859375 195.203125 352.195312 195.675781 351.355469 C 196.046875 350.703125 196.390625 349.960938 196.722656 349.078125 C 197.046875 348.179688 197.261719 347.417969 197.402344 346.6875 C 197.589844 345.757812 197.683594 344.9375 197.6875 344.175781 C 197.691406 343.65625 197.363281 343.195312 196.863281 343.03125 L 196.652344 342.976562 L 196.496094 342.976562 C 195.976562 342.976562 195.519531 343.308594 195.359375 343.800781 L 194.664062 345.941406 L 194.511719 346.375 C 194.320312 346.929688 194.128906 347.480469 193.910156 348.039062 C 193.699219 348.601562 193.472656 349.15625 193.242188 349.710938 L 193.09375 350.074219 L 192.1875 352.167969 C 191.976562 352.667969 192.113281 353.238281 192.527344 353.585938 C 192.75 353.773438 193.027344 353.875 193.316406 353.875 Z M 176.210938 365.984375 L 176.585938 365.441406 C 178.203125 363.09375 179.667969 360.714844 180.933594 358.371094 C 182.894531 354.753906 184.636719 350.808594 186.121094 346.640625 C 187.570312 342.429688 188.671875 338.257812 189.386719 334.246094 C 190.148438 330.050781 190.558594 325.757812 190.609375 321.496094 C 190.613281 320.859375 190.125 320.335938 189.417969 320.292969 C 188.789062 320.292969 188.269531 320.78125 188.230469 321.40625 C 187.972656 325.476562 187.421875 329.617188 186.59375 333.710938 C 185.730469 337.929688 184.621094 341.945312 183.289062 345.65625 C 181.988281 349.410156 180.339844 353.234375 178.382812 357.023438 C 177.371094 358.972656 176.238281 360.976562 175 362.980469 L 175.464844 364.132812 C 175.554688 364.335938 175.761719 364.875 175.761719 364.875 C 176.054688 365.535156 176.210938 365.984375 176.210938 365.984375 Z M 103.261719 328.480469 C 103.074219 328.367188 102.863281 328.308594 102.644531 328.308594 C 102.230469 328.308594 101.839844 328.527344 101.625 328.882812 C 100.984375 329.945312 100.402344 331.019531 99.722656 332.296875 C 99.328125 333.039062 98.957031 333.789062 98.582031 334.542969 C 98.382812 334.945312 98.183594 335.347656 97.964844 335.777344 L 97.457031 336.863281 C 97.078125 337.667969 96.699219 338.472656 96.339844 339.289062 C 95.84375 340.425781 95.316406 341.636719 94.84375 342.902344 C 94.640625 343.457031 94.859375 344.082031 95.363281 344.382812 C 95.554688 344.496094 95.773438 344.558594 95.996094 344.558594 C 96.425781 344.558594 96.828125 344.328125 97.046875 343.964844 C 97.746094 342.796875 98.390625 341.585938 98.941406 340.535156 C 99.347656 339.75 99.742188 338.953125 100.132812 338.160156 L 100.679688 337.046875 C 100.867188 336.636719 101.058594 336.222656 101.25 335.8125 C 101.601562 335.054688 101.953125 334.296875 102.285156 333.53125 C 102.863281 332.203125 103.335938 331.078125 103.765625 329.914062 C 103.960938 329.378906 103.75 328.773438 103.261719 328.480469 Z M 106.976562 266.167969 C 104.886719 264.042969 102.511719 262.382812 99.914062 261.234375 L 99.644531 261.136719 L 99.433594 261.136719 C 98.980469 261.136719 98.558594 261.398438 98.363281 261.804688 C 98.222656 262.089844 98.203125 262.414062 98.308594 262.714844 C 98.414062 263.015625 98.628906 263.257812 98.914062 263.398438 C 103.257812 265.503906 106.96875 269.425781 109.359375 274.433594 C 111.578125 279.097656 112.679688 284.351562 112.539062 289.644531 C 112.445312 294.335938 111.5 299.445312 109.648438 305.265625 C 108.027344 310.351562 105.914062 315.40625 103.875 320.296875 L 103.820312 320.425781 C 103.566406 321.035156 103.839844 321.730469 104.441406 322.007812 L 104.734375 322.121094 L 104.953125 322.121094 C 105.429688 322.121094 105.863281 321.84375 106.066406 321.410156 C 108.296875 316.601562 110.621094 311.460938 112.390625 306.160156 C 114.371094 300.253906 115.398438 294.871094 115.535156 289.703125 C 115.632812 283.835938 114.382812 278.121094 111.910156 273.183594 C 110.5625 270.503906 108.902344 268.144531 106.976562 266.167969 Z M 172.804688 309.1875 L 172.960938 309.183594 L 173.039062 309.171875 C 173.5625 309.085938 174.007812 308.730469 174.199219 308.234375 C 174.316406 307.9375 185.742188 278.320312 182.3125 249.785156 L 181.296875 249.71875 L 179.296875 249.628906 L 179.285156 249.730469 L 179.304688 249.867188 C 182.171875 273.03125 174.90625 297.03125 172.28125 304.699219 L 131.011719 254.683594 C 130.644531 254.902344 130.265625 255.113281 129.878906 255.304688 C 129.332031 255.570312 128.773438 255.800781 128.207031 256 L 171.648438 308.644531 C 171.933594 308.988281 172.355469 309.1875 172.804688 309.1875 Z M 220.988281 414.835938 L 278.355469 436.246094 L 178.316406 436.246094 L 152.414062 417.664062 C 153.734375 417.730469 155.128906 417.714844 156.605469 417.5625 C 165.4375 416.648438 167.621094 415.210938 168.058594 414.835938 L 168.527344 414.835938 L 176.453125 416.875 C 178.304688 417.351562 180.234375 416.5 181.148438 414.835938 L 190.40625 414.835938 L 191.355469 417.1875 C 191.488281 417.519531 191.703125 417.8125 191.980469 418.035156 L 194.929688 420.414062 C 195.207031 420.636719 195.621094 420.472656 195.671875 420.121094 L 196.191406 416.363281 C 196.238281 416.011719 196.195312 415.652344 196.066406 415.320312 L 195.867188 414.835938 L 220.988281 414.835938" fill="#fff"/></g><g id="change4_1"><path d="M 233.328125 281.246094 C 228.777344 275.65625 225.785156 268.425781 222.117188 261.785156 C 224.71875 257.953125 225.46875 253.023438 228.246094 249.289062 C 231.40625 245.046875 236.824219 242.890625 239.824219 238.53125 C 242.203125 235.074219 242.742188 230.613281 242.175781 226.453125 C 241.980469 225.042969 241.664062 223.65625 241.28125 222.289062 C 241.625 221.03125 241.414062 219.421875 240.765625 218.363281 C 240.519531 218.398438 240.273438 218.4375 240.027344 218.476562 C 239.59375 217.289062 239.128906 216.109375 238.65625 214.9375 C 238.847656 214.765625 238.996094 214.582031 239.085938 214.382812 C 239.703125 212.960938 239.046875 210.699219 237.617188 210.097656 C 236.40625 209.589844 235.1875 209.109375 233.957031 208.652344 C 237.300781 209.035156 239.03125 205.296875 236.660156 202.519531 C 233.929688 199.316406 228.984375 196.734375 225.65625 194.105469 C 224.890625 193.496094 224.101562 192.878906 223.164062 192.605469 C 222.226562 192.335938 221.09375 192.488281 220.472656 193.242188 C 219.398438 194.53125 220.398438 196.445312 221.394531 197.792969 C 224.28125 201.703125 227.394531 205.757812 231.722656 207.871094 C 228.574219 206.789062 225.378906 205.855469 222.132812 205.109375 C 221.109375 205.882812 220.867188 207.398438 221.28125 208.613281 C 221.691406 209.832031 222.621094 210.800781 223.601562 211.632812 C 224.644531 212.523438 225.78125 213.304688 226.984375 213.96875 C 226.933594 213.992188 226.878906 214.015625 226.828125 214.046875 C 226.019531 214.511719 225.269531 215.0625 224.574219 215.679688 C 224.691406 214.9375 224.609375 214.210938 224.226562 213.574219 C 220.097656 214.246094 215.957031 213.847656 211.816406 213.28125 C 205.648438 226.128906 201.65625 240.015625 200.054688 254.175781 C 199.035156 257.035156 198.710938 259.886719 199.992188 262.136719 C 199.988281 262.136719 199.980469 262.136719 199.976562 262.136719 C 208.207031 280.503906 216.433594 298.871094 224.664062 317.238281 C 229.53125 328.113281 234.433594 339.011719 240.378906 349.320312 L 249.390625 299.195312 C 243.761719 293.464844 238.398438 287.472656 233.328125 281.246094 Z M 405.332031 79.683594 L 379.464844 79.683594 L 379.464844 100.8125 L 405.332031 100.8125 Z M 438.410156 47.070312 L 410.539062 47.070312 L 410.539062 74.941406 L 438.410156 74.941406 Z M 436.550781 85.839844 L 423.796875 85.839844 L 423.796875 86.839844 L 436.550781 86.839844 Z M 433.820312 97.707031 L 423.796875 97.707031 L 423.796875 98.707031 L 433.820312 98.707031 Z M 411.039062 97.707031 L 411.039062 98.707031 L 421.53125 98.707031 L 421.53125 97.707031 Z M 411.039062 94.132812 L 411.039062 95.132812 L 431.542969 95.132812 L 431.542969 94.132812 Z M 411.039062 89.414062 L 411.039062 90.414062 L 425.703125 90.414062 L 425.703125 89.414062 Z M 411.039062 85.839844 L 411.039062 86.839844 L 421.53125 86.839844 L 421.53125 85.839844 Z M 421.53125 79.683594 L 421.53125 78.683594 L 411.039062 78.683594 L 411.039062 79.683594 Z M 411.039062 82.261719 L 411.039062 83.261719 L 431.542969 83.261719 L 431.542969 82.261719 Z M 425.703125 101.285156 L 411.039062 101.285156 L 411.039062 102.285156 L 425.703125 102.285156 Z M 406.332031 20.203125 L 378.464844 20.203125 L 378.464844 43.773438 L 406.332031 43.773438 Z M 378.964844 73.472656 L 378.964844 74.472656 L 401.746094 74.472656 L 401.746094 73.472656 Z M 378.964844 70.019531 L 378.964844 71.019531 L 393.628906 71.019531 L 393.628906 70.019531 Z M 378.964844 66.441406 L 378.964844 67.441406 L 389.453125 67.441406 L 389.453125 66.441406 Z M 391.71875 66.441406 L 391.71875 67.441406 L 401.746094 67.441406 L 401.746094 66.441406 Z M 378.964844 62.863281 L 378.964844 63.863281 L 399.46875 63.863281 L 399.46875 62.863281 Z M 378.964844 58.148438 L 378.964844 59.148438 L 393.628906 59.148438 L 393.628906 58.148438 Z M 378.964844 54.570312 L 378.964844 55.570312 L 389.453125 55.570312 L 389.453125 54.570312 Z M 378.964844 50.996094 L 378.964844 51.996094 L 399.46875 51.996094 L 399.46875 50.996094 Z M 391.71875 54.570312 L 391.71875 55.570312 L 404.476562 55.570312 L 404.476562 54.570312 Z M 399.46875 47.070312 L 378.964844 47.070312 L 378.964844 48.070312 L 399.46875 48.070312 Z M 406.332031 78.683594 L 378.464844 78.683594 L 378.464844 101.8125 L 406.332031 101.8125 Z M 411.71875 43.773438 L 432.222656 43.773438 L 432.222656 42.773438 L 411.71875 42.773438 Z M 411.71875 40.226562 L 426.382812 40.226562 L 426.382812 39.226562 L 411.71875 39.226562 Z M 411.71875 36.648438 L 422.210938 36.648438 L 422.210938 35.648438 L 411.71875 35.648438 Z M 424.472656 35.648438 L 424.472656 36.648438 L 434.5 36.648438 L 434.5 35.648438 Z M 411.71875 33.074219 L 432.222656 33.074219 L 432.222656 32.074219 L 411.71875 32.074219 Z M 411.71875 28.355469 L 426.382812 28.355469 L 426.382812 27.355469 L 411.71875 27.355469 Z M 411.71875 24.777344 L 422.210938 24.777344 L 422.210938 23.777344 L 411.71875 23.777344 Z M 424.472656 23.777344 L 424.472656 24.777344 L 437.230469 24.777344 L 437.230469 23.777344 Z M 411.71875 21.203125 L 432.222656 21.203125 L 432.222656 20.203125 L 411.71875 20.203125 Z M 444.398438 13.808594 L 444.398438 108.207031 L 370.265625 108.207031 L 370.265625 13.808594 Z M 437.410156 48.070312 L 411.539062 48.070312 L 411.539062 73.941406 L 437.410156 73.941406 Z M 405.332031 21.203125 L 379.464844 21.203125 L 379.464844 42.773438 L 405.332031 42.773438 Z M 186.328125 391.125 L 188.789062 397.238281 C 188.617188 396.882812 188.414062 396.539062 188.144531 396.242188 L 180.023438 387.226562 C 179.105469 386.207031 177.933594 385.441406 176.628906 385.015625 L 162.9375 380.53125 C 160.023438 379.578125 156.820312 380.402344 154.734375 382.648438 L 143.976562 394.21875 L 71.664062 392.105469 L 81.464844 372.316406 L 79.820312 368.460938 C 73.292969 353.175781 59.429688 342.265625 43.039062 339.511719 C 43.039062 339.511719 19.003906 395.363281 20.632812 401.335938 C 22.261719 407.308594 26.0625 424.292969 45.605469 424.292969 C 59.683594 424.292969 114.050781 418.742188 143.347656 415.636719 C 146.308594 416.878906 150.90625 418.148438 156.605469 417.5625 C 166.835938 416.503906 168.15625 414.738281 168.15625 414.738281 L 176.453125 416.875 C 178.351562 417.363281 180.332031 416.464844 181.21875 414.71875 L 181.964844 413.257812 C 182.421875 412.359375 183.316406 411.765625 184.324219 411.699219 L 184.828125 411.664062 C 188.226562 411.441406 190.417969 407.972656 189.164062 404.808594 L 189.191406 398.988281 C 189.195312 398.550781 189.113281 398.125 188.980469 397.71875 L 188.984375 397.730469 C 192.769531 397.96875 195.71875 395.875 193.378906 393.71875 C 191.945312 392.402344 188.929688 391.597656 186.328125 391.125 Z M 182.324219 315.886719 C 182.324219 310.636719 178.054688 306.367188 172.804688 306.367188 C 167.554688 306.367188 163.28125 310.636719 163.28125 315.886719 C 163.28125 321.136719 167.554688 325.40625 172.804688 325.40625 C 178.054688 325.40625 182.324219 321.136719 182.324219 315.886719 Z M 143.527344 200.789062 C 143.230469 200.738281 142.933594 200.683594 142.636719 200.617188 C 139.871094 206.554688 139.765625 213.359375 140.148438 219.894531 C 140.53125 226.433594 141.347656 233.035156 140.253906 239.492188 C 140.128906 240.226562 139.96875 240.960938 139.785156 241.6875 C 140.449219 240.609375 140.996094 239.457031 141.398438 238.253906 C 142.832031 233.90625 142.730469 229.210938 142.617188 224.574219 C 142.546875 219.914062 142.574219 215.242188 142.804688 210.582031 C 142.957031 207.3125 143.203125 204.046875 143.527344 200.789062 Z M 166.105469 197.65625 C 168.132812 196.351562 169.664062 194.339844 171.015625 192.277344 C 168.191406 194.765625 164.546875 196.195312 160.777344 195.679688 C 159.398438 196.863281 157.90625 197.871094 156.339844 198.691406 C 157.230469 198.847656 158.121094 198.988281 159.015625 199.0625 C 161.503906 199.300781 164.066406 199.015625 166.105469 197.65625 Z M 214.875 181.179688 C 213.941406 179.644531 213.234375 177.953125 212.773438 176.222656 C 211.71875 172.285156 211.71875 168.152344 211.726562 164.074219 C 211.730469 162.453125 211.675781 160.722656 211.378906 159.097656 C 210.929688 158.84375 210.472656 158.609375 210 158.425781 C 209.320312 158.167969 208.625 157.960938 207.910156 157.847656 C 207.199219 157.71875 206.472656 157.679688 205.746094 157.695312 C 205.015625 157.71875 204.285156 157.832031 203.550781 157.996094 C 203.445312 158.023438 203.34375 157.957031 203.316406 157.855469 C 203.300781 157.769531 203.339844 157.6875 203.40625 157.644531 C 204.089844 157.234375 204.867188 156.984375 205.660156 156.855469 C 206.457031 156.71875 207.277344 156.738281 208.074219 156.859375 C 208.871094 156.996094 209.65625 157.238281 210.367188 157.621094 C 210.648438 157.769531 210.910156 157.945312 211.167969 158.128906 C 210.949219 157.292969 210.652344 156.503906 210.246094 155.785156 C 210.097656 155.75 209.945312 155.714844 209.796875 155.6875 C 209.324219 155.605469 208.855469 155.53125 208.382812 155.503906 C 207.910156 155.464844 207.4375 155.472656 206.957031 155.488281 C 206.476562 155.507812 205.996094 155.570312 205.492188 155.632812 C 205.386719 155.644531 205.285156 155.570312 205.273438 155.464844 C 205.261719 155.386719 205.300781 155.316406 205.355469 155.273438 C 205.800781 154.972656 206.308594 154.777344 206.835938 154.652344 C 207.359375 154.519531 207.90625 154.484375 208.445312 154.507812 C 208.792969 154.53125 209.136719 154.59375 209.472656 154.675781 C 209.242188 154.40625 208.984375 154.152344 208.703125 153.917969 C 208.003906 153.832031 207.308594 153.8125 206.628906 153.902344 C 205.910156 154 205.207031 154.171875 204.542969 154.449219 C 203.871094 154.714844 203.246094 155.082031 202.660156 155.511719 C 202.078125 155.949219 201.5625 156.476562 201.101562 157.074219 C 201.035156 157.160156 200.914062 157.175781 200.828125 157.113281 C 200.761719 157.0625 200.738281 156.96875 200.765625 156.890625 C 201.324219 155.363281 202.652344 154.15625 204.160156 153.527344 C 204.925781 153.214844 205.742188 153.023438 206.566406 153.019531 C 206.777344 153.015625 206.984375 153.023438 207.191406 153.039062 C 204.007812 151.890625 199.460938 153.8125 198.554688 157.070312 C 198.289062 154.179688 195.992188 151.6875 193.238281 150.890625 C 193.464844 151.070312 193.695312 151.246094 193.90625 151.449219 C 194.519531 152.058594 195.050781 152.75 195.441406 153.515625 C 195.835938 154.28125 196.113281 155.105469 196.199219 155.949219 C 196.207031 156.054688 196.132812 156.148438 196.023438 156.160156 C 195.9375 156.167969 195.859375 156.117188 195.828125 156.042969 C 195.515625 155.296875 195.152344 154.59375 194.714844 153.945312 C 194.269531 153.304688 193.777344 152.699219 193.210938 152.164062 C 192.65625 151.625 192.035156 151.15625 191.375 150.738281 C 191.3125 150.699219 191.246094 150.667969 191.183594 150.632812 C 191.085938 150.636719 190.988281 150.632812 190.890625 150.640625 C 190.035156 150.710938 189.226562 150.933594 188.460938 151.269531 C 189.003906 151.316406 189.542969 151.421875 190.0625 151.582031 C 191.726562 152.113281 193.25 153.261719 194.015625 154.816406 C 194.0625 154.910156 194.023438 155.027344 193.929688 155.074219 C 193.851562 155.113281 193.757812 155.089844 193.699219 155.03125 C 193.148438 154.433594 192.546875 153.917969 191.882812 153.503906 C 191.214844 153.09375 190.507812 152.757812 189.761719 152.535156 C 189.023438 152.300781 188.25 152.175781 187.472656 152.136719 C 187.277344 152.128906 187.085938 152.148438 186.890625 152.15625 C 186.390625 152.5 185.910156 152.886719 185.457031 153.3125 C 185.730469 153.289062 186.003906 153.28125 186.273438 153.285156 C 186.796875 153.308594 187.320312 153.367188 187.820312 153.507812 C 188.324219 153.636719 188.816406 153.816406 189.269531 154.085938 C 189.359375 154.140625 189.390625 154.261719 189.335938 154.355469 C 189.296875 154.421875 189.226562 154.453125 189.152344 154.449219 L 187.6875 154.339844 C 187.203125 154.316406 186.730469 154.285156 186.253906 154.285156 C 185.777344 154.273438 185.300781 154.289062 184.820312 154.296875 L 184.484375 154.3125 C 183.738281 155.148438 183.066406 156.058594 182.472656 156.980469 C 179.851562 161.027344 177.574219 165.476562 177.65625 170.300781 C 177.757812 176.160156 177.449219 182.242188 174.773438 187.457031 C 174.316406 188.355469 173.765625 189.203125 173.152344 190 C 172.738281 190.875 172.300781 191.738281 171.808594 192.578125 C 170.496094 194.8125 168.882812 196.960938 166.644531 198.484375 C 164.359375 200.019531 161.496094 200.265625 158.925781 199.957031 C 157.660156 199.804688 156.425781 199.546875 155.210938 199.242188 C 153.910156 199.832031 152.5625 200.296875 151.183594 200.609375 C 151.636719 202.0625 152.152344 203.492188 152.738281 204.894531 C 153.996094 207.902344 155.535156 210.789062 157.371094 213.480469 C 159.167969 216.195312 161.273438 218.707031 163.582031 221.007812 C 165.898438 223.300781 168.4375 225.378906 171.175781 227.179688 C 171.265625 227.238281 171.289062 227.355469 171.230469 227.445312 C 171.175781 227.527344 171.066406 227.554688 170.976562 227.503906 C 168.101562 225.875 165.414062 223.890625 162.996094 221.613281 C 160.570312 219.34375 158.425781 216.78125 156.542969 214.039062 C 154.699219 211.273438 153.121094 208.324219 151.917969 205.226562 C 151.347656 203.765625 150.863281 202.269531 150.460938 200.753906 C 148.382812 201.144531 146.246094 201.203125 144.097656 200.886719 C 143.902344 204.128906 143.742188 207.371094 143.648438 210.613281 C 143.523438 215.261719 143.488281 219.90625 143.613281 224.554688 C 143.6875 229.183594 143.816406 234.007812 142.234375 238.542969 C 141.535156 240.492188 140.484375 242.3125 139.128906 243.878906 C 137.863281 247.558594 135.789062 250.957031 132.878906 253.355469 C 137.53125 261.140625 142.914062 268.53125 149.761719 274.445312 C 157.738281 281.332031 167.921875 286.097656 178.460938 285.976562 C 180.886719 285.945312 183.367188 285.644531 185.519531 284.53125 C 187.671875 283.414062 189.449219 281.363281 189.722656 278.953125 C 190.128906 275.328125 187.207031 272.230469 184.28125 270.054688 C 181.355469 267.878906 176.421875 265.738281 176.640625 262.101562 C 177.242188 252.234375 177.710938 242.175781 178.3125 232.308594 C 183.417969 234.238281 189.074219 236.175781 194.1875 234.277344 C 198.8125 232.558594 201.792969 228.113281 204.101562 223.753906 C 211.023438 210.695312 214.699219 195.953125 214.875 181.179688 Z M 93.6875 165.113281 L 71.761719 165.113281 L 71.761719 109.214844 C 71.425781 109.75 71.089844 110.277344 70.761719 110.816406 L 70.761719 166.113281 L 93.609375 166.113281 C 93.636719 165.777344 93.648438 165.445312 93.6875 165.113281 Z M 147.386719 118.191406 C 147.714844 118.039062 148.050781 117.90625 148.386719 117.765625 L 148.386719 50.300781 L 119.925781 50.300781 C 119.566406 50.632812 119.214844 50.96875 118.859375 51.300781 L 147.386719 51.300781 Z M 226.414062 133.792969 C 226.683594 134.121094 226.945312 134.453125 227.195312 134.792969 L 249.9375 134.792969 L 249.9375 18.980469 L 172.3125 18.980469 L 172.3125 114.929688 C 172.648438 114.988281 172.980469 115.066406 173.3125 115.140625 L 173.3125 19.980469 L 248.9375 19.980469 L 248.9375 133.792969 Z M 169.3125 114.484375 L 169.3125 15.980469 L 252.9375 15.980469 L 252.9375 137.792969 L 229.148438 137.792969 C 229.335938 138.125 229.523438 138.457031 229.699219 138.792969 L 253.9375 138.792969 L 253.9375 14.980469 L 170.730469 14.980469 C 169.921875 15.371094 169.113281 15.761719 168.3125 16.164062 L 168.3125 114.390625 C 168.519531 114.40625 168.722656 114.410156 168.929688 114.429688 C 169.058594 114.445312 169.183594 114.46875 169.3125 114.484375 Z M 151.417969 116.582031 C 151.75 116.464844 152.085938 116.355469 152.417969 116.246094 L 152.417969 46.300781 L 124.34375 46.300781 C 123.96875 46.632812 123.601562 46.96875 123.230469 47.300781 L 151.417969 47.300781 Z M 93.5625 170.113281 L 66.792969 170.113281 L 66.792969 117.457031 C 67.128906 116.886719 67.457031 116.3125 67.792969 115.742188 L 67.792969 169.113281 L 93.519531 169.113281 C 93.527344 169.445312 93.542969 169.777344 93.5625 170.113281" fill="#f9d291"/></g><g clip-path="url(#b)" id="change5_1"><path d="M 172.4375 414.574219 C 172.023438 414.164062 171.617188 413.746094 171.253906 413.296875 C 170.878906 412.855469 170.546875 412.382812 170.21875 411.898438 C 169.894531 411.40625 169.609375 410.894531 169.3125 410.359375 C 169.277344 410.292969 169.203125 410.25 169.121094 410.261719 C 169.015625 410.273438 168.9375 410.367188 168.949219 410.476562 C 169.019531 411.105469 169.214844 411.71875 169.476562 412.300781 C 169.585938 412.550781 169.71875 412.789062 169.859375 413.023438 C 169.800781 413.070312 169.738281 413.113281 169.6875 413.164062 C 169.488281 413.371094 169.355469 413.628906 169.261719 413.894531 C 169.183594 414.160156 169.132812 414.4375 169.164062 414.71875 C 169.1875 414.992188 169.253906 415.269531 169.414062 415.503906 C 169.441406 415.539062 169.476562 415.566406 169.519531 415.582031 C 169.628906 415.621094 169.746094 415.566406 169.789062 415.457031 L 169.792969 415.441406 C 169.878906 415.207031 169.933594 414.996094 170.003906 414.796875 C 170.078125 414.597656 170.132812 414.40625 170.207031 414.21875 C 170.257812 414.070312 170.316406 413.929688 170.375 413.78125 C 170.410156 413.828125 170.441406 413.882812 170.480469 413.929688 C 170.890625 414.425781 171.347656 414.878906 171.871094 415.253906 C 172.386719 415.625 172.945312 415.945312 173.554688 416.140625 C 173.640625 416.167969 173.742188 416.140625 173.804688 416.066406 C 173.882812 415.96875 173.871094 415.824219 173.769531 415.742188 C 173.308594 415.355469 172.855469 414.980469 172.4375 414.574219 Z M 183.976562 398.636719 C 184.929688 399.664062 185.808594 400.761719 186.675781 401.867188 C 187.539062 402.976562 188.359375 404.121094 189.171875 405.28125 C 189.226562 405.355469 189.324219 405.382812 189.410156 405.34375 C 189.507812 405.296875 189.546875 405.183594 189.503906 405.089844 C 188.894531 403.792969 188.160156 402.558594 187.359375 401.371094 C 186.558594 400.179688 185.65625 399.0625 184.722656 397.972656 C 183.753906 396.914062 182.746094 395.886719 181.660156 394.949219 C 180.574219 394.011719 179.433594 393.136719 178.21875 392.378906 C 178.128906 392.320312 178.003906 392.335938 177.929688 392.421875 C 177.847656 392.515625 177.855469 392.660156 177.949219 392.742188 C 179.007812 393.679688 180.058594 394.617188 181.0625 395.601562 C 182.070312 396.578125 183.054688 397.578125 183.976562 398.636719 Z M 168.339844 413.816406 C 168.292969 413.683594 168.246094 413.550781 168.164062 413.425781 C 168.089844 413.296875 168.007812 413.164062 167.867188 413.035156 L 167.855469 413.027344 C 167.839844 413.011719 167.820312 412.996094 167.796875 412.984375 C 167.660156 412.914062 167.488281 412.96875 167.421875 413.105469 C 167.328125 413.285156 167.308594 413.464844 167.308594 413.636719 C 167.300781 413.8125 167.34375 413.980469 167.398438 414.144531 C 167.464844 414.300781 167.535156 414.457031 167.65625 414.585938 C 167.769531 414.722656 167.898438 414.84375 168.085938 414.925781 C 168.101562 414.933594 168.121094 414.941406 168.140625 414.941406 C 168.269531 414.964844 168.394531 414.878906 168.417969 414.75 L 168.417969 414.742188 C 168.453125 414.550781 168.441406 414.394531 168.425781 414.242188 C 168.421875 414.089844 168.378906 413.953125 168.339844 413.816406 Z M 73.683594 392.179688 C 70.882812 391.671875 68.035156 391.425781 65.179688 391.386719 C 62.324219 391.351562 59.46875 391.558594 56.640625 391.941406 C 53.816406 392.367188 51.015625 392.957031 48.285156 393.789062 C 45.554688 394.617188 42.890625 395.648438 40.339844 396.914062 C 40.253906 396.957031 40.210938 397.0625 40.246094 397.15625 C 40.285156 397.253906 40.398438 397.300781 40.496094 397.261719 C 43.125 396.226562 45.796875 395.324219 48.519531 394.601562 C 51.238281 393.878906 53.992188 393.292969 56.78125 392.929688 C 59.5625 392.519531 62.371094 392.320312 65.183594 392.273438 C 67.996094 392.222656 70.8125 392.355469 73.621094 392.628906 C 73.738281 392.640625 73.847656 392.558594 73.867188 392.441406 C 73.890625 392.320312 73.808594 392.203125 73.683594 392.179688 Z M 142.835938 415.285156 C 141.128906 414.304688 140.085938 412.203125 140.332031 410.125 C 140.34375 410.019531 140.28125 409.914062 140.175781 409.878906 C 140.054688 409.839844 139.929688 409.90625 139.890625 410.027344 C 139.332031 411.753906 139.855469 413.746094 141.101562 415.125 C 140.425781 415.019531 139.757812 414.835938 139.132812 414.5625 C 138.058594 414.09375 137.078125 413.339844 136.601562 412.242188 C 136.566406 412.160156 136.476562 412.109375 136.386719 412.128906 C 136.285156 412.148438 136.214844 412.25 136.234375 412.355469 C 136.359375 413.011719 136.71875 413.617188 137.160156 414.125 C 137.617188 414.621094 138.164062 415.023438 138.75 415.34375 C 139.929688 415.964844 141.261719 416.277344 142.613281 416.214844 C 142.777344 416.203125 142.9375 416.113281 143.023438 415.964844 C 143.160156 415.722656 143.074219 415.421875 142.835938 415.285156 Z M 221.78125 262.746094 C 221.296875 263.035156 220.835938 263.328125 220.363281 263.585938 C 219.882812 263.839844 219.410156 264.09375 218.921875 264.308594 C 218.4375 264.535156 217.9375 264.726562 217.433594 264.917969 C 216.925781 265.105469 216.40625 265.261719 215.875 265.4375 C 215.789062 265.464844 215.722656 265.542969 215.714844 265.636719 C 215.703125 265.761719 215.796875 265.875 215.921875 265.886719 C 216.507812 265.945312 217.09375 265.886719 217.671875 265.769531 C 218.246094 265.660156 218.804688 265.460938 219.339844 265.214844 C 219.871094 264.960938 220.378906 264.660156 220.835938 264.289062 C 221.289062 263.921875 221.710938 263.507812 222.042969 263.023438 C 222.085938 262.964844 222.089844 262.878906 222.050781 262.8125 C 221.992188 262.722656 221.871094 262.691406 221.78125 262.746094 Z M 190.964844 222.390625 C 190.605469 222.375 190.253906 222.386719 189.898438 222.386719 C 189.546875 222.394531 189.195312 222.390625 188.835938 222.410156 C 188.476562 222.425781 188.113281 222.433594 187.738281 222.484375 C 187.675781 222.492188 187.617188 222.53125 187.585938 222.589844 C 187.53125 222.683594 187.566406 222.808594 187.664062 222.859375 C 188.007812 223.054688 188.378906 223.167969 188.753906 223.253906 C 189.128906 223.34375 189.515625 223.375 189.898438 223.382812 C 190.285156 223.382812 190.671875 223.359375 191.046875 223.273438 C 191.425781 223.191406 191.796875 223.085938 192.144531 222.894531 C 192.207031 222.859375 192.257812 222.792969 192.265625 222.714844 C 192.28125 222.585938 192.1875 222.464844 192.058594 222.449219 C 191.679688 222.402344 191.320312 222.402344 190.964844 222.390625 Z M 191.945312 214.226562 L 186.1875 213.882812 L 181.492188 213.539062 C 182.527344 214.738281 183.863281 215.71875 185.285156 216.496094 C 186.15625 216.96875 187.070312 217.367188 188.015625 217.679688 C 188.9375 217.988281 189.980469 218.203125 190.871094 218.273438 L 190.9375 218.277344 C 192.582031 217.535156 194.167969 216.410156 195.441406 215.089844 C 195.597656 214.933594 195.785156 214.734375 195.898438 214.59375 C 195.941406 214.539062 195.960938 214.492188 195.972656 214.464844 C 195.929688 214.445312 195.757812 214.414062 195.542969 214.414062 L 194.820312 214.378906 C 193.863281 214.335938 192.902344 214.285156 191.945312 214.226562 Z M 186.253906 212.890625 L 192.003906 213.3125 C 192.964844 213.378906 193.921875 213.457031 194.878906 213.542969 L 195.597656 213.605469 C 195.816406 213.644531 196.140625 213.589844 196.519531 213.894531 C 196.710938 214.058594 196.792969 214.359375 196.738281 214.585938 C 196.6875 214.808594 196.585938 214.945312 196.492188 215.0625 C 196.292969 215.285156 196.140625 215.429688 195.953125 215.609375 C 194.515625 216.980469 192.847656 217.988281 190.945312 218.683594 L 190.871094 218.710938 C 189.769531 218.691406 188.835938 218.511719 187.84375 218.246094 C 186.851562 217.96875 185.882812 217.597656 184.953125 217.144531 C 184.027344 216.683594 183.136719 216.144531 182.308594 215.507812 C 181.480469 214.871094 180.707031 214.144531 180.085938 213.261719 C 179.9375 213.054688 179.988281 212.765625 180.195312 212.621094 C 180.285156 212.558594 180.386719 212.53125 180.488281 212.539062 L 180.5 212.539062 Z M 196.484375 208.265625 C 197.128906 208.402344 197.816406 208.230469 198.386719 207.917969 C 198.957031 207.585938 199.429688 207.105469 199.773438 206.535156 C 200.453125 205.386719 200.527344 204.050781 200.453125 202.839844 C 200.359375 201.625 200.144531 200.421875 199.765625 199.269531 C 199.398438 198.117188 198.902344 197.003906 198.25 195.996094 C 198.199219 195.921875 198.105469 195.886719 198.019531 195.921875 C 197.917969 195.960938 197.871094 196.070312 197.910156 196.167969 C 198.332031 197.265625 198.695312 198.367188 198.953125 199.496094 C 199.207031 200.621094 199.390625 201.761719 199.457031 202.902344 C 199.535156 204.035156 199.457031 205.164062 198.996094 206.109375 C 198.539062 207.027344 197.609375 207.808594 196.53125 207.816406 C 196.425781 207.816406 196.328125 207.890625 196.308594 207.996094 C 196.28125 208.117188 196.359375 208.238281 196.484375 208.265625 Z M 173.585938 179.484375 C 175.015625 179.003906 176.472656 178.640625 177.949219 178.433594 C 179.425781 178.230469 180.917969 178.140625 182.402344 178.242188 C 183.886719 178.300781 185.363281 178.542969 186.808594 178.902344 C 188.253906 179.257812 189.660156 179.773438 191.035156 180.394531 C 191.132812 180.441406 191.257812 180.410156 191.316406 180.3125 C 191.386719 180.210938 191.359375 180.070312 191.253906 180 C 189.960938 179.148438 188.53125 178.507812 187.046875 178.050781 C 185.558594 177.589844 184.007812 177.34375 182.453125 177.246094 C 180.894531 177.195312 179.328125 177.285156 177.808594 177.605469 C 176.285156 177.917969 174.800781 178.414062 173.433594 179.132812 C 173.351562 179.175781 173.3125 179.273438 173.339844 179.363281 C 173.375 179.464844 173.484375 179.519531 173.585938 179.484375 Z M 204.601562 182.421875 C 205.34375 181.808594 206.117188 181.273438 206.949219 180.839844 C 207.777344 180.414062 208.644531 180.066406 209.542969 179.832031 C 210.4375 179.585938 211.359375 179.449219 212.289062 179.402344 C 213.222656 179.355469 214.160156 179.429688 215.101562 179.582031 C 215.203125 179.597656 215.308594 179.546875 215.351562 179.445312 C 215.402344 179.332031 215.347656 179.195312 215.230469 179.148438 C 214.308594 178.753906 213.300781 178.558594 212.289062 178.515625 C 211.277344 178.46875 210.257812 178.601562 209.277344 178.867188 C 208.304688 179.144531 207.359375 179.550781 206.519531 180.113281 C 205.675781 180.667969 204.910156 181.351562 204.324219 182.160156 C 204.273438 182.230469 204.273438 182.328125 204.332031 182.398438 C 204.398438 182.480469 204.523438 182.488281 204.601562 182.421875 Z M 480.855469 224.796875 L 271.539062 224.796875 C 269.40625 224.796875 267.582031 226.320312 267.203125 228.421875 L 238.753906 386.726562 C 238.265625 389.429688 240.339844 391.910156 243.085938 391.910156 L 354.753906 391.910156 L 357.949219 405.980469 C 358.367188 407.789062 358.8125 409.589844 359.234375 411.394531 L 306.765625 411.394531 L 287.742188 421.9375 L 361.738281 421.9375 C 361.742188 421.953125 361.746094 421.972656 361.75 421.988281 C 361.777344 422.105469 361.894531 422.179688 362.015625 422.15625 C 362.136719 422.132812 362.214844 422.011719 362.191406 421.890625 C 361.097656 416.515625 359.976562 411.148438 358.8125 405.789062 L 355.28125 389.726562 L 351.621094 373.6875 C 350.386719 368.359375 349.113281 363.042969 347.816406 357.730469 L 379.894531 357.730469 C 379.894531 357.742188 379.886719 357.753906 379.886719 357.769531 C 380.976562 363.144531 382.09375 368.515625 383.25 373.875 L 386.761719 389.941406 L 390.40625 405.980469 C 391.636719 411.324219 392.90625 416.660156 394.203125 421.988281 C 394.230469 422.105469 394.347656 422.179688 394.46875 422.15625 C 394.574219 422.136719 394.632812 422.039062 394.636719 421.9375 L 421.402344 421.9375 L 402.878906 411.394531 L 392.445312 411.394531 C 392.050781 409.527344 391.671875 407.65625 391.269531 405.789062 L 388.21875 391.910156 L 452.402344 391.910156 C 454.53125 391.910156 456.359375 390.382812 456.734375 388.285156 L 485.1875 229.976562 C 485.675781 227.277344 483.597656 224.796875 480.855469 224.796875 Z M 224.292969 265.886719 C 227.070312 271.296875 229.703125 276.792969 233.328125 281.246094 C 238.398438 287.472656 243.761719 293.464844 249.390625 299.195312 L 250.628906 292.308594 C 243.851562 285.875 237.347656 279.25 233.300781 274.03125 C 230.980469 271.039062 227.835938 268.320312 224.292969 265.886719 Z M 196.6875 344.171875 C 196.6875 344.089844 196.636719 344.011719 196.554688 343.984375 C 196.453125 343.953125 196.34375 344.007812 196.3125 344.109375 L 195.609375 346.269531 C 195.359375 346.980469 195.121094 347.691406 194.847656 348.386719 C 194.585938 349.089844 194.296875 349.777344 194.011719 350.472656 L 193.105469 352.554688 C 193.070312 352.644531 193.089844 352.753906 193.171875 352.820312 C 193.265625 352.902344 193.410156 352.890625 193.492188 352.792969 C 194 352.199219 194.421875 351.542969 194.804688 350.863281 C 195.191406 350.183594 195.507812 349.46875 195.78125 348.738281 C 196.046875 348.003906 196.277344 347.257812 196.421875 346.488281 C 196.578125 345.726562 196.683594 344.953125 196.6875 344.171875 Z M 114.535156 289.6875 C 114.628906 284.160156 113.496094 278.585938 111.019531 273.632812 C 109.773438 271.164062 108.195312 268.851562 106.261719 266.867188 C 104.324219 264.898438 102.03125 263.265625 99.511719 262.152344 C 99.417969 262.109375 99.304688 262.148438 99.261719 262.242188 C 99.214844 262.335938 99.253906 262.449219 99.351562 262.496094 C 104.246094 264.871094 107.953125 269.171875 110.261719 274.003906 C 112.574219 278.863281 113.679688 284.289062 113.539062 289.664062 C 113.429688 295.066406 112.246094 300.402344 110.601562 305.566406 C 108.953125 310.742188 106.847656 315.773438 104.742188 320.808594 C 104.695312 320.917969 104.746094 321.050781 104.859375 321.101562 C 104.972656 321.152344 105.105469 321.101562 105.15625 320.988281 C 107.453125 316.039062 109.703125 311.046875 111.441406 305.84375 C 113.183594 300.648438 114.390625 295.214844 114.535156 289.6875 Z M 102.746094 329.335938 C 102.652344 329.28125 102.535156 329.308594 102.480469 329.398438 C 101.816406 330.503906 101.207031 331.632812 100.605469 332.765625 C 100.003906 333.898438 99.453125 335.058594 98.871094 336.199219 C 98.332031 337.363281 97.773438 338.519531 97.253906 339.691406 C 96.738281 340.867188 96.230469 342.046875 95.78125 343.253906 C 95.746094 343.351562 95.785156 343.46875 95.878906 343.527344 C 95.988281 343.589844 96.128906 343.554688 96.191406 343.449219 C 96.855469 342.34375 97.457031 341.210938 98.050781 340.074219 C 98.644531 338.9375 99.199219 337.78125 99.769531 336.632812 C 100.300781 335.464844 100.859375 334.3125 101.367188 333.132812 C 101.878906 331.957031 102.382812 330.773438 102.824219 329.566406 C 102.855469 329.480469 102.824219 329.382812 102.746094 329.335938 Z M 239.457031 347.6875 L 235.28125 351.214844 C 230.554688 365.742188 218.75 388.851562 218.75 388.851562 L 218.75 413.714844 L 195.417969 413.714844 L 188.984375 397.730469 C 192.769531 397.96875 195.71875 395.875 193.378906 393.71875 C 191.945312 392.402344 188.929688 391.597656 186.324219 391.121094 L 175.761719 364.875 C 177.3125 362.625 178.753906 360.300781 180.054688 357.894531 C 182.066406 354.179688 183.757812 350.296875 185.175781 346.3125 C 186.550781 342.320312 187.660156 338.226562 188.402344 334.070312 C 189.15625 329.914062 189.5625 325.699219 189.609375 321.484375 C 189.609375 321.382812 189.53125 321.296875 189.429688 321.292969 C 189.324219 321.285156 189.234375 321.363281 189.226562 321.472656 C 188.960938 325.65625 188.402344 329.8125 187.574219 333.910156 C 186.738281 338.007812 185.644531 342.050781 184.234375 345.984375 C 182.867188 349.929688 181.1875 353.769531 179.269531 357.480469 C 178.097656 359.75 176.820312 361.964844 175.464844 364.132812 L 170.101562 350.804688 C 169.585938 349.503906 168.113281 348.867188 166.8125 349.382812 C 165.511719 349.898438 164.875 351.371094 165.390625 352.671875 L 178.886719 386.210938 C 178.203125 385.695312 177.449219 385.285156 176.628906 385.015625 L 162.9375 380.53125 C 160.023438 379.578125 156.820312 380.402344 154.734375 382.648438 L 154.34375 383.070312 C 154.34375 383.070312 154.347656 383.070312 154.347656 383.070312 C 154.417969 383.140625 154.421875 383.25 154.363281 383.324219 C 153.191406 384.855469 151.921875 386.308594 150.625 387.734375 C 149.332031 389.160156 147.980469 390.53125 146.640625 391.910156 C 145.269531 393.257812 143.902344 394.613281 142.5 395.925781 C 141.09375 397.238281 139.679688 398.539062 138.21875 399.792969 C 138.121094 399.875 137.980469 399.863281 137.898438 399.769531 C 137.824219 399.679688 137.824219 399.550781 137.902344 399.46875 C 139.195312 398.042969 140.539062 396.667969 141.882812 395.292969 L 142.976562 394.1875 L 108.304688 393.175781 L 95.957031 344.0625 L 81.464844 372.316406 L 79.820312 368.460938 C 73.292969 353.175781 59.429688 342.265625 43.039062 339.511719 C 43.039062 339.511719 42.074219 341.757812 40.542969 345.394531 C 38.277344 341.179688 36.554688 336.546875 35.699219 331.460938 C 35.699219 331.460938 55.703125 273.105469 83.039062 255.96875 C 88.824219 253.117188 93.144531 253.152344 98.757812 253.683594 C 104.015625 254.179688 109.164062 255.332031 114.347656 256.316406 C 119.289062 257.253906 124.597656 257.589844 129.1875 255.613281 L 171.925781 307.410156 C 167.632812 307.851562 164.28125 311.476562 164.28125 315.886719 C 164.28125 320.59375 168.097656 324.410156 172.804688 324.410156 C 177.511719 324.410156 181.324219 320.59375 181.324219 315.886719 C 181.324219 311.398438 177.851562 307.730469 173.445312 307.398438 C 174.875 303.535156 184.535156 276.132812 181.296875 249.71875 C 184.085938 249.875 186.777344 250.214844 189.203125 250.824219 L 189.199219 250.816406 C 189.199219 250.816406 193.746094 251.960938 200.050781 254.183594 C 199.558594 255.566406 199.234375 256.949219 199.171875 258.261719 C 199.167969 258.335938 199.164062 258.40625 199.164062 258.480469 C 199.15625 258.769531 199.160156 259.054688 199.179688 259.335938 C 199.183594 259.386719 199.191406 259.4375 199.195312 259.488281 C 199.21875 259.742188 199.257812 259.992188 199.304688 260.242188 C 199.316406 260.289062 199.324219 260.34375 199.335938 260.394531 C 199.394531 260.664062 199.472656 260.929688 199.566406 261.1875 C 199.585938 261.246094 199.609375 261.304688 199.632812 261.359375 C 199.738281 261.625 199.851562 261.886719 199.996094 262.140625 C 199.992188 262.136719 199.984375 262.136719 199.976562 262.136719 C 208.207031 280.503906 216.433594 298.871094 224.664062 317.238281 C 225.535156 319.191406 226.414062 321.144531 227.296875 323.09375 C 227.449219 323.429688 227.601562 323.769531 227.757812 324.105469 C 228.640625 326.054688 229.535156 327.996094 230.441406 329.9375 C 230.597656 330.269531 230.753906 330.601562 230.910156 330.933594 C 231.835938 332.898438 232.777344 334.855469 233.738281 336.800781 C 233.84375 337.015625 233.953125 337.226562 234.058594 337.441406 C 234.957031 339.246094 235.875 341.039062 236.816406 342.820312 C 237.675781 344.453125 238.550781 346.078125 239.457031 347.6875 Z M 175.761719 364.875 L 175.707031 364.734375 Z M 142.628906 230.574219 C 141.433594 230.117188 140.757812 229.835938 140.757812 229.835938 C 140.757812 229.859375 140.757812 229.882812 140.757812 229.902344 C 140.785156 230.6875 140.800781 231.46875 140.800781 232.25 C 140.800781 232.394531 140.792969 232.539062 140.789062 232.683594 C 140.785156 233.347656 140.777344 234.007812 140.746094 234.667969 C 140.734375 234.996094 140.699219 235.324219 140.679688 235.652344 C 140.648438 236.128906 140.621094 236.605469 140.574219 237.082031 C 140.492188 237.886719 140.386719 238.691406 140.253906 239.492188 C 140.128906 240.226562 139.96875 240.960938 139.785156 241.6875 C 140.449219 240.609375 140.996094 239.457031 141.398438 238.253906 C 142.214844 235.78125 142.523438 233.195312 142.628906 230.574219 Z M 180.296875 249.742188 C 180.292969 249.714844 180.300781 249.691406 180.300781 249.664062 C 179.390625 249.628906 178.472656 249.605469 177.546875 249.605469 C 177.441406 248.484375 177.445312 247.792969 177.445312 247.792969 C 177.445312 247.792969 181.664062 244.511719 181.664062 241.863281 C 181.664062 239.21875 177.921875 239.039062 177.921875 239.039062 C 164.773438 238.429688 149.707031 233.246094 143.574219 230.9375 C 143.445312 233.503906 143.097656 236.066406 142.234375 238.542969 C 141.535156 240.492188 140.484375 242.3125 139.128906 243.878906 C 139.128906 243.882812 139.128906 243.886719 139.125 243.890625 C 138.921875 244.480469 138.699219 245.0625 138.453125 245.632812 C 138.4375 245.667969 138.425781 245.699219 138.410156 245.730469 C 138.175781 246.273438 137.925781 246.804688 137.652344 247.320312 C 137.636719 247.355469 137.621094 247.390625 137.601562 247.421875 C 137.335938 247.925781 137.050781 248.410156 136.75 248.890625 C 136.683594 249 136.609375 249.105469 136.539062 249.214844 C 136.269531 249.628906 135.984375 250.03125 135.6875 250.421875 C 135.625 250.5 135.566406 250.582031 135.507812 250.660156 C 135.203125 251.039062 134.886719 251.40625 134.554688 251.761719 C 134.425781 251.902344 134.292969 252.039062 134.15625 252.175781 C 133.828125 252.511719 133.488281 252.835938 133.132812 253.140625 C 132.984375 253.265625 132.832031 253.378906 132.683594 253.496094 C 132.40625 253.722656 132.117188 253.933594 131.824219 254.140625 C 131.648438 254.261719 131.472656 254.382812 131.289062 254.5 C 130.910156 254.738281 130.523438 254.964844 130.117188 255.171875 L 172.636719 306.703125 C 174.421875 301.789062 183.453125 275.261719 180.296875 249.742188 Z M 183.113281 191.132812 C 183.59375 189.507812 183.179688 187.953125 182.195312 187.664062 C 181.210938 187.371094 180.023438 188.457031 179.542969 190.082031 C 179.066406 191.707031 179.476562 193.257812 180.464844 193.550781 C 181.449219 193.839844 182.636719 192.757812 183.113281 191.132812 Z M 207.742188 187.664062 C 206.757812 187.371094 205.570312 188.457031 205.09375 190.082031 C 204.613281 191.707031 205.027344 193.257812 206.011719 193.550781 C 206.996094 193.839844 208.183594 192.757812 208.664062 191.132812 C 209.140625 189.507812 208.730469 187.953125 207.742188 187.664062 Z M 225.605469 176.46875 C 225.488281 176.898438 225.398438 177.332031 225.335938 177.777344 C 225.042969 179.820312 225.75 181.898438 227.082031 183.285156 Z M 207.195312 217.296875 L 208.148438 221.699219 C 209.273438 218.851562 210.492188 216.042969 211.816406 213.28125 C 215.957031 213.847656 220.097656 214.246094 224.226562 213.574219 C 225.421875 215.558594 223.722656 218.433594 221.914062 219.875 C 220.101562 221.3125 217.730469 221.796875 215.457031 222.238281 C 215.796875 223.199219 216.09375 224.167969 216.382812 225.140625 C 216.179688 224.769531 215.972656 224.402344 215.746094 224.050781 C 215.695312 223.96875 215.589844 223.9375 215.503906 223.976562 C 215.40625 224.023438 215.363281 224.136719 215.410156 224.230469 C 216.214844 225.953125 216.875 227.730469 217.347656 229.550781 C 217.816406 231.375 218.140625 233.234375 218.238281 235.109375 C 218.382812 236.984375 218.308594 238.867188 218.074219 240.734375 C 217.847656 242.601562 217.421875 244.445312 216.851562 246.253906 C 216.816406 246.363281 216.867188 246.480469 216.972656 246.527344 C 217.085938 246.582031 217.222656 246.53125 217.273438 246.417969 C 218.082031 244.660156 218.625 242.777344 218.949219 240.863281 C 219.203125 239.367188 219.300781 237.847656 219.277344 236.328125 L 232.265625 231.546875 C 231.753906 232.199219 231.273438 232.871094 230.863281 233.585938 C 230.34375 234.488281 229.890625 235.425781 229.566406 236.410156 C 229.535156 236.511719 229.574219 236.621094 229.664062 236.679688 C 229.773438 236.742188 229.914062 236.710938 229.980469 236.601562 C 230.507812 235.734375 231.035156 234.882812 231.609375 234.0625 C 232.1875 233.246094 232.78125 232.441406 233.421875 231.679688 C 233.652344 231.398438 233.894531 231.128906 234.136719 230.859375 L 237.148438 229.75 L 236.804688 228.152344 C 237.082031 227.898438 237.359375 227.644531 237.644531 227.390625 C 237.707031 227.335938 237.726562 227.238281 237.683594 227.15625 C 237.632812 227.0625 237.519531 227.027344 237.425781 227.078125 C 237.164062 227.21875 236.921875 227.386719 236.671875 227.542969 L 236.484375 226.683594 C 236.019531 226.960938 235.609375 227.175781 235.320312 227.292969 C 232.28125 228.527344 228.675781 228.257812 225.851562 226.589844 C 224.390625 225.722656 223.023438 224.054688 223.640625 222.472656 C 224.195312 221.0625 225.945312 220.636719 227.445312 220.40625 C 229.753906 220.054688 232.058594 219.699219 234.367188 219.34375 C 234.535156 219.332031 234.707031 219.328125 234.875 219.308594 C 235.695312 219.226562 236.515625 219.117188 237.324219 218.925781 C 237.417969 218.902344 237.492188 218.820312 237.496094 218.714844 C 237.503906 218.589844 237.40625 218.480469 237.28125 218.476562 C 236.460938 218.429688 235.648438 218.433594 234.835938 218.425781 L 234.695312 218.425781 L 234.234375 216.292969 C 233.933594 216.292969 233.660156 216.277344 233.433594 216.238281 C 229.824219 215.613281 226.390625 214.007812 223.601562 211.632812 C 222.621094 210.800781 221.691406 209.832031 221.28125 208.613281 C 220.867188 207.398438 221.109375 205.882812 222.132812 205.109375 C 225.378906 205.855469 228.574219 206.789062 231.722656 207.871094 C 231.394531 207.710938 231.082031 207.519531 230.765625 207.335938 L 233.738281 208.921875 C 233.816406 208.964844 233.921875 208.945312 233.976562 208.871094 C 234.042969 208.789062 234.027344 208.667969 233.945312 208.605469 C 232.972656 207.824219 231.945312 207.117188 230.898438 206.441406 C 229.851562 205.761719 228.769531 205.144531 227.675781 204.550781 C 227.265625 204.335938 226.851562 204.128906 226.441406 203.921875 C 224.589844 202.054688 222.953125 199.90625 221.394531 197.792969 C 220.398438 196.445312 219.398438 194.53125 220.472656 193.242188 C 221.09375 192.488281 222.226562 192.335938 223.164062 192.605469 C 224.101562 192.878906 224.890625 193.496094 225.65625 194.105469 C 226.964844 195.140625 228.527344 196.167969 230.101562 197.230469 L 227.851562 186.84375 C 225.210938 187.742188 222.074219 187.394531 219.613281 185.980469 C 217.628906 184.84375 216.0625 183.140625 214.875 181.179688 C 214.726562 193.566406 212.117188 205.929688 207.195312 217.296875 Z M 184.828125 411.664062 L 184.324219 411.699219 C 183.757812 411.738281 183.234375 411.957031 182.792969 412.289062 C 182.40625 411.636719 182 410.996094 181.570312 410.375 C 180.996094 409.53125 180.367188 408.730469 179.726562 407.941406 C 179.074219 407.160156 178.402344 406.394531 177.6875 405.671875 C 176.976562 404.945312 176.242188 404.238281 175.453125 403.59375 C 175.371094 403.527344 175.253906 403.523438 175.167969 403.589844 C 175.070312 403.664062 175.050781 403.808594 175.128906 403.90625 C 175.742188 404.714844 176.390625 405.484375 177.03125 406.261719 L 178.957031 408.578125 L 180.898438 410.886719 C 181.394531 411.46875 181.894531 412.050781 182.398438 412.628906 C 182.230469 412.816406 182.082031 413.023438 181.964844 413.257812 L 181.730469 413.714844 L 189.957031 413.714844 L 188.390625 409.824219 C 187.554688 410.855469 186.304688 411.566406 184.828125 411.664062 Z M 81.464844 372.320312 L 81.464844 372.316406 Z M 81.464844 372.320312" fill="#30526a"/></g></g></svg>