<?xml version="1.0" encoding="UTF-8"?><svg xmlns="http://www.w3.org/2000/svg" xmlns:xlink="http://www.w3.org/1999/xlink" height="502.9" preserveAspectRatio="xMidYMid meet" version="1.0" viewBox="0.0 -2.9 474.1 502.9" width="474.1" zoomAndPan="magnify"><defs><clipPath id="a"><path d="M 0 456 L 474.148438 456 L 474.148438 500 L 0 500 Z M 0 456"/></clipPath></defs><g><g id="change1_1"><path d="M 162.484375 260.402344 L 160.574219 260.402344 L 156.121094 271.441406 C 168.851562 284.730469 189.671875 279.105469 189.671875 279.105469 L 194.027344 268.683594 L 192.300781 265.894531 L 191.3125 268.386719 C 175.046875 270.195312 161.445312 263.105469 161.445312 263.105469 Z M 339.511719 203.625 C 349.109375 232.570312 375.628906 287.242188 375.628906 287.242188 C 375.628906 287.242188 353.972656 214.0625 342.792969 194.667969 C 331.617188 175.273438 300.621094 172.605469 294.949219 173.644531 C 297.59375 173.453125 329.914062 174.679688 339.511719 203.625 Z M 275.960938 58.554688 C 301.421875 128.039062 294.570312 173.453125 294.570312 173.453125 C 287.496094 175.578125 284.347656 178.679688 276.257812 188.386719 C 268.164062 198.097656 256.484375 205.574219 256.484375 205.574219 L 161.386719 249.1875 C 138.246094 248.867188 130.316406 207.03125 130.316406 207.03125 C 127.484375 224.023438 143.664062 245.058594 143.664062 245.058594 C 132.742188 247.082031 114.132812 231.304688 114.132812 231.304688 C 101.996094 220.382812 97.546875 196.917969 97.546875 196.917969 C 94.308594 204.199219 98.355469 217.953125 98.355469 217.953125 C 74.484375 179.925781 91.476562 126.925781 101.59375 113.574219 C 111.707031 100.226562 120.203125 67.859375 128.292969 44.394531 C 136.382812 20.929688 154.996094 3.535156 197.390625 0.296875 C 239.789062 -2.9375 249.664062 21.335938 249.664062 21.335938 C 262.203125 23.355469 269.621094 41.253906 275.960938 58.554688" fill="#f68194"/></g><g clip-path="url(#a)" id="change2_1"><path d="M 367.242188 457.703125 C 377.484375 457.703125 429.1875 457.703125 437.476562 461.386719 C 445.769531 465.066406 478.9375 494.0625 473.570312 498.292969 C 468.207031 502.519531 435.039062 497.480469 412.113281 498.199219 C 389.191406 498.925781 331.636719 495.039062 316.5625 496.015625 C 301.488281 496.988281 15.042969 500.402344 3.335938 496.015625 C -8.371094 491.625 13.578125 480.894531 25.285156 473.070312 C 36.992188 465.246094 41.195312 459.847656 48.695312 457.703125 C 54.824219 455.953125 357 457.703125 367.242188 457.703125" fill="#8ad5a4"/></g><g id="change3_1"><path d="M 189.671875 279.105469 C 189.671875 279.105469 168.851562 284.730469 156.121094 271.441406 L 160.574219 260.402344 L 162.484375 260.402344 L 161.445312 263.105469 C 161.445312 263.105469 175.046875 270.195312 191.3125 268.386719 L 192.300781 265.894531 L 194.027344 268.683594 Z M 376.011719 286.507812 C 376 286.488281 349.121094 232.007812 339.335938 203.132812 C 329.546875 174.253906 297.21875 173.242188 294.570312 173.449219 C 293.773438 173.691406 293.035156 173.945312 292.328125 174.214844 C 291.882812 174.394531 291.382812 174.605469 290.839844 174.839844 C 286.09375 177.027344 282.78125 180.558594 276.257812 188.386719 C 268.164062 198.097656 256.484375 205.574219 256.484375 205.574219 L 161.386719 249.1875 C 138.246094 248.867188 130.316406 207.03125 130.316406 207.03125 C 127.484375 224.023438 143.664062 245.058594 143.664062 245.058594 C 139.597656 245.8125 134.464844 244.097656 129.621094 241.644531 C 129.621094 241.644531 102.25 240.332031 100.835938 270.488281 C 99.421875 300.644531 99.433594 317.007812 97.003906 328.183594 C 94.570312 339.359375 131.464844 385.929688 140.414062 386.402344 C 149.367188 386.871094 163.773438 362.664062 163.773438 362.664062 C 163.773438 362.664062 161.148438 378.863281 166.332031 384.515625 C 171.515625 390.171875 183.296875 398.179688 186.59375 412.785156 C 189.890625 427.394531 186.757812 457.703125 186.757812 457.703125 C 186.757812 457.703125 373.183594 434.460938 376.011719 431.636719 C 378.839844 428.808594 376.011719 286.507812 376.011719 286.507812" fill="#e8ebe8"/></g><g id="change4_1"><path d="M 422.660156 419.855469 C 419.359375 394.882812 376.011719 286.507812 376.011719 286.507812 C 350.566406 286.980469 319.46875 322.789062 319.46875 322.789062 C 332.660156 343.050781 360.074219 421.554688 360.074219 421.554688 C 348.289062 414.144531 322.152344 421.621094 286.339844 424.917969 C 250.53125 428.21875 217.21875 424.097656 209.210938 425.039062 C 201.199219 425.980469 169.628906 457.550781 169.628906 457.550781 C 169.628906 457.550781 211.09375 458.019531 213.449219 457.550781 C 215.808594 457.078125 261.039062 458.492188 301.09375 468.859375 C 341.144531 479.226562 408.992188 474.042969 416.53125 468.859375 C 424.070312 463.675781 425.957031 444.828125 422.660156 419.855469" fill="#f0bbb0"/></g><g id="change4_2"><path d="M 186.835938 279.679688 C 180.914062 280.644531 166.960938 281.664062 157.121094 272.425781 C 144.679688 297.527344 117.4375 343.730469 117.4375 343.730469 C 117.4375 343.730469 113.648438 333.128906 97.003906 328.183594 C 95.75 335.765625 85.894531 376.605469 78.34375 389.488281 C 70.792969 402.371094 66.792969 425.472656 72.125 442.796875 C 77.457031 460.121094 87.230469 471.230469 97.003906 473.007812 C 106.773438 474.78125 148.089844 439.6875 151.199219 420.585938 C 154.308594 401.484375 176.074219 306.859375 184.515625 285.539062 C 185.355469 283.421875 186.125 281.476562 186.835938 279.679688" fill="#f0bbb0"/></g><g id="change4_3"><path d="M 161.007812 93.285156 C 161.007812 93.285156 163.363281 95.414062 155.394531 98.179688 C 155.164062 98.261719 159.867188 95.949219 161.007812 93.285156 Z M 191.890625 93.304688 C 192.316406 95.222656 193.320312 99.003906 194.800781 100.3125 C 194.800781 100.3125 193.550781 96.117188 193.171875 93.316406 C 199.40625 93.363281 212.238281 93.445312 215.421875 93.285156 C 219.667969 93.074219 227.835938 107.34375 227.835938 107.34375 C 227.835938 107.34375 221.039062 103.09375 217.640625 101.183594 C 214.246094 99.273438 200.699219 101.0625 196.453125 101.0625 C 192.207031 101.0625 189.734375 93.285156 189.734375 93.285156 C 189.734375 93.285156 190.554688 93.292969 191.890625 93.304688 Z M 163.191406 257.550781 C 163.164062 258.191406 162.910156 259.167969 162.484375 260.402344 C 162.210938 261.195312 161.863281 262.097656 161.445312 263.105469 C 161.449219 263.105469 175.046875 270.195312 191.3125 268.386719 L 191.320312 268.367188 C 191.671875 267.480469 191.988281 266.683594 192.273438 265.960938 L 192.300781 265.894531 C 194.191406 261.125 194.734375 259.773438 194.734375 259.773438 C 194.734375 259.773438 252.929688 258.4375 256.484375 205.574219 C 256.484375 205.574219 240.933594 201.132812 240.933594 187.359375 C 240.933594 173.589844 248.042969 148.714844 248.042969 148.714844 C 248.042969 148.714844 255.148438 151.378906 259.148438 140.71875 C 259.148438 140.71875 248.488281 133.164062 247.597656 123.390625 C 246.710938 113.617188 242.265625 72.304688 233.828125 67.417969 C 233.828125 67.417969 213.835938 59.421875 214.28125 45.207031 C 214.28125 45.207031 182.296875 48.761719 168.078125 38.097656 C 166.492188 36.90625 156.53125 49.648438 144.535156 54.535156 C 144.535156 54.535156 136.300781 71.335938 138.964844 89.105469 C 143.769531 88.015625 160.128906 93.285156 160.128906 93.285156 C 160.128906 93.285156 155.621094 98.285156 149.054688 97.785156 C 140.65625 97.144531 137.246094 98.183594 137.242188 98.183594 C 136.59375 101.203125 136.765625 102.792969 138.660156 107.398438 L 137.167969 118.949219 C 137.167969 118.949219 133.429688 123.390625 132.984375 131.832031 C 132.539062 140.273438 130.765625 169.148438 132.984375 176.257812 C 135.207031 183.363281 163.636719 248.222656 163.191406 257.550781" fill="#f0bbb0"/></g><g id="change5_1"><path d="M 360.074219 421.554688 C 360.074219 421.554688 371.34375 427.789062 375.511719 436.472656 C 375.511719 436.472656 372.390625 425.355469 358.84375 418.066406 Z M 69.6875 424.816406 C 69.796875 424.570312 75.96875 410.523438 83.148438 392.0625 C 90.390625 373.441406 117.4375 343.730469 117.4375 343.730469 C 117.4375 343.730469 113.648438 333.128906 97.003906 328.183594 C 95.75 335.765625 85.898438 376.605469 78.34375 389.488281 C 73.222656 398.226562 69.738281 411.664062 69.6875 424.816406 Z M 158.265625 195.40625 C 155.738281 190.820312 151.867188 180.574219 151.226562 179.613281 C 151.046875 179.347656 150.738281 178.632812 150.347656 177.679688 C 150.347656 177.667969 147.507812 164.714844 148.042969 162.285156 C 148.578125 159.855469 148.042969 139.042969 148.042969 139.042969 L 145.15625 164.785156 C 143.761719 159.734375 141.96875 150.152344 142.132812 139.742188 C 142.40625 122.421875 137.167969 118.949219 137.167969 118.949219 C 140.246094 126.484375 139.683594 140.441406 140.382812 152.332031 C 140.796875 159.398438 142.695312 165.214844 144.601562 169.738281 L 144.597656 169.746094 L 144.609375 169.761719 C 145.90625 172.839844 147.207031 175.324219 148.042969 177.164062 C 149.765625 180.960938 156.1875 191.894531 158.265625 195.40625 Z M 158.265625 195.40625 C 158.496094 195.824219 158.714844 196.199219 158.917969 196.511719 C 158.917969 196.511719 158.675781 196.101562 158.265625 195.40625 Z M 167.898438 256.671875 C 167.546875 259.476562 166.289062 261.980469 165.125 264.703125 C 165.726562 264.9375 166.398438 265.183594 167.125 265.433594 C 168.558594 261.414062 169.945312 257.691406 169.628906 255.546875 C 169.0625 251.660156 164.414062 231.726562 164.414062 231.726562 C 163.816406 233.472656 168.597656 251.074219 167.898438 256.671875 Z M 162.660156 276.425781 C 161.480469 282.953125 156.121094 289.085938 156.121094 289.085938 C 156.121094 289.085938 162.179688 283.132812 163.976562 277.097656 C 163.535156 276.886719 163.097656 276.660156 162.660156 276.425781 Z M 256.484375 205.574219 C 252.929688 258.4375 194.734375 259.773438 194.734375 259.773438 C 194.734375 259.773438 200.5 249.1875 197.390625 232.675781 C 196.035156 225.472656 186.511719 218.878906 180.496094 208.0625 C 180.714844 208.539062 180.964844 209.027344 181.261719 209.519531 C 181.261719 209.519531 169.214844 194.300781 164.414062 179.960938 C 159.617188 165.621094 161.300781 135.542969 148.042969 139.042969 C 148.042969 139.042969 157.171875 134.84375 158.917969 147.085938 C 160.667969 159.328125 166.699219 183.460938 169.628906 188.007812 C 172.558594 192.554688 179.191406 203.722656 179.191406 203.722656 C 179.191406 203.722656 185.351562 206.265625 193.347656 200.449219 C 201.339844 194.636719 226.046875 183.738281 230.046875 178.648438 C 234.042969 173.5625 250.105469 149.976562 251.703125 133.246094 C 255.03125 137.800781 259.148438 140.71875 259.148438 140.71875 C 255.148438 151.378906 248.042969 148.714844 248.042969 148.714844 C 248.042969 148.714844 240.933594 173.589844 240.933594 187.359375 C 240.933594 201.132812 256.484375 205.574219 256.484375 205.574219" fill="#e09794"/></g></g></svg>