<?xml version="1.0" encoding="UTF-8"?><svg xmlns="http://www.w3.org/2000/svg" xmlns:xlink="http://www.w3.org/1999/xlink" height="455.4" preserveAspectRatio="xMidYMid meet" version="1.0" viewBox="-0.0 0.0 446.4 455.4" width="446.4" zoomAndPan="magnify"><defs><clipPath id="a"><path d="M 43 8 L 434 8 L 434 455.449219 L 43 455.449219 Z M 43 8"/></clipPath><clipPath id="b"><path d="M 54 0 L 433 0 L 433 455.449219 L 54 455.449219 Z M 54 0"/></clipPath><clipPath id="c"><path d="M 45 5 L 446.410156 5 L 446.410156 455 L 45 455 Z M 45 5"/></clipPath></defs><g><g clip-path="url(#a)" id="change1_1"><path d="M 232.246094 439.113281 C 120.402344 402.46875 43.585938 343.707031 43.585938 226.011719 C 43.585938 108.320312 114.554688 12.910156 232.246094 12.910156 C 275.550781 12.910156 313.859375 19.976562 345.003906 34.761719 C 346.828125 20.222656 359.257812 8.9375 374.277344 8.9375 C 390.554688 8.9375 403.796875 22.179688 403.796875 38.453125 C 403.796875 49.816406 397.339844 59.691406 387.90625 64.621094 C 415.28125 92.148438 430.828125 131.140625 430.828125 182.730469 C 430.828125 300.425781 468.316406 516.460938 232.246094 439.113281" fill="#f9d291"/></g><g id="change2_1"><path d="M 412.832031 118.804688 L 386.964844 118.804688 L 386.964844 92.941406 L 412.832031 92.941406 Z M 421.988281 194.210938 L 370.28125 194.210938 C 374.535156 190.507812 382.277344 187.503906 387.574219 187.503906 C 391.144531 187.503906 392.683594 188.867188 392.015625 190.890625 C 398.101562 187.273438 406.039062 184.6875 411.890625 184.6875 C 415.742188 184.6875 417.921875 185.8125 418.335938 187.609375 C 418.945312 187.546875 419.539062 187.503906 420.097656 187.503906 C 425.394531 187.503906 426.242188 190.507812 421.988281 194.210938 Z M 387.878906 220.445312 C 387.304688 221.496094 386.550781 222.609375 385.871094 222.746094 C 384.535156 223.011719 384.535156 223.011719 384.535156 223.011719 C 384.535156 223.011719 389.136719 228.613281 384.871094 232.878906 C 380.601562 237.144531 361.605469 249.144531 361.605469 249.144531 C 361.605469 249.144531 341.777344 241.613281 347.5625 230.316406 C 347.5625 230.316406 358.9375 207.011719 361.335938 206.746094 C 363.738281 206.480469 375.203125 206.746094 377.335938 208.878906 C 378.921875 210.464844 384.46875 214.988281 387.226562 217.21875 C 388.191406 217.996094 388.46875 219.351562 387.878906 220.445312 Z M 329.054688 201.234375 C 331.785156 201.234375 332.960938 202.28125 332.449219 203.824219 C 337.105469 201.058594 343.171875 199.085938 347.644531 199.085938 C 350.589844 199.085938 352.261719 199.941406 352.574219 201.316406 C 353.039062 201.265625 353.492188 201.234375 353.921875 201.234375 C 357.972656 201.234375 358.621094 203.53125 355.367188 206.363281 L 315.835938 206.363281 C 319.085938 203.53125 325.007812 201.234375 329.054688 201.234375 Z M 430.828125 182.730469 C 430.828125 180.144531 430.777344 177.601562 430.699219 175.078125 L 213.890625 175.078125 L 119.101562 276.945312 L 374.332031 276.945312 L 431.074219 201.121094 C 430.925781 194.78125 430.828125 188.632812 430.828125 182.730469" fill="#5ec9cc"/></g><g id="change3_1"><path d="M 416.03125 92.941406 L 416.03125 118.804688 L 441.898438 118.804688 L 441.898438 92.941406 Z M 370.265625 255.476562 C 370.265625 255.476562 297.113281 334.949219 259.015625 325.152344 C 244.238281 321.351562 200.703125 264.441406 200.703125 264.441406 C 189.511719 282.3125 179.40625 315.734375 176.46875 336.613281 L 187.625 356.835938 C 189.574219 360.371094 187.492188 364.753906 183.527344 365.527344 C 155.527344 371.007812 131.644531 385.011719 101.734375 368.824219 C 70.867188 339.894531 57.679688 307.507812 52.597656 291 L 56.601562 269.597656 C 56.601562 269.597656 35.558594 285.5625 23.945312 284.113281 C 12.335938 282.660156 0.0078125 273.222656 0 257.988281 C -0.0078125 242.753906 76.195312 144.058594 97.238281 134.628906 C 101.933594 132.523438 108.511719 130.925781 116.144531 129.84375 L 134.09375 99.613281 C 154.070312 113.1875 170.171875 116.0625 170.171875 116.0625 L 170.535156 124.335938 C 170.535156 124.335938 173.277344 137.011719 173.277344 137.011719 C 176.945312 138.09375 201.179688 145.570312 203.949219 146.964844 C 227.007812 158.574219 281.554688 273.589844 281.554688 273.589844 L 342.144531 230.210938 C 367.546875 228.589844 370.265625 255.476562 370.265625 255.476562" fill="#50ace4"/></g><g clip-path="url(#b)" id="change4_1"><path d="M 374.277344 45.210938 C 377.667969 45.210938 380.425781 42.453125 380.425781 39.066406 L 380.425781 37.28125 C 380.425781 36.726562 379.980469 36.28125 379.425781 36.28125 C 378.875 36.28125 378.425781 36.726562 378.425781 37.28125 L 378.425781 39.066406 C 378.425781 41.351562 376.566406 43.210938 374.277344 43.210938 C 371.992188 43.210938 370.132812 41.351562 370.132812 39.066406 L 370.132812 37.28125 C 370.132812 36.726562 369.683594 36.28125 369.132812 36.28125 C 368.578125 36.28125 368.132812 36.726562 368.132812 37.28125 L 368.132812 39.066406 C 368.132812 42.453125 370.890625 45.210938 374.277344 45.210938 Z M 346.761719 38.453125 C 346.761719 53.652344 359.082031 65.96875 374.277344 65.96875 C 389.476562 65.96875 401.796875 53.652344 401.796875 38.453125 C 401.796875 23.257812 389.476562 10.9375 374.277344 10.9375 C 359.082031 10.9375 346.761719 23.257812 346.761719 38.453125 Z M 342.421875 38.453125 C 342.421875 20.859375 356.683594 6.597656 374.277344 6.597656 C 391.875 6.597656 406.136719 20.859375 406.136719 38.453125 C 406.136719 56.046875 391.875 70.3125 374.277344 70.3125 C 356.683594 70.3125 342.421875 56.046875 342.421875 38.453125 Z M 342.082031 69.773438 L 335.871094 69.773438 L 335.871094 75.984375 L 342.082031 75.984375 Z M 342.082031 0.00390625 L 335.871094 0.00390625 L 335.871094 6.210938 L 342.082031 6.210938 Z M 412.347656 0.00390625 L 406.136719 0.00390625 L 406.136719 6.210938 L 412.347656 6.210938 Z M 412.347656 70.695312 L 406.136719 70.695312 L 406.136719 76.90625 L 412.347656 76.90625 Z M 357.898438 118.804688 L 383.765625 118.804688 L 383.765625 92.941406 L 357.898438 92.941406 Z M 274.433594 90.925781 L 284.441406 88.085938 L 286.371094 83.53125 L 289.085938 80.816406 L 283.761719 75.492188 L 281.050781 78.203125 L 277.828125 79.570312 C 277.996094 79.015625 278.070312 78.441406 277.945312 77.835938 C 277.4375 75.363281 275.050781 74.375 274.953125 74.335938 C 274.773438 74.261719 274.582031 74.222656 274.386719 74.222656 C 273.773438 74.222656 273.230469 74.589844 273 75.15625 C 272.6875 75.917969 273.050781 76.796875 273.800781 77.105469 C 273.808594 77.109375 274.824219 77.566406 275.007812 78.441406 C 275.054688 78.71875 274.558594 79.589844 274.261719 80.113281 C 273.582031 81.316406 272.738281 82.808594 272.890625 84.558594 C 273.007812 85.886719 273.386719 87.148438 273.988281 88.214844 L 274.128906 88.460938 L 273.652344 90.144531 L 272.253906 91.542969 L 273.34375 91.234375 L 273.03125 92.328125 Z M 277.347656 129.722656 L 276.523438 128.898438 L 276.453125 129.792969 Z M 278.980469 132.597656 L 273.171875 133.074219 L 273.648438 127.265625 L 280.707031 120.210938 L 280.644531 120.148438 L 283.195312 117.601562 L 288.644531 123.050781 L 286.097656 125.597656 L 286.039062 125.539062 Z M 277.027344 106.140625 L 276.441406 105.484375 L 276.441406 106.792969 Z M 279.523438 110.046875 L 279.523438 107.847656 L 273.441406 114.675781 L 273.441406 97.601562 L 279.523438 104.433594 L 279.523438 99.230469 L 282.523438 99.230469 L 282.523438 104.433594 L 288.601562 97.601562 L 288.601562 114.675781 L 282.523438 107.847656 L 282.523438 113.046875 L 279.523438 113.046875 Z M 279.453125 58.277344 L 283.691406 59.039062 L 277.445312 51.820312 L 276.398438 61.308594 Z M 280.460938 61.503906 L 272.484375 69.417969 L 275.21875 44.65625 L 291.515625 63.503906 Z M 254.867188 104.480469 L 258.949219 108.628906 L 262.664062 104.972656 L 258.585938 100.824219 Z M 251.261719 106.050781 L 251.738281 105.578125 L 251.757812 105.5625 C 251.21875 104.835938 251.277344 103.808594 251.9375 103.15625 L 257.304688 97.875 C 257.652344 97.535156 258.109375 97.347656 258.597656 97.347656 C 259.09375 97.347656 259.5625 97.542969 259.910156 97.898438 L 265.613281 103.695312 C 265.960938 104.046875 266.148438 104.507812 266.144531 105 C 266.140625 105.492188 265.945312 105.953125 265.59375 106.300781 L 260.226562 111.578125 C 259.878906 111.921875 259.421875 112.109375 258.933594 112.109375 C 258.523438 112.109375 258.136719 111.96875 257.820312 111.722656 L 257.800781 111.738281 L 257.324219 112.210938 C 256.773438 112.75 256.046875 113.046875 255.277344 113.046875 C 254.488281 113.046875 253.75 112.738281 253.195312 112.175781 L 251.230469 110.179688 C 250.101562 109.03125 250.113281 107.179688 251.261719 106.050781 Z M 253.1875 129.933594 L 263.347656 129.933594 L 263.347656 121.117188 L 253.1875 121.117188 Z M 250.1875 118.117188 L 266.347656 118.117188 L 266.347656 132.933594 L 250.1875 132.933594 Z M 251.226562 90.933594 L 261.386719 88.050781 L 263.34375 83.429688 L 266.09375 80.679688 L 262.691406 77.28125 L 260.707031 75.296875 L 257.960938 78.042969 L 253.339844 80.003906 L 250.453125 90.164062 L 249.074219 91.546875 L 250.148438 91.238281 L 249.84375 92.316406 Z M 250.382812 68.066406 L 257.535156 60.964844 L 267.453125 62.757812 L 252.835938 45.851562 Z M 219.703125 60.175781 C 220.152344 57.644531 220.425781 55.089844 220.472656 52.535156 C 220.519531 49.363281 220.246094 46.183594 219.492188 43.109375 C 218.785156 40.03125 217.597656 37.066406 216.007812 34.339844 C 215.257812 33.058594 214.40625 31.835938 213.472656 30.679688 C 217.796875 39.847656 219.925781 50.039062 219.703125 60.175781 Z M 161.84375 74.679688 C 161.8125 72.367188 161.621094 70.058594 161.28125 67.765625 C 160.402344 71.796875 162.703125 76.363281 160.933594 80.140625 C 158.597656 85.125 151.195312 85.070312 147.433594 89.085938 C 147.25 89.28125 147.09375 89.496094 146.933594 89.703125 C 147.804688 88.792969 148.828125 88.027344 149.949219 87.449219 C 151.484375 86.640625 153.128906 86.179688 154.695312 85.628906 C 156.253906 85.085938 157.777344 84.441406 159.023438 83.453125 C 160.292969 82.496094 161.132812 81.132812 161.480469 79.566406 C 161.855469 78.007812 161.835938 76.339844 161.84375 74.679688 Z M 120.710938 133.984375 C 120.773438 136.289062 121.8125 140.609375 127.046875 146.964844 C 135.269531 156.941406 132.976562 169.09375 127.046875 172.90625 C 126.753906 173.09375 126.476562 173.253906 126.199219 173.410156 C 130.222656 173.117188 134.035156 170.71875 135.796875 167.125 C 136.84375 165.078125 137.300781 162.734375 137.023438 160.460938 C 136.753906 158.179688 135.828125 156 134.59375 154.03125 C 132.152344 150.03125 128.445312 146.941406 125.386719 143.230469 C 123.855469 141.378906 122.484375 139.335938 121.582031 137.074219 C 121.183594 136.085938 120.890625 135.042969 120.710938 133.984375 Z M 110.109375 173.097656 C 109.589844 173.03125 109.054688 172.964844 108.484375 172.90625 C 98.144531 171.816406 97.242188 184.238281 84.726562 185.871094 C 83.628906 186.011719 82.453125 186.085938 81.238281 186.125 C 82.570312 187.058594 83.976562 187.875 85.480469 188.414062 C 87.273438 189.050781 89.1875 189.390625 91.050781 189.164062 C 92.921875 188.96875 94.644531 188.125 96.046875 186.859375 C 98.941406 184.371094 100.507812 180.628906 103.226562 177.648438 C 105.109375 175.589844 107.507812 174.035156 110.109375 173.097656 Z M 78.289062 129.585938 C 80.425781 128.1875 82.292969 126.492188 83.449219 124.050781 C 86.75 117.089844 83.933594 115.960938 91.246094 105.890625 C 88.832031 108.222656 86.464844 110.582031 84.625 113.335938 C 83.417969 115.085938 82.480469 117 81.90625 119.035156 C 81.332031 121.074219 81.0625 123.25 80.355469 125.359375 C 79.859375 126.859375 79.15625 128.277344 78.289062 129.585938 Z M 112.164062 54.722656 C 113.050781 49.558594 113.925781 43.945312 114.855469 37.816406 C 114.371094 39.214844 113.863281 40.609375 113.335938 41.988281 C 112.214844 44.847656 111.21875 47.785156 111.390625 50.804688 C 111.449219 52.136719 111.71875 53.457031 112.164062 54.722656 Z M 222.164062 100.96875 C 222.445312 102.945312 222.394531 104.980469 222.113281 106.964844 C 221.792969 108.9375 221.246094 110.828125 220.855469 112.722656 C 220.046875 116.496094 220.488281 120.429688 220.933594 124.308594 C 220.945312 124.414062 220.871094 124.507812 220.765625 124.519531 C 220.664062 124.53125 220.570312 124.460938 220.554688 124.363281 C 220.234375 122.429688 219.910156 120.488281 219.753906 118.511719 C 219.613281 116.542969 219.664062 114.527344 220.023438 112.566406 C 220.359375 110.605469 220.910156 108.722656 221.1875 106.820312 C 221.433594 104.925781 221.464844 103.003906 221.175781 101.097656 C 220.6875 97.269531 219.375 93.570312 218.285156 89.796875 C 217.742188 87.910156 217.230469 85.996094 216.921875 84.035156 C 216.730469 82.78125 216.621094 81.515625 216.609375 80.242188 C 216.289062 82.203125 216.097656 84.175781 216.183594 86.164062 C 216.429688 91.875 218.945312 97.339844 218.90625 103.054688 C 218.875 107.488281 217.304688 111.785156 217.152344 116.214844 C 216.988281 120.988281 218.480469 125.746094 217.929688 130.492188 C 217.234375 136.511719 213.355469 141.699219 211.894531 147.585938 C 211.46875 149.300781 211.261719 151.035156 211.195312 152.78125 C 208.550781 150.050781 206.109375 148.050781 203.949219 146.964844 C 201.179688 145.570312 176.945312 138.09375 173.277344 137.011719 C 173.277344 137.011719 170.535156 124.335938 170.535156 124.335938 L 170.171875 116.0625 C 170.171875 116.0625 170.097656 116.050781 169.964844 116.023438 C 169.984375 115.480469 169.992188 115.023438 169.980469 114.699219 C 183.527344 117.699219 197.046875 116.53125 203.152344 109.785156 C 211.707031 100.324219 209.117188 41.714844 209.117188 41.714844 C 208.898438 40.773438 208.632812 39.871094 208.339844 38.992188 C 208.367188 39.371094 208.371094 39.753906 208.339844 40.136719 C 208.234375 41.386719 207.832031 42.613281 207.117188 43.628906 C 207.042969 43.730469 206.902344 43.753906 206.800781 43.679688 C 206.710938 43.617188 206.679688 43.5 206.722656 43.402344 C 207.1875 42.34375 207.441406 41.214844 207.453125 40.089844 C 207.460938 38.96875 207.257812 37.847656 206.804688 36.835938 C 206.382812 35.878906 205.753906 35.023438 204.980469 34.304688 C 203.1875 33.457031 200.941406 33.441406 198.640625 33.847656 C 198.980469 33.886719 199.324219 33.941406 199.660156 34.015625 C 201.066406 34.363281 202.453125 35.058594 203.421875 36.191406 C 204.382812 37.292969 204.976562 38.773438 204.816406 40.222656 C 204.804688 40.328125 204.710938 40.402344 204.605469 40.390625 C 204.511719 40.382812 204.441406 40.304688 204.433594 40.214844 C 204.34375 38.890625 203.707031 37.671875 202.800781 36.765625 C 201.894531 35.855469 200.707031 35.253906 199.433594 34.988281 C 198.167969 34.675781 196.832031 34.6875 195.511719 34.867188 C 194.992188 34.9375 194.472656 35.039062 193.953125 35.15625 C 192.734375 35.601562 191.585938 36.09375 190.578125 36.558594 C 189.457031 34.550781 187.105469 33.519531 184.785156 33.554688 C 184.796875 33.558594 184.804688 33.5625 184.816406 33.566406 C 185.515625 33.871094 186.175781 34.273438 186.734375 34.796875 C 187.292969 35.308594 187.773438 35.914062 188.085938 36.597656 C 188.140625 36.714844 188.089844 36.851562 187.972656 36.902344 C 187.882812 36.945312 187.777344 36.917969 187.710938 36.847656 C 187.226562 36.339844 186.726562 35.875 186.171875 35.480469 C 185.617188 35.089844 185.039062 34.746094 184.417969 34.480469 C 183.851562 34.226562 183.257812 34.050781 182.648438 33.910156 C 181.746094 34.203125 180.910156 34.648438 180.148438 35.210938 C 180.3125 35.183594 180.472656 35.152344 180.640625 35.140625 C 181.234375 35.089844 181.832031 35.148438 182.417969 35.269531 C 183 35.402344 183.570312 35.601562 184.089844 35.894531 C 184.609375 36.179688 185.097656 36.53125 185.488281 36.980469 C 185.570312 37.074219 185.5625 37.222656 185.464844 37.304688 C 185.394531 37.367188 185.292969 37.378906 185.214844 37.339844 C 184.707031 37.105469 184.222656 36.878906 183.71875 36.699219 C 183.21875 36.519531 182.714844 36.359375 182.199219 36.246094 C 181.683594 36.117188 181.160156 36.046875 180.628906 35.984375 C 180.191406 35.9375 179.742188 35.925781 179.285156 35.914062 C 178.15625 36.945312 177.222656 38.21875 176.519531 39.578125 C 176.128906 40.335938 175.804688 41.121094 175.519531 41.917969 C 175.484375 43.933594 175.75 45.96875 175.988281 48.023438 C 176.226562 50.480469 176.460938 53.058594 175.8125 55.558594 C 175.492188 56.792969 175.003906 57.996094 174.285156 59.0625 C 173.554688 60.113281 172.585938 61.023438 171.429688 61.574219 C 171.335938 61.621094 171.222656 61.582031 171.175781 61.484375 C 171.132812 61.394531 171.167969 61.289062 171.25 61.238281 C 173.335938 59.980469 174.503906 57.6875 174.992188 55.367188 C 175.496094 53.019531 175.289062 50.574219 174.996094 48.136719 C 174.886719 47.03125 174.75 45.914062 174.660156 44.785156 C 174.394531 45.847656 174.171875 46.917969 173.945312 47.984375 C 175.722656 51.320312 172.46875 56.9375 169.441406 59.199219 C 166.539062 61.367188 163.003906 63.25 161.660156 66.558594 C 161.890625 67.566406 162.097656 68.582031 162.261719 69.609375 C 162.507812 71.28125 162.660156 72.96875 162.726562 74.660156 C 162.785156 76.339844 162.792969 78.0625 162.410156 79.78125 C 162.214844 80.636719 161.910156 81.488281 161.433594 82.257812 C 160.960938 83.027344 160.335938 83.691406 159.636719 84.238281 C 156.777344 86.425781 153.238281 86.796875 150.324219 88.203125 C 148.082031 89.257812 146.242188 91.140625 145.152344 93.40625 C 144.148438 97.191406 144.636719 101.691406 143.761719 105.695312 C 143.773438 105.921875 143.796875 106.144531 143.804688 106.371094 C 143.847656 108.335938 143.542969 110.304688 142.953125 112.183594 C 142.324219 114.050781 141.417969 115.824219 140.230469 117.382812 C 139.042969 118.945312 137.609375 120.3125 135.972656 121.359375 C 135.882812 121.417969 135.765625 121.390625 135.707031 121.304688 C 135.65625 121.222656 135.671875 121.113281 135.746094 121.054688 C 137.199219 119.832031 138.488281 118.4375 139.546875 116.890625 C 140.597656 115.339844 141.457031 113.660156 142.003906 111.878906 C 142.34375 110.859375 142.570312 109.808594 142.71875 108.746094 C 140.289062 113.667969 134.742188 116.136719 129.957031 118.902344 C 126.960938 120.632812 123.9375 123.074219 122.238281 125.988281 C 123.117188 125.375 124.070312 124.878906 125.050781 124.496094 C 127.179688 123.671875 129.40625 123.296875 131.601562 122.988281 C 131.726562 122.972656 131.839844 123.058594 131.855469 123.183594 C 131.871094 123.300781 131.796875 123.40625 131.6875 123.433594 C 129.535156 123.972656 127.371094 124.449219 125.386719 125.3125 C 123.851562 125.980469 122.398438 126.882812 121.289062 128.082031 C 121.113281 128.621094 120.996094 129.175781 120.925781 129.738281 C 120.933594 129.738281 120.941406 129.734375 120.949219 129.734375 C 121.070312 129.753906 121.148438 129.867188 121.136719 129.988281 C 120.824219 132.308594 121.308594 134.671875 122.257812 136.792969 C 123.175781 138.945312 124.527344 140.882812 126.0625 142.660156 C 129.109375 146.242188 132.851562 149.347656 135.441406 153.507812 C 136.714844 155.570312 137.6875 157.890625 137.953125 160.355469 C 138.226562 162.816406 137.730469 165.359375 136.542969 167.519531 C 135.378906 169.6875 133.546875 171.5 131.347656 172.585938 C 129.480469 173.507812 127.394531 173.949219 125.335938 173.863281 C 121.117188 175.894531 118.414062 174.347656 111.40625 173.285156 C 108.511719 174.253906 105.882812 175.972656 103.882812 178.238281 C 101.351562 181.101562 99.789062 184.878906 96.703125 187.609375 C 95.183594 188.964844 93.210938 189.910156 91.15625 190.09375 C 89.109375 190.3125 87.054688 189.949219 85.183594 189.203125 C 83.316406 188.472656 81.652344 187.375 80.117188 186.15625 C 75.667969 186.195312 70.679688 185.664062 66.082031 184.960938 C 55.054688 183.265625 50.117188 169.632812 57.964844 161.703125 C 58.449219 161.21875 58.960938 160.777344 59.503906 160.386719 C 67.125 154.945312 60.59375 147.324219 64.402344 139.707031 C 66.789062 134.933594 72.160156 133.148438 76.78125 130.511719 C 78.003906 128.871094 78.953125 127.039062 79.550781 125.101562 C 80.160156 123.074219 80.433594 120.925781 81.003906 118.785156 C 81.585938 116.640625 82.558594 114.605469 83.796875 112.777344 C 86.292969 109.113281 89.589844 106.183594 92.722656 103.226562 C 93.542969 102.453125 94.355469 101.671875 95.140625 100.871094 C 95.234375 100.753906 95.324219 100.640625 95.421875 100.519531 C 104.46875 89.511719 108.398438 76.222656 111.949219 55.945312 C 111.175781 54.363281 110.683594 52.632812 110.546875 50.859375 C 110.261719 47.628906 111.328125 44.519531 112.402344 41.632812 C 113.539062 38.75 114.550781 35.84375 115.496094 32.898438 C 115.5625 32.703125 115.621094 32.503906 115.683594 32.304688 C 115.835938 31.289062 115.988281 30.265625 116.148438 29.226562 C 121.632812 -7.238281 166.445312 2.269531 166.445312 2.269531 C 181.074219 1.832031 193.546875 10.246094 205.347656 18.902344 C 208.4375 21.167969 210.746094 24.484375 212.210938 28.210938 C 212.222656 28.21875 212.238281 28.226562 212.253906 28.234375 C 212.304688 28.335938 212.351562 28.4375 212.402344 28.535156 C 212.898438 29 213.386719 29.472656 213.847656 29.976562 C 214.929688 31.1875 215.902344 32.5 216.765625 33.882812 C 218.480469 36.652344 219.699219 39.71875 220.464844 42.882812 C 221.183594 46.058594 221.46875 49.324219 221.316406 52.5625 C 221.171875 55.800781 220.609375 59.007812 219.722656 62.101562 C 219.707031 62.160156 219.664062 62.195312 219.613281 62.21875 C 219.453125 65.226562 219.09375 68.222656 218.511719 71.179688 C 218.066406 73.441406 217.503906 75.695312 217.039062 77.957031 C 217.097656 78 217.140625 78.0625 217.136719 78.140625 C 217.050781 80.078125 217.257812 82.011719 217.640625 83.910156 C 217.996094 85.8125 218.542969 87.683594 219.132812 89.542969 C 220.292969 93.265625 221.617188 97.003906 222.164062 100.96875 Z M 382.394531 235 C 382.492188 235.140625 382.65625 235.230469 382.84375 235.210938 C 382.945312 235.199219 384.550781 235.035156 386.097656 234.363281 C 386.921875 234.007812 387.722656 233.511719 388.277344 232.824219 C 388.449219 232.605469 388.414062 232.292969 388.199219 232.121094 C 387.984375 231.945312 387.667969 231.980469 387.496094 232.199219 C 386.558594 233.367188 384.597656 233.890625 383.511719 234.097656 C 383.171875 234.382812 382.796875 234.683594 382.394531 235 Z M 362.9375 178.648438 C 362.660156 178.007812 361.914062 177.710938 361.273438 177.988281 C 360.628906 178.265625 360.335938 179.011719 360.613281 179.652344 L 360.949219 180.429688 L 361.882812 182.589844 C 362.160156 183.234375 362.90625 183.527344 363.550781 183.25 C 364.191406 182.972656 364.484375 182.226562 364.207031 181.585938 L 363.273438 179.421875 Z M 374.109375 278.613281 L 388.1875 260.078125 L 365.882812 260.078125 C 361.78125 264.296875 355.054688 271.023438 346.753906 278.613281 Z M 281.554688 273.589844 L 300.425781 260.078125 L 274.976562 260.078125 C 279.082031 268.378906 281.554688 273.589844 281.554688 273.589844 Z M 193.355469 278.613281 L 211.945312 278.613281 C 205.269531 270.414062 200.703125 264.441406 200.703125 264.441406 C 198.175781 268.480469 195.703125 273.3125 193.355469 278.613281 Z M 395.171875 370.714844 L 422.871094 370.714844 L 422.871094 369.714844 L 396.171875 369.714844 L 396.171875 367.011719 L 395.171875 367.011719 Z M 395.171875 364.714844 L 422.871094 364.714844 L 422.871094 363.714844 L 396.171875 363.714844 L 396.171875 361.011719 L 395.171875 361.011719 Z M 395.171875 358.714844 L 422.871094 358.714844 L 422.871094 357.714844 L 396.171875 357.714844 L 396.171875 355.011719 L 395.171875 355.011719 Z M 391.203125 341.945312 L 429.496094 341.945312 C 427.925781 353.699219 425.722656 365.042969 422.671875 375.714844 L 396.171875 375.714844 L 396.171875 373.011719 L 395.171875 373.011719 L 395.171875 376.714844 L 422.378906 376.714844 C 416.070312 398.320312 406.257812 417.117188 391.203125 430.921875 C 389.484375 432.496094 387.695312 434 385.839844 435.441406 L 385.839844 341.945312 Z M 337.8125 364.613281 L 377.070312 364.613281 L 377.070312 355.011719 L 337.8125 355.011719 Z M 363.003906 395.414062 C 363.003906 392.339844 360.511719 389.851562 357.441406 389.851562 C 354.367188 389.851562 351.878906 392.339844 351.878906 395.414062 C 351.878906 398.484375 354.367188 400.976562 357.441406 400.976562 C 360.511719 400.976562 363.003906 398.484375 363.003906 395.414062 Z M 379.746094 341.945312 L 384.839844 341.945312 L 384.839844 436.214844 C 383.796875 437 382.726562 437.757812 381.640625 438.5 L 381.640625 348.914062 L 336.636719 348.914062 L 336.636719 349.914062 L 380.640625 349.914062 L 380.640625 436.511719 L 336.636719 436.511719 L 336.636719 437.511719 L 380.640625 437.511719 L 380.640625 439.1875 C 380.367188 439.367188 380.089844 439.535156 379.816406 439.714844 L 336.636719 439.714844 L 336.636719 440.714844 L 378.246094 440.714844 C 365.519531 448.546875 349.921875 453.574219 330.832031 455.015625 L 330.832031 341.945312 Z M 380.085938 285.945312 L 431.53125 217.199219 C 431.707031 222.660156 431.898438 228.226562 432.082031 233.875 L 418.34375 252.066406 L 409.464844 263.824219 L 392.761719 285.945312 L 380.085938 285.945312" fill="#f25044"/></g><g clip-path="url(#c)" id="change5_1"><path d="M 355.542969 5.710938 L 353.542969 5.710938 L 353.542969 6.710938 L 355.542969 6.710938 Z M 359.542969 5.710938 L 357.542969 5.710938 L 357.542969 6.710938 L 359.542969 6.710938 Z M 354.136719 70.195312 L 352.136719 70.195312 L 352.136719 71.195312 L 354.136719 71.195312 Z M 358.136719 70.195312 L 356.136719 70.195312 L 356.136719 71.195312 L 358.136719 71.195312 Z M 351.542969 5.710938 L 349.542969 5.710938 L 349.542969 6.710938 L 351.542969 6.710938 Z M 347.542969 5.710938 L 345.542969 5.710938 L 345.542969 6.710938 L 347.542969 6.710938 Z M 350.136719 70.195312 L 348.136719 70.195312 L 348.136719 71.195312 L 350.136719 71.195312 Z M 360.136719 71.195312 L 362.136719 71.195312 L 362.136719 70.195312 L 360.136719 70.195312 Z M 375.542969 5.710938 L 373.542969 5.710938 L 373.542969 6.710938 L 375.542969 6.710938 Z M 371.542969 5.710938 L 369.542969 5.710938 L 369.542969 6.710938 L 371.542969 6.710938 Z M 374.136719 70.195312 L 372.136719 70.195312 L 372.136719 71.195312 L 374.136719 71.195312 Z M 363.542969 5.710938 L 361.542969 5.710938 L 361.542969 6.710938 L 363.542969 6.710938 Z M 367.542969 5.710938 L 365.542969 5.710938 L 365.542969 6.710938 L 367.542969 6.710938 Z M 364.136719 71.195312 L 366.136719 71.195312 L 366.136719 70.195312 L 364.136719 70.195312 Z M 346.136719 70.195312 L 344.136719 70.195312 L 344.136719 71.195312 L 346.136719 71.195312 Z M 370.136719 70.195312 L 368.136719 70.195312 L 368.136719 71.195312 L 370.136719 71.195312 Z M 342.582031 56.753906 L 341.582031 56.753906 L 341.582031 58.753906 L 342.582031 58.753906 Z M 342.582031 52.753906 L 341.582031 52.753906 L 341.582031 54.753906 L 342.582031 54.753906 Z M 342.582031 48.753906 L 341.582031 48.753906 L 341.582031 50.753906 L 342.582031 50.753906 Z M 342.582031 40.753906 L 341.582031 40.753906 L 341.582031 42.753906 L 342.582031 42.753906 Z M 342.109375 70.695312 L 342.582031 70.695312 L 342.582031 68.753906 L 341.582031 68.753906 L 341.582031 71.195312 L 342.136719 71.195312 Z M 342.582031 64.753906 L 341.582031 64.753906 L 341.582031 66.753906 L 342.582031 66.753906 Z M 342.582031 60.753906 L 341.582031 60.753906 L 341.582031 62.753906 L 342.582031 62.753906 Z M 342.582031 28.753906 L 341.582031 28.753906 L 341.582031 30.753906 L 342.582031 30.753906 Z M 342.582031 16.753906 L 341.582031 16.753906 L 341.582031 18.753906 L 342.582031 18.753906 Z M 342.582031 12.753906 L 341.582031 12.753906 L 341.582031 14.753906 L 342.582031 14.753906 Z M 342.582031 8.753906 L 341.582031 8.753906 L 341.582031 10.753906 L 342.582031 10.753906 Z M 342.582031 36.753906 L 341.582031 36.753906 L 341.582031 38.753906 L 342.582031 38.753906 Z M 342.582031 20.753906 L 341.582031 20.753906 L 341.582031 22.753906 L 342.582031 22.753906 Z M 342.582031 32.753906 L 341.582031 32.753906 L 341.582031 34.753906 L 342.582031 34.753906 Z M 343.542969 6.710938 L 343.542969 5.710938 L 341.582031 5.710938 L 341.582031 6.753906 L 342.582031 6.753906 Z M 342.582031 24.753906 L 341.582031 24.753906 L 341.582031 26.753906 L 342.582031 26.753906 Z M 342.582031 44.753906 L 341.582031 44.753906 L 341.582031 46.753906 L 342.582031 46.753906 Z M 406.636719 33.617188 L 405.636719 33.617188 L 405.636719 35.617188 L 406.636719 35.617188 Z M 406.636719 37.617188 L 405.636719 37.617188 L 405.636719 39.617188 L 406.636719 39.617188 Z M 406.636719 29.617188 L 405.636719 29.617188 L 405.636719 31.617188 L 406.636719 31.617188 Z M 406.636719 17.617188 L 405.636719 17.617188 L 405.636719 19.617188 L 406.636719 19.617188 Z M 406.636719 41.617188 L 405.636719 41.617188 L 405.636719 43.617188 L 406.636719 43.617188 Z M 406.636719 13.617188 L 405.636719 13.617188 L 405.636719 15.617188 L 406.636719 15.617188 Z M 406.636719 25.617188 L 405.636719 25.617188 L 405.636719 27.617188 L 406.636719 27.617188 Z M 406.636719 21.617188 L 405.636719 21.617188 L 405.636719 23.617188 L 406.636719 23.617188 Z M 406.636719 61.617188 L 405.636719 61.617188 L 405.636719 63.617188 L 406.636719 63.617188 Z M 405.636719 67.617188 L 406.636719 67.617188 L 406.636719 65.617188 L 405.636719 65.617188 Z M 405.636719 7.617188 L 406.636719 7.617188 L 406.636719 5.710938 L 405.542969 5.710938 L 405.542969 6.710938 L 405.636719 6.710938 Z M 406.636719 49.617188 L 405.636719 49.617188 L 405.636719 51.617188 L 406.636719 51.617188 Z M 378.136719 70.195312 L 376.136719 70.195312 L 376.136719 71.195312 L 378.136719 71.195312 Z M 406.636719 45.617188 L 405.636719 45.617188 L 405.636719 47.617188 L 406.636719 47.617188 Z M 406.636719 57.617188 L 405.636719 57.617188 L 405.636719 59.617188 L 406.636719 59.617188 Z M 406.636719 53.617188 L 405.636719 53.617188 L 405.636719 55.617188 L 406.636719 55.617188 Z M 403.542969 5.710938 L 401.542969 5.710938 L 401.542969 6.710938 L 403.542969 6.710938 Z M 387.542969 5.710938 L 385.542969 5.710938 L 385.542969 6.710938 L 387.542969 6.710938 Z M 391.542969 5.710938 L 389.542969 5.710938 L 389.542969 6.710938 L 391.542969 6.710938 Z M 406.636719 9.617188 L 405.636719 9.617188 L 405.636719 11.617188 L 406.636719 11.617188 Z M 390.136719 70.195312 L 388.136719 70.195312 L 388.136719 71.195312 L 390.136719 71.195312 Z M 383.542969 5.710938 L 381.542969 5.710938 L 381.542969 6.710938 L 383.542969 6.710938 Z M 379.542969 5.710938 L 377.542969 5.710938 L 377.542969 6.710938 L 379.542969 6.710938 Z M 382.136719 70.195312 L 380.136719 70.195312 L 380.136719 71.195312 L 382.136719 71.195312 Z M 384.136719 71.195312 L 386.136719 71.195312 L 386.136719 70.195312 L 384.136719 70.195312 Z M 402.136719 70.195312 L 400.136719 70.195312 L 400.136719 71.195312 L 402.136719 71.195312 Z M 406.636719 69.617188 L 405.636719 69.617188 L 405.636719 70.195312 L 404.136719 70.195312 L 404.136719 71.195312 L 406.636719 71.195312 Z M 399.542969 5.710938 L 397.542969 5.710938 L 397.542969 6.710938 L 399.542969 6.710938 Z M 394.136719 70.195312 L 392.136719 70.195312 L 392.136719 71.195312 L 394.136719 71.195312 Z M 398.136719 70.195312 L 396.136719 70.195312 L 396.136719 71.195312 L 398.136719 71.195312 Z M 395.542969 5.710938 L 393.542969 5.710938 L 393.542969 6.710938 L 395.542969 6.710938 Z M 362.855469 38.453125 C 364.492188 38.453125 365.816406 37.128906 365.816406 35.496094 C 365.816406 34.945312 365.65625 34.441406 365.398438 34 C 365.410156 34.070312 365.441406 34.132812 365.441406 34.203125 C 365.441406 34.914062 364.863281 35.496094 364.148438 35.496094 C 363.4375 35.496094 362.855469 34.914062 362.855469 34.203125 C 362.855469 33.492188 363.4375 32.910156 364.148438 32.910156 C 364.222656 32.910156 364.28125 32.941406 364.351562 32.953125 C 363.910156 32.695312 363.40625 32.535156 362.855469 32.535156 C 361.222656 32.535156 359.898438 33.859375 359.898438 35.496094 C 359.898438 37.128906 361.222656 38.453125 362.855469 38.453125 Z M 381.910156 35.496094 C 381.910156 37.128906 383.234375 38.453125 384.871094 38.453125 C 386.503906 38.453125 387.828125 37.128906 387.828125 35.496094 C 387.828125 34.945312 387.671875 34.441406 387.410156 34 C 387.421875 34.070312 387.453125 34.132812 387.453125 34.203125 C 387.453125 34.914062 386.875 35.496094 386.160156 35.496094 C 385.449219 35.496094 384.871094 34.914062 384.871094 34.203125 C 384.871094 33.492188 385.449219 32.910156 386.160156 32.910156 C 386.234375 32.910156 386.296875 32.941406 386.363281 32.953125 C 385.925781 32.695312 385.417969 32.535156 384.871094 32.535156 C 383.234375 32.535156 381.910156 33.859375 381.910156 35.496094 Z M 439.898438 94.941406 L 418.03125 94.941406 L 418.03125 116.804688 L 439.898438 116.804688 Z M 410.832031 94.941406 L 388.964844 94.941406 L 388.964844 116.804688 L 410.832031 116.804688 Z M 381.765625 94.941406 L 359.898438 94.941406 L 359.898438 116.804688 L 381.765625 116.804688 Z M 352.699219 94.941406 L 330.832031 94.941406 L 330.832031 116.804688 L 352.699219 116.804688 Z M 446.410156 90.257812 L 446.410156 121.488281 C 446.410156 123.503906 444.777344 125.132812 442.765625 125.132812 L 326.972656 125.132812 C 324.960938 125.132812 323.328125 123.503906 323.328125 121.488281 L 323.328125 90.257812 C 323.328125 88.242188 324.960938 86.613281 326.972656 86.613281 L 442.765625 86.613281 C 444.777344 86.613281 446.410156 88.242188 446.410156 90.257812 Z M 264.078125 104.984375 L 258.59375 99.414062 L 253.453125 104.472656 L 258.9375 110.042969 Z M 276.703125 49.433594 L 275.09375 64.011719 L 279.789062 59.351562 L 286.296875 60.527344 Z M 251.1875 131.933594 L 265.347656 131.933594 L 265.347656 119.117188 L 251.1875 119.117188 Z M 251.941406 109.476562 L 253.90625 111.476562 C 254.652344 112.230469 255.867188 112.238281 256.621094 111.496094 L 257.8125 110.324219 L 258.335938 110.855469 C 258.5 111.023438 258.71875 111.109375 258.933594 111.109375 C 259.148438 111.109375 259.363281 111.027344 259.527344 110.867188 L 264.890625 105.585938 C 265.222656 105.261719 265.226562 104.726562 264.902344 104.394531 L 259.195312 98.597656 C 259.03125 98.429688 258.816406 98.347656 258.597656 98.347656 C 258.382812 98.347656 258.171875 98.425781 258.007812 98.589844 L 252.640625 103.867188 C 252.308594 104.195312 252.304688 104.726562 252.632812 105.058594 L 253.152344 105.59375 L 251.964844 106.761719 C 251.207031 107.507812 251.199219 108.722656 251.941406 109.476562 Z M 263.238281 82.121094 L 264.679688 80.679688 L 262.691406 78.695312 L 260.707031 76.710938 L 259.269531 78.152344 Z M 257.425781 84.605469 L 252.5 89.53125 L 260.652344 87.21875 L 262.570312 82.691406 L 258.695312 78.816406 L 254.171875 80.738281 L 251.855469 88.890625 L 256.78125 83.964844 Z M 251.6875 65.363281 L 257.199219 59.890625 L 264.847656 61.269531 L 253.578125 48.238281 Z M 273.789062 66.714844 L 280.125 60.429688 L 288.90625 62.015625 L 275.964844 47.046875 Z M 287.601562 100.230469 L 282.339844 106.140625 L 287.601562 112.046875 Z M 287.230469 123.050781 L 283.195312 119.015625 L 282.058594 120.148438 L 286.097656 124.183594 Z M 285.480469 124.679688 L 281.5625 120.765625 L 274.613281 127.714844 L 274.265625 131.980469 L 278.53125 131.628906 Z M 274.441406 100.230469 L 274.441406 112.046875 L 279.703125 106.140625 Z M 284.300781 80.28125 L 286.253906 82.234375 L 287.671875 80.816406 L 283.761719 76.90625 L 282.34375 78.324219 Z M 283.6875 80.890625 L 281.78125 78.980469 L 277.324219 80.871094 L 275.59375 86.972656 L 275.21875 88.289062 L 275.046875 88.898438 L 275.414062 88.527344 L 276.121094 87.824219 L 279.894531 84.046875 L 280.53125 84.683594 L 275.679688 89.53125 L 283.707031 87.253906 L 285.597656 82.796875 Z M 281.523438 101.230469 L 281.523438 100.230469 L 280.523438 100.230469 L 280.523438 101.230469 Z M 281.523438 105.15625 L 281.523438 103.191406 L 280.523438 103.191406 L 280.523438 105.15625 Z M 280.523438 111.046875 L 280.523438 112.046875 L 281.523438 112.046875 L 281.523438 111.046875 Z M 281.523438 109.085938 L 281.523438 107.121094 L 280.523438 107.121094 L 280.523438 109.085938 Z M 273.886719 84.472656 C 274.019531 85.96875 274.480469 87.050781 274.859375 87.722656 L 275.285156 86.226562 C 275.105469 85.722656 274.949219 85.113281 274.882812 84.386719 C 274.785156 83.253906 275.402344 82.15625 276.003906 81.097656 C 276.605469 80.035156 277.171875 79.035156 276.964844 78.039062 C 276.566406 76.09375 274.65625 75.296875 274.574219 75.261719 C 274.320312 75.15625 274.027344 75.28125 273.925781 75.535156 C 273.820312 75.789062 273.941406 76.082031 274.195312 76.1875 C 274.210938 76.195312 275.695312 76.824219 275.984375 78.242188 C 276.117188 78.867188 275.640625 79.710938 275.132812 80.605469 C 274.488281 81.742188 273.761719 83.03125 273.886719 84.472656 Z M 245.261719 136.542969 L 245.261719 45.472656 C 245.261719 43.257812 247.058594 41.457031 249.273438 41.457031 L 289.542969 41.457031 C 291.761719 41.457031 293.558594 43.257812 293.558594 45.472656 L 293.558594 136.542969 C 293.558594 138.761719 291.761719 140.558594 289.542969 140.558594 L 249.273438 140.558594 C 247.058594 140.558594 245.261719 138.761719 245.261719 136.542969 Z M 275.441406 102.855469 L 275.441406 109.421875 L 278.363281 106.140625 Z M 275.582031 128.160156 L 275.359375 130.886719 L 278.085938 130.664062 L 278.894531 129.855469 L 276.390625 127.351562 Z M 252.1875 130.933594 L 264.347656 130.933594 L 264.347656 120.117188 L 252.1875 120.117188 Z M 362.925781 207.601562 C 362.8125 207.644531 362.730469 207.71875 362.648438 207.792969 C 362.578125 207.878906 362.511719 207.964844 362.472656 208.082031 C 362.429688 208.195312 362.394531 208.3125 362.402344 208.476562 C 362.410156 208.621094 362.523438 208.738281 362.671875 208.746094 C 362.835938 208.757812 362.957031 208.722656 363.070312 208.679688 C 363.1875 208.640625 363.269531 208.570312 363.355469 208.5 C 363.433594 208.421875 363.507812 208.339844 363.550781 208.226562 C 363.597656 208.117188 363.636719 208 363.628906 207.839844 C 363.621094 207.667969 363.484375 207.527344 363.308594 207.519531 C 363.148438 207.511719 363.03125 207.554688 362.925781 207.601562 Z M 368.820312 208.484375 C 368.535156 208.679688 368.292969 208.925781 368.074219 209.191406 C 367.863281 209.460938 367.671875 209.75 367.542969 210.070312 C 367.410156 210.386719 367.308594 210.71875 367.289062 211.070312 C 367.289062 211.125 367.3125 211.1875 367.355469 211.226562 C 367.4375 211.304688 367.566406 211.300781 367.640625 211.21875 C 367.875 210.980469 368.066406 210.742188 368.265625 210.507812 L 368.84375 209.824219 L 369.417969 209.136719 C 369.609375 208.902344 369.808594 208.671875 369.996094 208.402344 L 370.003906 208.394531 C 370.039062 208.339844 370.054688 208.269531 370.035156 208.199219 C 370.003906 208.070312 369.871094 207.992188 369.742188 208.027344 C 369.402344 208.117188 369.101562 208.285156 368.820312 208.484375 Z M 375.902344 218.636719 C 376.09375 218.691406 376.28125 218.703125 376.46875 218.710938 C 376.660156 218.710938 376.847656 218.703125 377.035156 218.65625 C 377.226562 218.609375 377.414062 218.558594 377.605469 218.4375 C 377.636719 218.417969 377.664062 218.390625 377.6875 218.355469 C 377.765625 218.230469 377.730469 218.066406 377.605469 217.988281 C 377.414062 217.867188 377.226562 217.816406 377.035156 217.769531 C 376.847656 217.722656 376.660156 217.714844 376.46875 217.714844 C 376.28125 217.722656 376.09375 217.734375 375.902344 217.789062 C 375.714844 217.839844 375.527344 217.898438 375.335938 218.023438 C 375.3125 218.039062 375.285156 218.0625 375.269531 218.089844 C 375.199219 218.195312 375.230469 218.335938 375.335938 218.402344 C 375.527344 218.527344 375.714844 218.585938 375.902344 218.636719 Z M 376.300781 239.558594 C 376.972656 238.992188 377.539062 238.304688 378.019531 237.5625 C 378.511719 236.820312 378.886719 236.007812 379.175781 235.167969 C 379.175781 235.164062 379.175781 235.160156 379.179688 235.15625 C 379.375 235.15625 379.574219 235.136719 379.769531 235.101562 C 380.140625 235.035156 380.496094 234.890625 380.828125 234.699219 C 381.15625 234.503906 381.464844 234.261719 381.699219 233.949219 C 381.933594 233.644531 382.125 233.292969 382.179688 232.90625 C 382.1875 232.851562 382.171875 232.789062 382.128906 232.746094 C 382.054688 232.660156 381.929688 232.65625 381.847656 232.730469 L 381.839844 232.738281 C 381.585938 232.96875 381.355469 233.171875 381.105469 233.347656 C 380.847656 233.523438 380.601562 233.691406 380.332031 233.835938 C 380.070312 233.988281 379.789062 234.117188 379.507812 234.253906 C 379.476562 234.269531 379.441406 234.28125 379.410156 234.296875 C 379.550781 233.726562 379.664062 233.148438 379.703125 232.5625 C 379.769531 231.679688 379.734375 230.789062 379.539062 229.929688 C 379.515625 229.832031 379.433594 229.757812 379.328125 229.75 C 379.203125 229.742188 379.09375 229.84375 379.089844 229.96875 C 379.042969 230.8125 378.96875 231.640625 378.824219 232.457031 C 378.675781 233.269531 378.488281 234.074219 378.226562 234.851562 C 377.976562 235.636719 377.648438 236.394531 377.289062 237.140625 C 376.917969 237.882812 376.484375 238.597656 376.015625 239.304688 C 375.96875 239.375 375.972656 239.46875 376.027344 239.535156 C 376.097656 239.617188 376.21875 239.628906 376.300781 239.558594 Z M 384.667969 223.152344 C 384.726562 223.238281 384.839844 223.277344 384.941406 223.238281 C 385.058594 223.191406 385.117188 223.0625 385.070312 222.945312 C 384.683594 221.933594 384.199219 220.96875 383.671875 220.023438 C 383.148438 219.078125 382.554688 218.175781 381.925781 217.296875 C 381.285156 216.425781 380.613281 215.574219 379.878906 214.785156 C 379.148438 213.988281 378.382812 213.230469 377.546875 212.542969 C 377.476562 212.488281 377.378906 212.484375 377.304688 212.539062 C 377.222656 212.605469 377.207031 212.726562 377.269531 212.808594 L 379.230469 215.328125 C 379.867188 216.175781 380.507812 217.015625 381.113281 217.878906 C 381.734375 218.734375 382.324219 219.613281 382.917969 220.488281 Z M 171.535156 327.03125 C 170.617188 325.488281 169.726562 323.933594 168.785156 322.402344 C 167.847656 320.871094 166.902344 319.347656 165.902344 317.851562 C 165.851562 317.773438 165.746094 317.742188 165.660156 317.785156 C 165.5625 317.832031 165.523438 317.945312 165.570312 318.039062 C 166.359375 319.65625 167.203125 321.242188 168.054688 322.824219 C 168.902344 324.40625 169.800781 325.960938 170.671875 327.527344 C 171.582031 329.074219 172.472656 330.632812 173.402344 332.167969 C 174.335938 333.699219 175.277344 335.230469 176.273438 336.726562 C 176.335938 336.820312 176.460938 336.855469 176.5625 336.804688 C 176.675781 336.746094 176.722656 336.613281 176.667969 336.5 C 175.875 334.886719 175.027344 333.304688 174.171875 331.726562 C 173.3125 330.148438 172.414062 328.59375 171.535156 327.03125 Z M 291.027344 281.371094 C 291.074219 281.476562 291.191406 281.535156 291.304688 281.5 C 291.425781 281.464844 291.492188 281.339844 291.453125 281.21875 C 290.808594 279.113281 289.523438 277.183594 287.800781 275.757812 C 286.089844 274.304688 283.949219 273.402344 281.746094 273.03125 C 281.621094 273.011719 281.488281 273.039062 281.375 273.121094 C 281.160156 273.28125 281.113281 273.589844 281.273438 273.804688 L 281.277344 273.8125 C 282.878906 275.980469 284.246094 278.332031 285.257812 280.84375 C 286.304688 283.339844 287.019531 285.972656 287.445312 288.664062 C 287.460938 288.761719 287.546875 288.832031 287.644531 288.828125 C 287.75 288.820312 287.832031 288.730469 287.824219 288.625 C 287.664062 285.863281 287.046875 283.128906 286.078125 280.519531 C 285.230469 278.320312 284.132812 276.207031 282.789062 274.261719 C 284.40625 274.675781 285.9375 275.40625 287.269531 276.417969 C 288.917969 277.6875 290.21875 279.414062 291.027344 281.371094 Z M 154.5625 128.375 C 152.445312 127.503906 150.320312 126.640625 148.175781 125.839844 C 148.085938 125.804688 147.980469 125.84375 147.9375 125.929688 C 147.890625 126.027344 147.929688 126.140625 148.023438 126.1875 C 150.070312 127.21875 152.144531 128.1875 154.222656 129.148438 C 156.300781 130.113281 158.398438 131.027344 160.488281 131.96875 L 166.804688 134.667969 C 168.921875 135.542969 171.039062 136.410156 173.1875 137.222656 C 173.292969 137.261719 173.414062 137.214844 173.46875 137.109375 C 173.523438 136.996094 173.480469 136.863281 173.367188 136.804688 C 171.316406 135.78125 169.238281 134.816406 167.160156 133.859375 L 160.886719 131.054688 C 158.777344 130.164062 156.679688 129.246094 154.5625 128.375 Z M 199.488281 65.773438 C 200.242188 65.339844 200.960938 64.871094 201.699219 64.484375 C 202.441406 64.101562 203.191406 63.777344 203.976562 63.621094 C 204.753906 63.449219 205.542969 63.449219 206.292969 63.644531 C 207.046875 63.847656 207.75 64.265625 208.347656 64.832031 C 208.421875 64.898438 208.535156 64.917969 208.625 64.863281 C 208.734375 64.800781 208.769531 64.660156 208.703125 64.550781 C 208.234375 63.757812 207.460938 63.144531 206.570312 62.804688 C 205.671875 62.453125 204.671875 62.445312 203.765625 62.644531 C 202.851562 62.851562 202.003906 63.25 201.265625 63.757812 C 200.523438 64.265625 199.859375 64.84375 199.253906 65.472656 C 199.195312 65.53125 199.179688 65.625 199.222656 65.699219 C 199.277344 65.792969 199.394531 65.824219 199.488281 65.773438 Z M 170.777344 64.269531 C 171.792969 63.644531 172.796875 63.03125 173.84375 62.527344 C 174.894531 62.03125 175.972656 61.617188 177.085938 61.40625 C 178.1875 61.179688 179.335938 61.167969 180.441406 61.359375 C 181.546875 61.558594 182.609375 62.003906 183.519531 62.707031 C 183.601562 62.773438 183.722656 62.773438 183.808594 62.703125 C 183.902344 62.621094 183.914062 62.476562 183.832031 62.382812 C 183.015625 61.429688 181.847656 60.804688 180.632812 60.496094 C 179.40625 60.179688 178.121094 60.179688 176.886719 60.425781 C 175.660156 60.683594 174.5 61.15625 173.449219 61.785156 C 172.390625 62.402344 171.421875 63.140625 170.546875 63.964844 C 170.480469 64.023438 170.464844 64.125 170.511719 64.203125 C 170.566406 64.292969 170.6875 64.324219 170.777344 64.269531 Z M 154.742188 107.054688 C 156.488281 108.460938 158.398438 109.632812 160.359375 110.671875 C 162.332031 111.6875 164.351562 112.585938 166.386719 113.425781 L 166.410156 113.433594 C 166.527344 113.484375 166.664062 113.441406 166.730469 113.332031 C 166.808594 113.210938 166.773438 113.046875 166.648438 112.972656 L 166.03125 112.582031 C 165.980469 112.546875 165.917969 112.542969 165.859375 112.558594 C 164.152344 111.675781 162.445312 110.816406 160.792969 109.871094 C 158.886719 108.8125 157.046875 107.640625 155.363281 106.28125 C 153.667969 104.945312 152.171875 103.367188 150.929688 101.609375 C 149.691406 99.851562 148.757812 97.871094 148.285156 95.746094 C 148.265625 95.652344 148.175781 95.585938 148.078125 95.597656 C 147.972656 95.609375 147.898438 95.703125 147.910156 95.808594 C 148.15625 98.039062 149.023438 100.183594 150.234375 102.074219 C 151.441406 103.980469 153.015625 105.621094 154.742188 107.054688 Z M 182.671875 102.214844 C 183.191406 102.367188 183.722656 102.488281 184.265625 102.535156 C 184.804688 102.589844 185.347656 102.605469 185.886719 102.523438 C 185.972656 102.507812 186.050781 102.449219 186.074219 102.359375 C 186.113281 102.238281 186.042969 102.105469 185.917969 102.070312 C 185.414062 101.917969 184.914062 101.800781 184.421875 101.667969 L 182.957031 101.257812 L 181.496094 100.816406 C 181.007812 100.664062 180.523438 100.496094 180.011719 100.351562 C 179.941406 100.332031 179.863281 100.351562 179.8125 100.40625 C 179.738281 100.488281 179.746094 100.613281 179.824219 100.683594 C 180.230469 101.050781 180.691406 101.339844 181.167969 101.597656 C 181.644531 101.859375 182.152344 102.050781 182.671875 102.214844 Z M 175.15625 93.042969 C 175.085938 92.984375 174.980469 92.980469 174.90625 93.046875 C 174.828125 93.117188 174.820312 93.238281 174.890625 93.316406 C 175.976562 94.535156 177.296875 95.542969 178.730469 96.34375 C 180.167969 97.152344 181.75 97.679688 183.359375 98.027344 C 184.980469 98.328125 186.648438 98.429688 188.285156 98.21875 C 188.695312 98.160156 189.105469 98.105469 189.503906 98.011719 C 189.90625 97.933594 190.316406 97.847656 190.71875 97.703125 C 191.488281 97.417969 192.378906 96.910156 192.640625 95.992188 C 192.671875 95.886719 192.621094 95.769531 192.519531 95.722656 C 192.40625 95.671875 192.269531 95.71875 192.21875 95.832031 L 192.214844 95.839844 C 191.917969 96.480469 191.222656 96.824219 190.5 97.003906 C 189.773438 97.191406 188.972656 97.285156 188.203125 97.335938 C 186.648438 97.453125 185.078125 97.363281 183.550781 97.046875 C 180.476562 96.492188 177.601562 95.058594 175.15625 93.042969 Z M 191.777344 89.90625 C 193.574219 89.929688 195.523438 89.902344 197.25 88.902344 C 198.097656 88.425781 198.839844 87.679688 199.257812 86.738281 C 199.679688 85.78125 199.671875 84.738281 199.550781 83.804688 C 199.234375 81.957031 198.800781 80.199219 198.242188 78.441406 C 197.679688 76.695312 197.011719 74.988281 196.191406 73.351562 C 196.140625 73.25 196.019531 73.199219 195.910156 73.238281 C 195.792969 73.28125 195.730469 73.410156 195.773438 73.527344 C 196.367188 75.238281 196.925781 76.953125 197.394531 78.691406 C 197.859375 80.421875 198.296875 82.199219 198.5625 83.941406 C 198.691406 84.792969 198.699219 85.640625 198.398438 86.371094 C 198.097656 87.105469 197.5 87.714844 196.804688 88.183594 C 195.390625 89.128906 193.546875 89.3125 191.757812 89.523438 C 191.664062 89.535156 191.589844 89.617188 191.589844 89.714844 C 191.589844 89.820312 191.671875 89.90625 191.777344 89.90625 Z M 72.238281 181.609375 C 72.132812 181.589844 72.035156 181.65625 72.015625 181.761719 L 69.421875 195.386719 L 66.914062 209.027344 L 61.910156 236.308594 L 58.214844 257.269531 C 57.179688 258.214844 56.179688 259.191406 55.1875 260.175781 C 54.101562 261.257812 53.046875 262.371094 51.976562 263.46875 C 50.941406 264.597656 49.882812 265.710938 48.867188 266.855469 C 47.84375 268 46.832031 269.152344 45.863281 270.347656 C 45.808594 270.421875 45.808594 270.523438 45.871094 270.597656 C 45.941406 270.675781 46.0625 270.683594 46.140625 270.609375 C 47.285156 269.585938 48.386719 268.515625 49.476562 267.4375 C 50.570312 266.363281 51.625 265.25 52.703125 264.15625 C 53.746094 263.035156 54.804688 261.925781 55.828125 260.785156 C 56.578125 259.949219 57.316406 259.105469 58.042969 258.246094 L 57.09375 263.625 L 54.691406 277.285156 L 53.222656 285.945312 L 51.332031 285.945312 C 51.714844 287.308594 52.128906 288.644531 52.542969 289.980469 L 52.375 290.960938 C 52.355469 291.082031 52.4375 291.199219 52.558594 291.222656 C 52.679688 291.242188 52.796875 291.164062 52.820312 291.039062 L 55.410156 277.414062 L 57.90625 263.773438 L 62.890625 236.484375 L 67.6875 209.164062 L 70.082031 195.503906 L 72.390625 181.828125 C 72.40625 181.726562 72.339844 181.628906 72.238281 181.609375 Z M 242.222656 313.464844 C 242.300781 313.394531 242.3125 313.273438 242.242188 313.195312 L 224.945312 292.742188 L 207.71875 272.234375 C 196.289062 258.515625 184.925781 244.738281 173.984375 230.640625 C 172.597656 228.890625 171.28125 227.097656 169.925781 225.324219 C 168.5625 223.558594 167.265625 221.75 165.980469 219.933594 C 164.640625 218.144531 163.507812 216.253906 162.332031 214.382812 C 161.265625 212.488281 160.65625 210.363281 160.265625 208.207031 C 160.046875 207.132812 159.96875 206.027344 159.851562 204.933594 C 159.816406 203.832031 159.726562 202.730469 159.773438 201.625 C 159.773438 199.414062 160.003906 197.207031 160.285156 195.011719 C 160.925781 190.625 162.023438 186.304688 163.5 182.117188 C 166.496094 173.777344 171.003906 165.902344 177.136719 159.480469 C 180.207031 156.289062 183.722656 153.511719 187.609375 151.382812 C 191.488281 149.253906 195.753906 147.804688 200.148438 147.1875 C 200.269531 147.171875 200.359375 147.058594 200.34375 146.933594 C 200.328125 146.808594 200.214844 146.722656 200.089844 146.738281 C 195.632812 147.316406 191.289062 148.742188 187.328125 150.863281 C 183.359375 152.984375 179.757812 155.765625 176.609375 158.972656 C 170.363281 165.460938 165.785156 173.414062 162.726562 181.84375 C 161.21875 186.070312 160.09375 190.4375 159.425781 194.886719 C 159.128906 197.117188 158.890625 199.359375 158.882812 201.613281 C 158.832031 202.742188 158.917969 203.867188 158.949219 204.996094 C 159.066406 206.121094 159.144531 207.25 159.367188 208.367188 C 159.761719 210.59375 160.390625 212.820312 161.511719 214.835938 C 162.703125 216.746094 163.863281 218.691406 165.195312 220.480469 C 166.480469 222.316406 167.78125 224.140625 169.140625 225.910156 C 170.492188 227.691406 171.804688 229.503906 173.199219 231.25 C 184.210938 245.324219 195.632812 259.0625 207.117188 272.738281 L 224.433594 293.179688 L 241.953125 313.445312 C 242.023438 313.523438 242.144531 313.53125 242.222656 313.464844 Z M 199.5 72.757812 C 200.640625 72.757812 201.5625 71.835938 201.5625 70.695312 C 201.5625 69.558594 200.640625 68.636719 199.5 68.636719 C 198.363281 68.636719 197.441406 69.558594 197.441406 70.695312 C 197.441406 71.835938 198.363281 72.757812 199.5 72.757812 Z M 177.398438 70.695312 C 177.398438 69.558594 176.476562 68.636719 175.335938 68.636719 C 174.199219 68.636719 173.277344 69.558594 173.277344 70.695312 C 173.277344 71.835938 174.199219 72.757812 175.335938 72.757812 C 176.476562 72.757812 177.398438 71.835938 177.398438 70.695312 Z M 377.089844 208.695312 L 365.757812 181.203125 C 365.335938 180.136719 364.34375 179.480469 363.273438 179.421875 L 364.207031 181.585938 C 364.484375 182.226562 364.191406 182.972656 363.550781 183.25 C 362.90625 183.527344 362.160156 183.234375 361.882812 182.589844 L 360.949219 180.429688 C 360.261719 181.25 360.054688 182.421875 360.546875 183.460938 L 371.269531 207.109375 C 373.808594 207.421875 376.070312 207.929688 377.089844 208.695312 Z M 387.835938 241.363281 L 388.734375 240.929688 C 388.421875 240.277344 387.992188 239.605469 387.480469 238.921875 C 387.824219 238.835938 388.117188 238.542969 388.140625 238.128906 L 388.277344 235.347656 C 388.34375 233.972656 388.046875 232.609375 387.414062 231.386719 L 386.570312 229.75 C 386.367188 230.808594 385.867188 231.878906 384.871094 232.878906 C 384.402344 233.347656 383.753906 233.90625 382.980469 234.53125 C 382.742188 234.726562 382.492188 234.921875 382.230469 235.125 C 384.941406 237.261719 386.882812 239.394531 387.835938 241.363281 Z M 351.695312 222.140625 C 351.863281 221.816406 352.035156 221.492188 352.207031 221.160156 C 345.484375 219.757812 338.242188 219.023438 330.8125 219.3125 C 310.246094 220.117188 309.59375 218.910156 304.507812 209.515625 C 302.902344 206.554688 300.90625 202.867188 297.75 198.199219 C 284.359375 178.378906 252.019531 189.113281 251.695312 189.222656 L 252.015625 190.171875 C 252.335938 190.0625 283.953125 179.5625 296.921875 198.757812 C 300.050781 203.386719 302.03125 207.050781 303.628906 209.992188 C 308.859375 219.65625 309.664062 221.140625 330.851562 220.3125 C 337.988281 220.03125 345.066406 220.757812 351.695312 222.140625 Z M 396.171875 373.011719 L 395.171875 373.011719 L 395.171875 376.714844 L 422.378906 376.714844 C 422.476562 376.378906 422.578125 376.046875 422.671875 375.714844 L 396.171875 375.714844 Z M 396.171875 367.011719 L 395.171875 367.011719 L 395.171875 370.714844 L 422.871094 370.714844 L 422.871094 369.714844 L 396.171875 369.714844 Z M 396.171875 361.011719 L 395.171875 361.011719 L 395.171875 364.714844 L 422.871094 364.714844 L 422.871094 363.714844 L 396.171875 363.714844 Z M 396.171875 355.011719 L 395.171875 355.011719 L 395.171875 358.714844 L 422.871094 358.714844 L 422.871094 357.714844 L 396.171875 357.714844 Z M 336.636719 439.714844 L 336.636719 440.714844 L 378.246094 440.714844 C 378.753906 440.402344 379.246094 440.078125 379.746094 439.757812 C 379.769531 439.742188 379.792969 439.726562 379.816406 439.714844 Z M 377.070312 355.011719 L 337.8125 355.011719 L 337.8125 364.613281 L 377.070312 364.613281 Z M 351.878906 395.414062 C 351.878906 398.484375 354.367188 400.976562 357.441406 400.976562 C 360.511719 400.976562 363.003906 398.484375 363.003906 395.414062 C 363.003906 392.339844 360.511719 389.851562 357.441406 389.851562 C 354.367188 389.851562 351.878906 392.339844 351.878906 395.414062 Z M 336.636719 348.914062 L 336.636719 349.914062 L 380.640625 349.914062 L 380.640625 436.511719 L 336.636719 436.511719 L 336.636719 437.511719 L 380.640625 437.511719 L 380.640625 439.1875 C 380.976562 438.964844 381.304688 438.730469 381.640625 438.5 L 381.640625 348.914062 Z M 277.757812 360.855469 C 256.058594 351.097656 183.457031 365.8125 183.457031 365.8125 C 183.363281 365.742188 183.265625 365.671875 183.171875 365.601562 C 155.488281 371.097656 131.796875 384.765625 102.261719 369.09375 C 129.757812 394.917969 165.742188 414.628906 207.664062 430.464844 C 226.824219 429.019531 241.742188 427.671875 241.742188 427.671875 C 241.742188 427.671875 241.996094 434.492188 243.042969 442.503906 C 266.761719 449.625 287.554688 453.617188 305.789062 454.941406 C 303.316406 431.0625 295.25 368.722656 277.757812 360.855469 Z M 194.105469 276.945312 C 191.160156 283.398438 188.398438 290.625 185.949219 298.011719 L 228.386719 298.011719 C 221.847656 290.652344 215.535156 283.054688 210.59375 276.945312 Z M 418.34375 252.066406 L 409.464844 263.824219 L 412.402344 285.945312 L 380.085938 285.945312 L 431.53125 217.199219 C 431.355469 211.726562 431.195312 206.355469 431.074219 201.121094 L 374.332031 276.945312 L 348.566406 276.945312 C 341.378906 283.585938 332.886719 291 323.84375 298.011719 L 379.746094 298.011719 L 379.746094 341.945312 L 384.839844 341.945312 L 384.839844 436.214844 C 385.175781 435.960938 385.507812 435.699219 385.839844 435.441406 L 385.839844 341.945312 L 391.203125 341.945312 L 391.203125 298.011719 L 432.769531 298.011719 C 432.875 293.996094 432.945312 289.972656 432.980469 285.945312 L 423.46875 285.945312 Z M 228.074219 175.078125 C 225.746094 171.515625 223.453125 168.15625 221.226562 165.078125 L 430.179688 165.078125 C 430.421875 168.355469 430.59375 171.6875 430.699219 175.078125 L 228.074219 175.078125" fill="#393a3f"/></g></g></svg>