<?xml version="1.0" encoding="UTF-8"?><svg xmlns="http://www.w3.org/2000/svg" xmlns:xlink="http://www.w3.org/1999/xlink" height="440.5" preserveAspectRatio="xMidYMid meet" version="1.0" viewBox="136.0 29.8 162.1 440.5" width="162.1" zoomAndPan="magnify"><g><g id="change1_1"><path d="M 200.101562 171.449219 C 199.296875 171.449219 184.441406 176.183594 184.441406 176.835938 C 184.441406 177.488281 179.707031 192.375 179.382812 193.582031 C 179.054688 194.789062 172.363281 215.847656 173.015625 217.480469 C 173.667969 219.113281 179.984375 232.007812 181.476562 233.476562 C 182.972656 234.945312 207.929688 240.007812 208.671875 240.332031 C 209.414062 240.660156 231.824219 240.722656 234.121094 240.332031 C 236.414062 239.941406 243.949219 236.261719 245.046875 232.992188 C 246.144531 229.722656 246.632812 212.421875 246.304688 210.460938 C 245.980469 208.503906 248.753906 203.996094 248.917969 203.71875 C 249.082031 203.441406 241.796875 187.722656 241.683594 185.789062 C 241.570312 183.855469 232.289062 172.546875 230.320312 172.242188 C 228.351562 171.9375 200.101562 171.449219 200.101562 171.449219" fill="#fff"/></g><g id="change1_2"><path d="M 188.433594 125.125 C 188.433594 125.125 184.359375 123.921875 183.703125 126.488281 C 183.050781 129.054688 181.429688 137.945312 191.097656 135.820312 C 191.097656 135.820312 195.105469 143.351562 200.613281 145.5 C 200.613281 145.5 203.300781 156.109375 202.53125 158.230469 C 202.53125 158.230469 205.355469 165.8125 208.695312 166.976562 C 208.695312 166.976562 202.835938 166.496094 197.238281 160.679688 L 193.527344 162.917969 C 193.527344 162.917969 200.222656 171.738281 211.058594 168.199219 C 211.058594 168.199219 235.167969 167.347656 219.527344 142.550781 L 217.363281 149.875 C 217.363281 149.875 222.785156 164.070312 210.53125 166.011719 L 214.8125 157.296875 C 214.8125 157.296875 212.542969 152.234375 211.265625 143.464844 C 211.265625 143.464844 216.234375 139.988281 216.285156 130.054688 C 216.285156 130.054688 219.117188 130.1875 221.277344 125.960938 C 223.4375 121.734375 218.164062 116.96875 215.945312 122.21875 C 215.945312 122.21875 206.046875 125.328125 201.664062 117.179688 C 201.664062 117.179688 192.71875 119.605469 187.460938 119.113281 C 187.460938 119.113281 187.4375 124.148438 188.433594 125.125" fill="#fff"/></g><g id="change1_3"><path d="M 222.402344 80.886719 C 222.402344 80.886719 220.621094 67.808594 219.824219 67.417969 C 219.027344 67.027344 213.28125 62.746094 213.28125 62.746094 L 199.773438 79.105469 C 199.773438 79.105469 188.339844 78.4375 191.796875 65.082031 L 211.394531 55.710938 L 211.394531 54.929688 C 211.394531 54.929688 217.71875 46.792969 223.449219 47.265625 C 223.449219 47.265625 225.890625 44.671875 227.339844 44.742188 C 227.339844 44.742188 241.96875 31.289062 243.890625 30.664062 C 243.890625 30.664062 250.136719 34.335938 250.636719 41.433594 C 251.136719 48.535156 251.351562 50.949219 246.082031 52.203125 C 240.808594 53.457031 229.054688 55.027344 229.054688 55.027344 C 229.054688 55.027344 227.554688 60.710938 228.699219 63.914062 C 229.84375 67.125 234.625 83.136719 234.625 83.136719 C 234.625 83.136719 230.523438 84.761719 222.402344 80.886719" fill="#fff"/></g><g id="change1_4"><path d="M 239.402344 232.019531 C 233.519531 253.476562 206.5 258.375 187.542969 256.726562 C 186.582031 256.644531 186.585938 258.144531 187.542969 258.226562 C 207.191406 259.9375 234.785156 254.527344 240.847656 232.414062 C 241.105469 231.484375 239.65625 231.085938 239.402344 232.019531" fill="#fff"/></g><g id="change2_1"><path d="M 187.460938 119.113281 C 187.460938 119.113281 204.476562 118.441406 213.1875 113.023438 L 209.339844 96.726562 L 221.90625 93.011719 L 221.363281 90.191406 L 168.722656 102.710938 L 169.132812 105.289062 L 185.105469 101.980469 C 185.105469 101.980469 186.25 118.398438 187.460938 119.113281" fill="#a1b5cc"/></g><g id="change2_2"><path d="M 229.53125 191.703125 C 228.699219 189.902344 224.839844 189.78125 224.839844 189.78125 C 226.335938 189.140625 229.644531 186.390625 228.148438 185.84375 C 226.652344 185.292969 224.066406 189.070312 224.066406 189.070312 C 223.222656 187.039062 220.382812 184.480469 220.261719 186.628906 C 220.144531 188.78125 223.320312 189.484375 223.320312 189.484375 C 223.320312 189.484375 217.871094 190.453125 218.871094 191.222656 C 219.875 191.988281 223.832031 190.785156 223.832031 190.785156 C 223.832031 190.785156 222.175781 194.816406 224.066406 195.234375 C 225.957031 195.652344 224.839844 190.785156 224.839844 190.785156 C 225.882812 191.304688 230.359375 193.5 229.53125 191.703125" fill="#a1b5cc"/></g><g id="change2_3"><path d="M 198.585938 185.136719 C 198.585938 185.136719 196.996094 188.53125 198.261719 189.300781 C 199.527344 190.066406 199.40625 185.835938 199.40625 185.835938 C 199.40625 185.835938 203.023438 190.175781 203.304688 187.808594 C 203.589844 185.4375 200.1875 184.875 200.1875 184.875 C 202.722656 183.464844 202.765625 182.523438 202.113281 182.261719 C 201.464844 181.992188 199.78125 183.75 199.78125 183.75 C 200.277344 182.988281 200.394531 179.601562 199.007812 180.148438 C 197.621094 180.695312 198.597656 183.75 198.597656 183.75 C 195.761719 182.582031 193.820312 183.328125 194.632812 184.53125 C 195.445312 185.738281 198.585938 185.136719 198.585938 185.136719" fill="#a1b5cc"/></g><g id="change2_4"><path d="M 207.957031 199.558594 C 207.242188 197.4375 204.175781 197.003906 204.175781 197.003906 C 208.503906 195.117188 207.953125 193.242188 206.421875 193.1875 C 204.886719 193.132812 203.324219 195.738281 203.324219 195.738281 C 203.636719 194.539062 203.078125 190.449219 201.472656 191.875 C 199.867188 193.296875 202.3125 196.007812 202.3125 196.007812 C 202.3125 196.007812 200.449219 195.601562 199.242188 195.261719 C 198.039062 194.921875 196.285156 195.601562 197.140625 197.003906 C 197.996094 198.40625 202.203125 197.515625 202.203125 197.515625 C 201.105469 198.339844 198.695312 201.023438 200.925781 201.839844 C 203.15625 202.65625 203.324219 198.164062 203.324219 198.164062 C 203.324219 198.164062 203.898438 199.324219 205.214844 200.679688 C 206.53125 202.035156 208.667969 201.679688 207.957031 199.558594" fill="#a1b5cc"/></g><g id="change2_5"><path d="M 196.914062 217.484375 C 196.914062 217.484375 199.132812 214.636719 198.4375 213.898438 C 197.746094 213.160156 197.097656 212.648438 195.894531 213.359375 C 194.691406 214.070312 194.925781 216.949219 194.925781 216.949219 C 194.925781 216.949219 191.917969 212.789062 191.039062 214.777344 C 190.164062 216.765625 193.722656 217.78125 193.722656 217.78125 C 193.722656 217.78125 191.363281 218.058594 190.277344 218.578125 C 189.191406 219.097656 187.898438 219.910156 189.1875 220.480469 C 190.480469 221.046875 194.632812 218.679688 194.632812 218.679688 C 194.632812 218.679688 194 221.664062 194.355469 223.007812 C 194.714844 224.347656 195.988281 224.671875 196.496094 223.007812 C 197.003906 221.34375 196.035156 218.679688 196.035156 218.679688 C 196.035156 218.679688 197.882812 219.722656 199.316406 220.230469 C 200.75 220.742188 201.535156 219.398438 200.242188 218.289062 C 198.945312 217.179688 196.914062 217.484375 196.914062 217.484375" fill="#a1b5cc"/></g><g id="change2_6"><path d="M 217.039062 215.261719 C 215.695312 214.828125 213.902344 215.648438 213.902344 215.648438 C 214.933594 214.710938 216.777344 211.105469 215.003906 211.277344 C 213.230469 211.453125 212.804688 214.65625 212.804688 214.65625 C 211.253906 212.792969 208.164062 211.105469 208.554688 213.660156 C 208.945312 216.214844 212.191406 216.300781 212.191406 216.300781 C 212.191406 216.300781 205.957031 216.777344 207.558594 218.679688 C 209.160156 220.578125 212.535156 217.683594 212.535156 217.683594 C 212.207031 219.070312 212.753906 221.839844 214.007812 221.796875 C 215.265625 221.753906 215.394531 220.976562 215.367188 220.023438 C 215.34375 219.070312 213.964844 217.164062 213.964844 217.164062 C 213.964844 217.164062 216 217.597656 217.039062 217.339844 C 218.078125 217.078125 218.378906 215.691406 217.039062 215.261719" fill="#a1b5cc"/></g><g id="change2_7"><path d="M 234.121094 220.28125 C 232.15625 219.894531 231.28125 222.273438 231.28125 222.273438 C 231.652344 220.859375 231.148438 217.902344 229.636719 218.335938 C 228.121094 218.765625 229.203125 221.796875 229.203125 221.796875 C 228.640625 221.148438 226.128906 220.023438 225.824219 221.796875 C 225.523438 223.574219 229.203125 224.652344 229.203125 224.652344 C 227.6875 224.742188 225.21875 226.515625 226.308594 227.648438 C 227.394531 228.777344 230.585938 225.566406 230.585938 225.566406 C 230.585938 225.566406 231.582031 228.03125 232.492188 228.203125 C 233.402344 228.375 234.007812 227.683594 233.832031 226.773438 C 233.660156 225.867188 231.472656 224.308594 231.472656 224.308594 C 233.570312 224.289062 236.085938 220.671875 234.121094 220.28125" fill="#a1b5cc"/></g><g id="change2_8"><path d="M 224.839844 201.941406 C 223.238281 200.949219 221.109375 203.53125 221.109375 203.53125 C 221.738281 202.949219 221.890625 198.625 220.136719 199.226562 C 218.386719 199.828125 219.359375 203.160156 219.359375 203.160156 C 219.359375 203.160156 216.582031 199.929688 216.199219 202.429688 C 215.820312 204.933594 219.234375 204.535156 219.234375 204.535156 C 219.234375 204.535156 214.679688 206.738281 216.734375 207.691406 C 218.785156 208.648438 220.433594 205.265625 220.433594 205.265625 C 220.433594 205.265625 222.589844 209.039062 223.421875 207.175781 C 224.25 205.3125 221.589844 204.433594 221.589844 204.433594 C 223.445312 204.175781 226.445312 202.933594 224.839844 201.941406" fill="#a1b5cc"/></g><g id="change2_9"><path d="M 209.195312 166.984375 C 209.195312 166.984375 222.882812 165.371094 217.5 149.476562 C 216.699219 151.867188 215.808594 154.226562 214.8125 156.546875 C 209.488281 168.921875 208.609375 170.617188 202.53125 158.335938 C 202.53125 158.335938 200.421875 158.960938 197.238281 160.679688 C 197.242188 160.6875 199.347656 166.933594 209.195312 166.984375" fill="#a1b5cc"/></g><g id="change2_10"><path d="M 236.285156 216.039062 C 242.132812 216.792969 245.601562 227.238281 237.542969 232.300781 C 229.488281 237.367188 224.761719 230.523438 224.761719 230.523438 C 220.15625 236.730469 217.125 230.261719 217.125 230.261719 C 217.125 230.261719 218.996094 235.71875 213.503906 235.667969 C 209.359375 235.632812 209.394531 232.722656 209.664062 231.296875 C 209.128906 233.011719 207.265625 236.996094 201.472656 236.957031 C 194.101562 236.910156 194.074219 228.78125 194.074219 228.78125 C 186.371094 234.308594 185.789062 225.617188 185.789062 225.617188 C 175.710938 225.539062 176.074219 214.644531 179.714844 210.457031 C 183.355469 206.269531 186.980469 207.878906 186.980469 207.878906 C 185.277344 206.703125 180.441406 204.234375 181.703125 198.546875 C 182.964844 192.859375 189.296875 193.582031 189.296875 193.582031 C 183.238281 181.003906 191.238281 175.574219 199.007812 175.167969 C 206.773438 174.757812 207.417969 182.152344 207.417969 182.152344 C 207.417969 182.152344 209.746094 178.660156 213.578125 178.851562 C 217.414062 179.046875 218.320312 182.921875 218.320312 182.921875 C 218.320312 182.921875 222.339844 177.503906 231.925781 183.203125 C 241.507812 188.902344 235.464844 201.601562 235.464844 201.601562 C 237.410156 199.738281 243.929688 199.351562 244.28125 203.71875 C 244.632812 208.089844 242.273438 208.65625 242.273438 208.65625 C 246.273438 217.835938 236.285156 216.039062 236.285156 216.039062 Z M 240.847656 232.414062 C 234.785156 254.527344 207.191406 259.9375 187.542969 258.226562 C 186.585938 258.144531 186.582031 256.644531 187.542969 256.726562 C 206.5 258.375 233.519531 253.476562 239.402344 232.019531 C 239.65625 231.085938 241.105469 231.484375 240.847656 232.414062 Z M 291.363281 358.828125 C 291.363281 358.828125 280.867188 306.882812 279.792969 302.203125 C 278.722656 297.527344 266.996094 250.742188 265.816406 246.484375 C 264.640625 242.222656 246.179688 178.363281 243.628906 174.007812 C 243.628906 174.007812 248.371094 139.507812 247.925781 125.960938 C 247.476562 112.414062 244.585938 82.894531 242.460938 79.160156 C 240.335938 75.425781 240.179688 73.296875 232.1875 74.664062 L 234.625 83.136719 C 234.625 83.136719 227.023438 84.597656 222.261719 79.949219 C 222.261719 79.949219 225.59375 103.6875 224.003906 117.179688 C 222.996094 125.734375 221.691406 134.28125 219.527344 142.550781 C 219.53125 142.5625 219.539062 142.570312 219.542969 142.582031 L 219.546875 142.5625 C 219.546875 142.5625 229.367188 167.988281 209.539062 167.414062 C 209.539062 167.414062 200.257812 171.257812 193.527344 162.917969 C 187.898438 166.683594 180.722656 173.195312 175.308594 184.015625 C 164.9375 204.734375 160.351562 221.304688 161.917969 233.476562 C 163.484375 245.644531 169.9375 253.128906 184.109375 256.957031 C 184.109375 256.957031 185.175781 290.773438 185.191406 300.679688 C 185.207031 310.578125 184.019531 362.972656 183.542969 371.734375 C 183.066406 380.492188 180.410156 417.261719 180.410156 417.261719 C 180.410156 417.261719 195.796875 424.457031 207.160156 425.59375 C 218.523438 426.730469 228.460938 427.726562 239.269531 425.59375 C 250.085938 423.457031 268.699219 421.382812 298.132812 399.976562 L 291.363281 358.828125" fill="#a1b5cc"/></g><g id="change3_1"><path d="M 184.523438 133.308594 C 183.894531 132.144531 183.730469 130.695312 183.789062 129.394531 C 183.820312 128.582031 183.910156 127.589844 184.351562 126.867188 C 185.070312 125.683594 186.851562 125.285156 187.574219 126.753906 C 187.601562 126.808594 187.640625 126.839844 187.671875 126.878906 C 188.238281 129.714844 189.066406 132.621094 190.238281 135.300781 C 188.082031 135.882812 185.652344 135.410156 184.523438 133.308594 Z M 216.285156 123.125 C 216.570312 122.609375 216.882812 122.09375 217.300781 121.671875 C 218.9375 120.023438 220.574219 121.769531 220.515625 123.691406 C 220.445312 125.863281 219.210938 129.042969 216.773438 129.289062 C 216.710938 127.246094 216.503906 125.1875 216.214844 123.207031 C 216.238281 123.175781 216.265625 123.160156 216.285156 123.125 Z M 197.238281 144.34375 C 197.910156 144.785156 198.621094 145.164062 199.371094 145.484375 C 199.375 145.492188 199.375 145.503906 199.378906 145.515625 C 201.078125 149.605469 202.355469 153.761719 202.320312 158.230469 C 202.3125 159.195312 203.8125 159.199219 203.820312 158.230469 C 203.851562 153.984375 202.765625 150.011719 201.222656 146.109375 C 202.632812 146.46875 204.167969 146.617188 205.84375 146.5 C 207.738281 146.367188 209.332031 145.902344 210.664062 145.171875 C 211.25 149.164062 211.90625 153.019531 213.5 156.769531 C 213.875 157.65625 215.167969 156.894531 214.796875 156.015625 C 213.1875 152.222656 212.617188 148.285156 212.03125 144.242188 C 215.578125 141.398438 216.765625 136.253906 216.789062 130.785156 C 220.613281 130.535156 222.960938 125.054688 221.769531 121.726562 C 221.25 120.28125 219.765625 119.1875 218.191406 119.460938 C 217.234375 119.625 216.472656 120.269531 215.867188 121.03125 C 215.347656 118.121094 214.691406 115.496094 214.128906 113.519531 C 213.992188 113.046875 213.554688 112.921875 213.1875 113.027344 L 213.1875 113.023438 C 213.1875 113.023438 202.984375 116.851562 201.664062 117.179688 C 201.664062 117.179688 201.671875 117.207031 201.683594 117.25 C 201.390625 117.382812 201.1875 117.671875 201.339844 118.070312 C 203.511719 123.828125 209.480469 124.375 214.800781 123.628906 C 216.238281 133.324219 215.671875 144.929688 204.882812 144.761719 C 192.230469 144.558594 188.789062 129.546875 188.230469 119.511719 C 188.179688 118.550781 186.679688 118.546875 186.730469 119.511719 C 186.816406 121.058594 186.988281 122.753906 187.253906 124.507812 C 186.363281 124.136719 185.3125 124.152344 184.421875 124.683594 C 182.507812 125.820312 182.171875 128.402344 182.292969 130.421875 C 182.417969 132.484375 183.132812 134.90625 184.957031 136.097656 C 186.453125 137.074219 188.5 137.242188 190.269531 136.84375 C 189.339844 142.898438 180.054688 146.113281 175.121094 147.316406 C 170.269531 148.5 165.304688 149.105469 160.429688 150.164062 C 152.964844 151.78125 145.191406 154.765625 140.453125 161.097656 C 136.488281 166.398438 136.027344 173.117188 138.796875 179.070312 C 140.433594 182.597656 142.953125 185.460938 146.011719 187.828125 C 147.300781 188.824219 149.082031 189.636719 150.058594 190.964844 C 155.132812 197.875 147.109375 199.730469 143.632812 199.910156 C 142.289062 199.980469 140.878906 199.742188 139.546875 199.566406 C 139.351562 199.484375 139.191406 199.503906 139.054688 199.5625 C 139.039062 199.566406 139.03125 199.570312 139.019531 199.574219 C 138.996094 199.585938 138.972656 199.601562 138.949219 199.617188 C 138.652344 199.785156 138.570312 200.183594 138.703125 200.523438 C 138.722656 200.59375 138.761719 200.652344 138.800781 200.714844 C 138.808594 200.722656 138.8125 200.734375 138.820312 200.742188 C 138.898438 200.855469 139 200.953125 139.148438 201.011719 C 145.40625 203.636719 153.640625 203.082031 158.996094 198.617188 C 166.382812 192.457031 160.582031 184.121094 164.628906 176.726562 C 171.855469 163.507812 198.066406 162.691406 197.238281 144.34375" fill="#100f0d"/></g><g id="change3_2"><path d="M 249.691406 47.324219 C 249.5 48.339844 249.21875 50.066406 248.300781 50.691406 C 244.980469 52.960938 243.246094 46.933594 242.820312 45.363281 C 241.558594 40.71875 242.21875 36.03125 244.21875 31.742188 C 248.902344 34.796875 250.683594 42.085938 249.691406 47.324219 Z M 235.949219 74.890625 C 239.207031 74.734375 240.261719 76.726562 239.117188 80.867188 C 238.253906 81.667969 236.601562 82.089844 235.1875 82.339844 C 234.550781 79.929688 233.871094 77.539062 233.164062 75.160156 C 234.066406 74.933594 234.996094 74.839844 235.949219 74.890625 Z M 222.945312 79.535156 C 222.296875 75.449219 221.5 71.398438 220.578125 67.367188 C 220.589844 67.191406 220.527344 67.027344 220.375 66.894531 C 220.300781 66.816406 220.214844 66.765625 220.121094 66.730469 C 218.054688 65.796875 215.988281 64.371094 214.347656 62.757812 C 214.570312 62.527344 214.789062 62.289062 215.015625 62.0625 C 216.601562 63 218.535156 63.144531 220.761719 61.867188 C 222.851562 60.667969 226.035156 59.492188 227.859375 57.507812 C 227.554688 59.707031 227.484375 61.925781 227.976562 64.117188 C 229.242188 67.632812 230.398438 71.175781 231.476562 74.742188 C 231.488281 74.828125 231.511719 74.910156 231.550781 74.988281 C 232.300781 77.496094 233.015625 80.015625 233.6875 82.554688 C 229.765625 83.027344 226.070312 81.953125 222.945312 79.535156 Z M 192.808594 73.746094 C 191.898438 71.910156 190.6875 67.023438 193.152344 65.566406 C 199.039062 62.394531 205.21875 59.824219 211.125 56.699219 C 211.71875 58.398438 212.628906 60.003906 213.820312 61.140625 C 213.476562 61.492188 213.140625 61.847656 212.804688 62.203125 C 212.789062 62.214844 212.78125 62.226562 212.769531 62.238281 C 207.984375 67.328125 203.902344 72.992188 199.429688 78.351562 C 196.269531 78.425781 194.1875 76.535156 192.808594 73.746094 Z M 218.714844 49.304688 C 220.367188 48.273438 222.421875 47.410156 224.316406 48.34375 C 226.261719 49.304688 228.089844 52.394531 227.730469 54.578125 C 227.285156 57.277344 224.050781 58.203125 221.976562 59.332031 C 220.175781 60.3125 218.671875 61.753906 216.472656 61.109375 C 213.910156 60.363281 212.8125 57.558594 212.222656 55.152344 C 214.234375 53.050781 216.226562 50.851562 218.714844 49.304688 Z M 226.847656 45.6875 C 227.359375 47.0625 227.746094 48.460938 227.992188 49.878906 C 227.207031 48.675781 226.117188 47.664062 224.894531 47.058594 C 225.515625 46.558594 226.160156 46.085938 226.847656 45.6875 Z M 228.175781 44.980469 C 232.558594 40.664062 237.195312 36.675781 242.085938 32.96875 C 240.28125 37.898438 240.132812 43.273438 242.230469 48.25 C 242.792969 49.59375 243.746094 51.0625 244.886719 51.96875 C 239.910156 53.058594 234.785156 53.421875 229.816406 54.546875 C 229.910156 51.242188 229.367188 48.058594 228.175781 44.980469 Z M 244.269531 30.019531 C 244.265625 30.015625 244.261719 30.015625 244.257812 30.015625 C 244.050781 29.863281 243.78125 29.824219 243.515625 30.019531 C 237.695312 34.25 232.238281 38.875 227.109375 43.921875 C 227.03125 43.933594 226.949219 43.945312 226.863281 43.984375 C 225.507812 44.585938 224.339844 45.578125 223.191406 46.515625 C 222.847656 46.464844 222.5 46.433594 222.148438 46.457031 C 217.519531 46.757812 213.835938 51.324219 210.863281 54.402344 C 210.75 54.519531 210.699219 54.644531 210.675781 54.773438 C 210.667969 54.800781 210.667969 54.832031 210.664062 54.863281 C 210.660156 54.914062 210.660156 54.964844 210.667969 55.015625 C 210.671875 55.054688 210.660156 55.089844 210.671875 55.128906 C 210.679688 55.164062 210.6875 55.195312 210.695312 55.230469 C 204.691406 58.4375 198.390625 61.042969 192.394531 64.269531 C 189.671875 65.882812 189.917969 70.808594 190.9375 73.289062 C 192.519531 77.136719 195.289062 80.113281 199.679688 79.855469 C 199.890625 79.90625 200.117188 79.859375 200.304688 79.636719 C 204.691406 74.402344 208.679688 68.859375 213.308594 63.84375 C 214.980469 65.484375 217.074219 66.953125 219.171875 67.933594 C 220.070312 71.898438 220.855469 75.878906 221.492188 79.890625 C 221.464844 80.039062 221.5 80.191406 221.605469 80.332031 C 221.683594 80.507812 221.8125 80.609375 221.96875 80.65625 C 227.132812 84.597656 235.707031 85.960938 241.046875 81.382812 C 242.917969 79.78125 243.578125 77.621094 241.84375 75.660156 C 239.695312 73.230469 235.75 73.113281 232.75 73.761719 C 231.722656 70.390625 230.621094 67.042969 229.421875 63.71875 C 228.863281 61.210938 229.121094 58.644531 229.597656 56.140625 C 235.472656 54.730469 241.585938 54.484375 247.425781 52.898438 C 247.539062 52.867188 247.632812 52.816406 247.707031 52.753906 C 248.382812 52.585938 249.066406 52.144531 249.730469 51.308594 C 254.367188 45.503906 250.328125 33.210938 244.269531 30.019531" fill="#100f0d"/></g><g id="change3_3"><path d="M 194.464844 467.707031 C 193.8125 467.914062 193.152344 468.113281 192.492188 468.296875 C 192.621094 468.191406 192.75 468.082031 192.882812 467.972656 C 193.414062 467.898438 193.9375 467.8125 194.464844 467.707031 Z M 226.835938 427.5625 C 226.800781 427.113281 226.449219 426.882812 226.097656 426.855469 C 226.085938 426.585938 226.078125 426.429688 226.078125 426.429688 C 221.074219 426.429688 217.359375 426.429688 216.132812 426.429688 C 215.992188 426.390625 215.839844 426.386719 215.695312 426.429688 L 215.691406 426.429688 C 215.339844 426.539062 215.042969 426.867188 215.140625 427.328125 C 218.707031 444.484375 202.761719 457.902344 190.980469 467.605469 C 190.542969 467.96875 190.734375 468.472656 191.113281 468.714844 C 190.398438 469.070312 190.785156 470.3125 191.660156 470.085938 C 203.867188 466.9375 214.535156 460.1875 222.578125 450.523438 C 222.570312 455.402344 222.355469 460.28125 222.9375 465.144531 C 223.019531 465.839844 223.855469 466.027344 224.242188 465.695312 C 224.402344 465.820312 224.609375 465.886719 224.855469 465.84375 C 225.648438 465.691406 226.441406 465.542969 227.234375 465.394531 C 227.765625 465.296875 227.863281 464.804688 227.691406 464.414062 C 228.0625 452.113281 227.777344 439.832031 226.835938 427.5625" fill="#100f0d"/></g><g id="change3_4"><path d="M 285.417969 467.578125 C 285.480469 467.632812 285.546875 467.683594 285.605469 467.734375 C 285.433594 467.6875 285.257812 467.640625 285.085938 467.589844 C 285.203125 467.585938 285.316406 467.585938 285.417969 467.578125 Z M 286.640625 468.050781 C 287.105469 467.863281 287.398438 467.277344 286.910156 466.875 C 279.585938 460.839844 272.371094 454.714844 267.253906 446.601562 C 261.878906 438.085938 260.707031 429.894531 264.054688 420.347656 C 264.242188 419.808594 263.8125 419.460938 263.367188 419.445312 C 263.402344 419.375 263.421875 419.335938 263.421875 419.335938 C 260.625 420.414062 251.988281 422.933594 251.371094 423.113281 C 250.992188 423.105469 250.609375 423.34375 250.617188 423.835938 C 250.875 437.121094 249.929688 450.378906 250.332031 463.683594 C 250.339844 464.003906 250.523438 464.210938 250.75 464.316406 C 250.863281 464.582031 251.140625 464.738281 251.441406 464.773438 C 252.285156 464.875 253.125 464.976562 253.96875 465.074219 C 254.375 465.121094 254.714844 464.695312 254.71875 464.324219 C 254.71875 464.199219 254.6875 464.09375 254.640625 464 L 255.03125 464.023438 L 255.015625 463.539062 C 255.019531 463.519531 255.03125 463.503906 255.035156 463.480469 C 255.65625 458.949219 255.292969 454.4375 255.21875 449.894531 C 263.257812 459.542969 273.917969 466.289062 286.113281 469.433594 C 286.996094 469.660156 287.386719 468.394531 286.640625 468.050781" fill="#100f0d"/></g></g></svg>