<?xml version="1.0" encoding="UTF-8"?><svg xmlns="http://www.w3.org/2000/svg" xmlns:xlink="http://www.w3.org/1999/xlink" height="145.0" preserveAspectRatio="xMidYMid meet" version="1.0" viewBox="84.8 139.3 256.1 145.0" width="256.1" zoomAndPan="magnify"><g><g id="change1_1"><path d="M86.06,263.61c-0.11,3.7-0.18,7.56,1.44,10.89c3.77,7.73,14.19,8.73,22.79,8.67 c70.94-0.5,141.89-0.99,212.83-1.49c1.44-0.01,2.94-0.03,4.23-0.67c2-0.99,3.04-3.21,3.85-5.29 c8.32-21.44,8.67-45.04,7.52-67.71c-0.59-11.58-1.68-23.12-2.55-34.68c-0.59-7.87,0.7-20.84-7.22-25.65 c-4.22-2.56-9.43-2.68-14.37-2.72c-68.36-0.57-138.57-5.7-206.72-0.89c-5.31,0.37-10.93,0.85-15.27,3.94 C88.26,151.09,87.04,229.72,86.06,263.61z" fill="#ffeabd"/></g><g id="change2_1"><path d="M149.7,193.87c8.44,7.37,16.88,14.74,25.43,21.98c6.89,5.84,13.36,12.25,21.01,17.13 c3.51,2.24,7.4,4.39,11.6,4.91c3.41,0.42,6.85-0.34,10.1-1.32c18.21-5.49,36.19-17.7,51.65-28.53 c12.06-8.45,23.3-17.99,34.06-28.02c2.41-2.24,29.93-27.32,29.16-28.55c-0.94-1.52-2.16-2.82-3.75-3.79 c-4.22-2.56-9.43-2.68-14.37-2.72c-68.36-0.57-138.57-5.7-206.72-0.89c-5.31,0.37-10.93,0.85-15.27,3.94 c-0.35,0.25-0.69,1.02-1,2.21C112.76,162.14,131.45,177.95,149.7,193.87z" fill="#dbd2ea"/></g><g id="change3_3"><path d="M109.62,284.22c-8.16,0-19.07-1.07-23.07-9.26c-1.77-3.63-1.65-7.75-1.55-11.38c0.15-5.09,0.3-11.18,0.47-17.88 c1.59-63.42,3.04-96.08,6.52-98.55c4.71-3.34,10.86-3.78,15.8-4.13c14.31-1.01,29.27-1.63,45.74-1.89 c0.61,0,1.06,0.46,1.07,1.04c0.01,0.58-0.46,1.06-1.04,1.07c-16.43,0.26-31.35,0.88-45.62,1.89 c-4.68,0.33-10.5,0.74-14.73,3.74c-3.29,3.4-4.82,64.22-5.64,96.89c-0.17,6.7-0.32,12.8-0.47,17.89 c-0.1,3.39-0.21,7.23,1.34,10.39c3.55,7.27,13.52,8.12,21.84,8.08l91.6-0.64c0,0,0.01,0,0.01,0c0.58,0,1.05,0.47,1.05,1.05 c0,0.58-0.46,1.06-1.05,1.06l-91.6,0.64C110.08,284.22,109.85,284.22,109.62,284.22z" fill="inherit"/></g><g id="change3_4"><path d="M296.58,282.92c-0.58,0-1.05-0.47-1.05-1.05c0-0.58,0.46-1.06,1.05-1.06l26.54-0.19c1.25-0.01,2.67-0.02,3.77-0.56 c1.64-0.81,2.57-2.75,3.34-4.72c8.46-21.81,8.52-46.24,7.46-67.27c-0.4-7.98-1.06-16.08-1.7-23.92 c-0.29-3.58-0.58-7.16-0.85-10.74c-0.11-1.42-0.15-2.98-0.2-4.63c-0.22-7.36-0.48-16.53-6.52-20.19 c-4.09-2.48-9.26-2.53-13.83-2.56L312.1,146c-0.58-0.01-1.05-0.48-1.04-1.06c0-0.58,0.48-1.04,1.05-1.04c0,0,0.01,0,0.01,0 l2.48,0.02c4.6,0.04,10.32,0.08,14.9,2.87c7.01,4.26,7.3,14.06,7.53,21.93c0.05,1.63,0.09,3.17,0.2,4.54 c0.27,3.58,0.56,7.15,0.85,10.73c0.64,7.85,1.3,15.97,1.7,23.98c1.08,21.25,1.01,45.96-7.6,68.14 c-0.92,2.37-2.09,4.72-4.37,5.85c-1.53,0.76-3.28,0.77-4.69,0.78L296.58,282.92C296.59,282.92,296.58,282.92,296.58,282.92z" fill="inherit"/></g><g id="change3_5"><path d="M207.07,143.47c-0.01,0-0.01,0-0.02,0c-18.54-0.37-33.92-0.47-48.39-0.31c0,0-0.01,0-0.01,0 c-0.58,0-1.05-0.46-1.05-1.04c-0.01-0.58,0.46-1.06,1.04-1.07c14.5-0.16,29.89-0.07,48.46,0.31c0.58,0.01,1.04,0.49,1.03,1.08 C208.11,143.01,207.64,143.47,207.07,143.47z" fill="inherit"/></g><g id="change3_6"><path d="M211.43,238.52c-5.35,0-10.67-1.35-15.86-4.65c-5.67-3.61-10.74-8.1-15.64-12.44c-1.79-1.58-3.64-3.22-5.48-4.78 c-8.3-7.04-16.63-14.31-24.69-21.34l-0.75-0.65c-18.56-16.2-36.96-31.72-57.92-43.53c-0.42-0.24-0.62-0.72-0.5-1.19 c0.41-1.55,0.83-2.39,1.41-2.8c4.71-3.34,10.86-3.78,15.8-4.13c22.79-1.61,47.25-2.24,76.96-1.99c0.58,0,1.05,0.48,1.04,1.06 c0,0.58-0.48,1.05-1.05,1.05c0,0-0.01,0-0.01,0c-29.65-0.25-54.06,0.38-76.79,1.98c-4.68,0.33-10.5,0.74-14.73,3.74 c0,0,0,0,0,0c0.01,0-0.14,0.18-0.37,0.85c20.83,11.85,39.1,27.27,57.54,43.36l0.75,0.65c8.05,7.03,16.38,14.29,24.67,21.32 c1.86,1.58,3.72,3.22,5.51,4.81c4.84,4.29,9.85,8.72,15.38,12.24c17.28,11,36.87-1.51,52.6-11.56 c1.05-0.67,2.07-1.32,3.08-1.96l34.19-24.97c1.3-1.2,3.28-3.01,5.7-5.23c10.98-10.05,36.09-33.06,39.2-36.87 c-0.85-1.23-1.85-2.19-3.06-2.92c-4.09-2.48-9.26-2.53-13.83-2.56c-1.73-0.01-3.46-0.03-5.2-0.05 c-0.58-0.01-1.05-0.48-1.04-1.07c0.01-0.58,0.45-1.03,1.07-1.04c1.73,0.02,3.46,0.04,5.19,0.05c4.6,0.04,10.32,0.08,14.9,2.87 c1.64,1,3.02,2.39,4.1,4.14c0.72,1.17,0.97,1.56-39.91,39.01c-2.45,2.24-4.45,4.07-5.74,5.27c-0.03,0.03-0.06,0.05-0.09,0.08 l-34.29,25.04c-1.06,0.67-2.09,1.33-3.13,1.99C238.77,229.76,225.05,238.52,211.43,238.52z M331.81,152.03L331.81,152.03 L331.81,152.03z" fill="inherit"/></g><g id="change3_2"><path d="M212.23,227.8C212.23,227.8,212.23,227.8,212.23,227.8c-10.62-0.04-20.6-8.23-22.71-18.64 c-0.12-0.57,0.25-1.13,0.82-1.24c0.58-0.11,1.13,0.25,1.24,0.82c1.92,9.46,10.99,16.91,20.65,16.95c0.58,0,1.05,0.48,1.05,1.06 C213.28,227.33,212.81,227.8,212.23,227.8z" fill="inherit"/></g><g id="change3_8"><path d="M213.23,213.95c-0.01,0-0.02,0-0.04,0c-7.4-0.24-14.22-6.41-15.21-13.74c-0.08-0.58,0.33-1.11,0.9-1.19 c0.59-0.08,1.11,0.33,1.19,0.9c0.85,6.36,6.77,11.71,13.19,11.92c0.58,0.02,1.04,0.51,1.02,1.09 C214.27,213.5,213.8,213.95,213.23,213.95z" fill="inherit"/></g><g id="change3_7"><path d="M324.44,279.34c-0.25,0-0.51-0.09-0.71-0.27c-19.66-17.81-40.62-34.61-62.27-49.93c-0.47-0.34-0.59-0.99-0.25-1.47 c0.34-0.48,0.99-0.59,1.47-0.25c21.72,15.37,42.74,32.23,62.47,50.09c0.43,0.39,0.46,1.06,0.07,1.49 C325.02,279.22,324.73,279.34,324.44,279.34z" fill="inherit"/></g><g id="change3_1"><path d="M93.35,275.86c-0.3,0-0.59-0.12-0.8-0.37c-0.38-0.44-0.33-1.11,0.11-1.49c22.34-19.17,46.46-36.57,71.71-51.71 c0.5-0.3,1.15-0.14,1.45,0.36c0.3,0.5,0.14,1.15-0.36,1.45c-25.14,15.08-49.17,32.4-71.42,51.5 C93.84,275.78,93.6,275.86,93.35,275.86z" fill="inherit"/></g></g></svg>