<?xml version="1.0" encoding="UTF-8"?><svg xmlns="http://www.w3.org/2000/svg" xmlns:xlink="http://www.w3.org/1999/xlink" height="431.7" preserveAspectRatio="xMidYMid meet" version="1.0" viewBox="-1.8 0.0 492.1 431.7" width="492.1" zoomAndPan="magnify"><g id="change1_1"><path d="M143.83,207.38c-22.32-2.45-22.32-2.45-22.32-2.45l5.44,10.89l-29.66,0.77l-37.23,78.6 c0,0-34.62-11.88-37.07-38.01c-2.45-26.13,18.78-68.58,18.78-68.58s-5.17-27.49-7.62-42.73s8.16-31.84,22.86-32.39 c14.7-0.54,14.7-0.54,14.7-0.54l28.3,54.16l3.27-1.91l0.54-49.53c0,0,22.32-0.54,32.93,16.6c10.61,17.15,17.15,27.21,23.13,40.55 C165.88,186.15,166.15,209.83,143.83,207.38z M187.54,368.42c0,0-9.95-2.65-14.92,3.98l-12.93-12.27c0,0-5.97,8.62,1.66,18.23 c7.62,9.61,22.87,23.21,26.85,27.52s7.96,2.65,6.63-5.3C193.51,392.62,187.54,368.42,187.54,368.42z M282.69,421.46 c-6.3-2.98-33.48-16.58-33.48-16.58s-4.97,2.98-4.64,9.61h-23.87c0,0,0.99,16.58,11.93,16.58c10.94,0,44.09,0,50.06,0 C288.65,431.08,288.99,424.45,282.69,421.46z" fill="#e6adbe"/></g><g id="change2_1"><path d="M76.2,294.04c33.01,0,89.59,0,89.59,0l-3,11.15c0,0-5.57,11.15-24.86,11.15c-19.29,0-71.59,0-89.17,0 c-17.58,0-22.72-12.86-28.72-25.29c-6-12.43-17.58-72.02-19.72-84.02s6.86-17.15,15.43-17.15c8.57,0,26.02,0,26.02,0 s-12.31,29.15-17.45,52.73C19.18,266.18,43.19,294.04,76.2,294.04z M471.8,188.15c0,0-9.43,38.58-15.43,60.87 c-6,22.29-28.31,38.15-46.32,38.15c-18,0-24.42-0.43-24.42-0.43l-5.41,29.88c0,0,25.1,0,51.68,0c26.58,0,40.33-21.73,46.33-48.31 c6-26.58,9.43-49.73,10.72-63.44C490.23,191.16,478.23,188.15,471.8,188.15z" fill="#00BFA8"/></g><g id="change3_1"><path d="M211.49,281.47l23.54,92.81H197l-9.96-19.47l2.03-12.15l-30.99-10.33l7.7-38.29c0,0-76.2,0-89.59,0 c-13.39,0-15.06-2.36-15.06-2.36l36.16-75.1l29.66-0.77c0,0,27.49,0,53.29,0c25.81,0,43.46,17.67,37.58,40.3 C211.94,278.75,211.49,281.47,211.49,281.47z M456.11,104.18c-12.52-3.28-31-4.47-31-4.47s-15.2,10.73-27.72,4.47 c0,0-20.27,3.58-25.64,14.9c-5.37,11.33-21.46,46.8-21.46,46.8l-41.73-48.59l-21.76,19.38c0,0,36.96,47.7,46.5,60.22 c9.54,12.52,31.6,10.43,31.6,10.43l-2.09,12.52l5.37,25.04c0,0,48.59-6.26,66.48-8.05c17.89-1.79,27.13-10.14,30.11-20.27 c2.98-10.14,13.71-53.96,14.61-75.72C480.26,119.09,468.63,107.46,456.11,104.18z M317.6,418.33c0,0-5.94,0.82-5.94,5.56 c0,4.74,1.65,7.83,5.77,7.83c4.12,0,46.15,0,52.67,0c6.52,0,4.03-13.32,4.03-13.32L317.6,418.33z" fill="#a1b5cc"/></g><g id="change4_1"><path d="M120.45,67.02c1.78,9.96,0,27.76-7.12,33.45c-7.12,5.69-12.99,6.23-12.99,6.23l0.25,3.24l-4.93,7.56 l-2.96,10.68l-2.14-9.69l-12.29-8.23c0,0-0.71-5.69-4.98-7.12S55.57,80.97,58.77,67.09c3.2-13.88,13.81-29.07,34.98-25.69 C114.93,44.78,118.67,57.06,120.45,67.02z M122.1,160.7l12.03,11.89l-5.53-13.13C128.6,159.46,125.55,158.63,122.1,160.7z M79.8,166.64c-7.6,1.38-11.7,3.4-13.36,5.2c-1.66,1.8-4.74,11.53-4.88,14.85c-0.14,3.32-0.55,10.5,3.04,10.5 c3.59,0,13.13-5.67,16.72-7.88s5.11-12.72,5.11-12.72l9.4-6.36C95.84,170.24,87.41,165.26,79.8,166.64z M242.9,399.16 c-1.6-4.28-7.87-24.88-7.87-24.88l-25.96-0.24c0,0,8.35,20.49,9.95,27.62c1.6,7.13,1.67,12.85,1.67,12.85s17.58,0,23.87,0 c0.59-4.97,4.64-9.61,4.64-9.61S244.51,403.43,242.9,399.16z M189.08,342.66l-23.68-7.82c0,0-0.71,5.17-2.14,12.65 c-1.43,7.48-3.56,12.65-3.56,12.65l12.93,12.27c6.69-6.09,14.92-3.98,14.92-3.98s-1.12-7.75-0.5-13.61 C187.67,348.95,189.08,342.66,189.08,342.66z M334.8,368.21l-8.67,1.94c0,0,3.03,7.07,4.85,15.35c1.82,8.28,0.2,14.74-0.81,17.57 l1.82,1.01c0,0,3.23-3.03,4.24-7.07c0,0,15.96-3.84,22.01,8.08h11.31l0.4-18.98h-33.7L334.8,368.21z M349.42,239.52 c14.66-1.51,16.54-3.78,16.54-3.78l-3.15-15.9c0,0-7.02,0.76-15.26,1.21s-18.51,2.68-21.18,4.91c-2.68,2.23-9.59,8.47-8.92,13.82 c5.06-0.56,5.42-1.12,5.42-1.12S334.76,241.03,349.42,239.52z M278.73,104.51c-6.69-0.53-10.04-1.14-13.47-1.59 c-3.43-0.44-4.49,2.55-2.82,3.79c1.67,1.23,6.16,3.52,6.16,3.52l-10.39,2.99c0,0-7.4-3.52-9.6-4.76c-2.2-1.23-6.25,1.32-2.91,4.32 c3.35,2.99,8.89,5.9,12.86,8.01c3.96,2.11,12.24,2.29,19.81,2.55c7.57,0.26,10.22,0.18,10.22,0.18l5.81,6.34l14.16-12.57 c0,0-6.67-6.1-11.43-8.83C292.38,105.74,285.42,105.04,278.73,104.51z M427.87,42.4c-3.02-24.34-55.27-27.91-60.77,2.27 c-5.5,30.18,0,36.98,7.42,44.96c7.42,7.97,21.17,6.05,21.17,6.05l1.69,8.51c14.89,6.51,27.72-4.47,27.72-4.47L418.8,87.5 C418.8,87.5,430.89,66.73,427.87,42.4z" fill="#fff"/></g><g id="change5_1"><path d="M157.17,420.33c0.64,2.84-1.52,5.54-4.43,5.54h0c-2.05,0-3.85-1.37-4.38-3.35l-29.21-106.28l14.48-0.21 L157.17,420.33z M435.34,316.03l-14.48,0.21l29.21,106.28c0.54,1.98,2.33,3.35,4.38,3.35c2.91,0,5.07-2.7,4.43-5.54L435.34,316.03z M27.82,420.33c-0.64,2.84,1.52,5.54,4.43,5.54h0c2.05,0,3.85-1.37,4.38-3.35l29.21-106.28l-14.48-0.21L27.82,420.33z M464.76,216.56c0,0-4.77,15.98-23.4,18.89c-18.63,2.91-73.18,9.43-73.18,9.43l-2.22-9.14c0,0-20.38,6.7-43.09,2.91 c0,0-23.58,3.49-29.4,19.22c-5.82,15.72-1.46,30.28,1.75,43.96c3.2,13.68,22.42,71.04,22.42,71.04l17.18-4.66l1.46,18.05h1.51 c0.12,2.32,0.18,6.98-1.03,10.66c-0.17,0.03-0.34,0.06-0.51,0.09c0,0-1.22,3.13-3.23,5.94l-2.83,0.11c0,0-5.49,9.54-13.02,15.33 h56.98c0,0-0.65-13.31-4.58-13.31c-3.92,0-11.31,0-11.31,0s-3.26-10.83-19.99-8.42c1.06-3.75,1.03-8.1,0.9-10.41h35.53 c0,0,8.44-67.83,11.65-98.4c0,0,4.08,0,21.84,0C425.93,287.86,456.72,280.36,464.76,216.56z M391.33,63.19 c0.96,0,1.74-0.78,1.74-1.74c0-0.96-0.78-1.74-1.74-1.74c-0.96,0-1.74,0.78-1.74,1.74C389.59,62.41,390.37,63.19,391.33,63.19z M370.17,64.83c0.96,0,1.74-0.78,1.74-1.74c0-0.96-0.78-1.74-1.74-1.74c-0.96,0-1.74,0.78-1.74,1.74 C368.43,64.05,369.21,64.83,370.17,64.83z M319.04,235.19c-0.37,0.09-0.59,0.47-0.5,0.84c0.08,0.31,0.36,0.52,0.67,0.52 c0.06,0,0.11-0.01,0.17-0.02c0.03-0.01,3.38-0.83,6.53-0.83c0.38,0,0.69-0.31,0.69-0.69s-0.31-0.69-0.69-0.69 C322.58,234.31,319.19,235.15,319.04,235.19z M328.97,231.84c0.36,0.04,0.72-0.23,0.76-0.61c0.04-0.38-0.23-0.72-0.61-0.76 c-3.93-0.43-7.65,0.55-7.81,0.59c-0.37,0.1-0.59,0.48-0.49,0.84c0.08,0.31,0.36,0.51,0.67,0.51c0.06,0,0.12-0.01,0.18-0.02 C321.7,232.38,325.29,231.43,328.97,231.84z M333.36,228.27c0.03,0,0.07,0.01,0.1,0.01c0.34,0,0.63-0.25,0.68-0.59 c0.06-0.38-0.2-0.73-0.58-0.78c-3.91-0.58-7.47-0.02-7.62,0c-0.38,0.06-0.63,0.41-0.57,0.79c0.06,0.38,0.39,0.64,0.79,0.57 C326.19,228.27,329.67,227.73,333.36,228.27z M270.01,112.59c-7.81,0.39-11.69-0.04-11.72-0.05c-0.4-0.05-0.72,0.23-0.76,0.61 c-0.04,0.38,0.23,0.72,0.61,0.76c0.16,0.02,4.01,0.45,11.95,0.05c8.16-0.41,13.4-0.47,17.25,2.14c0.12,0.08,0.25,0.12,0.39,0.12 c0.22,0,0.44-0.11,0.57-0.3c0.21-0.32,0.13-0.74-0.18-0.96C283.9,112.12,278.47,112.17,270.01,112.59z M375.72,56.71 c0.06,0.04,0.12,0.12,0.18,0.17c1.79-0.92,3.6-0.38,4.56,0.04c0.06-0.07,0.11-0.16,0.18-0.22c7.75-6.91,17.4-2.62,20.13-0.78 l5.38-1.72c0.05-0.46,0.12-0.93,0.23-1.44c0,0-11.29-0.22-8.68-13.24c0,0-12.81,9.01-22.14-0.22c0,0-2.06,3.69-7.6,3.26 l-2.28,11.18c0,0-6.19-3.69-3.26-11.83c0,0-5.32-13.13,1.41-18.99c6.73-5.86,15.41-2.28,15.41-2.28s3.58-6.84,12.7-6.08 c9.12,0.76,12.81,6.19,12.81,6.19s8.36-6.73,16.93-1.41c8.57,5.32,7.16,14.11,7.16,14.11s8.47,0.98,10.64,12.37 c2.17,11.4-6.19,17.47-6.19,17.47s1.52,11.83-3.47,18.45c-4.99,6.62-11.02,5.74-11.02,5.74s-5.58-5.31-2.43-15.08 c0,0,9.33-2.71,8.79-13.02c-0.54-10.31-8.9-7.16-8.9-7.16l-4.78,11.29c0,0-5.34-1.59-5.41-7.84l-4.33,1.38 c0.7,1.52,0.9,4.32,0.05,6.86c-0.83,2.48-3.3,6.63-10.58,6.63c-7.53,0-10.19-4.03-11.11-6.44c-0.83-2.17-0.79-4.45-0.28-5.98 c-0.71-0.3-1.95-0.63-3.17-0.06c0.54,1.51,0.65,3.89,0.2,6.18l0.65,0.16c0,0-0.96,3.94-1.49,6.22c-0.07,0.32-0.13,0.74,0,0.93 c0.25,0.35,1.39,0.45,2.7,0.57c0.36,0.03,0.75,0.07,1.17,0.11c0.38,0.04,0.65,0.38,0.61,0.76c-0.04,0.35-0.34,0.62-0.68,0.62 c-0.02,0-0.05,0-0.07,0c-0.41-0.04-0.79-0.08-1.15-0.11c-1.85-0.17-3.07-0.28-3.7-1.14c-0.48-0.66-0.36-1.48-0.23-2.05 c0.12-0.5,0.25-1.08,0.39-1.68c-1.31,1.81-3.16,2.88-5.46,3.08c-0.26,0.02-0.52,0.03-0.77,0.03c-3.04,0-5.56-1.65-7.16-4.71 c-1.64-3.15-2.01-7.53-0.76-9.03C365.31,52.77,373.73,55.47,375.72,56.71z M381.56,57.73c-0.03,0.03-0.07,0.09-0.1,0.13 c0,0.12-0.02,0.25-0.1,0.36c-0.05,0.08-0.13,0.14-0.2,0.19c-0.41,1.06-0.59,3.08,0.22,5.22c0.79,2.07,3.12,5.55,9.82,5.55 c6.1,0,8.41-3.09,9.28-5.69c1.03-3.09,0.22-5.92-0.23-6.25C398.3,55.77,388.83,51.25,381.56,57.73z M361.96,58.92 c-0.65,0.77-0.7,4.39,0.93,7.5c1.03,1.97,2.99,4.26,6.59,3.94c4.01-0.35,5.43-3.81,5.92-5.84c0.8-3.34,0.1-6.33-0.39-6.64 c-0.98-0.61-3.73-1.64-6.63-1.64C366.06,56.24,363.65,56.89,361.96,58.92z M385.8,82.03c-0.36,0.13-0.55,0.52-0.42,0.88 c0.1,0.28,0.37,0.46,0.65,0.46c0.08,0,0.15-0.01,0.23-0.04c0.15-0.05,3.77-1.35,5.46-4.35c1.2-2.14,0.46-3.17,0.08-3.52 c-0.89-0.81-2.51-0.58-4.23,0.6c-2.61,1.8-5.77,2.07-5.81,2.07c-0.38,0.03-0.66,0.36-0.63,0.74c0.03,0.38,0.39,0.66,0.74,0.63 c0.14-0.01,3.55-0.3,6.48-2.31c1.37-0.94,2.27-0.94,2.52-0.71c0.22,0.2,0.2,0.85-0.35,1.82C389.09,80.84,385.84,82.01,385.8,82.03z M384.55,51.97c0.03-0.03,3.53-2.94,10.17-0.23c0.35,0.14,0.75-0.02,0.9-0.38c0.14-0.35-0.03-0.75-0.38-0.9 c-7.41-3.02-11.42,0.32-11.59,0.47c-0.29,0.25-0.32,0.68-0.07,0.97c0.14,0.16,0.33,0.24,0.52,0.24 C384.26,52.14,384.42,52.08,384.55,51.97z M367.62,51.97c0.14-0.12,3.58-2.92,10.17-0.24c0.35,0.14,0.75-0.02,0.9-0.38 c0.14-0.35-0.03-0.75-0.38-0.9c-7.41-3.02-11.42,0.32-11.59,0.47c-0.29,0.25-0.32,0.68-0.07,0.97c0.14,0.16,0.33,0.24,0.53,0.24 C367.33,52.14,367.49,52.08,367.62,51.97z M365.65,202.09c0.34,0,0.64-0.25,0.68-0.6l6.77-50.59c1.07-8.94,3.84-15.01,6.09-17.7 c0.24-0.29,0.2-0.73-0.09-0.97c-0.29-0.24-0.73-0.2-0.97,0.09c-1.15,1.38-5.01,6.79-6.4,18.41l-6.77,50.58 c-0.05,0.38,0.21,0.72,0.59,0.77C365.59,202.08,365.62,202.09,365.65,202.09z M438.77,130.44c-0.09,0.32-2.11,7.96-1.66,15.74 c0.21,3.68-1.04,6.87-2.37,10.24c-1.37,3.49-2.79,7.1-2.56,11.41c0.21,3.82-1.12,8.52-2.54,13.5c-1.5,5.28-3.19,11.25-3.28,17.16 l-63.76,20.71c-0.36,0.12-0.56,0.51-0.44,0.87c0.09,0.29,0.36,0.48,0.66,0.48c0.07,0,0.14-0.01,0.21-0.03l64.23-20.86 c0.28-0.09,0.48-0.36,0.48-0.66c0-5.88,1.64-11.68,3.23-17.28c1.44-5.09,2.81-9.9,2.59-13.95c-0.22-4,1.15-7.47,2.47-10.83 c1.32-3.36,2.69-6.83,2.46-10.82c-0.44-7.55,1.6-15.23,1.62-15.3c0.1-0.37-0.12-0.75-0.49-0.85 C439.25,129.86,438.87,130.07,438.77,130.44z M419.24,63.84c-0.29,0.25-0.33,0.68-0.08,0.97c0.14,0.16,0.33,0.25,0.53,0.25 c0.15,0,0.31-0.05,0.44-0.16c0.12-0.1,2.92-2.48,2.27-5.88c-0.54-2.83-3.12-3.69-4.42-3.75c-0.42-0.03-0.7,0.28-0.72,0.65 c-0.02,0.38,0.27,0.7,0.65,0.72c0.11,0.01,2.66,0.17,3.13,2.63C421.53,61.87,419.26,63.82,419.24,63.84z M125.15,235.74 c-5.49-0.43-10.23-0.79-12.86-1.4c-9.17-2.1-11.08-9.2-11.15-9.5c-0.09-0.37-0.47-0.59-0.84-0.5c-0.37,0.09-0.59,0.47-0.5,0.83 c0.08,0.33,2.16,8.22,12.18,10.51c2.73,0.62,7.29,0.98,13.06,1.43c14.37,1.12,36,2.79,48,10.72l-7.52,40.14 c-0.07,0.37,0.18,0.73,0.55,0.8c0.04,0.01,0.09,0.01,0.13,0.01c0.33,0,0.61-0.23,0.68-0.56l7.61-40.59 c0.05-0.27-0.06-0.54-0.29-0.7C161.98,238.6,139.82,236.88,125.15,235.74z M210.74,286.86c-0.37-0.1-0.75,0.12-0.84,0.49 l-14.94,56.88l-5.1-1.77c-0.36-0.13-0.75,0.07-0.88,0.43c-0.13,0.36,0.07,0.75,0.42,0.88l5.8,2.01c0.07,0.03,0.15,0.04,0.23,0.04 c0.11,0,0.22-0.03,0.32-0.08c0.17-0.09,0.29-0.25,0.34-0.43l15.13-57.6C211.33,287.33,211.11,286.96,210.74,286.86z M167,352.46 c-0.15,0.12-3.62,3.08-3.23,8.04c0.03,0.36,0.33,0.63,0.69,0.63c0.02,0,0.04,0,0.06,0c0.38-0.03,0.66-0.36,0.63-0.74 c-0.34-4.23,2.71-6.84,2.74-6.87c0.29-0.25,0.33-0.68,0.09-0.97C167.73,352.26,167.3,352.22,167,352.46z M228.45,404.25 c0.14-0.35-0.03-0.75-0.38-0.9c-0.36-0.15-0.75,0.03-0.9,0.38c-0.07,0.18-1.79,4.54,1.01,8.53c0.13,0.19,0.35,0.29,0.56,0.29 c0.14,0,0.27-0.04,0.4-0.13c0.31-0.22,0.39-0.65,0.17-0.96C226.95,408.11,228.43,404.29,228.45,404.25z M107.18,203.8 c0.06,0.03,0.12,0.05,0.19,0.06l14.06,1.75c0.03,0,0.06,0.01,0.09,0.01c0.34,0,0.64-0.26,0.68-0.6c0.05-0.38-0.22-0.72-0.6-0.77 l-13.12-1.64c11.79-10.87,28.42-26.95,28.61-27.13c0.14-0.13,0.21-0.32,0.21-0.51s-0.09-0.37-0.23-0.5l-1.29-1.17l6.05,0.08 c0,0,0.01,0,0.01,0c0.38,0,0.68-0.3,0.69-0.68c0-0.38-0.3-0.69-0.68-0.7l-7.26-0.09l-11.65-28.2c-0.15-0.35-0.55-0.52-0.9-0.37 c-0.35,0.14-0.52,0.55-0.37,0.9l10.74,26.02l-15.65-14.18c-0.23-0.21-0.58-0.24-0.85-0.06l-12.62,8.46l0.54-48.8l-3.24-5.72 l-4.93,7.56l-2.96,10.68l-2.14-9.69l-12.81-10.51l-6.04,4.97l28.13,53.83l-13.79,9.25c-0.32,0.21-0.4,0.64-0.19,0.96 c0.21,0.32,0.64,0.4,0.96,0.19l29.41-19.72L135.6,175c-3.42,3.31-22.56,21.75-32.9,31.01c-13.67,12.25-35.92,12.75-45.22,5 c-11.16-9.3-14.09-17.31-14.11-17.39c-0.13-0.36-0.52-0.55-0.88-0.42c-0.36,0.13-0.55,0.52-0.42,0.88 c0.12,0.34,3.05,8.42,14.53,17.99c4.6,3.83,10.95,5.5,17.68,5.5c10.65,0,22.24-4.17,29.34-10.53 C104.72,206.05,105.92,204.96,107.18,203.8z M70.48,169.18c0.03,0,0.06,0,0.09-0.01c0.38-0.05,0.64-0.4,0.59-0.78l-2.18-16.05 c-0.05-0.38-0.39-0.64-0.78-0.59c-0.38,0.05-0.64,0.4-0.59,0.78l2.18,16.05C69.84,168.93,70.14,169.18,70.48,169.18z M92.72,72.68 c0,0.96,0.78,1.74,1.74,1.74c0.96,0,1.74-0.78,1.74-1.74s-0.78-1.74-1.74-1.74C93.5,70.94,92.72,71.72,92.72,72.68z M112.74,72.68 c0,0.96,0.78,1.74,1.74,1.74c0.96,0,1.74-0.78,1.74-1.74s-0.78-1.74-1.74-1.74C113.52,70.94,112.74,71.72,112.74,72.68z M111.36,82.73c0.28-0.44,0.31-0.96,0.09-1.48c-0.84-1.96-3.4-6.68-3.51-6.88c-0.18-0.33-0.6-0.46-0.94-0.28 c-0.33,0.18-0.46,0.6-0.28,0.94c0.03,0.05,2.64,4.87,3.45,6.77c0.05,0.13,0.03,0.16,0.01,0.19c-0.33,0.51-2.26,0.9-3.85,0.94 c-0.38,0.01-0.68,0.33-0.67,0.71c0.01,0.37,0.32,0.67,0.69,0.67c0.01,0,0.01,0,0.02,0C107.06,84.29,110.47,84.13,111.36,82.73z M105.09,90.66c0.86,0,1.86-0.15,3.02-0.54c0.36-0.12,0.56-0.51,0.44-0.87c-0.12-0.36-0.51-0.56-0.87-0.44 c-4.35,1.45-5.8-0.96-5.86-1.07c-0.18-0.33-0.6-0.45-0.93-0.27c-0.33,0.18-0.46,0.6-0.28,0.94 C100.67,88.52,101.88,90.66,105.09,90.66z M102.06,66.76c0.12,0.09,0.27,0.13,0.41,0.13c0.21,0,0.42-0.1,0.56-0.28 c0.22-0.31,0.16-0.74-0.15-0.96c-6.58-4.82-14.08-0.07-14.15-0.02c-0.32,0.21-0.41,0.63-0.2,0.95c0.21,0.32,0.63,0.41,0.95,0.21 C89.74,66.61,96.26,62.51,102.06,66.76z M108.88,65.65c-0.31,0.23-0.37,0.66-0.14,0.96c0.23,0.31,0.66,0.37,0.96,0.14 c0.2-0.15,5.03-3.64,8.87-0.05c0.13,0.12,0.3,0.19,0.47,0.19c0.18,0,0.37-0.07,0.5-0.22c0.26-0.28,0.25-0.71-0.03-0.97 C114.83,61.33,108.94,65.61,108.88,65.65z M49.82,65.8c-0.35,13.44,7.62,28.26,23.48,37.34l-3.97-18.9c0,0-7.11,1.93-8.79-5.31 s7.49-8.53,7.49-8.53l1.29,13.84c0,0,5.36-3.54,9.23-10.38h8.62c0.18,2.49,1.48,7.8,9.3,7.8c6.73,0,8.62-6.71,8.97-8.32 c0.56-0.28,2.02-0.83,3.51-0.01c0.34,1.47,2.09,7.49,7.57,7.49c1.88,0,3.35-0.53,4.38-1.56c1.76-1.77,1.75-4.58,1.74-6.09l0-0.28 c0-0.38-0.31-0.69-0.69-0.69s-0.69,0.31-0.69,0.69l0,0.28c0.01,1.4,0.02,3.75-1.34,5.11c-0.76,0.77-1.91,1.15-3.4,1.15 c-5.06,0-6.24-6.4-6.28-6.67c-0.03-0.19-0.14-0.36-0.31-0.46c-2.71-1.75-5.37-0.07-5.48,0c-0.16,0.11-0.28,0.28-0.31,0.47 c-0.05,0.31-1.26,7.49-7.68,7.49c-6.91,0-7.95-4.45-7.95-7.11c0-0.38-0.31-0.69-0.69-0.69h-8.55c2.64-5.26,4.26-12.23,2.28-20.84 c0,0,16.96,8.67,35.61,4.9c0,0-3.01-15.26-17.9-18.65c-13.13-2.99-29.33-3.48-40.34,7.16c-1.16-1.92-4.19-5.24-10.99-4.4 c-9.43,1.16-13.17,14.72-8.01,21.18C42.97,65.6,46.99,66.06,49.82,65.8z M96.08,108.84c0.58,0.24,2.4,0.59,4.5,0.93l-0.23-3.07 C95.67,106.7,94.44,108.16,96.08,108.84z M79.19,174.66c-0.38-0.07-0.73,0.18-0.8,0.55c-0.08,0.45-2,10.96,0.56,14.8 c0.13,0.2,0.35,0.31,0.57,0.31c0.13,0,0.26-0.04,0.38-0.12c0.32-0.21,0.4-0.64,0.19-0.96c-1.87-2.8-0.89-10.9-0.35-13.79 C79.81,175.09,79.56,174.73,79.19,174.66z M73.11,177.24c-0.38-0.07-0.73,0.18-0.8,0.55c-0.08,0.45-2,10.96,0.56,14.8 c0.13,0.2,0.35,0.31,0.57,0.31c0.13,0,0.26-0.04,0.38-0.12c0.32-0.21,0.4-0.64,0.19-0.96c-1.87-2.8-0.89-10.9-0.35-13.78 C73.73,177.67,73.48,177.31,73.11,177.24z M67.48,180.44c-0.38-0.07-0.73,0.18-0.8,0.55c-0.08,0.45-2,10.96,0.56,14.8 c0.13,0.2,0.35,0.31,0.57,0.31c0.13,0,0.26-0.04,0.38-0.12c0.32-0.21,0.4-0.64,0.19-0.96c-1.87-2.8-0.89-10.9-0.35-13.78 C68.1,180.87,67.85,180.51,67.48,180.44z M191.86,74.89c-8.06,0-9.58-5.27-9.76-8.46c-0.06-1.07-0.33-4.56-0.7-9.4 c-1.13-14.84-3.03-39.68-2.85-45.02c0.24-7.26,5.29-11.06,10.14-11.06c1.99,0,25.06-0.21,49.47-0.43C266.23,0.26,295.24,0,298.12,0 c5.39,0,8.02,3.24,8.02,9.91c0,4.52,0.15,23.99,0.19,29.85c0.03,3.19,1.81,6.09,4.65,7.55l26.69,13.74 c0.29,0.15,0.43,0.48,0.35,0.79c-0.08,0.31-0.31,0.55-0.7,0.51l-25.63-1.14c-2.88-0.13-5.57,1.16-7.25,3.44 c-1.44,1.96-3.54,3.09-6.25,3.37c-6.22,0.64-98.08,6.6-105.69,6.86C192.29,74.89,192.07,74.89,191.86,74.89z M192.46,73.5 c7.6-0.25,99.38-6.21,105.59-6.85c2.31-0.24,4.08-1.18,5.28-2.81c1.95-2.65,5.09-4.15,8.42-4l22.49,1l-23.89-12.3 c-3.3-1.7-5.37-5.06-5.4-8.77c-0.05-5.86-0.19-25.34-0.19-29.86c0-5.9-2.05-8.53-6.64-8.53c-2.88,0-31.89,0.26-59.94,0.52 c-24.42,0.22-47.48,0.43-49.48,0.43c-4.19,0-8.55,3.34-8.76,9.73c-0.18,5.26,1.79,31.03,2.85,44.87c0.37,4.85,0.64,8.35,0.7,9.43 C183.76,71.28,186.78,73.69,192.46,73.5z M196.5,18.16C196.5,18.16,196.5,18.16,196.5,18.16l90.05-0.71c0.38,0,0.69-0.31,0.68-0.69 c0-0.38-0.31-0.68-0.69-0.68c0,0,0,0-0.01,0l-90.04,0.71c-0.38,0-0.69,0.31-0.68,0.69C195.81,17.85,196.12,18.16,196.5,18.16z M196.73,32.85c-0.38,0-0.69,0.31-0.68,0.69c0,0.38,0.31,0.68,0.69,0.68c0,0,0,0,0.01,0l90.04-0.71c0.38,0,0.69-0.31,0.68-0.69 c0-0.38-0.34-0.67-0.69-0.68L196.73,32.85z M287.25,49.39L197.2,50.1c-0.38,0-0.69,0.31-0.68,0.69c0,0.38,0.31,0.68,0.69,0.68 c0,0,0,0,0.01,0l90.04-0.71c0.38,0,0.69-0.31,0.68-0.69C287.94,49.7,287.63,49.39,287.25,49.39 C287.25,49.39,287.25,49.39,287.25,49.39z M404.68,96.81c0-1.59-1.45-2.61-8.99-1.13l1.33,6.68 C400.47,100.37,404.68,97.75,404.68,96.81z" fill="#28407E"/></g></svg>
