<?xml version="1.0" encoding="UTF-8"?><!-- Generator: Adobe Illustrator 23.0.1, SVG Export Plug-In . SVG Version: 6.00 Build 0)  --><svg xmlns="http://www.w3.org/2000/svg" enable-background="new 0 0 603.2 30.6" id="Layer_1" version="1.1" viewBox="0 0 603.2 30.6" x="0px" xml:space="preserve" y="0px">
<g id="DMw782.tif">
	<g fill="#000" id="change1_1">
		<path d="m486.4 13.4v-0.2-0.1c0.2 0 0.3 0.1 0.4 0.2 0.2 0.1 0.5 0.1 0.6-0.2 0.1-0.1 0.2-0.1 0.3-0.1 0.3 0 0.6 0.2 0.9 0.2 0.2 0.1 0.3 0.2 0.5 0.2l0.1-0.1c0.1-0.1 0.1-0.1 0.2-0.1 0.3 0.2 0.6 0 0.9 0.1 0 0 0.1 0 0.1-0.1 0.1-0.1 0.3-0.1 0.4 0 0.2 0.1 0.3 0.1 0.4-0.1 0.1-0.1 0.2-0.1 0.4-0.1 0.1 0 0.2 0 0.3 0.1 0.2 0.1 0.4 0.1 0.6 0.1s0.5 0 0.7 0.1c0.1 0.1 0.2 0.1 0.4 0l0.1-0.1c0.2-0.1 0.3 0 0.4 0.1v0.4c0 0.1 0 0.2 0.1 0.3 0 0.1 0.1 0.1 0.2 0.1s0.2 0 0.2-0.1c0.1-0.4 0.4-0.6 0.7-0.8 0.2-0.1 0.3-0.2 0.5-0.2h0.9 0.4c0.4-0.1 0.9-0.1 1.3 0 0.3 0 0.7 0.1 1 0 0.2 0 0.4 0 0.5 0.1 0.2 0.1 0.4 0.1 0.6 0s0.4 0 0.5 0.1l0.1 0.1c0.2 0.2 0.4 0.2 0.6 0.1 0.2-0.2 0.4-0.2 0.7-0.2h0.5 0.3c0.3-0.1 0.5-0.1 0.8 0.1 0.1 0.1 0.2 0.1 0.4 0.1 0.1 0 0.2 0 0.3-0.1h0.4c0.1 0.1 0.3 0.1 0.5 0s0.4-0.2 0.6-0.1 0.4 0 0.6 0.1 0.6 0.1 0.9 0.1c0.1 0 0.2 0 0.3 0.1s0.1 0.1 0.2 0c0 0 0-0.1 0.1-0.1h0.1c0.3 0 0.4-0.2 0.6-0.2s0.5 0 0.7-0.1h0.4 0.4c0.1 0 0.2-0.1 0.3 0 0.2 0.2 0.4 0.2 0.6 0.1 0.2 0 0.4 0 0.5 0.1s0.1 0.1 0.2 0.1c0.2 0.1 0.3 0.1 0.5 0h0.1c0.3-0.3 0.7-0.3 1-0.3 0.4 0 0.7 0 1.1-0.1 0.1 0 0.2-0.1 0.3 0 0.3 0.1 0.5 0.1 0.8 0h0.6 0.4c0.4-0.1 0.8 0 1.2 0 0.3 0 0.5 0 0.8-0.1 0.1 0 0.3-0.1 0.4 0 0.5 0.1 0.9 0.1 1.4 0.1 0.2 0 0.3 0 0.4 0.2 0.1 0.1 0.2 0.2 0.3 0.1 0.3-0.2 0.5-0.2 0.8-0.2h1c0.6 0 1.1 0 1.6 0.1h0.6c0.3 0 0.6 0.1 0.8 0.4 0.1 0.1 0.2 0.1 0.3 0s0.1-0.1 0.2 0 0.3 0.1 0.4 0 0.1-0.1 0.2-0.1c0.2 0.1 0.4 0 0.6-0.1 0.1-0.1 0.3-0.1 0.5 0 0.1 0.1 0.3 0 0.4 0s0.1 0.1 0.2 0.1c0 0.1 0.1 0.1 0.1 0.2l0.2-0.2c0.1-0.1 0.1-0.2 0.2-0.2 0.3-0.1 0.6-0.1 0.8 0 0.1 0.1 0.2 0 0.4-0.1 0.1-0.1 0.3-0.1 0.5-0.1s0.3 0 0.5 0.1c0.3 0 0.6 0.1 0.8 0 0.1-0.1 0.3-0.1 0.5-0.1 0.4 0 0.8 0.1 1.2 0.1 0.1 0 0.3 0.1 0.3 0.2 0.1 0.2 0.2 0.3 0.4 0.5 0.2 0 0.3 0 0.5 0.1h-0.1c0.1-0.3 0.3-0.5 0.5-0.7 0.1-0.1 0.3-0.1 0.5-0.1s0.3 0.1 0.5 0.1c0.4-0.1 0.9 0 1.3 0 0.2 0 0.4 0.3 0.3 0.5 0 0.1-0.1 0.2-0.1 0.3l0.1 0.1h0.6v-0.2c-0.1-0.1-0.1-0.2 0-0.4 0.1-0.1 0.1-0.2 0.2-0.2s0.3-0.1 0.4-0.1h0.3c0.3 0.1 0.6 0.1 0.8 0.2h0.2c0.3-0.2 0.5-0.1 0.8 0h0.2c0.4-0.1 0.4-0.1 0.5 0.3v0.1h0.1c0.1-0.1 0.1-0.2 0.2-0.2 0.1-0.1 0.2-0.2 0.4-0.2 0.2 0.1 0.5 0 0.7 0 0.5-0.1 1-0.1 1.6 0.1 0.1 0 0.2 0.1 0.2 0.1 0.1 0.3 0.3 0.3 0.5 0.3h0.4c0.3 0 0.6-0.2 0.8-0.1 0.3 0.1 0.6 0.1 0.8 0.1 0.1 0 0.3 0.1 0.4 0 0.2-0.1 0.4-0.1 0.6-0.1 0.6 0 0.6 0.1 0.8 0.6-0.1-0.1-0.2-0.1-0.2-0.1s-0.1 0-0.1 0.1c0 0 0 0.1 0.1 0.1h0.3c0.1-0.2 0.3-0.4 0.5-0.5 0.1 0 0.3-0.1 0.4 0l0.3 0.3c0.1 0 0.2 0 0.2-0.1 0.4-0.2 0.8-0.2 1.1-0.2 0.2 0 0.4 0 0.5 0.1 0.2 0 0.5 0 0.7 0.1 0.4 0.1 0.7 0.1 1.1 0 0.3-0.1 0.5 0.1 0.8 0 0.1 0 0.3 0.1 0.4 0.1 0.1 0.1 0.3 0.2 0.4 0.2 0.1 0.1 0.3 0.1 0.4 0 0.1 0 0.2-0.1 0.3-0.2 0-0.1 0.1-0.1 0.2-0.1 0.2 0.1 0.3 0.2 0.5 0.3-0.2 0.1-0.2 0.1-0.2 0.2s0.1 0.2 0.1 0.3h0.1c0.1 0 0.1 0 0 0h-0.1c0.1-0.2 0.1-0.4 0.1-0.5 0.2 0 0.5 0 0.7 0.1h0.1c0.1 0 0.1 0 0 0h-0.1c0.2-0.2 0.5-0.3 0.8-0.1 0.2 0.1 0.3 0.2 0.5 0l0.1-0.1c0.1 0 0.2 0 0.3 0.1 0.1 0.2 0.2 0.4 0.1 0.7-0.1 0.2 0 0.4 0.1 0.6v0.1l-0.1 0.1c-0.3 0-0.5 0.1-0.8 0-0.2 0-0.3-0.1-0.6-0.2-0.2 0-0.2 0.2-0.4 0.3s-0.3 0.1-0.4-0.1c0-0.1-0.1-0.1-0.1-0.2-0.1 0-0.2-0.1-0.3-0.1s-0.2 0.1-0.2 0.2v0.1c-0.1 0.1-0.4 0-0.5-0.1l-0.1-0.1c0-0.1-0.1-0.2-0.1-0.3s-0.2-0.1-0.3-0.1l-0.1 0.1c-0.2 0.2-0.2 0.2-0.5 0-0.1-0.1-0.2-0.1-0.4-0.1h-0.4c-0.1 0-0.2 0-0.2 0.2v0.1l-0.1 0.1c-0.2 0-0.4-0.1-0.7-0.2-0.2-0.1-0.4 0-0.5 0.2l-0.1 0.1h-0.2c0-0.1-0.1-0.1-0.1-0.2-0.1-0.1-0.1-0.1-0.2-0.1-0.2 0.1-0.3 0.1-0.5 0-0.3-0.1-0.5-0.2-0.8-0.4-0.1-0.1-0.2 0-0.2 0.1v0.2l-0.1 0.1-0.3-0.3c-0.2 0-0.4 0.1-0.6 0.2s-0.3 0.1-0.5 0c-0.1 0-0.2-0.1-0.3-0.1s-0.3 0.1-0.4 0-0.3-0.2-0.4-0.2l-0.1-0.1c0-0.1-0.1-0.3-0.1-0.5h0.1-0.1c-0.1-0.1-0.1-0.3-0.2-0.3h-0.1l-0.1 0.1v0.2c0.1 0.2 0.1 0.4-0.1 0.6-0.1 0.1-0.1 0.2-0.3 0.3h-0.1s-0.1-0.1 0-0.1c0-0.1 0.1-0.1 0.1-0.2 0-0.2-0.2-0.4-0.4-0.3-0.3 0.1-0.5 0.2-0.7 0.5-0.1 0.2-0.3 0.2-0.5 0l-0.1-0.1c-0.1-0.1-0.1-0.1-0.2 0s-0.3 0-0.5 0c-0.1 0-0.2 0.1-0.4 0.1-0.3 0-0.6 0.1-0.9 0-0.3 0-0.5-0.1-0.8-0.1-0.1 0-0.3-0.1-0.4-0.2-0.2-0.2-0.4-0.2-0.6 0.1-0.1 0.1-0.2 0.1-0.3 0l-0.2-0.2c-0.1-0.1-0.2-0.1-0.2 0-0.2 0.2-0.5 0.3-0.8 0.3h-1.1c-0.1 0-0.2 0-0.3-0.1-0.2-0.2-0.5-0.1-0.7-0.3h-0.1c-0.3 0-0.4-0.2-0.7-0.2-0.1 0.1-0.2 0.1-0.4 0.2-0.1 0-0.2 0.1-0.2 0.2s-0.1 0.1-0.2 0.2h-0.1-0.3c-0.3-0.1-0.6 0-0.9-0.1-0.2 0-0.5-0.1-0.7-0.2 0 0-0.1 0-0.1-0.1h0.1v-0.1-0.1h-0.1v0.1h-0.4c-0.3-0.1-0.6 0-0.9 0.2-0.1 0.1-0.3 0.1-0.4 0-0.1 0-0.2-0.1-0.3-0.1-0.1-0.1-0.3-0.1-0.4 0-0.2 0.2-0.5 0.2-0.7 0.1-0.3-0.1-0.5-0.1-0.8 0s-0.3 0.1-0.4-0.3c-0.1-0.2-0.2-0.2-0.3-0.1l-0.1 0.1c-0.2 0-0.4 0.1-0.7 0h-0.2c-0.1 0-0.1 0.1-0.2 0.1-0.3 0-0.6 0.1-0.9 0.1-0.2 0-0.5 0-0.7-0.2-0.1-0.1-0.3-0.2-0.4-0.3 0 0-0.1 0-0.1 0.1-0.2 0.1-0.2 0.1-0.3-0.1-0.1-0.1-0.1-0.1-0.2 0v0.2l-0.1 0.1c-0.2 0-0.4-0.1-0.5 0-0.4 0.1-0.7 0.1-1.1 0.1-0.3 0.1-0.4 0-0.7-0.1-0.2-0.1-0.4-0.1-0.6 0l-0.1 0.1-0.1 0.1h-0.8-0.2c-0.2-0.1-0.3-0.2-0.5-0.2s-0.3 0.1-0.5 0.1-0.5 0-0.7-0.1c-0.3-0.1-0.6-0.1-0.8 0-0.1 0.1-0.3 0-0.4 0s-0.2 0-0.4 0.1-0.3 0.1-0.4-0.1c-0.2-0.2-0.3-0.3-0.5-0.2-0.3 0.1-0.6 0.2-1 0.4-0.2 0.1-0.4 0.1-0.5 0-0.2-0.1-0.4-0.1-0.6-0.1-0.1 0-0.2 0-0.3-0.1-0.1 0-0.2-0.1-0.3-0.1-0.4 0.2-0.4 0.2-0.8 0.1-0.1 0-0.1-0.1-0.2-0.1-0.1-0.1-0.3-0.1-0.4 0s-0.3 0.2-0.5 0.2c-0.1 0-0.2 0-0.3 0.1-0.1 0-0.2 0.1-0.3 0.1-0.3-0.2-0.7-0.1-1-0.2-0.2-0.1-0.3 0-0.4 0.2-0.1 0.1-0.2 0.1-0.3 0.1-0.3-0.1-0.5-0.1-0.7-0.3s-0.4-0.1-0.6 0c-0.2 0-0.4 0-0.5-0.1h0.1v-0.1h-0.1c-0.1 0.1-0.2 0.2-0.2 0.3-0.1 0.3-0.3 0.2-0.5 0.2-0.1 0-0.2-0.1-0.3-0.2s-0.2-0.2-0.3-0.2c-0.1-0.1-0.2 0-0.3 0.1s-0.1 0.2-0.2 0.3c-0.2-0.1-0.5-0.1-0.7-0.3-0.2-0.3-0.5-0.3-0.8-0.2-0.1 0-0.1 0.1-0.1 0.2s0 0.2-0.1 0.3c0 0.1-0.1 0.1-0.2 0.1s-0.2 0-0.2-0.1c-0.1 0-0.2-0.1-0.2 0-0.2 0.2-0.4 0.2-0.6 0.1-0.1-0.1-0.3-0.1-0.4-0.2v-0.2c0.3-0.1 0.3-0.1 0.3-0.3v-0.2c0-0.3-0.1-0.4-0.4-0.2-0.1 0-0.2 0.1-0.3 0.1v0.1s0 0.1 0.1 0.1h0.2c0.2 0 0.2 0.1 0.2 0.3-0.1 0.1-0.2 0.1-0.3 0.2l-0.1 0.1c-0.2 0.1-0.2 0.1-0.3 0s-0.2-0.2-0.3-0.4c0-0.1-0.1-0.1-0.1-0.3-0.1 0.3-0.1 0.5-0.2 0.7 0 0-0.1 0.1-0.1 0l-0.3-0.3c-0.2 0.1-0.4 0.2-0.6 0.2-0.1 0.1-0.2 0.1-0.4 0.1-0.2-0.1-0.5-0.1-0.7-0.1h-0.8c-0.6 0.1-1.1 0-1.6-0.1h-0.9c-0.3 0-0.5-0.1-0.6-0.4-0.1-0.1-0.1-0.2-0.2-0.1l-0.3 0.3c-0.1-0.1-0.1-0.1-0.2-0.1-0.3-0.2-0.5-0.2-0.8-0.1-0.1 0-0.2 0.2-0.2 0.3-0.2-0.1-0.3-0.3-0.5-0.4-0.2-0.2-0.3-0.1-0.5 0.1-0.1 0.1-0.1 0.2-0.2 0.2-0.1 0.1-0.2 0.1-0.4 0.1s-0.3-0.1-0.4-0.3v-0.2c0-0.1-0.1-0.2-0.3-0.2-0.1 0-0.2 0.1-0.1 0.2l0.1 0.1c0 0.1-0.1 0.2-0.1 0.2-0.1 0-0.2 0-0.3-0.1-0.1 0-0.2-0.1-0.4-0.1-0.3-0.1-0.4-0.1-0.7 0.2l-0.1 0.1h-0.2c-0.3-0.1-0.5-0.3-0.8-0.4-0.2-0.1-0.3-0.2-0.5-0.3v-0.1c-0.2 0.1-0.3 0.1-0.4-0.1 0-0.1-0.1-0.1-0.1-0.2-0.1-0.2-0.3-0.2-0.5 0-0.1 0.1-0.1 0.2-0.2 0.2s0.1 0 0.1 0c0 0.1 0 0.2-0.1 0.2 0 0.1-0.1 0.2-0.2 0.2s-0.1-0.1-0.2-0.1-0.2 0-0.3 0.1l-0.1 0.1c-0.3 0.3-0.6 0.4-1 0.4-0.3 0-0.6-0.1-0.9-0.1-0.2 0-0.3-0.2-0.4-0.3s-0.1-0.2-0.1-0.3 0.1-0.3 0-0.4-0.2-0.3-0.4-0.3v-0.2c0.2 0 0.3 0.1 0.5 0.1 0.3 0.2 0.4 0.2 0.5 0.2v0.3 0.2s0.1 0 0.1-0.1h0.1l-0.1 0.1h-0.1c0-0.1 0.1-0.1 0.1-0.2 0-0.2 0-0.3-0.1-0.3zm53.6 1.6c-0.1 0 0 0 0 0zm14.8 0.2c0-0.1 0.1-0.1 0.1-0.1h-0.1c0.1 0 0.1 0.1 0 0.1zm-10.2 0.1s-0.1 0 0 0h-0.1c0 0.1 0.1 0 0.1 0l0.1 0.1c0 0.1 0.1 0.1 0.1 0h-0.1l-0.1-0.1zm-57.7-0.9c0-0.1 0.1-0.1 0-0.1v0.1h0.2 0.1-0.1-0.2zm24.3 0h-0.2s-0.1 0-0.1 0.1c0 0 0 0.1 0.1 0.1h0.1c0-0.1 0-0.2 0.1-0.2 0 0 0.1-0.1 0.2-0.1s0.1-0.1 0-0.1h-0.1c-0.1 0-0.1 0.1-0.1 0.2zm-23.3-0.4h-0.1c-0.1 0-0.1 0.1-0.1 0.1 0 0.1 0.1 0.2 0.2 0.2s0.1-0.1 0.1-0.2c-0.1 0-0.1-0.1-0.1-0.1v-0.2c-0.1-0.1-0.1 0 0 0.2zm10-0.4c-0.2 0-0.5 0.1-0.7 0.1h-0.2c-0.1 0-0.2 0.1-0.2 0.2s0 0.3 0.2 0.3c0.3-0.1 0.6-0.2 0.8-0.4 0.1 0 0.1-0.1 0.1-0.2 0.2 0.2 0.3 0.1 0.5 0 0.1 0 0.1-0.2 0-0.2-0.1-0.1-0.2-0.1-0.4 0-0.1 0-0.1 0.1-0.1 0.2zm32.2 1.3s0.1 0 0.1-0.1c0.1-0.2 0-0.4-0.1-0.5s-0.2 0-0.3 0c-0.1 0.1-0.1 0.1 0 0.2s0.2 0.2 0.3 0.4v0zm17.2-0.4l-0.2 0.2v0.1c0 0.2 0.1 0.3 0.3 0.2 0.1-0.1 0.2-0.1 0.3-0.1s0.1 0 0.1-0.1 0-0.2-0.1-0.2-0.3-0.1-0.4-0.1zm-6.4 0.7c0.1 0.1 0.2 0.1 0.3 0.2h0.1s0.1-0.1 0-0.1c-0.1-0.2-0.2-0.4-0.3-0.5h-0.1c-0.1 0-0.1 0.1-0.1 0.1 0.1 0 0.1 0.1 0.1 0.3zm-48-1.2s0-0.1-0.1-0.1c0 0-0.1-0.1-0.1 0l-0.1 0.1s0 0.1 0.1 0.1h0.1c0.1 0 0.1-0.1 0.1-0.1zm41.6 0.7c0 0.1 0.1 0.2 0.2 0.2s0.2-0.1 0.2-0.2-0.1-0.1-0.1-0.1c-0.2-0.1-0.3 0-0.3 0.1zm-18.7-0.1s0.1 0 0.1-0.1 0.1-0.1 0.1-0.2l-0.1-0.1c-0.1 0-0.2 0.2-0.1 0.4-0.1-0.1 0-0.1 0 0zm-17.4-0.5v0c-0.1 0.1-0.1 0.2-0.1 0.3s0.2 0.1 0.2 0c0.2 0 0.2-0.2-0.1-0.3 0.1 0 0.1 0 0 0zm7.3 0.3s-0.1-0.1-0.2-0.1-0.2 0.1-0.1 0.1l0.1 0.1h0.1c0.1 0 0.1-0.1 0.1-0.1zm3.6 0.1c0-0.1 0.1-0.2 0.1-0.2l-0.1-0.1c-0.1 0-0.1 0.1-0.1 0.1 0 0.1 0.1 0.2 0.1 0.2zm47.6 1v0c-0.1-0.1-0.1 0-0.1 0h0.1zm-60.5-1.2v0.1l0.1-0.1h-0.1zm54 0.5v0l-0.1-0.1v0.1h0.1zm-16.3 0.1h-0.2v0.1c0 0.1 0.1 0.1 0.2 0.1v-0.2zm-8.9-0.5v0l0.1-0.1c0-0.1-0.1-0.1-0.1-0.1-0.1 0-0.1 0 0 0.2-0.1-0.1-0.1-0.1 0 0zm27.2 0.8v-0.1s-0.1 0 0 0.1c-0.1 0-0.1 0 0 0zm-34.3-0.9c-0.1-0.1-0.1-0.1-0.2-0.1v0.1c0 0.2 0.1 0.2 0.2 0v0zm-21.6-0.7v-0.1h-0.1l-0.1 0.1s0 0.1 0.1 0.1l0.1-0.1zm18.8 0.7c0-0.1-0.1-0.1 0 0l-0.1-0.1v0.1h0.1zm-19.5 0.1v0h-0.1 0.1zm35.2-0.1s0 0.1 0.1 0.1h0.1v-0.1c-0.1-0.1-0.1 0-0.2 0zm14.9 0.6c-0.1-0.1-0.1 0-0.1 0-0.1 0.1 0 0.1 0.1 0-0.1 0.1 0 0.1 0 0zm7.4 0c0.1 0 0.1-0.1 0-0.1 0 0-0.1 0 0 0.1-0.1 0 0 0.1 0 0zm-51.7-0.8zm19.9-0.1h-0.1s0.1 0.1 0.1 0v0zm11.3 0.8zm1.2-0.4z" fill="inherit"/>
		<path d="m361.8 12.6c0.1-0.2 0.2-0.3 0.4-0.3 0.3 0 0.6 0 0.9-0.2 0.1-0.1 0.2-0.1 0.4-0.1s0.5 0.1 0.7 0c0.1 0 0.2 0 0.3 0.1 0.2 0.1 0.4 0.2 0.7 0.2 0.1 0 0.1 0 0.2-0.1 0.3-0.2 0.6-0.2 0.9 0.1 0.1 0.1 0.2 0.2 0.3 0.1 0.3-0.1 0.5 0 0.7 0.1 0 0 0.1 0 0.1-0.1v-0.1c0-0.1-0.1-0.1-0.1-0.2s0-0.2 0.1-0.2c0.3 0 0.6-0.1 0.9 0 0.2 0 0.5 0.1 0.6 0.2s0.2 0.1 0.3 0.1 0.1 0 0.2-0.1c0.2-0.2 0.5-0.2 0.7-0.1 0.1 0.1 0.2 0.1 0.4 0.1 0.1-0.1 0.2-0.1 0.3-0.2 0.2-0.1 0.5-0.2 0.8-0.2 0.4 0 0.7 0 1.1-0.1 0.2 0 0.5-0.1 0.8 0.1h0.2c0.2 0 0.4 0 0.5-0.1 0.2 0.1 0.3 0.2 0.4 0.3s0.2 0.1 0.3 0 0.1-0.2 0.2-0.3 0.2-0.1 0.3-0.1 0.1 0 0.1 0.1c0.2 0.1 0.4 0.1 0.5-0.1 0.2-0.1 0.3-0.1 0.5 0.1 0.1 0.1 0.1 0.1 0.2 0s0.2-0.1 0.4-0.1c0.1 0 0.1 0 0.2 0.1v0.1c0.1 0.1 0.3 0 0.4 0.1 0 0 0.1 0 0.2-0.1s0.1-0.2 0.2-0.2c0.3 0 0.6-0.1 0.9 0.1s0.6 0.2 0.8 0c0.2-0.1 0.4-0.1 0.6-0.1h1c0.3 0 0.5 0 0.8-0.2 0.1 0 0.2-0.1 0.2-0.1 0.3 0.1 0.7 0 1 0.1 0.2 0.1 0.4 0.1 0.5 0.1 0.2 0 0.3 0.1 0.5 0.2l0.2-0.2c0.1-0.1 0.1-0.1 0.2-0.1h0.5c0.1 0 0.1 0.1 0.1 0.2v0.2c0.1 0 0.1-0.1 0.2-0.1s0.2-0.1 0.3-0.1c0.2-0.1 0.4 0 0.6 0s0.4-0.2 0.6-0.2c0.1 0 0.2 0 0.3 0.1s0.2 0.2 0.2 0.3h0.1l0.1-0.1v-0.2c0-0.1 0-0.2 0.1-0.2 0.2 0 0.4-0.1 0.5 0 0.2 0.1 0.4 0.1 0.6 0h0.4c0.2 0 0.3 0 0.4 0.2 0 0 0 0.1 0.1 0.1 0.4-0.1 0.7 0.2 1.1-0.1 0.1 0 0.1-0.1 0.2-0.1s0.1-0.1 0.2-0.1c0.3 0 0.5 0.1 0.8 0 0.2-0.1 0.5 0 0.7-0.1 0.1 0 0.2 0.1 0.3 0.2 0.2 0.2 0.3 0.1 0.5 0h0.1l0.1 0.1c0.2 0.2 0.3 0.3 0.5 0.1 0.2-0.1 0.4-0.2 0.6-0.2s0.4 0 0.5 0.1 0.2 0.1 0.3 0.1c0.2 0 0.2-0.1 0.3-0.2s0.3-0.1 0.4 0 0.2 0.1 0.3 0.2c0.1 0 0.1 0.1 0.2 0.1s0.1 0 0.2-0.1v-0.1-0.1c0-0.1 0-0.2 0.2-0.2 0.3 0.1 0.5 0.2 0.7 0.2 0.2 0.1 0.3 0.2 0.5 0.2s0.3 0.1 0.4 0.2c0.1 0 0.2 0 0.2-0.1 0 0 0-0.1 0.1-0.1 0-0.1 0.1-0.2 0.2-0.2h0.2c0.2 0 0.4-0.1 0.6-0.2 0.1-0.1 0.2 0 0.3 0.1s0.1 0.3 0.3 0.2c0.1 0.1 0.3 0.3 0.4 0.5 0 0.1 0.2 0.1 0.3 0 0-0.1 0.1-0.1 0.1-0.2v-0.2l0.1-0.1 0.1 0.1v0.4 0.5c0 0.1 0 0.2-0.1 0.2-0.2 0.1-0.5 0.1-0.7 0 0 0 0-0.1-0.1-0.1v0.1c-0.2-0.1-0.3 0-0.4 0.2l-0.1 0.1h-0.2c-0.4 0-0.7-0.1-1.1-0.1-0.1 0-0.2-0.1-0.2-0.2-0.1-0.1-0.1-0.2-0.2-0.4 0-0.1-0.2-0.1-0.2 0-0.1 0.1-0.2 0.3-0.3 0.4s-0.2 0.1-0.2 0.1v-0.1-0.2c0-0.1-0.2-0.1-0.3-0.1-0.1 0.1-0.2 0.2-0.2 0.3-0.1 0.1-0.2 0.2-0.4 0.2-0.4-0.1-0.8 0-1.1 0.2-0.1 0.1-0.2 0.1-0.4 0.1h-0.4c-0.2-0.3-0.2-0.4-0.4-0.3v-0.1-0.1 0.1c-0.1 0.2-0.2 0.3-0.4 0.3h-0.5c-0.4-0.1-0.9 0-1.3-0.2-0.1 0-0.2 0-0.3 0.1-0.3 0.3-0.7 0.2-1 0.1-0.1 0-0.1-0.1-0.2-0.1s-0.1 0.1-0.2 0.1c-0.1 0.1-0.3 0.1-0.4 0.1-0.4-0.2-0.8-0.2-1.3-0.1-0.1 0-0.3 0-0.4-0.1-0.2-0.1-0.3-0.2-0.5-0.1-0.3 0-0.6 0-0.8 0.2s-0.4 0.1-0.6 0c-0.3-0.1-0.5-0.2-0.7-0.4-0.1-0.1-0.2-0.1-0.3 0.1 0 0 0 0.1-0.1 0.1-0.1 0.1-0.2 0.2-0.3 0.1s-0.3-0.1-0.4-0.1h-0.3c-0.2-0.1-0.4-0.1-0.6 0.1-0.1 0.1-0.1 0.1-0.2 0.1-0.2-0.1-0.3 0-0.4 0-0.1 0.1-0.2 0-0.3-0.1s-0.1-0.1-0.3 0l-0.1 0.1c-0.2-0.1-0.3 0-0.4 0-0.2 0-0.3-0.1-0.4 0-0.1 0-0.3 0.1-0.4 0-0.3-0.1-0.5 0-0.7 0.1-0.1 0.1-0.2 0-0.2-0.1 0 0-0.1-0.1-0.1 0-0.1 0.1-0.2 0.1-0.2 0.2-0.1 0.1-0.3 0-0.4-0.1s-0.1-0.2-0.2-0.3c-0.2 0.1-0.5 0.1-0.7 0.2-0.5 0.2-1 0.2-1.5 0.2-0.1 0-0.2-0.1-0.2-0.2v-0.2c0-0.1-0.1-0.2-0.2-0.2-0.3 0.1-0.6 0.2-0.9 0.2-0.1 0-0.2 0.1-0.2 0.2v0.2l-0.1 0.1h-0.1c-0.4-0.1-0.7 0-1.1 0h-0.5c-0.3-0.1-0.6-0.1-0.9-0.1-0.2 0-0.4 0.1-0.6 0h-0.3-0.4c-0.2 0.1-0.4-0.1-0.6-0.1s-0.4 0.1-0.6 0.2c-0.2 0-0.3 0-0.4-0.1s-0.3-0.2-0.4-0.1c-0.2 0-0.4 0.1-0.5 0.2-0.3 0.2-0.6 0.1-0.9 0s-0.5-0.2-0.8-0.3c-0.1 0-0.2 0.1-0.3 0.2v0.1l-0.1 0.1c-0.1 0-0.1 0-0.2-0.1l-0.1-0.1c-0.2-0.4-0.3-0.5-0.7-0.3-0.1 0-0.3 0.1-0.4 0.1-0.2 0.2-0.5 0.2-0.8 0.2-0.1 0-0.3-0.1-0.4-0.1s-0.2 0.1-0.3 0.2h-0.2l0.1-0.1c-0.1 0.1 0 0.1 0 0.2h-0.1c-0.6 0.1-0.6 0.1-1.2-0.1h-0.2c-0.6 0.2-0.4 0.3-1.1 0-0.1-0.1-0.3-0.1-0.4-0.2-0.2-0.1-0.3-0.1-0.5 0-0.3 0.1-0.6 0.1-0.8-0.1 0 0-0.1 0-0.1-0.1-0.2 0-0.2 0.1-0.4 0.1-0.2 0.1-0.5 0.2-0.8 0.1-0.3 0-0.5 0-0.8-0.2h-0.2c-0.2 0.1-0.3 0.1-0.5 0l-0.1-0.1c-0.3 0-0.6-0.1-0.8-0.2-0.1 0-0.2 0-0.3 0.1l-0.1 0.1c-0.1 0.1-0.1 0.3-0.3 0.3-0.1 0-0.3 0-0.5-0.1-0.1 0-0.3 0-0.3 0.1-0.1 0.1-0.3 0.2-0.4 0.1s-0.2-0.1-0.3-0.1c-0.3 0.1-0.5 0.2-0.8 0.1-0.2 0.1-0.3 0.1-0.5 0.2h-0.2c-0.2-0.2-0.5-0.1-0.7 0s-0.5 0-0.7-0.1h-0.3c-0.1 0-0.3 0.1-0.4 0.1s-0.2-0.1-0.4 0c-0.2 0-0.4 0-0.5 0.1 0 0-0.1 0-0.2-0.1s-0.1-0.1 0-0.2c0-0.1 0.1-0.1 0.1-0.2s0-0.2-0.1-0.2c-0.1-0.1-0.2-0.1-0.3-0.1l-0.1 0.1v0.2c-0.2 0.1-0.4 0.3-0.6 0.4-0.1 0.1-0.2 0-0.3-0.1v-0.1c0.1-0.2-0.1-0.4-0.3-0.5h-0.1c-0.1 0-0.1 0 0 0h0.1c0 0.2 0 0.3-0.1 0.5 0 0.1-0.2 0.3-0.4 0.3h-1.2-1.2c-0.1 0-0.1 0-0.2-0.1-0.6-0.4-0.6-0.3-1.1-0.1s-1 0.2-1.5 0.1h-0.1c-0.1 0.1-0.2 0.2-0.3 0.2 0 0-0.1 0-0.1-0.1-0.1-0.1 0-0.3 0-0.4v-0.2h-0.1c-0.2 0.1-0.4 0.2-0.5 0.4-0.1 0.1-0.2 0.2-0.3 0.1 0 0-0.1-0.1-0.1 0-0.2 0.2-0.6 0.1-0.8 0.2-0.3 0-0.7 0.1-1 0.1-0.1 0-0.3 0-0.4-0.1l-0.6-0.3h-0.2c-0.3-0.1-0.5 0-0.6 0.3 0 0.1-0.2 0.1-0.2 0 0 0 0-0.1-0.1-0.1 0-0.1-0.1-0.1-0.1-0.2h-0.1c-0.1 0.1-0.2 0.2-0.2 0.3-0.1 0.1-0.2 0.1-0.3 0.1-0.2-0.1-0.4-0.1-0.6-0.1-0.4 0.1-0.8 0-1.2 0.1-0.2 0.1-0.4 0-0.6-0.1-0.1 0-0.2-0.1-0.2-0.1-0.2 0.1-0.5 0.1-0.7-0.1h-0.2c-0.1 0-0.3 0.1-0.4 0.2-0.1 0-0.1-0.1-0.2-0.1-0.2-0.1-0.3-0.1-0.5 0.1l-0.2 0.2s-0.1 0.1-0.1 0c-0.2-0.1-0.3 0-0.5 0.1-0.1 0.1-0.3 0.1-0.4 0.1-0.2-0.2-0.5-0.3-0.8-0.4-0.5-0.2-0.4-0.2-0.5 0.3-0.1-0.1-0.1-0.2-0.2-0.3 0-0.1-0.1-0.2-0.2-0.3-0.2-0.1-0.2-0.3-0.3-0.4-0.1-0.2-0.1-0.3 0-0.3 0.1-0.1 0.3-0.2 0.4-0.1h0.1c0.2 0.3 0.5 0.4 0.9 0.2 0.2-0.1 0.4-0.1 0.7-0.1h0.2c0.5-0.2 0.9 0.1 1.4 0.1 0.2 0.2 0.5 0.1 0.7 0.2 0.1 0.1 0.2 0.1 0.3 0 0.2 0.1 0.3 0.2 0.5 0.2 0.1 0 0.3 0 0.4-0.1s0.1-0.1 0.1-0.2-0.1-0.2-0.3-0.3c-0.1 0-0.2 0-0.3-0.1v-0.1c0-0.1 0.1-0.1 0.2-0.1 0.2 0 0.4 0.1 0.5 0.3 0.1 0.1 0.1 0.2 0.1 0.3l0.1 0.1s0.1 0 0.1-0.1 0-0.1 0.1-0.2c0-0.1 0.1-0.2 0.2-0.2 0.3-0.1 0.7-0.1 1 0.1h0.1c0.1-0.1 0.2-0.3 0.5-0.2h0.2c0.2 0 0.3 0.1 0.4 0.3s0 0 0 0c0.1 0 0.1-0.1 0.2-0.1s0.2-0.1 0.2-0.1c0.2 0.1 0.3 0.1 0.5 0s0.4-0.2 0.6-0.2c0.1 0 0.1 0.1 0.2 0.1 0.1 0.1 0.3 0.1 0.4 0s0.1-0.2 0.2-0.2 0.1-0.1 0.2-0.1h0.1c0.3 0.1 0.6 0.2 0.9 0.2 0 0 0.1 0.1 0.1 0.2s0 0 0 0c0.1 0 0.1-0.1 0.2-0.1 0.2-0.1 0.4-0.2 0.6-0.2 0.1 0 0.2 0 0.3 0.1 0.1 0 0.2 0 0.3-0.1 0.2-0.2 0.4-0.2 0.6-0.1s0.5 0.1 0.7 0c0.4-0.2 0.7-0.1 1 0.1 0.2 0.1 0.3 0.2 0.5 0.1 0.1 0 0.1 0.1 0.2 0.1 0.1 0.1 0.2 0.1 0.3 0s0.2-0.2 0.2-0.3c0.1-0.2 0.2-0.1 0.3 0 0 0.1 0.1 0.1 0.1 0.2v-0.1c0.3 0 0.5-0.2 0.7-0.2 0.2-0.1 0.4-0.1 0.7-0.2 0.2-0.1 0.4-0.1 0.6 0 0.2 0 0.4 0.2 0.6 0.2s0.4 0.1 0.6 0.1c0.2 0.1 0.4 0 0.5-0.1l0.1-0.1h0.1c0.2 0.1 0.5 0.1 0.8 0 0.2-0.1 0.5-0.1 0.8-0.1 0.1 0 0.2 0 0.3 0.1s0.1 0.2 0.2 0.4c0 0.1 0.1 0.2 0.1 0.3 0.1 0.1 0.2 0.2 0.3 0.2s0.2-0.2 0.2-0.4l-0.1-0.1h0.4 0.5v0.3-0.3c-0.1-0.1-0.2-0.3-0.3-0.4 0-0.2 0.2-0.2 0.3-0.2s0.2 0.1 0.4 0.1c0.1 0 0.3 0.1 0.4 0 0.2-0.1 0.4-0.1 0.6-0.2 0.1 0 0.2 0.1 0.4 0.1 0.4-0.2 0.8-0.1 1.2 0 0.2 0 0.4 0.1 0.6-0.1 0.1-0.1 0.3-0.1 0.4 0 0.2 0 0.3 0.1 0.3 0.4 0 0.1 0 0.2 0.1 0.2 0.1 0.1 0.3 0 0.3-0.1s0.1-0.2 0.1-0.3c0.1-0.2 0.2-0.2 0.4-0.2h0.4c0.1 0 0.2 0 0.2-0.1 0.1-0.1 0.2-0.2 0.3-0.1 0.1 0 0.1 0.2 0.1 0.3l0.1 0.1s0.1 0 0.1-0.1c0.2-0.2 0.4-0.3 0.7-0.3s0.5 0 0.6 0.3c0.1 0.2 0.3 0.3 0.4 0.4s0.2 0.1 0.2 0v-0.2c0-0.1 0-0.2 0.1-0.2-0.3 0.9-0.2 0.9-0.1 1v0zm26.4-0.5c0.1 0 0.1-0.1 0.2-0.1v-0.1h-0.1c-0.1 0.1-0.1 0.2-0.1 0.2 0 0.1-0.1 0.1 0 0l-0.1 0.1c0.1 0.1 0.1 0 0.1-0.1zm-53.3 1.7c0-0.1 0.1-0.1 0-0.2h-0.1v0.1l0.1 0.1h0.3c0.1 0 0.1-0.1 0.2-0.1v-0.1c0-0.1-0.1-0.1-0.1 0-0.1 0-0.3 0.1-0.4 0.2zm5.5-0.1v-0.2c-0.1-0.1-0.2-0.1-0.3-0.1l-0.1 0.1s0 0.1 0.1 0.1c0.2 0.3 0.3 0.2 0.3 0.1zm59.5-1.9c-0.1 0-0.1 0-0.2 0.1-0.1 0-0.1 0.1-0.1 0.2s0.1 0.1 0.2 0.1c0 0 0.1 0 0.1-0.1 0 0 0.1-0.1 0-0.1 0.2-0.1 0.1-0.1 0-0.2zm-35.9 0.8s0.1 0 0.1-0.1c0 0 0-0.1-0.1-0.1s-0.2 0 0 0.2c-0.1-0.1-0.1 0 0 0zm-32.8 1.2c0-0.1-0.1-0.2-0.1-0.2-0.1 0-0.1 0.1-0.1 0.2s0.1 0.2 0.1 0.1c0 0 0-0.1 0.1-0.1zm10-0.5h0.1c0.1 0 0.1-0.1 0.1-0.1v-0.1c-0.1-0.1-0.2-0.1-0.3 0l-0.1 0.1s0.1 0.1 0.2 0.1c-0.1 0 0 0 0 0zm4.3 0.2s0-0.1-0.1-0.1-0.2 0-0.2 0.1 0 0.1 0.1 0.2c0.2-0.1 0.2-0.1 0.2-0.2zm4.5-0.5l-0.1 0.1s0 0.1 0.1 0.1 0.1-0.1 0.1-0.1l-0.1-0.1zm0.8 0.5l-0.1-0.1c-0.1 0-0.2 0.1-0.2 0.2s0.1 0.1 0.1 0.1c0.2 0 0.2-0.1 0.2-0.2zm-12.4 0c0.1-0.1 0-0.2-0.1-0.2h-0.1c0.1 0 0.1 0.1 0.2 0.2-0.1-0.1-0.1 0 0 0zm53.9-1.3l-0.1 0.1s0 0.1 0.1 0.1c0 0 0.1 0 0.1-0.1v-0.1h-0.1zm5.8-0.4s-0.1-0.1-0.1 0c0 0 0 0.1-0.1 0.1 0 0 0.1 0.1 0.1 0 0.1 0 0.1-0.1 0.1-0.1zm-2.3 0.3s0 0.1-0.1 0.1h0.1c0.1 0 0.1-0.1 0.1-0.1h-0.1zm-64.3 1.6s-0.1 0.1 0 0c-0.1 0.1 0 0.1 0 0.1 0 0.1 0.1 0 0-0.1 0.1 0.1 0 0.1 0 0zm-1 0.2v0h-0.1 0.1c-0.1 0 0 0 0 0zm32.3-1.4v0zm7 0.2s0.1 0 0 0c0.1 0 0 0 0 0zm5 0.5s-0.1 0 0 0c-0.1 0.1 0 0.1 0 0v0zm-1.9-1.1zm14.7 0.4zm-44.3 0.6v0c-0.1 0-0.1 0 0 0zm15.3-0.2c-0.1 0-0.1 0.1 0 0v0zm-4.1 0.3v0c-0.1-0.1 0 0 0 0zm-14.9 0.8zm3.2-0.5zm38.9-1z" fill="inherit"/>
		<path d="m250.8 15.4c0.1-0.1 0.2-0.1 0.3-0.1s0.2 0.1 0.3 0.1c0.2 0.1 0.5 0.1 0.8 0 0.1-0.1 0.3 0 0.5-0.1 0.1-0.1 0.2-0.2 0.4-0.3 0.1-0.1 0.3-0.1 0.4 0l0.2 0.2c0.2 0 0.5-0.1 0.7-0.1h0.6c0.1-0.1 0.3-0.1 0.4-0.2 0.2-0.1 0.2 0 0.3 0.1s0.1 0.3 0.3 0.4c0.2-0.1 0.3-0.2 0.5-0.3h-0.1s0-0.1 0.1-0.1c0.1-0.1 0.3-0.2 0.4 0v0.1c0.1 0.2 0.2 0.3 0.4 0.3h0.2c0.1 0 0.1-0.1 0.2-0.1 0.3-0.2 0.6-0.3 0.9-0.1 0.2 0.1 0.3 0.1 0.4 0h0.1c0.2-0.1 0.4 0 0.5 0.2 0.1 0.1 0.2 0.1 0.3 0 0.3-0.3 0.6-0.3 0.9-0.3 0.2 0 0.3 0 0.4 0.2 0.1 0.1 0.3 0.1 0.4 0s0.3-0.1 0.5-0.2c0.3-0.1 0.6 0 0.9 0 0.1 0 0.2 0.1 0.3 0.1 0.1 0.1 0.2 0.1 0.3 0l0.1-0.1c0.1-0.1 0.2-0.1 0.2 0.1 0.1 0.2 0.2 0.2 0.3 0.1l0.1-0.1c0.1-0.1 0.1-0.2 0.2-0.2h1 0.4c0.2 0.1 0.4 0.2 0.6 0.1 0.3 0.1 0.6 0 0.8-0.1h0.2c0.1 0 0.2 0.1 0.3 0.1 0.2 0.1 0.4 0.1 0.5 0 0.2-0.1 0.3-0.1 0.5-0.1s0.3 0 0.5-0.1c0.3-0.1 0.5-0.1 0.8 0.1s0 0 0 0c0.2 0.1 0.3 0.2 0.5 0.4 0.1 0.1 0.2 0 0.2-0.1v-0.2c0-0.1 0.1-0.1 0.2-0.1 0.2 0 0.4 0.2 0.7 0h0.3c0.3 0.1 0.6 0.1 0.9 0 0.1 0 0.2-0.1 0.3-0.1h0.4c0.1 0.1 0.3 0.1 0.4 0.1 0.2 0 0.3 0 0.4 0.2l0.1 0.1c0.1 0 0.1-0.1 0.2-0.1 0.1-0.1 0.2-0.2 0.4-0.1 0.1 0 0.2 0.1 0.3 0.1h0.5c0 0.1 0.1 0.2 0.2 0.2 0.2 0 0.4-0.1 0.7-0.1 0.1 0 0.2-0.1 0.3-0.1 0.2-0.2 0.3-0.3 0.6-0.2h0.8 0.8c0.1 0 0.3 0 0.3 0.2l0.1 0.1h0.1c0.1-0.1 0.3-0.1 0.4 0s0.3 0.1 0.4 0c0.4-0.3 0.8-0.2 1.2-0.3 0.2 0 0.3 0.1 0.5 0.1 0.1 0 0.1 0.1 0.2 0.1 0.1 0.1 0.2 0.2 0.3 0.2s0.2-0.1 0.2-0.2c0.1-0.1 0.2-0.1 0.3 0s0.2 0.1 0.2 0.2c0.1 0.1 0.1 0.1 0.1 0.2 0.1 0.1 0.1 0.1 0.2-0.1v-0.1 0.1h-0.4c0.1-0.3 0.2-0.5 0.6-0.5h0.2c0.3 0 0.5 0.1 0.8 0.1h0.8 1.1c0.3 0 0.6 0 0.9 0.1h0.1c0.2-0.1 0.4 0 0.5 0s0.2-0.1 0.4-0.1c0.1 0 0.2 0 0.2 0.1s0.1 0.1 0.1 0.2 0.2 0.1 0.2 0c0.1-0.2 0.4-0.3 0.6-0.4 0.1 0 0.3-0.1 0.4-0.1h0.8c0.1 0 0.2 0.1 0.4 0.2 0.1 0 0.2 0 0.3-0.1 0.3-0.1 0.6-0.1 0.9-0.1h0.3c0.2 0 0.3 0.1 0.4 0.2 0 0 0.2 0.1 0.2 0 0.3-0.3 0.6-0.3 1-0.3h0.7 0.2c0.4-0.2 0.7-0.1 1.1 0 0.3 0.1 0.6 0.2 0.9 0.4 0.2 0.2 0.3 0.2 0.5 0.1 0.1-0.1 0.2 0 0.3 0.1h0.1c0.1 0 0.1-0.1 0.1-0.2v-0.1s0-0.1-0.1-0.1c0-0.1 0-0.1 0.1-0.2 0.2-0.1 0.3 0 0.4 0.1 0.2 0.2 0.2 0.1 0.5 0l0.1-0.1h0.5c0.3 0 0.5 0.1 0.6 0.3h-0.1c-0.1 0-0.1 0-0.1 0.1h0.1s0.1 0 0.1-0.1c0.1-0.1 0.2-0.1 0.3-0.2 0.4 0 0.7-0.1 1-0.1h0.2c0.3 0.1 0.7 0 1 0 0.3-0.1 0.6 0 0.8 0.1 0.1 0.1 0.3 0.1 0.5 0.1 0.3-0.1 0.4 0 0.6 0.2 0.1 0.1 0.3 0.1 0.4 0l0.1-0.1c0.3-0.1 0.5 0 0.7 0.1 0.1 0.1 0.2 0.1 0.4 0 0.1-0.1 0.2-0.1 0.4-0.1 0.3 0 0.5-0.1 0.7-0.2s0.2-0.1 0.3 0.2c0 0.1 0.1 0.1 0.2 0.1 0.1-0.1 0.2-0.2 0.3-0.2 0.1-0.1 0.2-0.1 0.4-0.1s0.3 0.1 0.3 0.3v0.2c0 0.1 0 0.1 0.1 0.1v-0.1c0-0.1-0.1-0.1-0.1-0.2 0.2 0 0.3 0 0.4-0.1s0.1-0.1 0.2 0v0.2c0 0.1 0.1 0.1 0.2 0.1 0.2-0.2 0.5-0.4 0.8-0.5h0.4c0.1 0 0.2 0.1 0.2 0.2s0 0.1-0.1 0.1c0 0.1 0 0.2 0.1 0.2 0.3 0 0.5-0.1 0.6-0.3 0.1 0.1 0.2 0.2 0.3 0.2 0.1-0.1 0.3-0.2 0.4-0.4h0.1v0.2c0 0.1 0 0.1 0.1 0.1v-0.1-0.2c0.2 0.1 0.4 0.1 0.6 0s0.3-0.1 0.3 0.1c0.1 0.2 0.2 0.3 0.3 0.4h0.1l0.1-0.1v-0.2c0.2 0 0.4-0.1 0.6-0.1s0.4 0 0.7-0.2c0.2-0.1 0.4-0.1 0.7-0.1 0.2 0.1 0.5 0.1 0.7 0.2 0.1 0 0.1 0.1 0.2 0.2 0.2 0.2 0.3 0.1 0.5-0.1 0.1 0.3 0 0.6-0.3 0.9h-0.1c-0.1 0-0.2-0.1-0.3 0-0.1 0.2-0.4 0.1-0.6 0.3h-0.2c-0.3-0.1-0.5-0.1-0.8-0.2l-0.6 0.3c-0.2 0.2-0.2 0.1-0.5-0.1l-0.1-0.1c-0.1 0.1-0.2 0.2-0.4 0.2-0.3 0-0.6 0-0.8-0.2-0.1-0.1-0.2-0.1-0.3-0.1h-0.5c-0.1 0-0.2 0.1-0.2 0.2s-0.1 0.2-0.2 0.1h-0.5-0.2c-0.3-0.2-0.5 0-0.7 0.1-0.1 0-0.1 0.1-0.2 0.1-0.2 0.1-0.3 0-0.3-0.1v-0.1l-0.1-0.1c-0.3 0-0.6 0-0.8 0.2s-0.5 0.1-0.7 0.2h-0.2c-0.3-0.1-0.5-0.1-0.8-0.1-0.2 0-0.4-0.1-0.6-0.2s-0.2-0.1-0.4 0.1c0 0.1-0.1 0.1-0.2 0.2-0.2 0-0.4 0-0.5-0.2-0.1-0.1-0.2-0.1-0.3 0-0.2 0.1-0.4 0.1-0.7 0.1h-0.1c-0.1-0.1-0.2-0.2-0.3-0.1-0.3 0.1-0.6 0.1-0.9 0-0.2-0.1-0.3-0.1-0.4 0.1s-0.3 0.2-0.5 0.2c-0.5 0.1-1 0-1.5 0h-0.2c-0.3-0.2-0.7-0.1-1-0.1-0.4 0.1-0.9 0-1.3 0.2-0.1 0-0.3 0-0.4-0.1-0.2-0.1-0.4-0.1-0.7-0.1-0.2 0-0.3 0.1-0.5 0.1-0.3 0.1-0.5 0-0.7-0.2v-0.1s0.1 0.1 0.1 0h-0.1c-0.1 0.1-0.3 0.1-0.4 0.2-0.1 0-0.2 0.1-0.2 0-0.2-0.1-0.4-0.1-0.6 0-0.3 0.1-0.6 0.1-0.8 0.3h-0.3c-0.1-0.1-0.1-0.2-0.1-0.3v-0.1c0-0.1-0.2-0.1-0.3-0.1l-0.2 0.2c-0.3 0.3-0.6 0.4-1 0.2-0.1-0.1-0.2-0.1-0.4-0.1h-1.1-0.6c-0.1 0-0.2-0.1-0.2-0.2s-0.1-0.2-0.2-0.3-0.2-0.1-0.2 0c-0.1 0.2-0.2 0.3-0.4 0.3-0.1 0-0.2 0.1-0.4 0.1-0.1 0.1-0.3 0.1-0.4 0.1-0.1-0.1-0.3-0.1-0.5-0.1-0.1 0-0.2 0.1-0.2 0.2-0.3 0-0.6 0.1-0.9 0.1s-0.5 0-0.7-0.3h0.1-0.1c-0.1 0-0.1-0.1-0.2-0.1s-0.1-0.1-0.2 0c-0.2 0.1-0.4 0.2-0.6 0.2-0.1 0-0.2 0.1-0.4 0.1-0.1 0-0.2 0-0.3-0.1 0-0.1-0.1-0.1-0.1-0.2h-0.5c-0.1 0-0.3-0.1-0.4-0.1-0.1 0.1-0.1 0.2-0.1 0.4-0.3-0.1-0.5-0.1-0.8 0s-0.6 0.1-0.9 0c-0.4-0.1-0.7-0.1-1.1-0.3 0 0-0.1 0-0.2-0.1-0.1 0-0.2 0.1-0.3 0.1-0.2 0-0.4 0.1-0.5 0.3-0.1 0.1-0.2 0.1-0.3 0.1h-0.6c0-0.3-0.1-0.6-0.1-0.8-0.1 0.1-0.1 0.1-0.1 0.2s0 0.2-0.1 0.3c-0.1 0.2-0.2 0.3-0.4 0.3-0.1 0-0.2 0-0.3-0.1 0 0.1-0.1 0.1-0.1 0.1-0.1 0.1-0.2 0.1-0.3 0.1l-0.2-0.2-0.3-0.3c-0.1-0.1-0.3-0.1-0.4 0l-0.1 0.1c-0.3 0.4-0.7 0.4-1.1 0.3h-0.4-0.1 0.1c-0.1 0.1-0.2 0.2-0.3 0.2-0.2-0.1-0.4 0-0.6 0.1h-0.3c-0.3-0.1-0.7-0.2-1.1-0.3-0.1 0-0.2 0-0.3 0.1-0.3 0.1-0.5 0.1-0.8 0.2-0.1-0.1-0.3-0.2-0.5-0.2-0.1-0.1-0.3-0.2-0.4-0.1-0.1 0-0.2 0.2-0.3 0.3l-0.1 0.1c-0.1 0.1-0.2 0.1-0.3 0-0.2-0.1-0.3-0.2-0.3-0.4 0-0.1-0.1-0.2-0.2-0.1s-0.2 0.1-0.2 0.2c-0.2 0.2-0.5 0.1-0.8 0.2l-0.1-0.1c-0.1 0-0.2-0.1-0.3-0.1-0.1 0.1-0.2 0.1-0.3 0.2s-0.2 0.1-0.3 0h-0.2c-0.3 0.3-0.8 0.1-1.1 0.2-0.2 0-0.4-0.1-0.6-0.3-0.1-0.1-0.3-0.2-0.4-0.2-0.2 0-0.3 0-0.4 0.1-0.2 0.2-0.3 0.2-0.5 0-0.1-0.1-0.3-0.1-0.4 0s-0.2 0.1-0.4 0c-0.1 0-0.1 0-0.2-0.1-0.1 0.1-0.1 0.1-0.2 0.1-0.3 0.3-0.6 0.4-1 0.3-0.2 0-0.3 0-0.5 0.1s-0.4 0.1-0.6-0.1c0-0.1-0.1-0.1-0.2-0.2s-0.2-0.1-0.3 0l-0.1 0.1c-0.1 0.1-0.3 0.2-0.4 0-0.2-0.2-0.4-0.2-0.6-0.1-0.3 0-0.5 0.2-0.8 0.2-0.1 0-0.3 0-0.4-0.1-0.1-0.2-0.3-0.2-0.5-0.2h-0.5c-0.1 0-0.3 0.1-0.4 0.1-0.1-0.1-0.2-0.1-0.3-0.2s-0.2 0-0.3 0.1l-0.1 0.1c-0.1 0.1-0.2 0.2-0.4 0.1-0.2 0-0.4-0.1-0.6-0.2-0.1 0-0.2 0.1-0.2 0.2v0.2h-0.1c-0.3-0.1-0.5-0.1-0.8-0.2l-0.6-0.3c-0.4 0.1-0.7 0.2-1.1 0.4-0.1 0.1-0.2 0.1-0.3 0-0.3-0.2-0.7-0.3-1-0.2h-0.4c-0.3-0.1-0.6-0.1-0.9 0v-0.1s0-0.1-0.1-0.1v0.1l0.1 0.1 0.1 0.1v0.1c-0.1 0-0.2 0.1-0.4 0.1h-0.5c-0.1 0-0.2 0-0.2-0.1-0.1-0.2-0.2-0.3-0.3-0.3s-0.3-0.1-0.4-0.1-0.1 0.1-0.2 0.1v0.2c-0.1 0.3-0.2 0.4-0.4 0.3s-0.3-0.1-0.5 0c-0.1 0.1-0.2 0.1-0.3 0.1-0.2 0-0.3-0.1-0.2-0.3v-0.1c0-0.1-0.1-0.2-0.1-0.1-0.3 0.1-0.6 0.2-0.9 0.4-0.2 0.2-0.2 0.2-0.4-0.1-0.1-0.1-0.1-0.2-0.2-0.2-0.1-0.1-0.3-0.2-0.5 0-0.1 0.1-0.2 0.1-0.3 0s-0.2 0-0.3 0.1c-0.1 0-0.2 0-0.1-0.1 0-0.1 0.1-0.2 0.1-0.3s0-0.1 0.1-0.2c0.2-0.1 0.3-0.2 0.5-0.3h0.1v0.1 0.1-0.1c0.2 0 0.4 0.1 0.5 0s0.3-0.1 0.4 0l0.1 0.1h0.2c0.2-0.2 0.4-0.3 0.7-0.1 0.1 0.1 0.2 0 0.3-0.1l0.1-0.1c0.2 0 0.3 0.1 0.5 0.1h0.1c0 0.2-0.1 0.4 0.1 0.5 0.3 0 0.6-0.1 0.9-0.1 0.1 0 0.2 0 0.2-0.1 0.1-0.2 0.2-0.3 0.4-0.2h0.5c-0.1 0.2 0 0.3 0 0.5h-0.1-0.1-0.1 0.1 0.1v-0.5h0.3c0.1 0 0.2 0 0.3 0.1s0.1 0.2 0.2 0.3 0.2 0.1 0.3 0c0.6-1.3 0.7-1.4 0.8-1.5v0.2l0.1 0.1h0.1v-0.1c-0.1-0.1-0.2-0.1-0.2-0.2zm41.6-0.9v0.5c0-0.1 0.1-0.1 0.1 0h-0.1c0-0.2 0.1-0.4 0-0.5h0.1-0.1zm-11.2 0.6c0.1-0.1 0.1-0.3 0.3-0.3s0.3-0.1 0.5-0.1v-0.1-0.1c-0.2-0.1-0.4-0.2-0.6-0.2s-0.3 0.2-0.4 0.4c0 0.2 0.1 0.3 0.2 0.4zm18.6 0v0c-0.1-0.1-0.3-0.1-0.4 0v0.1l0.1 0.1c0.1-0.1 0.2-0.1 0.3-0.2zm-45.1 0.7s0.1 0 0.1-0.1c0 0 0-0.1-0.1-0.1 0 0-0.1 0 0 0.2v0zm48.3-1.3c0-0.1 0-0.1-0.1-0.1h-0.1c0 0.1 0 0.2 0.2 0.1v0zm-31.4 0.8v0c0-0.1-0.1-0.1 0 0h-0.1l0.1 0.1v-0.1zm-25.5 0.5v0c0.1 0.1 0.1 0 0 0 0.1 0 0.1 0 0 0zm58.5-1.1zm-46.2 0.7zm19.1-0.1zm18.1-0.2v0c-0.1-0.1-0.1-0.1 0 0-0.1 0-0.1 0 0 0zm-16.1 0.1v0c-0.1-0.1-0.1-0.1 0 0-0.1 0-0.1 0 0 0zm-14.7 0zm-2.9 0.4v0 0c0.1 0.1 0 0 0 0zm43.2-1zm11.8-0.2zm-26.7 0.1z" fill="inherit"/>
		<path d="m230.9 16.5c-0.1 0.1-0.2 0.3-0.3 0.4s-0.2 0.1-0.3 0-0.1-0.2-0.2-0.2c-0.3 0.1-0.6 0.2-0.9 0-0.1-0.1-0.3 0-0.5 0-0.1 0.1-0.2 0.2-0.2 0.3-0.1 0.1-0.2 0.2-0.3 0.1-0.2-0.1-0.5-0.1-0.8-0.1-0.2 0-0.5-0.1-0.7-0.1-0.1 0-0.2-0.1-0.4-0.1-0.3-0.1-0.5-0.1-0.7 0.1 0 0.1-0.1 0.1-0.2 0.1-0.2 0.1-0.3 0-0.5 0-0.1-0.1-0.2-0.3-0.4-0.3s-0.3-0.2-0.3-0.4c0-0.1-0.1-0.1-0.2-0.1 0 0-0.1 0-0.1 0.1v0.1c-0.1 0.2-0.2 0.3-0.4 0.3s-0.3 0.1-0.5 0.1-0.2 0.1-0.3 0.2-0.2 0.1-0.2 0c-0.1-0.1 0-0.4-0.3-0.3-0.2 0-0.1 0.2-0.2 0.3v0.1c-0.2 0.1-0.3 0.1-0.5 0-0.1-0.2-0.1-0.4-0.2-0.5-0.1-0.2-0.3-0.2-0.4-0.1s-0.1 0.1-0.1 0.2c-0.1 0.1-0.3 0.2-0.4 0.2-0.3 0-0.6 0.1-0.8 0.4 0 0-0.1 0-0.2 0.1-0.3-0.1-0.6 0-1-0.2h-0.1c-0.2 0.1-0.4 0.1-0.5 0h-0.2c-0.4 0.1-0.7 0.1-1.1 0h-0.5c-0.2 0.1-0.4 0.1-0.5 0.1-0.2 0-0.4 0-0.5-0.2 0 0-0.1-0.1-0.1 0-0.1 0.1-0.2 0-0.3-0.1s-0.2-0.1-0.3 0v0.2c0 0.1-0.1 0.1-0.2 0.1s-0.2 0-0.2-0.1 0-0.2-0.1-0.2c0-0.1 0-0.2-0.1-0.3-0.1 0-0.2 0-0.2 0.1s-0.1 0.1-0.1 0.2c-0.1 0.1-0.1 0.2-0.2 0.1-0.1 0-0.1-0.1-0.2-0.1-0.1-0.1-0.2-0.1-0.3 0-0.3 0.2-0.7 0.3-1.1 0.5-0.1 0.1-0.3 0.1-0.5 0s-0.4-0.1-0.5-0.1h-0.2c-0.4 0.2-0.8 0-1.2 0.2-0.1-0.2-0.1-0.3-0.2-0.4-0.2-0.1-0.3-0.3-0.6-0.4-0.1 0-0.3 0-0.4 0.1s0 0.2 0 0.3l0.1 0.1c0.1 0.1 0.1 0.1 0 0.2s-0.2 0.1-0.3 0.1c-0.2-0.1-0.3-0.1-0.5-0.1-0.1 0-0.1-0.1-0.1-0.1v-0.1c0-0.1-0.1-0.2-0.1-0.1-0.2 0.1-0.4 0.2-0.5 0.3s-0.2 0.1-0.3 0c-0.2-0.1-0.3-0.1-0.5 0.1h-0.1c-0.1-0.1-0.2-0.1-0.4-0.1-0.3 0.1-0.6 0.1-0.9 0.1-0.2 0-0.3 0-0.4-0.1-0.2-0.2-0.4-0.2-0.6-0.3l-0.1 0.1c-0.1 0.2-0.2 0.3-0.3 0.3s-0.3 0-0.4-0.1-0.2-0.1-0.3 0c-0.2 0.1-0.3 0-0.4 0-0.2-0.1-0.5-0.1-0.7 0-0.1 0.1-0.3 0.1-0.4 0.2-0.3 0-0.4-0.1-0.3-0.4v-0.2-0.1h-0.1c-0.1 0.1-0.2 0.2-0.2 0.3s-0.2 0-0.2 0v-0.2c-0.1-0.1-0.3-0.2-0.3-0.1-0.1 0.3-0.4 0.4-0.6 0.4-0.1 0-0.2 0-0.3-0.2 0-0.1 0-0.2-0.1-0.2 0 0-0.1 0-0.1 0.1-0.1 0.1-0.2 0.1-0.4 0.1-0.1-0.1-0.1-0.2-0.3-0.2 0 0-0.1 0-0.1 0.1v0.1c0.1 0.1 0.2 0 0.4 0-0.1 0.1-0.1 0.2-0.2 0.3h-0.1c-0.2 0.1-0.3 0.2-0.6 0.2s-0.6-0.1-0.9-0.1c-0.1 0-0.2-0.1-0.3-0.2s-0.3-0.2-0.4-0.2c-0.4 0-0.7-0.1-1.1 0v-0.1 0.1c0 0.1-0.1 0.1-0.2 0.2-0.2 0-0.5 0-0.7 0.2 0 0-0.1 0.1-0.2 0.1h-0.3c-0.3 0.1-0.7 0-1 0-0.2 0-0.3-0.1-0.5 0h-0.2c-0.2 0-0.4-0.1-0.6-0.1s-0.4 0.1-0.5 0.1-0.1-0.2-0.2-0.2c-0.1-0.1-0.2-0.1-0.3 0 0-0.2 0-0.5-0.1-0.7 0-0.1-0.1-0.1-0.1-0.1h-0.1c-0.1 0.3-0.1 0.6-0.3 0.8-0.1 0.2-0.4 0.3-0.6 0.1-0.1 0-0.1-0.1-0.2-0.1h-0.2c-0.4 0.4-0.8 0.4-1.3 0.2-0.1 0-0.3-0.1-0.4-0.1-0.2-0.1-0.4-0.2-0.6-0.2s-0.4 0.1-0.5 0.1c-0.2 0-0.3 0.1-0.4 0.2s-0.2 0-0.3-0.2c-0.1-0.1-0.1-0.1-0.2-0.1h-0.1l-0.1 0.1c-0.2 0.3-0.5 0.3-0.8 0.1-0.1-0.1-0.2-0.1-0.4-0.1h-0.3c-0.3-0.1-0.5 0-0.8 0.1-0.1 0.1-0.3 0.1-0.4 0-0.3-0.1-0.5 0-0.8 0.2-0.1 0.1-0.2 0.1-0.3 0s-0.3-0.2-0.5-0.2c-0.1 0-0.2 0-0.3-0.1-0.1 0-0.2-0.1-0.3-0.2s-0.3 0-0.4 0.2v0.2l-0.1 0.1c-0.2 0-0.5 0.1-0.7 0.1s-0.4-0.2-0.5-0.4v-0.2c0-0.2-0.1-0.4-0.3-0.5-0.1-0.1 0-0.2 0.1-0.2 0.2-0.1 0.4-0.1 0.5 0s0.2 0.1 0.4 0.1h0.9c0.2 0.1 0.5-0.1 0.7 0 0.2-0.1 0.3-0.1 0.5 0s0.5 0.1 0.7 0c0.4-0.2 0.8-0.2 1.2-0.2 0.2 0 0.3 0 0.5-0.1 0.2-0.2 0.4-0.1 0.7 0 0.1 0 0.1 0.1 0.2 0.2 0.1 0.2 0.2 0.1 0.4 0 0.1-0.1 0.2-0.2 0.2-0.3l0.1-0.1c0.3 0 0.5 0 0.8 0.1 0.3 0.2 0.5 0.2 0.8 0 0.1 0 0.1 0 0.1 0.1v0.1s0 0.1 0.1 0.1c0 0 0.2 0 0.2-0.1 0.1-0.1 0.1-0.2 0.2-0.3s0.1-0.2 0.3-0.2h0.4c0.1 0 0.2 0 0.3 0.1s0.2 0.2 0.3 0.2c0.1 0.1 0.2 0.1 0.3 0 0.1-0.2 0.3-0.2 0.5-0.2 0.2-0.1 0.2-0.1 0.4 0.2 0.1 0.1 0.2 0.1 0.2 0 0 0 0-0.1 0.1-0.1 0.1-0.1 0.2-0.1 0.3-0.1s0.3 0.1 0.4 0.1 0.2 0.1 0.2 0c0.2-0.1 0.4-0.1 0.6-0.1s0.4-0.1 0.6-0.1h0.2c0.1 0 0.3-0.1 0.4 0s0.2 0.3 0.2 0.5v0.2h0.1 0.1c0.1-0.1 0.2-0.2 0.2-0.3 0.1-0.2 0.3-0.4 0.5-0.4s0.4-0.1 0.5-0.1c0.2 0 0.3 0 0.4 0.1 0.1 0.2 0.2 0.2 0.3 0.1 0.1 0 0.1-0.1 0.2-0.1s0.2-0.1 0.3 0c0.2 0.1 0.3 0.1 0.4-0.1 0.1-0.1 0.2-0.1 0.3 0 0.2 0.2 0.5 0.2 0.8 0.3v-0.2c0.1-0.2 0.2-0.3 0.4-0.2s0.3 0.1 0.5 0.1h0.2c0.2 0.1 0.3 0.1 0.4 0s0.3-0.1 0.4 0.1 0.3 0.2 0.5 0.1l0.1-0.1c0.2-0.1 0.3 0 0.4 0.2v0.2s0.1 0 0.1 0.1h0.1v-0.1c0-0.2 0.1-0.3 0.2-0.3 0.4-0.1 0.9-0.2 1.3-0.1h0.4c0.1 0 0.3-0.1 0.4-0.1h0.3c0.2 0.2 0.5 0.1 0.7 0 0.1 0 0.1 0 0.2-0.1 0.2 0.1 0.4 0.2 0.5 0.4h-0.1c0.2-0.3 0.4-0.4 0.7-0.4h0.1c0.1 0.1 0.3 0.1 0.4 0.1 0.3 0 0.5-0.1 0.8-0.1 0.1 0 0.3 0 0.3 0.1 0.2 0.3 0.4 0.4 0.7 0.5 0.2-0.1 0.2-0.2 0.3-0.3 0.2-0.3 0.4-0.3 0.7-0.2 0.1 0 0.2 0.1 0.3 0.1 0.2 0 0.3-0.1 0.4-0.2 0.2-0.2 0.5-0.3 0.7-0.2 0.4 0.1 0.9 0 1.3 0.1 0.2 0 0.5 0.1 0.7 0 0.2 0.1 0.5-0.1 0.7 0 0.2 0 0.4-0.1 0.5-0.1s0.3 0 0.4 0.1 0.2 0 0.3 0c0.2-0.1 0.2-0.1 0.3 0.1s0.1 0.2 0.3 0.1c0.1 0 0.2-0.1 0.3 0 0 0.1 0.1 0.1 0.2 0.1 0.2 0.1 0.3 0 0.4-0.2 0-0.1 0.1-0.1 0.1-0.2 0.1-0.1 0.2-0.1 0.3 0 0 0.1 0.1 0.2 0.1 0.2 0 0.2 0.1 0.3 0.2 0.5h0.1v-0.1s0-0.1-0.1-0.1c-0.1-0.1 0-0.3 0-0.4 0.1-0.1 0.2-0.2 0.3-0.2 0.3 0.1 0.7-0.1 1 0.1h0.2c0.2-0.1 0.4 0 0.6 0.1 0.1 0.1 0.3 0.1 0.5 0 0.1 0 0.2 0 0.3-0.1 0.2-0.1 0.3-0.1 0.5-0.1h0.3c0.2-0.2 0.5-0.1 0.7 0 0.3 0.1 0.6 0.1 0.9 0.3 0.1 0.1 0.3 0 0.3-0.1 0.2-0.4 0.6-0.3 0.9-0.3 0.1 0 0.1 0.1 0.2 0.1 0 0.1 0.1 0.2 0.1 0.3s0.1 0.1 0.1 0.1l0.1-0.1v-0.1c0-0.2 0.1-0.3 0.3-0.3 0.1 0 0.3 0 0.4-0.1 0.2-0.1 0.3-0.1 0.5 0.1 0.1 0.1 0.1 0.1 0.2 0s0.2-0.1 0.3-0.1c0.3 0 0.6 0 0.9-0.1 0.2 0 0.5 0 0.7 0.1s0.4 0.1 0.6 0l0.1-0.1c0.2-0.1 0.5-0.1 0.7 0.1s0.4 0.2 0.6 0c0.1-0.1 0.3-0.1 0.4 0.1 0 0.1 0.1 0.1 0.1 0.2 0.1 0.1 0.2 0.1 0.3 0.1s0.1-0.1 0.2-0.1c0-0.1 0-0.2 0.1-0.2 0-0.1 0.1-0.1 0.2-0.1h0.2c0.4 0.2 0.8 0.1 1.2 0.1 0.2 0 0.5-0.1 0.7-0.1h0.3c0.2 0.1 0.4 0.2 0.6 0.1s0.4 0.1 0.6 0 0.3 0 0.4 0.2 0.2 0.4 0.3 0.5c-0.2 0.1-0.3 0.1-0.3 0.3h-1.1v-0.1c-0.1-0.2-0.1-0.2-0.2-0.2 0.1 0.1-0.2 0.3-0.5 0.4zm-25.8-0.1c0 0.1 0 0.2-0.1 0.3v0.1h0.1s0.1 0 0.1-0.1c0.1-0.1 0.2-0.1 0.2-0.2 0.1-0.1 0-0.1-0.3-0.1zm-12.5 0.9c-0.1-0.2-0.2-0.2-0.3-0.1-0.1 0-0.1 0.2 0 0.2 0.1 0.1 0.2 0.1 0.3-0.1v0zm26.2-1.3c-0.1 0-0.1 0 0 0-0.1-0.1-0.1 0-0.1 0-0.1 0.1-0.1 0.1 0.1 0-0.1 0.1-0.1 0.1 0 0zm-27.6 1.1v0 0zm16.4-0.7c-0.1 0-0.1 0 0 0-0.1 0.1-0.1 0.1 0 0v0zm14.3-0.5s-0.1 0 0 0c-0.1-0.1-0.1 0-0.1 0 0 0.1 0 0.1 0.1 0-0.1 0.1-0.1 0.1 0 0zm-10.1 0.4zm6.2 0v0 0c-0.1-0.1-0.1 0 0 0zm14.8-0.2zm-36.4 1z" fill="inherit"/>
		<path d="m412.6 12.3c-0.1 0.1-0.3 0.2-0.4 0.2-0.1-0.1-0.1-0.2-0.1-0.3s-0.2-0.2-0.3-0.1c-0.2 0.1-0.3 0.1-0.4 0l-0.2-0.2h-0.1l-0.1 0.1c0 0.1 0.1 0.3 0.2 0.4 0 0.1 0 0.2-0.1 0.3-0.2 0.1-0.3 0.1-0.5 0s-0.4-0.2-0.7-0.2c-0.2 0-0.3-0.1-0.4-0.2-0.2-0.2-0.2-0.4-0.2-0.7 0.2-0.2 0.4-0.3 0.6-0.4 0.2 0 0.2 0 0.4 0.2v0.1c0 0.1 0.1 0.1 0.2 0.1 0.2-0.1 0.5-0.2 0.6-0.5 0.1-0.2 0.2-0.2 0.4-0.2 0.4 0.2 0.9 0.3 1.3 0.5 0.1 0 0.2 0.1 0.3 0 0.3-0.2 0.7-0.1 1-0.2 0.1 0 0.2 0.1 0.2 0.2v0.4h0.1 0.1c0.2-0.2 0.4-0.3 0.6-0.5 0.1 0 0.1-0.1 0.2-0.1 0.2 0 0.4-0.1 0.6-0.1 0.4 0.1 0.8 0 1.2 0 0.2 0 0.3 0.1 0.4 0.2v0.1c0.3 0.4 0.4 0.4 0.8 0.1l0.1-0.1c0.3-0.1 0.5-0.2 0.8-0.2h0.4c0.2-0.1 0.4-0.1 0.7 0 0.2 0.1 0.4 0.1 0.6 0.1 0.4-0.1 0.8-0.1 1.1 0.1 0.3 0 0.5 0.1 0.8 0.2 0.1 0 0.3 0 0.4-0.1 0.2-0.2 0.4-0.2 0.6-0.1 0.1 0 0.2 0.1 0.3 0 0.3-0.1 0.4 0 0.5 0.3l0.1 0.1 0.1-0.1v-0.1c0.1-0.2 0.2-0.3 0.4-0.2 0.1 0 0.2 0.1 0.3 0.1s0.2 0.1 0.3 0.1c0.3-0.1 0.7 0 1-0.2h0.2c0.3 0 0.6 0 0.8 0.3h-0.1c0.1-0.1 0.3-0.2 0.5-0.2 0.2-0.1 0.5 0 0.7-0.2h0.2c0.2 0.1 0.3 0.1 0.5 0 0.2 0 0.3 0.1 0.4 0.3 0 0.1 0.1 0.1 0.1 0.2 0.1 0 0.1-0.1 0.1-0.1 0.1-0.3 0.2-0.3 0.4-0.2l0.1 0.1h0.1c0-0.1 0.1-0.1 0.1-0.2l0.1-0.1h0.1c0.3 0.1 0.6 0.1 0.9 0 0.2 0.1 0.3 0.2 0.5 0.1 0.1 0 0.2 0 0.2 0.1v0.2c0 0.1 0 0.2 0.1 0.2s0.2 0 0.3-0.1c0-0.1 0-0.2 0.1-0.3 0-0.1 0.2-0.2 0.3-0.1 0.4 0.3 0.9 0.2 1.4 0.2 0.4-0.2 0.8-0.1 1.2-0.2 0.2-0.1 0.4 0 0.4 0.2l0.1 0.1c0.1-0.1 0.3 0 0.5-0.1l0.1-0.1c0.1-0.1 0.1-0.2 0.3-0.1 0.4 0 0.9 0 1.3 0.2h0.3c0 0.1 0 0.2 0.1 0.2l0.1 0.1h0.1c0.2-0.1 0.4-0.1 0.5-0.2s0.2-0.2 0.4-0.1h0.5c0.2 0 0.4 0 0.5 0.1 0.4 0.1 0.8 0.3 1.3 0.1h0.9c0.2 0 0.4 0.1 0.6 0h0.2c0.3 0.1 0.6 0 0.9 0.1 0.1 0 0.2 0 0.2-0.1 0.2-0.1 0.4-0.1 0.6-0.1 0.4 0.1 0.8 0.2 1.2 0.2 0.2 0.1 0.4 0.1 0.6 0.1 0.1 0 0.2 0 0.2 0.1 0.1 0.2 0.2 0.3 0.4 0.5 0.1 0 0.2 0 0.3 0.1h0.1 0.1-0.1-0.1c0-0.1 0-0.3 0.1-0.4 0-0.2 0.3-0.3 0.5-0.3 0 0 0.1 0 0.1 0.1 0.2 0.2 0.4 0.2 0.6 0.1s0.4 0 0.6-0.1h0.7c0.3 0 0.5 0 0.8-0.1 0.1-0.1 0.3-0.1 0.4 0 0.4 0.1 0.7 0.1 1.1 0.1 0.1 0 0.2 0.1 0.3 0.2 0 0.1 0.1 0.1 0.2 0.1 0.4-0.1 0.7 0 1 0.2 0.1 0 0.1 0 0.1-0.1 0.1 0 0.2-0.1 0.4-0.1 0.4-0.3 0.8-0.2 1.3-0.1l0.1 0.1c0.1 0.1 0.2 0.1 0.4 0.1 0.1 0 0.1-0.1 0.2-0.1 0.2-0.1 0.5 0.1 0.6 0.3 0 0.1 0.1 0.2 0.1 0.3-0.1 0.2-0.1 0.4-0.2 0.6s-0.3 0.3-0.5 0.2-0.3-0.2-0.5-0.3c-0.1 0-0.2 0-0.2 0.1-0.2 0.2-0.4 0.2-0.7 0.1 0-0.1 0-0.2-0.1-0.4h-0.1-0.1c-0.1 0.1 0 0.2 0 0.4h-0.2c-0.2 0.1-0.3 0.1-0.5 0s-0.5-0.2-0.6-0.5c0-0.1-0.2 0-0.2 0 0 0.1-0.1 0.1-0.1 0.2s-0.1 0.1-0.2 0l-0.1-0.1c-0.3-0.2-0.5-0.2-0.8 0.1-0.1 0.1-0.2 0.1-0.3 0.1s-0.2 0-0.3-0.1c-0.4-0.1-0.7-0.1-1.1 0-0.2 0.1-0.5 0.1-0.8 0.1-0.2 0-0.3 0-0.4-0.1s-0.2-0.1-0.4-0.1h-0.4c-0.2 0-0.3-0.1-0.4-0.3-0.1-0.1-0.2-0.2-0.3-0.1-0.1 0-0.2 0.1-0.3 0h-0.2c-0.1 0-0.1 0.1-0.2 0.2-0.3 0.2-0.4 0.2-0.8 0.2h-0.4c-0.3 0.1-0.5-0.1-0.6-0.2-0.1 0.1-0.2 0.2-0.3 0.2-0.2 0-0.4-0.1-0.6-0.1 0-0.1-0.1-0.1-0.1-0.2-0.1-0.1-0.1-0.2-0.2-0.3s-0.3-0.1-0.4 0.1v0.2l-0.1 0.1h-0.1c-0.2-0.2-0.3-0.4-0.5-0.5h-0.1l-0.3 0.3c-0.3 0-0.6 0.1-0.8 0.3-0.2 0.1-0.3 0.1-0.5 0.1s-0.4-0.1-0.5-0.1h-0.2c-0.2 0.1-0.4 0-0.6-0.1-0.1-0.1-0.3-0.2-0.4-0.2-0.1-0.1-0.3 0-0.4 0.2v0.1c-0.1 0.1-0.2 0.2-0.3 0.1-0.2-0.1-0.4-0.2-0.6-0.1v-0.1 0.1c0 0.1-0.1 0.2-0.2 0.2h-0.3c-0.2-0.1-0.5-0.1-0.7 0-0.3 0.1-0.5 0-0.8-0.1-0.1-0.1-0.3-0.1-0.5 0-0.3 0.1-0.7 0-1-0.1-0.1-0.1-0.2-0.2-0.2-0.4 0-0.1 0.1-0.2 0.1-0.4v-0.1s-0.1-0.1-0.1 0c-0.2 0.1-0.3 0.2-0.3 0.4v0.5s-0.1 0.1-0.1 0c-0.1-0.1-0.2-0.1-0.3-0.2s-0.2-0.1-0.3 0-0.2 0.1-0.3 0.1c-0.1-0.1-0.3-0.1-0.4-0.1-0.2 0.1-0.3-0.1-0.5-0.2h0.1c-0.1 0.1-0.1 0.3-0.2 0.3-0.2 0.1-0.3 0.2-0.5 0.1-0.1 0-0.2-0.1-0.2 0-0.2 0.1-0.4 0-0.5 0-0.2-0.1-0.4 0-0.5 0.2l-0.1 0.1c-0.1 0.1-0.2 0.1-0.3 0l-0.3-0.3c-0.1-0.1-0.2-0.1-0.3 0l-0.1 0.1c-0.2 0.1-0.3 0.2-0.4 0l-0.1-0.1c-0.1-0.1-0.3-0.2-0.4-0.1h-0.1c-0.2 0.2-0.4 0-0.6-0.1-0.1 0.2-0.3 0.3-0.6 0.2l-0.1-0.1c-0.1 0-0.2 0.1-0.4 0.1-0.3 0-0.6 0.1-0.9 0-0.2-0.1-0.5 0-0.7 0.1 0 0-0.1 0-0.2 0.1-0.1 0-0.3-0.1-0.4-0.1-0.3-0.2-0.6-0.2-0.9-0.1h-0.7c-0.1-0.1-0.1-0.2-0.2-0.3 0 0-0.1-0.1-0.1 0-0.1 0.1-0.2 0.2-0.4 0.3h-0.1c0-0.1 0-0.1-0.1-0.2 0-0.1 0-0.2-0.1-0.2s-0.2 0.1-0.2 0.2-0.1 0.1-0.1 0.2c-0.1 0.2-0.3 0.3-0.5 0.3-0.1 0-0.2-0.1-0.2-0.1-0.1-0.2-0.1-0.3-0.1-0.5v-0.2h-0.1-0.1c0 0.1-0.1 0.1-0.1 0.2 0 0.5-0.2 0.5-0.6 0.2 0-0.1 0-0.2-0.1-0.3h-0.1v0.1c0.1 0.1 0.2 0.1 0.3 0.1-0.2 0.1-0.3 0.2-0.5 0.3-0.1 0.1-0.2 0.1-0.3-0.1-0.2-0.2-0.5-0.4-0.7-0.6-0.1-0.2-0.3-0.1-0.5-0.1h-0.1v0.1c0.1 0.1 0.2 0.1 0.3 0.2l0.1 0.1c0 0.1-0.1 0.2-0.2 0.2l-0.1-0.1c-0.1-0.1-0.2-0.1-0.4-0.1s-0.4 0-0.5-0.1c0 0-0.2 0-0.2 0.1-0.1 0.1-0.2 0.3-0.2 0.4-0.1 0.2-0.3 0.2-0.5 0l-0.1-0.1c-0.1 0-0.1-0.1-0.2-0.1-0.3 0-0.3-0.1-0.3-0.3v-0.1c0-0.1 0-0.2-0.1-0.2s-0.2 0.1-0.2 0.1v0.2c0 0.1 0 0.2-0.1 0.2 0 0.1-0.1 0.1-0.2 0.1s-0.2 0-0.2-0.1c-0.3-0.2-0.5-0.1-0.8 0.2h-0.1c-0.2-0.1-0.4-0.3-0.6-0.4-0.2-0.2-0.4-0.1-0.5 0.2 0 0 0 0.1-0.1 0.1-0.1 0.1-0.1 0.1-0.2 0.1-0.2-0.1-0.4-0.2-0.7-0.3-0.1 0-0.1-0.1-0.2-0.2-0.1-0.2-0.3-0.2-0.4-0.1 0.3-0.4 0.3-0.3 0.3-0.3-0.1 0 0 0 0 0zm42.2 0.4l-0.2-0.2c-0.1-0.2-0.2-0.2-0.3-0.1v0.1 0.1c0.1 0.1 0.2 0 0.4 0-0.1 0 0 0 0.1 0.1 0 0.1 0 0.1 0.1 0.2h0.1v-0.1c-0.1 0-0.2-0.1-0.2-0.1zm-41.2-0.9c-0.1 0.1-0.1 0.2 0 0.3l0.1 0.1h0.1v-0.1c0-0.2-0.1-0.2-0.2-0.3 0.1 0 0.1 0 0.2-0.1 0.1 0 0-0.1 0-0.1h-0.1c0 0.1 0 0.2-0.1 0.2zm20.4 0c0.2 0.1 0.3 0.2 0.5 0.3h0.1c0.1 0 0.1 0 0.2-0.1v-0.2c-0.1-0.1-0.2-0.1-0.3-0.2-0.2 0.1-0.3 0.1-0.5 0.2zm13.4 0.7l0.3 0.3h0.1v-0.5h-0.1c-0.1 0-0.2 0.1-0.3 0.2zm-16.2-0.3c-0.1 0.1-0.1 0.1 0 0-0.1 0.1 0 0.2 0 0.2l0.1-0.1c-0.1 0-0.1 0-0.1-0.1zm11.9 0c0 0.1-0.1 0.1-0.1 0.1 0 0.1 0.1 0.2 0.1 0.1l0.1-0.1-0.1-0.1zm-6.7 0s-0.1 0.1 0 0c-0.1 0.1 0 0.1 0 0.1 0.1 0.1 0.1 0.1 0-0.1 0.1 0.1 0 0.1 0 0zm-26.2 0c0.1-0.1 0.1-0.1 0-0.1 0 0-0.1 0 0 0.1-0.1 0 0 0 0 0zm28.3-0.7c-0.1 0-0.1 0.1-0.1 0.1 0 0.1 0.1 0.1 0.1 0.1s0-0.1 0.1-0.1c0 0 0-0.1-0.1-0.1zm3.3 0.4zm9.3 0.1c-0.1 0 0 0.1 0 0v0zm-18.8 0s0 0.1-0.1 0.1h0.1v-0.1 0zm14.5 0s0-0.1-0.1-0.1c0 0-0.1 0-0.1 0.1 0 0 0 0.1 0.1 0.1s0.1 0 0.1-0.1zm-26.2-0.4zm30.4 1.1zm-21.8-0.8z" fill="inherit"/>
		<path d="m82.5 18.4c0.1 0 0.2-0.1 0.3-0.2 0.2-0.1 0.3-0.2 0.5-0.2h0.3c0.2 0.1 0.4 0.1 0.5 0 0.2-0.1 0.3-0.1 0.4 0.1s0.3 0.2 0.5 0.1c0.4-0.2 0.8-0.1 1.2-0.3 0.2-0.1 0.4-0.1 0.7-0.1 0.1 0.1 0.3 0 0.5 0 0.1 0 0.2 0.1 0.2 0.2l0.1 0.1c0.2 0 0.3-0.1 0.5-0.1s0.3-0.1 0.5-0.1h0.3 0.2c0.2-0.1 0.3-0.2 0.5-0.1h0.5c0.2 0 0.3 0 0.5 0.1s0.3 0.2 0.5 0.2c0.1 0 0.2 0 0.3-0.1 0-0.1 0.1-0.1 0.1-0.2 0.1-0.1 0.2-0.1 0.3 0s0.1 0.1 0.1 0.2c0.2 0.2 0.5 0.2 0.7 0l0.1-0.1c0 0.1 0.1 0.1 0.2 0.1s0.2 0.1 0.2 0.3v0.1l0.2-0.2c0.2-0.2 0.2-0.2 0.4 0 0.1 0 0.1 0.1 0.2 0s0.2-0.1 0.3 0 0.3 0.1 0.4 0.1c0.2-0.1 0.3-0.2 0.5-0.2s0.4-0.1 0.5 0.2c0 0 0.1 0.1 0.1 0 0.3-0.1 0.7-0.1 1-0.3 0.2-0.1 0.4 0 0.5 0.1l0.1 0.1c0.2 0.1 0.4 0.2 0.6 0.1s0.5-0.1 0.8-0.2c0.2 0.2 0.5 0.4 0.8 0.4v0.2c0 0.1-0.1 0.1-0.2 0.1s-0.1-0.1-0.2-0.1c-0.1-0.1-0.2-0.1-0.3 0 0 0-0.1 0-0.1 0.1l0.2 0.2c0.1 0.1 0 0.4-0.2 0.4h-1-0.2c-0.3 0.1-0.5 0.1-0.6-0.2h-0.1c-0.1 0-0.1 0.1-0.2 0.2s-0.1 0.1-0.2 0.1c-0.2 0-0.4 0-0.5-0.1-0.1 0-0.1-0.1-0.1-0.2-0.1-0.2-0.2-0.2-0.4-0.2-0.1 0-0.2 0-0.2 0.1-0.2 0.1-0.3 0-0.4-0.1l-0.1-0.1c-0.2-0.1-0.3 0-0.4 0s-0.3 0.1-0.3 0.2c-0.1 0.2-0.3 0.2-0.4 0.3-0.1 0-0.2 0.1-0.2 0-0.2-0.1-0.4-0.2-0.6 0h-0.5c-0.1-0.1-0.1-0.2-0.1-0.2s-0.1-0.1-0.1-0.2h-0.8c0 0.1-0.1 0.1-0.1 0.2s-0.1 0.1-0.2 0.1-0.2-0.1-0.3-0.1c-0.2 0.2-0.3 0.3-0.5 0.3-0.1 0-0.3 0.1-0.5 0.1s-0.3 0-0.4-0.2-0.2-0.2-0.4-0.2h-0.2c-0.1 0-0.2 0-0.3-0.1s-0.2-0.1-0.3 0c-0.1 0.2-0.3 0.3-0.5 0.3s-0.4 0-0.5 0.1c-0.2 0.1-0.4 0.1-0.6 0-0.1 0-0.3-0.1-0.5-0.1-0.1 0-0.2 0-0.3 0.1-0.2 0.2-0.3 0.2-0.6 0.1-0.1 0-0.1-0.1-0.2-0.1-0.5 0.1-0.9-0.1-1.3-0.3-0.1 0-0.2 0-0.2 0.1s0 0.1-0.1 0.2c-0.1 0-0.2 0-0.3 0.1-0.2 0.1-0.4 0-0.5-0.2-0.1-0.1-0.2-0.1-0.3-0.1-0.3 0.1-0.5 0.2-0.8 0.3-0.2 0.1-0.3 0.1-0.4-0.1-0.3-0.2-0.5-0.2-0.8 0-0.1 0.1-0.2 0.1-0.3 0-0.2-0.1-0.3-0.2-0.5-0.2-0.1 0-0.1 0-0.2-0.1s-0.2-0.2-0.4-0.3h-0.1v0.1 0.2c0 0.2-0.2 0.3-0.3 0.2l-0.3-0.3c-0.1-0.1-0.1-0.2-0.1-0.3-0.1-0.2-0.3-0.2-0.5 0-0.1 0.1-0.1 0.2-0.2 0.2l-0.3 0.3c-0.3 0-0.6 0-0.8-0.1-0.1-0.1-0.1-0.3-0.3-0.4-0.3-0.2-0.5-0.2-0.7 0.1-0.1 0.2-0.3 0.3-0.5 0.2h-0.2c-0.2-0.2-0.5-0.1-0.8-0.1 0-0.1-0.1-0.1-0.1-0.2-0.1-0.1-0.2-0.1-0.3 0l-0.1 0.1c-0.1 0.1-0.1 0.2-0.3 0.1-0.3 0-0.5-0.1-0.8-0.1-0.1 0-0.3-0.1-0.4-0.1-0.1-0.1-0.2-0.1-0.3 0-0.1 0-0.1 0.1-0.2 0.1s-0.3 0.1-0.4 0c-0.2-0.1-0.3-0.1-0.5-0.2s-0.4-0.1-0.6 0c-0.3 0.4-0.7 0.2-1 0.3-0.1 0-0.2 0-0.2-0.1-0.1-0.1-0.1-0.2-0.2-0.3s-0.2-0.1-0.3-0.1h-0.1c-0.4 0.3-0.7 0.2-1.1 0.1-0.1 0-0.1-0.1-0.2-0.1l-0.3-0.3c-0.2 0-0.2 0.1-0.3 0.2 0 0 0 0.1 0.1 0.1v0.1h-0.1c-0.3-0.3-0.6-0.3-0.9-0.1h-0.2c-0.1 0-0.2 0-0.3-0.1-0.1-0.2-0.2-0.3-0.5-0.1-0.1 0.1-0.2 0.1-0.4 0h-0.1c-0.2 0-0.4 0.1-0.6 0-0.2 0-0.4-0.1-0.5-0.1l-0.2 0.2c-0.1 0.2-0.3 0.3-0.6 0.2-0.4-0.1-0.8-0.1-1.2 0-0.2 0.1-0.4 0-0.5-0.1s-0.3-0.2-0.4-0.2c0-0.1-0.1-0.2-0.1-0.3-0.1-0.2-0.2-0.4-0.4-0.5s-0.3-0.1-0.5 0c-0.1 0.1-0.1 0.2-0.1 0.3 0.1 0.2 0.3 0.3 0.5 0.4v0.1h-0.1-0.1c-0.2-0.1-0.4-0.1-0.5-0.3-0.2-0.2-0.4-0.2-0.6-0.2l-0.1 0.1c0 0.1 0 0.2-0.1 0.3-0.4 0.8-0.5 0.8-0.7 0.8-0.3 0-0.4-0.1-0.4-0.4v-0.1c0-0.2-0.2-0.3-0.3-0.2-0.3 0.1-0.5 0.2-0.8 0.2-0.1 0.2-0.3 0.3-0.5 0.3-0.3 0-0.5-0.1-0.6-0.4 0-0.1 0-0.2-0.1-0.2-0.1-0.1-0.3-0.1-0.3-0.1l-0.2 0.2c-0.1 0.1-0.2 0.1-0.3 0.1-0.1-0.1-0.3-0.1-0.4-0.2-0.2 0-0.3 0-0.4 0.3-0.1 0.2-0.2 0.3-0.4 0.2 0 0-0.1 0-0.1-0.1-0.2-0.1-0.3-0.2-0.5-0.1-0.1 0-0.2 0-0.2 0.1-0.4 0.1-0.8 0-1.2-0.1-0.3-0.1-0.5-0.2-0.8-0.3-0.2-0.1-0.4 0-0.6 0.2-0.1 0.1-0.2 0.1-0.2 0.2h-0.1l-0.3-0.3c-0.1-0.1-0.2-0.1-0.3 0l-0.2 0.2c-0.1 0.1-0.2 0.1-0.3 0.1-0.1-0.1-0.2-0.1-0.4 0-0.3 0-0.6 0.1-0.9 0.1-0.2 0-0.4 0-0.5-0.1-0.2-0.2-0.3-0.2-0.5 0-0.1 0.1-0.2 0.1-0.3 0.1-0.2 0-0.4-0.1-0.5-0.1-0.2 0-0.3-0.2-0.4-0.3-0.2-0.3-0.1-0.5 0-0.7l0.1-0.1h0.4c0.1 0 0.2 0.1 0.2 0.2v0.2c0 0.1 0.1 0.2 0.2 0.2s0.2-0.1 0.2-0.2c0.2 0 0.3-0.1 0.4-0.2s0.2-0.2 0.3-0.2c0.2 0 0.3 0.1 0.5 0.1s0.4 0.1 0.6 0.3c0.1 0.1 0.2 0.1 0.3 0s0.3-0.2 0.5-0.2c0.3 0 0.6-0.1 0.9 0h0.1c0.3-0.1 0.6-0.1 0.9 0h0.2c0.1 0.1 0.1 0.2 0.2 0.3s0.1 0.1 0.2 0c0.1 0 0.1-0.1 0.2-0.1 0.1-0.1 0.2 0 0.3 0 0.1 0.2 0.2 0.3 0.2 0.6 0 0.1 0.1 0.2 0.1 0.2 0.1 0 0.1-0.1 0.1-0.2 0.1-0.2 0-0.5-0.1-0.7l0.1-0.1c0.3 0 0.6 0.1 0.9 0.2 0.1 0 0.1 0.1 0.2 0.1 0.1 0.1 0.1 0.1 0.1 0.2 0.2 0.1 0.3-0.2 0.6-0.2 0.2 0 0.4 0.2 0.7 0.3s0.4 0.1 0.5-0.2c0 0 0-0.1 0.1-0.1 0.1-0.2 0.2-0.2 0.4-0.2 0.5 0.1 0.9 0.3 1.1 0.8-0.1 0-0.2-0.1-0.4 0v0.1 0c0.1 0 0.2-0.1 0.3-0.1 0.1-0.2 0.3-0.4 0.4-0.6 0.1 0 0.3 0 0.4-0.1 0.2-0.1 0.5-0.1 0.7 0h0.5c0.1 0 0.2 0.1 0.3 0.2 0.1 0.2 0.1 0.2 0.3 0.1l0.1-0.1c0.5-0.1 1-0.2 1.5-0.2 0.2 0 0.4 0 0.5 0.1 0.2 0.1 0.4 0.2 0.6 0.1 0 0 0.1 0 0.1 0.1s0.1 0.1 0.1 0.2c0.4 0 0.8 0.1 1.2 0.1 0.3-0.1 0.6-0.2 0.9-0.3s0.4-0.1 0.4 0.3v0.1c0 0.1 0.2 0.2 0.3 0.1l0.3-0.3c0.3 0 0.7 0 1.1-0.1 0.2-0.1 0.3 0 0.4 0.1s0.1 0.1 0.2 0.1c0.2 0 0.3-0.1 0.4-0.1 0.3-0.2 0.5-0.2 0.7 0.1 0 0.1 0.1 0.1 0.2 0.2s0.3 0.1 0.4-0.1c0.1-0.1 0.1-0.2 0.3-0.2s0.4 0 0.6 0.1c0.3 0.1 0.7 0.1 1 0.1 0.2 0 0.4 0 0.6-0.1s0.4-0.1 0.6 0c0.1 0 0.2 0.1 0.3 0 0.2-0.1 0.3-0.1 0.5 0 0.1 0.1 0.2 0.1 0.4 0.1 0.3-0.2 0.6-0.1 0.8-0.1h0.2c0.2 0.5 0.3 0.5 0.6 0.1 0.1-0.1 0.3-0.2 0.5-0.2h0.4c0.2 0 0.4 0 0.5 0.1 0.2 0.1 0.5 0.3 0.7 0.4 0.1 0.1 0.2 0.1 0.3-0.1s0.3-0.2 0.5-0.1h0.2l0.2-0.2c0.1-0.1 0.2-0.1 0.3-0.1s0.1 0.1 0.2 0.2c0 0.2 0.1 0.2 0.3 0.2s0.4 0 0.5-0.2c0.1-0.1 0.3-0.1 0.5-0.2l0.3 0.3c0.1 0.1 0.2 0.1 0.3 0 0-0.1 0.1-0.1 0.1-0.2 0.1-0.1 0.2-0.2 0.3-0.1s0.2 0.1 0.3 0.1c0.3-0.1 0.7-0.1 1 0 0 0.1 0.1 0.1 0.1 0.2 0.1 0.2 0.4 0.2 0.5 0.1s0.1-0.2 0.2-0.2c0.1-0.1 0.3-0.1 0.4-0.1 0.1-0.2 0.3-0.1 0.5-0.1-0.1 0.2-0.1 0.2 0.1 0.3-0.1 0-0.1-0.1-0.1-0.3zm7.4 0.1v0.1h0.1v-0.1h-0.1zm-15.9-0.3s-0.1 0-0.1-0.1c0 0.2 0 0.2 0.1 0.1v0zm14.8 0.5v0h-0.1 0.1zm-5.3 0s0.1 0 0.1-0.1v-0.1h-0.1v0.2zm0.6-0.1c0.1 0 0.1 0 0 0 0.2-0.1 0.1-0.1 0 0 0.1-0.1 0-0.1 0 0v0zm6.6-0.1c-0.1 0-0.1 0 0 0-0.2 0-0.1 0.1 0 0-0.1 0.1 0 0.1 0 0zm-4 0.5v0zm10.3-0.6zm-10.3 0.1v0c0-0.1-0.1-0.1 0 0-0.1 0 0 0 0 0zm8.3 0.1z" fill="inherit"/>
		<path d="m477.1 14.3c-0.3 0-0.6-0.1-0.9 0h-0.5c-0.2 0-0.3 0-0.5 0.1-0.1 0.1-0.2 0.1-0.2 0-0.2-0.1-0.4-0.1-0.6 0h-0.3c-0.1 0-0.2-0.1-0.2-0.2s0-0.2-0.1-0.2h-0.3c-0.1 0-0.1 0.1-0.2 0.2-0.1 0.2-0.3 0.3-0.4 0.2-0.1 0-0.2-0.1-0.3-0.2-0.1-0.2-0.3-0.2-0.5-0.1-0.1 0.1-0.2 0.1-0.3 0-0.2-0.1-0.4-0.1-0.6-0.1-0.2 0.1-0.4 0.1-0.5 0.1-0.2 0-0.4 0.1-0.5 0.1h-0.2c-0.1 0-0.3-0.1-0.4 0-0.2 0-0.4 0-0.5-0.1-0.1 0-0.1-0.1-0.2-0.1-0.4 0.2-0.4 0.2-0.9 0.1v-0.1c0-0.1-0.1-0.1-0.2 0l-0.1 0.1-0.1 0.1c-0.1 0-0.2 0-0.2-0.1v-0.4c0-0.1-0.1-0.2-0.1-0.2h-0.2l-0.3 0.3c-0.1 0.1-0.2 0.1-0.3 0-0.1 0-0.2-0.1-0.3-0.1h-0.2l-0.3 0.3c-0.1 0.1-0.3 0-0.4-0.1 0-0.1 0.1-0.3-0.1-0.4h-0.1c-0.1 0-0.1 0.1-0.1 0.2 0 0.2-0.1 0.2-0.2 0.2h-1.1-0.5c-0.1 0-0.2-0.1-0.3-0.2-0.2-0.2-0.2-0.2-0.4-0.1-0.1 0-0.2 0.1-0.3 0.1s-0.1 0-0.2-0.1c0-0.1 0.1-0.2-0.1-0.2-0.1 0-0.1 0-0.2 0.1l-0.1 0.1c-0.1 0.2-0.2 0.2-0.4 0.2s-0.4-0.1-0.6-0.1h-0.1c-0.1 0.1-0.3 0.2-0.4 0.1-0.3-0.3-0.7-0.4-1-0.7-0.1-0.1-0.3 0-0.4 0.2 0 0.2-0.1 0.4-0.1 0.5l-0.3-0.3c-0.1-0.1-0.2-0.3-0.1-0.4 0.1-0.3 0.1-0.6 0.3-0.8 0.1-0.2 0.3-0.2 0.6-0.1 0.1 0 0.2 0.1 0.2 0.2 0.1 0 0.1-0.1 0.1-0.1 0.1-0.1 0.2-0.2 0.3-0.1 0.1 0 0.2 0.1 0.3 0.1 0.3-0.1 0.4 0.1 0.4 0.3 0.1 0.1 0.2 0.1 0.3 0.1s0.3 0 0.3-0.2c0-0.1 0.1-0.1 0.2-0.2s0.2 0 0.3 0.1v0.1c0.1 0.1 0.1 0.2 0.2 0 0.1-0.1 0.3-0.3 0.5-0.3s0.4 0 0.6 0.1 0.4 0.3 0.6 0.4c0.1 0.1 0.3 0 0.3-0.2v-0.1c0-0.2 0.1-0.2 0.3-0.2 0.4 0 0.7 0 1 0.3 0.1 0.1 0.2 0 0.2-0.1 0.1-0.2 0.2-0.2 0.3-0.2 0.3 0 0.6 0 0.8 0.1s0.2 0.2 0.2 0.3 0.1 0.1 0.2 0.1h0.2c0.2 0.2 0.3 0.2 0.5 0.1 0.1-0.1 0.2-0.1 0.3-0.2 0.1-0.2 0.3-0.2 0.5-0.2h0.7c0.3 0.1 0.7 0 1 0.1h0.3c0.3-0.1 0.6-0.1 0.9 0 0.3 0 0.6 0 0.9 0.2h0.1c0.2-0.1 0.3-0.1 0.5-0.1 0.3 0 0.6-0.1 0.8 0.1h0.3 0.4c0.1 0 0.2 0.1 0.3 0.1s0.2-0.1 0.3 0c0.6 0.1 0.7 0.1 1.1 0h0.2c0.2 0.1 0.4 0.2 0.7 0.2 0.2 0 0.4 0.1 0.6 0.2 0.2-0.1 0.3-0.2 0.5-0.3 0.1-0.1 0.3-0.1 0.4 0h0.1c0.3 0.3 0.6 0.2 0.8 0 0.2-0.1 0.3-0.2 0.5-0.1h0.2c0.4-0.1 0.8 0 1.2 0.1 0.1 0 0.1 0.1 0.1 0.2 0 0.2 0 0.2 0.2 0.3 0.1 0 0.3 0 0.4-0.1s0.1-0.2 0.1-0.3c0-0.2 0.1-0.2 0.3-0.1 0 0 0.1 0 0.1 0.1 0.1 0 0.2 0.1 0.3 0.1 0.6 0.2 0.6 0.3 0.3 0.8-0.1 0.2-0.2 0.3-0.4 0.5-0.1 0.1-0.3 0.2-0.4 0.1h-0.2c-0.2-0.2-0.4-0.3-0.6-0.1-0.1 0.1-0.2 0.1-0.3 0-0.2-0.1-0.3-0.1-0.5 0s-0.3 0.1-0.5 0.1c0-0.2-0.1-0.4-0.1-0.5-0.2-0.1-0.2-0.2-0.2-0.4-0.1-0.3-0.3-0.3-0.5-0.4h-0.1c-0.1 0-0.1 0.2-0.1 0.3s0.1 0.1 0.2 0.2h0.1c0.2 0 0.3 0 0.4 0.2s0.2 0.2 0.4 0.1c-0.1 0.1-0.1 0.2-0.2 0.3s-0.2 0.2-0.3 0.2c-0.4-0.1-0.8-0.1-1.2-0.1-0.1 0-0.2-0.1-0.3-0.2 0-0.1 0-0.3-0.1-0.4s-0.3-0.2-0.4-0.1c-0.2 0.1-0.4 0.2-0.5 0.4 0.2 0 0.2 0.1 0.1 0.2zm5.5-0.8s-0.1-0.1 0 0c-0.3 0-0.5 0.2-0.6 0.4 0 0 0 0.1 0.1 0.1h0.1c0.1-0.1 0.2-0.3 0.4-0.5zm-10.6-0.1v0c0-0.1-0.1-0.2-0.1-0.2h-0.1s-0.1 0.1 0 0.2c0 0 0 0.1 0.2 0zm-11.5-0.6s-0.1 0-0.1 0.1v0.1c0.1-0.1 0.1-0.1 0.1-0.2 0.1 0.1 0 0 0 0zm4.5 0.1c0-0.1-0.1-0.1-0.2-0.1v0.1c0 0.1 0.1 0.1 0.2 0.1v-0.1zm8.5 0.1v0 0c-0.1-0.1-0.1-0.1 0 0-0.1 0 0 0 0 0zm-11.4-0.2c0-0.1-0.1-0.1-0.1 0s0 0.1 0.1 0v0zm14.7 0.9zm-11-0.6s-0.1 0 0 0c-0.1 0-0.1 0-0.1 0.1h0.1v-0.1z" fill="inherit"/>
		<path d="m116.8 18.2h0.3c0.4-0.3 0.8-0.3 1.2-0.2 0.2 0 0.3 0.1 0.5 0 0.3 0 0.5 0 0.7 0.1 0.1 0.1 0.2 0.1 0.3 0 0.2-0.1 0.3-0.1 0.4 0.1 0 0.1 0.1 0.1 0.2 0.1 0.3-0.2 0.6-0.1 0.9 0 0.2 0.1 0.2 0.1 0.4-0.1l0.1-0.1c0.1-0.1 0.2-0.1 0.3-0.1 0.2 0 0.4 0.1 0.5 0.2 0.3 0.1 0.5 0.2 0.8 0 0.1 0 0.2 0 0.3 0.1s0.2 0.1 0.3 0.1c0.1-0.1 0.3-0.2 0.4-0.4 0.5 0.1 0.9 0 1.4 0h0.5c0.2 0 0.4 0.3 0.4 0.5 0 0.1 0 0.2-0.1 0.3s-0.3 0.1-0.5 0.1c-0.4-0.1-1 0-1.3 0.1-0.1 0-0.1 0.1-0.2 0.1-0.3 0-0.6 0.1-0.8 0.3-0.3 0.2-0.6 0.2-1 0-0.1 0-0.1-0.1-0.2-0.1s-0.2 0.1-0.3 0.1c-0.3 0.1-0.4 0.1-0.6-0.2 0-0.1-0.1-0.1-0.1-0.2h-0.1c-0.2 0.2-0.4 0.4-0.6 0.5-0.1 0.1-0.3 0-0.4-0.1l-0.1-0.1s0-0.1-0.1-0.1h0.4l0.1-0.1c0-0.1-0.1-0.2-0.1-0.2-0.1 0-0.2 0-0.2 0.1-0.1 0.1-0.1 0.2-0.1 0.3-0.1 0-0.1 0.1-0.2 0.1-0.2 0.2-0.5 0.3-0.9 0.3h-0.4c-0.2 0-0.3 0-0.4-0.2-0.2-0.3-0.5-0.3-0.8-0.4 0 0-0.1 0-0.1 0.1v0.2c0 0.1-0.1 0.1-0.2 0.1l-0.6-0.3c-0.2-0.1-0.3-0.1-0.4 0-0.1 0-0.1 0.1-0.2 0.1-0.2 0-0.2 0.1-0.3 0.2s-0.2 0.1-0.3 0.1c-0.1-0.1-0.3-0.2-0.4-0.4-0.1-0.1-0.3-0.1-0.4 0.1s-0.2 0.3-0.4 0.3c-0.1 0-0.3 0-0.4 0.1-0.2 0.1-0.3 0-0.5 0-0.1 0-0.2-0.2-0.2-0.3l-0.1-0.1c-0.1 0-0.1 0.1-0.1 0.2s0 0.1-0.1 0.2c0 0.1-0.2 0.1-0.3 0s-0.1-0.2-0.2-0.3c-0.1 0-0.3 0-0.4 0.1h-0.3c-0.2-0.1-0.5 0-0.7 0l-0.2 0.2c-0.1 0.1-0.2 0.1-0.3 0.1l-0.2-0.2c-0.2-0.2-0.5-0.2-0.8 0l-0.1 0.1c-0.1 0.1-0.3 0.1-0.4 0.1-0.2-0.1-0.5-0.1-0.7 0-0.4 0.1-0.4 0.1-1 0h-0.1-0.6c-0.2 0-0.3-0.2-0.5-0.3-0.1-0.1-0.3-0.1-0.5-0.1-0.1 0-0.2-0.1-0.2-0.2s-0.1-0.2-0.1-0.3h-0.1-0.1c0 0.1-0.1 0.1-0.1 0.2-0.1 0.3-0.3 0.4-0.5 0.5-0.1 0-0.3 0.1-0.5 0.2-0.3-0.1-0.7-0.2-1.1-0.2-0.2 0-0.4-0.1-0.5-0.2-0.1 0-0.2 0-0.3 0.1l-0.3 0.3s-0.1 0.1-0.1 0l-0.1-0.1v-0.2l-0.1-0.1c-0.2-0.1-0.4 0-0.6 0.1l-0.1-0.1v0.1c-0.2 0-0.5 0-0.7 0.1-0.1 0-0.2 0-0.3-0.1-0.2-0.2-0.4-0.4-0.5-0.7v-0.3c0.2-0.1 0.4-0.1 0.6-0.1 0.1 0 0.2 0.1 0.3 0.1 0.1 0.1 0.1 0.1 0.3 0 0.1 0 0.1-0.1 0.2-0.1 0.4 0 0.7 0 1.1 0.1h0.2-0.2c0.1-0.1 0.2-0.2 0.3-0.2 0.2-0.1 0.4-0.1 0.6 0.1 0.1 0.1 0.2 0.1 0.3 0.2 0.2-0.1 0.4-0.1 0.5-0.2 0.4-0.2 0.8-0.3 1.3-0.1 0.3 0 0.5 0 0.8 0.1h0.4 0.4c0.1 0.1 0.3 0.1 0.4 0 0.3-0.2 0.6-0.2 1 0 0.2 0.1 0.5 0.1 0.7 0.1h0.4c0.2 0 0.3 0 0.4-0.1 0.2-0.1 0.4-0.1 0.6 0 0.1 0 0.2 0.1 0.3 0.1 0.2 0 0.3 0.1 0.5 0 0.1-0.1 0.3-0.1 0.5 0 0.3 0.1 0.7 0.2 1.1 0 0.1-0.1 0.2 0 0.4 0.1 0.1 0.1 0.2 0.1 0.2-0.1 0.1-0.2 0.2-0.3 0.4-0.3 0.4 0 0.7 0.2 0.9 0.4v0.2c0 0.1 0 0.1 0.1 0.1v-0.1-0.2c0.3 0 0.6 0.2 0.9 0.2 0.2 0 0.3 0 0.5-0.2 0.1-0.1 0.3-0.2 0.4-0.1 0.2 0.1 0.3 0.2 0.6 0.3v-0.6zm-0.8 0.5v0l0.1 0.1v-0.1c0-0.1-0.1 0-0.1 0zm-8.4-0.4c-0.1 0-0.1 0 0 0v0.1-0.1z" fill="inherit"/>
		<path d="m144.5 17.4c0.2 0.2 0.4 0.3 0.7 0.2 0.2-0.1 0.5-0.2 0.8-0.1 0.1 0 0.2 0 0.3-0.1h0.4c0.2 0.1 0.3 0.1 0.5 0.1h0.4c0.1 0 0.2 0 0.3-0.1 0.2-0.1 0.4-0.2 0.6-0.2 0.2-0.1 0.5-0.1 0.7 0s0.5 0.2 0.8 0.1 0.6 0 0.9 0.2h0.1l0.1-0.1c0.1-0.1 0.2-0.2 0.3-0.2 0.2 0 0.4 0.1 0.6 0.1 0.3 0.1 0.4 0.1 0.5-0.2 0-0.1 0.2-0.1 0.3-0.1 0.2 0 0.4 0.1 0.5 0.1 0.5 0.1 1 0.2 1.6 0.1h0.2c0.3 0 0.3 0 0.5 0.2 0.3-0.2 0.4-0.3 0.7-0.3 0.1 0 0.3 0 0.4 0.1 0.2 0.2 0.3 0.2 0.6 0.1 0.1-0.1 0.2 0 0.3 0l0.4 0.4s-0.1-0.1-0.1 0h0.1c0.1 0.2 0.1 0.4 0.1 0.7l-0.1 0.1c-0.2 0.1-0.5 0.1-0.7 0-0.1 0-0.1-0.1-0.1-0.2-0.1-0.1-0.1-0.1-0.2 0s-0.1 0.2-0.3 0.1c-0.1-0.1-0.3 0-0.4 0-0.2 0-0.3-0.1-0.4 0.1-0.3 0.2-0.6 0.3-1 0.2-0.1 0-0.2-0.1-0.3-0.1-0.1-0.1-0.2-0.1-0.4-0.1h-0.5c-0.3-0.1-0.5-0.1-0.8 0.1 0 0-0.1 0-0.2-0.1s-0.1-0.2-0.1-0.3c-0.1-0.1-0.2-0.1-0.3 0s-0.1 0.1-0.1 0.2c-0.1 0.1-0.2 0.2-0.2 0.1s-0.1-0.1-0.1-0.2l-0.1-0.1h-0.3c-0.4-0.1-0.7 0.1-0.9 0.4v0.1c-0.3 0.1-0.6-0.1-0.9-0.3-0.1-0.1-0.2 0-0.2 0.1 0 0.2-0.1 0.2-0.2 0.1-0.1 0-0.1-0.1-0.2-0.1-0.3 0.1-0.5-0.1-0.7-0.2-0.1 0-0.2 0-0.2 0.1v0.2l-0.1 0.1h-0.9c-0.1 0-0.1-0.1-0.2-0.1-0.3-0.2-0.3-0.2-0.6 0l-0.1 0.1c-0.1 0.1-0.3 0.1-0.4 0s-0.2-0.1-0.3-0.2h-0.2c-0.2 0.1-0.5 0.2-0.7 0.3s-0.3 0.1-0.4-0.1c-0.1-0.1-0.2-0.2-0.3-0.1-0.3 0.2-0.6 0.3-0.9 0.2h-0.2c-0.1 0-0.2 0.1-0.3 0.2-0.2 0.1-0.4 0.1-0.6 0s-0.4-0.2-0.7-0.1h-0.4c-0.3 0-0.6 0-0.9-0.3-0.1 0-0.1-0.1-0.2-0.1s-0.2 0-0.2 0.1c-0.4 0.3-0.8 0.3-1.3 0.2-0.3-0.1-0.5 0-0.8 0-0.2 0-0.3 0-0.3-0.2 0-0.3-0.1-0.5-0.2-0.6s-0.1-0.1-0.1-0.2c0 0 0-0.2 0.1-0.2 0.2 0 0.5 0 0.7-0.1 0.1-0.1 0.3-0.1 0.5-0.1h0.5c0.1 0 0.3-0.1 0.4-0.2 0.6 0.3 0.6 0.3 1.2 0.4 0.1 0 0.1 0.1 0.2 0.1v0.1c0 0.1 0 0.1 0.1 0v-0.1s0-0.1-0.1-0.1h0.2c0.1 0 0.2 0 0.2-0.1v-0.2c0-0.1 0.1-0.1 0.2-0.2h0.3c0.3 0 0.7 0.1 1 0 0.2-0.1 0.4 0 0.5 0 0.3 0 0.6 0.1 0.9 0.1 0.2 0 0.3 0.1 0.5 0.2-0.1 0.1 0 0 0.2 0zm-3.9 1s-0.1 0-0.1-0.1c-0.1 0.1 0 0.2 0.1 0.1-0.1 0.1-0.1 0 0 0zm-2.2-0.6c0-0.1-0.1-0.1-0.1 0 0 0 0 0.1-0.1 0.1 0 0 0.1 0.1 0.1 0l0.1-0.1zm-0.9 0.2c-0.1 0-0.1 0-0.1 0.1h0.1c0.1 0.1 0.1 0 0-0.1 0.1 0 0 0 0 0zm18.6 0z" fill="inherit"/>
		<path d="m575.4 16.3v-0.1c0.1-0.2 0.1-0.4 0.1-0.6 0-0.1 0.1-0.2 0.2-0.2 0.3 0 0.6 0.1 0.9 0.1 0.1 0 0.1 0.1 0.2 0.1l0.2 0.2c0.2-0.1 0.3-0.3 0.5-0.4h0.4 0.4c0.3-0.2 0.6-0.1 0.9-0.1 0.2 0 0.4 0 0.6 0.1h0.1c0.2 0 0.5 0.2 0.7 0.3h0.1v-0.1-0.1c0-0.1 0-0.2 0.1-0.2s0.3 0 0.4-0.1c0.1 0 0.3 0 0.4 0.1 0 0 0.1 0.1 0.1 0 0.4-0.2 0.7 0.1 1 0.2 0.2 0 0.3-0.1 0.5-0.1s0.3-0.1 0.4-0.2c0.2-0.1 0.4-0.1 0.6 0 0.1 0 0.1 0.1 0.2 0 0.2-0.2 0.5-0.2 0.7 0h0.2c0.1-0.1 0.2-0.1 0.2-0.2 0.1-0.1 0.2-0.2 0.4-0.2 0.3 0 0.5-0.2 0.8-0.1l0.1-0.1c0.2-0.2 0.4-0.2 0.6-0.2l0.1 0.1c-0.1 0.1-0.1 0.2 0 0.4s0 0.4 0.1 0.6v0.1c-0.1 0.2-0.1 0.4-0.2 0.6 0 0.1-0.1 0.3-0.2 0.4 0 0.1-0.1 0.2-0.2 0.2s-0.2 0.1-0.3 0.1c-0.2-0.1-0.3-0.2-0.5-0.2-0.1 0.1-0.2 0.1-0.3 0.2s-0.2 0.1-0.4 0.1c-0.1-0.1-0.3-0.1-0.5 0s-0.5 0.1-0.8 0.1h-0.9v-0.2-0.1 0.1c0 0.1 0 0.1 0.1 0.2l-0.6-0.3c-0.2-0.1-0.3 0-0.3 0.2 0 0.1-0.1 0.2-0.2 0.2-0.4-0.1-0.9-0.1-1.3-0.3-0.1-0.1-0.2 0-0.3 0.1 0 0.1-0.1 0.1-0.1 0.2-0.1 0.1-0.2 0.1-0.3 0.1s-0.3-0.1-0.4-0.1c-0.3 0-1.2-0.3-1.4-0.4 0 0-0.1 0-0.1-0.1-0.1-0.2-0.1-0.3-0.3-0.5-0.1-0.1-0.2-0.1-0.3-0.1s-0.2 0.1-0.2 0.2h-0.1s-0.2 0 0 0h0.1c0.1 0 0.2 0.1 0.3 0.2v0.2c0 0.2-0.1 0.4-0.3 0.4h-0.7c-0.1 0-0.2-0.1-0.2-0.2v-0.2c0.2-0.1 0.2-0.1 0.1-0.2-0.1-0.2-0.2-0.3-0.4-0.4h-0.1l-0.1 0.1c0 0.1 0 0.1 0.1 0.2l0.3 0.3c-0.3 0-0.3 0-0.6 0.2-0.3-0.1-0.5-0.3-0.6-0.6-0.1 0 0 0 0 0zm9.3 0.1v0.1h0.1 0.1v-0.1h-0.2v-0.3h-0.1s-0.1 0-0.1 0.1c-0.1 0.1 0 0.1 0.2 0.2zm-5.8-0.5v0c0.1 0.1 0.1 0 0.1 0h-0.1zm0 0.8c0 0.1 0.1 0.2 0.2 0.1l0.1-0.1c0-0.1-0.1-0.1-0.2-0.1s-0.1 0.1-0.1 0.1zm2-0.3zm-4.8-0.5z" fill="inherit"/>
		<path d="m163.5 17.8v0c-0.2-0.7 0.1-0.8 0.6-0.8 0.2 0 0.5 0.1 0.7 0.2 0.4 0.2 0.8 0.2 1.2-0.1 0.2-0.1 0.3-0.1 0.5-0.1h0.9c0.2 0 0.3 0 0.5-0.1h0.4c0.2 0.1 0.5 0.2 0.7 0h0.1c0.5 0.2 0.9-0.1 1.4 0 0.3 0 0.5 0 0.8 0.1 0.2 0.1 0.4 0 0.5-0.1l0.1-0.1c0.4 0 0.8-0.1 1.2 0.1 0.2 0.1 0.4 0.1 0.6 0l0.1-0.1c0.4 0 0.8-0.2 1.2-0.1 0.4 0 0.8 0 1.2 0.1 0.2 0 0.3 0 0.5-0.1s0.3-0.1 0.4 0 0.2 0.1 0.3 0.1c0.1 0.1 0.3 0.1 0.3 0.3 0 0.1 0 0.2-0.1 0.4 0 0.1-0.1 0.2-0.1 0.3-0.2-0.1-0.3-0.1-0.4-0.2-0.1 0-0.2-0.1-0.4-0.1-0.1 0-0.2 0-0.3 0.1-0.1 0.2-0.2 0.2-0.3 0.2-0.2-0.1-0.5-0.1-0.6-0.3-0.1-0.1-0.2-0.1-0.3-0.2-0.2 0.1-0.4 0.2-0.4 0.3-0.1 0.2-0.3 0.3-0.5 0.2 0 0-0.1 0-0.1 0.1-0.1 0.1-0.2 0.1-0.3 0-0.3-0.4-0.8-0.3-1.2-0.3-0.1 0-0.1 0.1-0.1 0.2v0.2c0 0.1-0.2 0.2-0.2 0.1-0.2-0.1-0.3-0.2-0.4-0.3-0.1-0.2-0.2-0.3-0.5-0.2 0 0-0.1 0-0.1-0.1l-0.1-0.1c-0.1 0-0.1 0.1-0.2 0.1-0.1 0.2-0.3 0.2-0.5 0.1-0.1-0.1-0.2 0-0.3 0.1-0.1 0.2-0.2 0.2-0.4 0.2h-0.2-0.2c-0.2 0.1-0.4 0.2-0.7 0-0.2 0-0.5-0.1-0.7-0.2-0.1-0.1-0.3-0.1-0.4 0-0.3 0.2-0.5 0.1-0.8 0-0.1-0.1-0.2-0.2-0.4-0.3-0.1-0.1-0.2-0.1-0.2 0.1 0 0.1-0.1 0.2-0.2 0.3-0.3 0.1-0.6 0.3-0.7 0.5 0-0.1-0.1-0.2-0.2-0.2h-0.2c-0.2 0.2-0.6-0.1-0.8 0.2-0.1 0.1-0.2 0.1-0.3 0s-0.1-0.2-0.2-0.4c-0.1 0-0.1-0.1-0.2-0.1z" fill="inherit"/>
		<path d="m31.9 16.4c0.1 0 0.2 0.1 0.4 0.1h1.2c0.1 0 0.2 0 0.2 0.2 0 0.1 0.1 0.2 0.2 0.3h0.2c0.1-0.1 0.1-0.1-0.2 0l0.2-0.2c0.1-0.1 0.2-0.1 0.4-0.1 0.1 0 0.2 0.1 0.3 0.1 0.2-0.1 0.4-0.1 0.6-0.2s0.2-0.1 0.4 0.2l0.1 0.1c0.1 0 0.1-0.1 0.2-0.1s0.2-0.1 0.3 0c0.1 0 0.2 0.1 0.3 0.1 0.1 0.1 0.3 0.1 0.4 0 0.2-0.2 0.4-0.2 0.7-0.2h0.6c0.2 0 0.4 0.1 0.6 0.2s0.4 0.2 0.5 0.3 0.2 0 0.2-0.1 0-0.2 0.2-0.2h0.3c0.1 0.1 0.2 0.1 0.3 0.2l0.1-0.1 0.1-0.1c0.2 0 0.4 0 0.5 0.1 0.1 0 0.2 0 0.3 0.1 0.2 0.2 0.6 0.2 0.8 0.3 0.3 0.1 0.6 0.1 0.9 0 0.1-0.1 0.2 0 0.2 0.2 0 0.3-0.1 0.5-0.1 0.8l-0.1 0.1s-0.2 0-0.2-0.1c-0.1-0.1-0.1-0.3-0.2-0.3-0.2-0.1-0.3 0-0.5 0.1-0.4 0.2-0.8 0.3-1.3 0.1-0.2-0.1-0.4-0.1-0.5-0.1-0.1 0.1-0.2 0.1-0.3 0.1s-0.2 0-0.2-0.1c0-0.2-0.1-0.3-0.2-0.4s-0.2-0.1-0.4 0c-0.1 0-0.2 0.1-0.4 0.1-0.1 0-0.2 0-0.3-0.1-0.1 0.1-0.3 0.2-0.4 0.4h-0.5c-0.2 0-0.4 0-0.6-0.1l-0.6-0.3c-0.3 0-0.4 0.2-0.6 0.2s-0.4 0-0.6-0.2l-0.4-0.4c-0.2 0-0.2 0.2-0.3 0.3s-0.2 0.1-0.3 0.1c-0.2 0-0.4 0-0.5-0.1-0.3-0.2-0.6-0.2-0.9-0.4-0.2-0.1-0.4-0.1-0.6-0.1l-0.2 0.2c-0.2 0.2-0.4 0.3-0.6 0.2s-0.4-0.1-0.6-0.1c-0.1 0-0.1-0.1-0.1-0.2s0.1-0.1 0.1-0.2c-0.1-0.1-0.1-0.2 0.1-0.3l0.1-0.1c0.1-0.4 0.4-0.4 0.7-0.3l-0.2 0.2v0.1h0.1c0.1-0.1 0.1-0.2 0.1-0.3zm4.2 1c-0.1 0 0 0 0 0-0.1-0.1-0.1-0.1-0.1 0-0.1 0 0 0.1 0.1 0-0.1 0.1-0.1 0.1 0 0z" fill="inherit"/>
		<path d="m132.9 18.5c0 0.1-0.1 0.3-0.1 0.5-0.3-0.1-0.6 0.1-0.9 0 0 0-0.1 0-0.2 0.1-0.3 0.1-0.4 0.1-0.6-0.1l-0.1-0.1c-0.1-0.1-0.2-0.1-0.2 0-0.1 0.2-0.4 0.2-0.6 0.3s-0.5 0.1-0.6-0.1c-0.1-0.1-0.2-0.1-0.2 0-0.2 0.2-0.4 0.3-0.6 0.3h-0.8c-0.4 0-0.7-0.2-0.9-0.5 0.1-0.2 0.1-0.4 0-0.6-0.1-0.1 0-0.2 0-0.3 0.1-0.1 0.2-0.1 0.3 0 0 0.1 0 0.1 0.1 0.2s0.1 0.2 0.3 0.1c0.1-0.1 0.3-0.1 0.4-0.2 0.2-0.2 0.5-0.2 0.7-0.3 0.2 0 0.4 0 0.5 0.1s0.2 0.1 0.3 0.2 0.3 0 0.4-0.2v-0.1c0-0.1 0.1-0.2 0.2-0.2 0.2 0 0.4 0.1 0.6 0.1 0.3 0 0.5 0.1 0.6 0.4 0 0 0 0.1 0.1 0.1h0.1c0.1-0.1 0.2-0.3 0.5-0.2 0.1 0 0.2 0.1 0.3 0.1v0.1c0 0.1 0.1 0.1 0.1 0v-0.1s0-0.1-0.1-0.1h-0.1c0.1-0.1 0.3-0.2 0.4-0.3 0.2-0.2 0.4-0.2 0.6-0.3 0.3 0 0.7-0.1 1-0.1h0.2c0.3-0.1 0.5-0.1 0.7 0h0.5c0.2 0 0.3 0.1 0.2 0.3v0.1l-0.1 0.1c-0.1 0.1-0.1 0.2 0.1 0.2v0.4c0 0.1-0.1 0.1-0.2 0.1s-0.1-0.1-0.2-0.1h-0.2v0.1c0.1 0.2 0 0.2-0.1 0.2-0.2 0-0.5 0-0.7 0.1h-0.2c-0.3-0.1-0.5-0.2-0.8-0.1-0.1 0-0.2 0-0.2-0.1-0.2 0.2-0.4 0.1-0.5-0.1v0 0zm-4.5 0.6c0.1 0 0.2-0.1 0.1-0.1l-0.1-0.1h-0.1-0.1v0.1c0.1 0 0.2 0 0.2 0.1zm6.3-0.8v0.2c0 0.1 0.1 0.1 0.1 0 0 0 0-0.1-0.1-0.2 0.1 0 0 0 0 0z" fill="inherit"/>
		<path d="m233.4 16.2c0.2 0 0.3-0.1 0.3-0.3v-0.2c0-0.2 0.2-0.4 0.4-0.4h0.3c0.3 0.1 0.5 0.1 0.8 0s0.6 0 0.8-0.1c0.1-0.1 0.3 0 0.4 0.1 0.3 0.2 0.5 0.2 0.8 0 0.1-0.1 0.2-0.1 0.4-0.1 0.2 0.1 0.3 0 0.5-0.1 0.1-0.1 0.2-0.1 0.4 0 0.1 0.1 0.2 0.1 0.2 0.2l0.1 0.1c0.2-0.1 0.4 0 0.6-0.1s0.3-0.1 0.5-0.1h0.3c0.1 0 0.2 0 0.2 0.2 0.1 0.2 0.2 0.3 0.4 0.4h0.1c0.1-0.2 0.3-0.4 0.5-0.5 0.1-0.1 0.3-0.1 0.5 0 0.1 0 0.2 0.1 0.3 0.1 0.1 0.1 0.3 0 0.3-0.1 0.1-0.3 0.4-0.3 0.6-0.2l0.1 0.1c-0.1 0.3 0 0.5 0.1 0.8 0 0.1 0 0.2-0.1 0.3-0.1 0.2-0.5 0.3-0.6 0.2s-0.2-0.2-0.3-0.2c-0.2 0-0.3-0.2-0.5-0.1v-0.4l-0.1-0.1h-0.1l-0.1 0.1c0 0.2 0.2 0.2 0.3 0.3-0.2 0.2-0.5 0.1-0.7 0.3-0.1 0.1-0.3 0.1-0.4 0s-0.3-0.2-0.4-0.2-0.2-0.1-0.3-0.1v-0.3-0.1l-0.1 0.1c0 0.1 0 0.2 0.1 0.2v0.2c0 0.1-0.1 0.1-0.2 0.1h-0.2c-0.2-0.1-0.3 0-0.4 0.2s-0.2 0.2-0.4 0.1c-0.2-0.2-0.4-0.2-0.6-0.1h-0.2-0.1c-0.2-0.1-0.4-0.1-0.6-0.1-0.3 0-0.6 0-0.8-0.2-0.2-0.1-0.3 0-0.4 0h-0.2v-0.4l-0.1-0.1v0.1c0 0.1 0 0.3-0.1 0.4h-0.3v-0.2-0.1s-0.1 0-0.1 0.1v0.1c0 0.1 0.1 0.1 0.2 0v0.2c0 0.1-0.1 0.2-0.3 0.2s-0.5 0-0.6-0.2l-0.1-0.1c-0.3 0-0.5 0.2-0.8 0.1-0.1 0.2-0.3 0.1-0.3-0.1zm0.7-0.4c-0.1 0-0.1 0.1-0.1 0.1l0.1 0.1c0.1 0 0.1-0.1 0.1-0.1 0-0.1 0-0.1-0.1-0.1z" fill="inherit"/>
		<path d="m402.6 11.8h-0.3l-0.1-0.1c0-0.1 0.1-0.2 0.2-0.2 0.3-0.1 0.6-0.2 0.9-0.1 0.2 0.1 0.4 0.1 0.5 0h1.1c-0.1 0 0 0 0 0 0.4-0.3 0.9-0.3 1.4-0.3h0.9c0.3 0 0.6 0.2 0.6 0.6v0.3 0.1h0.1c0.1-0.2 0.2-0.3 0.4-0.3 0 0.2 0.1 0.3 0.3 0.3 0.3 0 0.3 0.2 0.4 0.4 0 0 0 0.1-0.1 0.1-0.2 0-0.5 0.1-0.7 0.2-0.1 0.1-0.3 0-0.4 0.1-0.1 0-0.2 0-0.3-0.2l-0.1-0.1c-0.2 0-0.4 0-0.6 0.1-0.1 0.1-0.3 0.1-0.4 0.1s-0.2 0-0.3-0.1c-0.2-0.2-0.2-0.2-0.5 0l-0.1 0.1c-0.1 0.1-0.3 0.1-0.5 0-0.1-0.1-0.3-0.2-0.4-0.3l-0.3-0.3c-0.2 0-0.2 0.2-0.3 0.2-0.1 0.2-0.3 0.3-0.5 0.3h-0.4c-0.2-0.1-0.5-0.2-0.4-0.5 0.1-0.2 0-0.3-0.1-0.4v0zm4 0.5h0.1 0.1v-0.1s-0.1-0.1-0.1 0c0 0 0 0.1-0.1 0.1z" fill="inherit"/>
		<path d="m572.3 15.3c0.3 0.1 0.6 0 0.8 0 0.6-0.1 1.2 0 1.7 0.2 0 0.1-0.1 0.3-0.1 0.4h-0.1c-0.1 0-0.1 0.1 0 0.2 0.1 0.2 0.2 0.3 0.4 0.2h0.3c-0.1 0.3-0.1 0.6 0.1 0.8v0.1c0 0.1-0.1 0.1-0.1 0-0.2-0.2-0.5-0.4-0.7-0.5-0.1-0.1-0.1 0-0.2 0.1-0.1 0.3-0.1 0.3-0.3 0.3-0.1 0-0.2-0.1-0.2-0.3 0-0.1 0.1-0.2 0.1-0.3v-0.1h-0.1c-0.2 0.2-0.5 0.3-0.5 0.7 0 0.1-0.1 0.1-0.2 0.1-0.2-0.1-0.4-0.1-0.5-0.2-0.1 0-0.1-0.1-0.1-0.3l0.1-0.1v-0.1c0-0.1-0.1-0.1-0.2-0.1s-0.2 0.1-0.3 0.1c0-0.2-0.1-0.3-0.1-0.5 0-0.1-0.1-0.2-0.2-0.2-0.4-0.1-0.8-0.2-1.2-0.2-0.1 0-0.1 0.1-0.2 0.1-0.1 0.1 0 0.5 0.1 0.5 0.3 0 0.5 0.2 0.7 0.3h0.2c0.1-0.1 0.1-0.2 0.2-0.3l0.1-0.1s0.1 0.1 0.1 0.2v0.2c0 0.1-0.1 0.2-0.2 0.3 0 0.1 0 0.2-0.1 0.3-0.1 0-0.3 0.1-0.4 0.1h-0.2c-0.2-0.1-0.4-0.1-0.6 0.1-0.1 0.1-0.2 0.1-0.4 0s-0.3-0.2-0.5-0.2c-0.3 0-0.3 0-0.4-0.3 0-0.2-0.1-0.3 0-0.5 0-0.1 0-0.3-0.1-0.4v-0.2c0-0.3 0-0.3 0.2-0.2 0.2 0 0.2 0 0.3-0.1s0.1-0.2 0.2-0.2h0.1l0.1 0.1s0 0.1 0.1 0.1 0.1 0.1 0.2 0.1h0.1c0.4-0.2 0.8-0.3 1.2-0.2 0.3 0 0.5-0.1 0.8 0v0.1-0.1zm1.7 0.6s0-0.1-0.1-0.1h-0.1c-0.1 0.1-0.3 0.2-0.4 0.4v0.1h0.1c0.1-0.1 0.3-0.1 0.4-0.2s0.1-0.1 0.1-0.2zm-1.3-0.2v0c0 0.1 0.1 0.1 0 0 0.1 0.1 0 0 0 0z" fill="inherit"/>
		<path d="m326.8 14.3c-0.2 0.4-0.6 0.6-1.1 0.5h-0.5c-0.3 0.1-0.6 0.1-0.8 0.1h-0.9c-0.1 0-0.2-0.1-0.2-0.2 0-0.3 0.1-0.6 0.1-0.9 0-0.1 0.2-0.2 0.3-0.2h0.9c0.1 0 0.2 0 0.3 0.1 0.4 0.3 0.8 0.1 1.2 0 0.1 0 0.1-0.1 0.2-0.2 0.3 0 0.7 0 1 0.1 0 0 0.1 0 0.1-0.1 0.1 0 0.1-0.1 0.2-0.1s0.2 0 0.2 0.1c0.2 0.1 0.2 0.3 0 0.5-0.1 0.1-0.1 0.2 0 0.3s0.2 0.3 0.4 0.3c0.1 0 0.1 0.1 0 0.2l-0.1 0.1h-0.1c-0.2-0.1-0.4-0.1-0.6-0.1-0.1-0.5-0.4-0.4-0.6-0.5z" fill="inherit"/>
		<path d="m561.6 16.3c-0.1 0.1-0.2 0.3-0.4 0.4-0.2-0.1-0.3-0.3-0.5-0.4 0.1-0.2 0.2-0.4 0-0.6-0.1-0.1 0-0.2 0.2-0.2h0.1 0.2v0.2-0.2c-0.1-0.2-0.1-0.4 0-0.6l0.1-0.1h0.2c0.3 0.1 0.6 0.2 0.9 0 0.3 0 0.6 0.1 0.8 0.2 0.1 0 0.1 0.1 0.1 0.2 0.1 0.1 0.1 0.1 0.2 0s0.1-0.2 0.3-0.1c0.1 0 0.2 0.1 0.3 0.1 0 0.4 0.1 0.7 0.3 1 0.1 0.2 0.1 0.3 0 0.5v0.1c-0.1 0.2-0.2 0.3-0.4 0.3s-0.4-0.1-0.4-0.3c0-0.1-0.1-0.1-0.1-0.2-0.2-0.1-0.2 0.1-0.4 0.1h-0.2c-0.1-0.1-0.1-0.2-0.2-0.1-0.2 0.1-0.4 0-0.6-0.1-0.2-0.2-0.3-0.2-0.5-0.2v0zm1.4-0.4c-0.1 0-0.2 0.1-0.3 0.2-0.1 0-0.1 0.1 0 0.1l0.1 0.1c0.1 0 0.2-0.2 0.2-0.4 0.1 0 0 0 0 0zm-1.3-0.3c0.1 0 0.2-0.1 0.1-0.1l-0.1-0.1c-0.1 0-0.2 0-0.2 0.1 0 0 0.1 0.1 0.2 0.1zm0.2 0.4v0l-0.1-0.1v0.1h0.1z" fill="inherit"/>
		<path d="m318 13.8h0.3c0.4-0.2 0.7-0.2 1.1-0.2 0.2 0 0.4 0 0.5-0.1h0.3c0.2 0.1 0.4 0.2 0.7 0h0.2c0.2 0.1 0.3 0.1 0.5 0.1h0.5 0.5c0.2-0.1 0.4 0.1 0.4 0.4s-0.1 0.5-0.1 0.8h-0.1c-0.2-0.1-0.2-0.1-0.3 0l-0.2 0.2c-0.2-0.1-0.4-0.1-0.6-0.1s-0.4 0-0.6-0.1h-0.1c-0.1 0.1-0.2 0.2-0.4 0.1s-0.3 0-0.5 0c-0.3 0-0.5 0.1-0.8 0.1 0 0-0.1 0-0.1-0.1-0.1-0.4-0.1-0.4-0.5-0.4-0.2 0-0.3 0.1-0.4 0.3 0-0.2-0.1-0.3 0.1-0.5 0.1-0.1 0-0.2-0.1-0.3s-0.2-0.2-0.3-0.2zm4.6 0.5s0.1 0 0.1-0.1v-0.1h-0.1c-0.1 0.1 0 0.1 0 0.2zm-1.1-0.1h-0.1c0 0.1 0 0.1 0.1 0v0z" fill="inherit"/>
		<path d="m162.6 18c0 0.1-0.1 0.1-0.1 0.2-0.2 0.3-0.3 0.4-0.6 0.3-0.2 0-0.2-0.1-0.3-0.2s-0.1-0.1-0.2 0h-0.1c-0.3 0.3-0.6 0.3-0.9 0.1-0.2-0.1-0.4-0.1-0.6 0h-0.2c-0.1 0-0.3 0-0.3-0.2-0.1-0.1-0.2-0.2-0.4-0.3 0 0.1 0 0.3 0.1 0.4v0.1l-0.1 0.1h-0.1c-0.2-0.2-0.3-0.4-0.4-0.6v-0.1c0-0.1 0.1-0.2 0.1-0.2 0.3 0 0.7 0 1 0.2h0.2c0-0.1 0.1-0.3 0.2-0.3 0.2-0.2 0.4-0.3 0.6-0.4s0.4-0.1 0.6 0c0.1 0.1 0.3 0.1 0.5 0.1 0.1 0.2 0.2 0.2 0.3 0.1s0.3-0.2 0.4-0.2h0.2c0.2 0.2 0.4 0.2 0.6 0.1 0.1 0 0.2 0 0.2 0.1 0.2 0.2 0.4 0.3 0.6 0.5-0.1 0-0.2 0-0.2 0.1-0.1 0.2-0.2 0.2-0.4 0.2-0.6 0-0.7-0.1-0.7-0.1h-0.2c0.1 0.1 0.1 0 0.2 0z" fill="inherit"/>
		<path d="m566.6 16.7c-0.1 0.1-0.2 0.1-0.2 0-0.2-0.2-0.4-0.4-0.7-0.5v-0.1c-0.1-0.2-0.3-0.2-0.4-0.4 0.2-0.3 0.4-0.4 0.6-0.3 0.1 0 0.2 0.1 0.3 0.1 0.1 0.1 0.3 0 0.4-0.1 0.1 0 0.1-0.1 0.2-0.2s0.2-0.2 0.4-0.1c0.3 0.1 0.5 0.1 0.8 0.1 0.1 0 0.2 0 0.3 0.1 0 0.3-0.1 0.5 0 0.7h0.1 0.1l0.1-0.1c0.1-0.3 0.3-0.3 0.6-0.3-0.1 0.1-0.2 0.2-0.2 0.3 0 0.2-0.1 0.4-0.1 0.6 0 0.1-0.1 0.2-0.2 0.2-0.4 0-0.7 0.1-1-0.2-0.1 0-0.1-0.1-0.2-0.1-0.4 0.3-0.7 0.2-0.9 0.3v-0.4h-0.1l-0.1 0.1c0 0.1 0.1 0.2 0.2 0.3zm0.5-0.8v0c-0.1-0.1-0.2-0.1-0.2 0 0 0 0.1 0.1 0.2 0zm0.5 0.4v-0.1h-0.1v0.1h0.1zm0.4 0.3z" fill="inherit"/>
		<path d="m485.6 13.4v0.3c0 0.2 0 0.5-0.1 0.7-0.1 0.1 0 0.2 0.1 0.3v0.1l-0.1 0.1h-0.3c-0.1 0-0.2-0.1-0.3-0.1-0.4 0.1-0.7-0.1-1.1-0.1 0-0.3-0.1-0.5-0.1-0.7s0-0.3 0.1-0.4 0.2-0.3 0.4-0.2c0.2 0 0.4 0 0.5-0.1s0.3-0.1 0.4-0.1c0.2 0 0.3 0.1 0.4 0.3 0-0.2 0-0.2 0.1-0.1zm-0.8 0.7s-0.1 0-0.1-0.1c0 0.1 0 0.1 0.1 0.1v0z" fill="inherit"/>
		<path d="m29.9 17c-0.1 0.1-0.3 0.1-0.4 0.2-0.3 0.2-0.7 0.2-1.1 0s-0.8-0.4-1.3-0.5c-0.1 0-0.2-0.1-0.3-0.2v-0.1c0.2-0.2 0.4-0.4 0.7-0.3 0.5 0.1 0.9 0.1 1.4 0.3 0.2 0.1 0.4 0 0.5-0.1 0.1 0 0.2 0 0.2 0.1 0.3 0.2 0.3 0.4 0.3 0.6z" fill="inherit"/>
		<path d="m24.8 16c0.2 0 0.3 0 0.4-0.1h0.2c0.4 0.3 0.7 0.2 1.1 0h0.1s0 0.1 0.1 0.1v0.1h-0.1c-0.2 0-0.5 0-0.7 0.2-0.1 0.1-0.4 0.1-0.5 0.1-0.4-0.1-0.7-0.1-1.1 0h-0.1s-0.1-0.1 0-0.1c0.1-0.2 0.2-0.2 0.4-0.3 0-0.1 0.1 0 0.2 0z" fill="inherit"/>
		<path d="m18 15.5c0.2 0 0.4 0.1 0.4 0.4 0 0.1 0 0.2-0.1 0.2-0.2 0.1-0.4 0-0.5-0.2-0.1-0.1-0.1-0.2-0.1-0.3 0.1 0 0.1-0.1 0.3-0.1z" fill="inherit"/>
		<path d="m21 16.1v0c0.2-0.2 0.4-0.2 0.5-0.3 0.2-0.2 0.3-0.1 0.5 0.1 0 0.1 0 0.2-0.1 0.2-0.2 0-0.4 0.1-0.5 0.1-0.2 0.1-0.3 0-0.4-0.1v0z" fill="inherit"/>
		<path d="m165.2 18.3c0.3 0 0.6-0.1 0.8-0.2 0.1-0.1 0.3-0.1 0.4-0.1l0.1 0.1s0 0.1-0.1 0.1c0 0-0.1 0.1-0.1 0-0.2 0-0.3 0-0.5 0.1-0.1 0.2-0.3 0.1-0.6 0 0.1 0 0.1 0 0 0z" fill="inherit"/>
		<path d="m19.4 15.8c0.1 0.2 0.2 0.2 0.4 0.2 0.1 0 0.1 0 0.2 0.1l0.1 0.1-0.1 0.1c-0.2 0-0.4 0-0.5-0.1-0.2-0.1-0.2-0.3-0.1-0.4-0.1 0 0 0 0 0z" fill="inherit"/>
		<path d="m564.8 15.5h-0.2c-0.2-0.1-0.2-0.3-0.1-0.4s0.3-0.2 0.4-0.1h0.1v0.1c-0.1 0.2-0.3 0.2-0.2 0.4z" fill="inherit"/>
		<path d="m233.7 16.7c-0.2 0.1-0.4 0.1-0.7 0.2-0.1 0-0.1 0-0.1-0.1v-0.1c0-0.1 0.1-0.1 0.1-0.2 0.3 0.1 0.5 0.3 0.7 0.2z" fill="inherit"/>
		<path d="m408.5 11.7c-0.1 0-0.1-0.1-0.2-0.1-0.1-0.1-0.1-0.2 0.1-0.3 0.1-0.1 0.2 0 0.2 0 0 0.2 0 0.3-0.1 0.4z" fill="inherit"/>
		<path d="m409.4 11.7c-0.1 0-0.3 0-0.3-0.2v-0.2h0.2c0.1 0.2 0.1 0.3 0.1 0.4z" fill="inherit"/>
		<path d="m236.1 16.3l0.3 0.3v0.1h-0.1c-0.2 0-0.3 0-0.4-0.2v-0.2c0.1 0.1 0.1 0.1 0.2 0z" fill="inherit"/>
		<path d="m15.7 15.5c0.1 0 0.2 0.1 0.2 0.2v0.1h-0.1c0-0.1 0-0.2-0.1-0.3v0z" fill="inherit"/>
		<path d="m23 16c0 0.1-0.1 0.2-0.2 0.3h-0.1v-0.1c0.1 0 0.2-0.1 0.3-0.2z" fill="inherit"/>
		<path d="m412.5 12.3h0.2l0.1 0.1c0 0.1-0.1 0.2-0.1 0.1 0 0-0.1 0-0.1-0.1 0 0.1 0 0-0.1-0.1 0.1 0 0 0 0 0z" fill="inherit"/>
		<path d="m494.7 13.5c-0.1 0-0.1-0.1-0.1-0.1 0-0.1 0-0.1 0.1-0.2 0.1 0 0.2 0 0.2 0.1l-0.2 0.2z" fill="inherit"/>
		<path d="m443.7 12.8c0.1 0 0.2 0 0.3 0.1v0.1h-0.1v-0.1c-0.2 0-0.2-0.1-0.2-0.1v0z" fill="inherit"/>
		<path d="m55.8 17.7h-0.3v-0.1l0.1-0.1c0.1 0 0.2 0.1 0.2 0.2z" fill="inherit"/>
		<path d="m197.9 17.5h0.4 0.1c0 0.1 0 0.1-0.1 0.1-0.2-0.1-0.3-0.2-0.4-0.1z" fill="inherit"/>
		<path d="m356.6 13.7h-0.1s0-0.1-0.1-0.1h0.1c0.1 0 0.1 0.1 0.1 0.1z" fill="inherit"/>
		<path d="m510.5 15c0.1 0 0.1 0 0.2 0.1v0.1c0 0.1-0.1 0.1-0.1 0s0-0.2-0.1-0.2z" fill="inherit"/>
		<path d="m332.8 13.7c0-0.1 0-0.1 0.1-0.2 0-0.1 0.1-0.1 0.2 0 0 0.1 0 0.1 0.1 0.2-0.2-0.1-0.3-0.1-0.4 0v0z" fill="inherit"/>
		<path d="m151.3 18.6v0c-0.1 0.1-0.1 0-0.1 0 0-0.1 0.1-0.1 0.1 0v0z" fill="inherit"/>
		<path d="m548.7 16s-0.1 0 0 0c-0.1 0-0.1 0 0 0-0.1-0.1-0.1-0.1 0 0z" fill="inherit"/>
		<path d="m477.6 14.3l-0.1-0.1s0-0.1 0.1-0.1v0.1c0.1 0 0 0.1 0 0.1z" fill="inherit"/>
		<path d="m490.5 14.2c0 0.1 0.1 0.2 0.1 0.3v0.1c-0.1 0-0.1 0-0.1-0.1v-0.3z" fill="inherit"/>
		<path d="m272.3 15.7c0 0.1 0 0.1 0.1 0.2v-0.1c-0.1 0-0.1 0-0.1-0.1z" fill="inherit"/>
		<path d="m76.9 19.1h0.2 0.1c0 0.1 0 0.1-0.1 0.1-0.1-0.1-0.1-0.1-0.2-0.1z" fill="inherit"/>
		<path d="m504.8 15c-0.1 0.2-0.1 0.2-0.3 0.1v-0.1h0.3z" fill="inherit"/>
		<path d="m132.2 18.1v-0.1-0.1c0.1 0 0.1 0 0 0.1v0.1 0z" fill="inherit"/>
		<path d="m26.8 17v0 0c-0.1 0-0.1 0 0 0z" fill="inherit"/>
		<path d="m303.5 15.2l0.1 0.1c-0.1 0.1-0.1 0.1-0.1-0.1z" fill="inherit"/>
		<path d="m30.6 16.8c-0.1 0.1-0.1 0.1 0 0-0.1 0.1-0.1 0.1 0 0z" fill="inherit"/>
		<path d="m400.9 11.5h0.1c0 0.1 0 0-0.1 0z" fill="inherit"/>
		<path d="m415 11.4h-0.2 0.2z" fill="inherit"/>
		<path d="m150.4 18.7v0.1c-0.1 0 0 0 0-0.1z" fill="inherit"/>
		<path d="m136.2 18.3s0.1 0 0.1 0.1c0-0.1 0-0.1-0.1-0.1 0.1 0 0.1 0 0 0 0.1 0 0 0 0 0z" fill="inherit"/>
		<path d="m455.2 12.1z" fill="inherit"/>
		<path d="m352.1 13v-0.1 0.1z" fill="inherit"/>
		<path d="m136.3 18.3h-0.2v-0.3c0 0.1 0.1 0.2 0.2 0.3-0.1 0 0 0 0 0z" fill="inherit"/>
		<path d="m477.1 14.3h0.5-0.5z" fill="inherit"/>
		<path d="m510 14.9v0.1-0.1z" fill="inherit"/>
		<path d="m144.5 17.4h0.1-0.1z" fill="inherit"/>
		<polygon fill="inherit" points="490.1 14.8 490.1 14.8"/>
		<path d="m161.2 17.2z" fill="inherit"/>
		<path d="m305.9 14z" fill="inherit"/>
		<polygon fill="inherit" points="312.5 13.9 312.4 13.9 312.4 13.9"/>
		<polygon fill="inherit" points="482.3 14.6 482.3 14.6"/>
		<polygon fill="inherit" points="44.9 17.6 44.9 17.6"/>
		<polygon fill="inherit" points="428.3 12.6 428.3 12.7"/>
		<path d="m276.2 14.7z" fill="inherit"/>
		<polygon fill="inherit" points="326.3 13.4 326.3 13.3"/>
		<polygon fill="inherit" points="78.4 18.2 78.4 18.2 78.3 18.2"/>
		<path d="m189.8 17.4v0 0 0z" fill="inherit"/>
		<polygon fill="inherit" points="515.1 15.1 515.1 15.1"/>
		<path d="m287.8 15.7v0z" fill="inherit"/>
		<path d="m283.5 15.7z" fill="inherit"/>
		<polygon fill="inherit" points="49.6 17.4 49.6 17.4"/>
		<polygon fill="inherit" points="116.8 18.2 116.8 18.2"/>
		<path d="m456 13.4h-0.2c0.1 0.1 0.2 0.1 0.2 0v0z" fill="inherit"/>
		<polygon fill="inherit" points="458.7 13.6 458.7 13.6"/>
		<polygon fill="inherit" points="30.6 16.9 30.5 16.8 30.6 16.8"/>
		<polygon fill="inherit" points="564.8 15.5 564.7 15.6"/>
		<polygon fill="inherit" points="468 13.9 468 14"/>
		<path d="m575.1 15.9z" fill="inherit"/>
		<polygon fill="inherit" points="73.3 19.2 73.3 19.2 73.4 19.2"/>
		<path d="m575.1 15.9h-0.3 0.3z" fill="inherit"/>
		<path d="m439.1 11.4v0 0z" fill="inherit"/>
		<polygon fill="inherit" points="329 14.6 329 14.6"/>
		<path d="m578.2 16.9z" fill="inherit"/>
	</g>
</g>
</svg>
