<?xml version="1.0" encoding="UTF-8"?>
<svg xmlns="http://www.w3.org/2000/svg" xmlns:xlink="http://www.w3.org/1999/xlink" width="412.5pt" height="86.249997pt" viewBox="0 0 412.5 86.249997" version="1.2">
<defs>
<clipPath id="clip1">
  <path d="M 2 8.5625 L 410 8.5625 L 410 70.347656 L 2 70.347656 Z M 2 8.5625 "/>
</clipPath>
</defs>
<g id="surface1">
<g clip-path="url(#clip1)" clip-rule="nonzero">
<path style=" stroke:none;fill-rule:nonzero;fill:#8fcdd4;fill-opacity:1;" d="M 17.167969 64.601562 C 17.25 66.375 16.914062 67.304688 15.222656 67.222656 L 16.238281 65.363281 C 15.898438 65.363281 15.644531 65.277344 15.558594 65.277344 C 13.445312 66.714844 11.925781 66.121094 11.585938 63.585938 C 11.417969 62.402344 10.828125 61.898438 9.8125 61.8125 C 7.953125 61.726562 6.347656 61.558594 6.09375 59.023438 C 6.007812 58.007812 4.65625 57.078125 3.894531 56.0625 C 3.640625 55.726562 3.390625 55.386719 3.050781 54.964844 L 6.261719 54.203125 L 3.894531 51.585938 L 5.671875 50.738281 L 3.558594 49.132812 L 3.21875 49.808594 C 3.136719 49.640625 3.050781 49.554688 2.964844 49.386719 C 2.710938 47.273438 3.304688 46.429688 5.417969 46.003906 C 5.839844 45.921875 6.179688 45.753906 6.515625 45.582031 C 7.277344 45.246094 7.953125 44.824219 8.714844 44.398438 C 9.050781 44.230469 9.390625 43.894531 9.644531 43.808594 C 9.304688 43.046875 8.628906 42.285156 8.796875 41.949219 C 9.222656 41.1875 9.898438 40.511719 10.65625 40.089844 C 10.996094 38.652344 11.925781 37.554688 13.195312 36.960938 C 14.207031 36.453125 15.390625 33.664062 15.222656 32.566406 C 16.40625 31.722656 18.773438 32.820312 19.109375 30.285156 L 20.292969 30.960938 C 21.140625 29.355469 24.265625 27.75 25.789062 28.085938 L 24.605469 25.972656 L 27.308594 26.394531 L 27.226562 24.875 C 29.253906 24.367188 31.199219 23.777344 33.140625 23.523438 C 36.101562 23.097656 39.058594 22.847656 42.015625 22.507812 C 42.441406 22.421875 42.863281 22.167969 43.199219 21.917969 C 43.371094 21.832031 43.453125 21.492188 43.621094 21.410156 C 45.484375 21.238281 47.34375 21.15625 49.203125 20.984375 C 49.625 20.984375 50.046875 20.648438 50.46875 20.648438 C 53.257812 20.480469 55.964844 20.308594 58.753906 20.054688 C 60.273438 19.886719 61.878906 19.71875 63.402344 19.550781 C 65.683594 19.378906 68.050781 19.125 70.332031 18.957031 C 73.542969 18.621094 76.839844 18.195312 80.054688 17.859375 C 81.40625 17.773438 82.757812 17.859375 84.109375 17.859375 C 84.28125 17.859375 84.449219 17.859375 84.617188 17.859375 C 86.644531 17.4375 88.757812 17.097656 90.789062 16.589844 C 91.972656 16.253906 92.984375 16.167969 93.914062 17.097656 C 94.167969 17.265625 94.421875 17.265625 94.675781 17.183594 C 96.789062 16.589844 98.816406 15.832031 100.929688 15.40625 C 101.859375 15.238281 102.875 15.660156 103.804688 15.832031 C 104.398438 15.914062 105.074219 16.253906 105.496094 16.082031 C 108.539062 14.648438 111.75 15.070312 114.960938 15.238281 C 116.820312 15.152344 118.765625 14.984375 120.625 14.648438 C 122.90625 14.476562 125.191406 14.394531 127.386719 14.222656 C 128.65625 14.140625 130.007812 14.222656 131.277344 14.222656 C 131.613281 14.222656 132.035156 14.308594 132.375 14.476562 C 133.472656 15.578125 133.894531 14.816406 134.066406 14.222656 C 136.09375 14.140625 137.953125 13.96875 139.8125 13.96875 C 142.09375 13.886719 144.378906 13.886719 146.660156 13.800781 C 148.605469 13.71875 150.546875 13.546875 152.492188 13.464844 C 153.253906 13.464844 154.265625 13.210938 154.4375 14.476562 C 154.4375 14.648438 155.027344 14.730469 155.367188 14.902344 L 155.535156 13.464844 C 155.871094 13.464844 156.125 13.464844 156.464844 13.464844 C 158.492188 13.71875 160.523438 14.054688 162.550781 14.140625 C 164.578125 14.222656 166.523438 13.800781 168.46875 13.886719 C 169.988281 13.96875 171.59375 14.394531 173.117188 14.648438 C 174.214844 14.816406 175.566406 15.152344 176.328125 14.730469 C 177.511719 13.96875 178.101562 14.648438 179.117188 14.816406 C 180.554688 15.152344 181.992188 15.070312 183.34375 14.648438 C 184.441406 14.222656 185.625 14.054688 186.808594 14.140625 C 188.332031 14.308594 190.019531 13.800781 191.542969 13.71875 C 192.050781 13.71875 192.640625 13.800781 193.148438 13.96875 C 194.753906 13.800781 196.277344 13.546875 197.796875 13.464844 C 201.6875 13.292969 205.574219 13.210938 209.460938 12.957031 C 210.476562 12.871094 211.40625 12.617188 212.421875 12.449219 C 212.84375 12.363281 213.179688 12.363281 213.605469 12.449219 C 214.871094 12.617188 216.222656 12.871094 217.492188 13.125 C 217.660156 13.125 217.828125 12.871094 218 12.703125 C 218.84375 12.195312 219.691406 11.6875 220.789062 12.449219 C 221.378906 12.703125 221.972656 12.703125 222.5625 12.617188 C 225.605469 12.363281 228.566406 11.941406 231.609375 11.773438 C 235.242188 11.519531 238.960938 11.519531 242.597656 11.265625 C 243.355469 11.265625 244.03125 10.675781 244.710938 10.675781 C 247.246094 10.589844 249.78125 10.675781 252.230469 10.675781 C 252.484375 10.675781 252.65625 10.675781 252.90625 10.589844 C 253.667969 10.421875 254.515625 9.746094 255.019531 9.996094 C 257.8125 11.265625 260.175781 9.660156 262.714844 9.238281 C 262.882812 9.238281 263.050781 9.238281 263.21875 9.238281 C 265.757812 10.082031 268.375 9.40625 270.910156 9.492188 C 273.277344 9.574219 275.5625 10.167969 277.925781 10.335938 C 278.859375 10.25 279.789062 9.914062 280.546875 9.40625 C 282.070312 8.5625 283.507812 8.984375 284.941406 9.40625 C 285.449219 9.574219 285.957031 9.660156 286.550781 9.660156 C 288.15625 9.492188 289.675781 9.152344 291.28125 8.816406 C 291.199219 9.492188 291.113281 10.082031 291.113281 10.589844 L 291.535156 10.757812 L 292.550781 9.40625 L 294.324219 10.421875 L 294.324219 8.816406 L 301.257812 10.25 C 301.425781 10.25 301.679688 10.25 301.765625 10.25 C 302.695312 8.644531 304.214844 9.828125 305.398438 9.660156 C 308.019531 9.492188 310.640625 9.492188 313.175781 9.660156 C 313.429688 9.660156 313.683594 10.167969 314.019531 10.503906 L 315.796875 9.914062 C 316.300781 10.503906 316.046875 12.363281 317.738281 10.84375 C 318.160156 10.421875 319.34375 10.925781 320.191406 10.925781 C 322.050781 10.84375 324.078125 10.25 325.855469 10.757812 C 327.882812 11.351562 329.996094 10.925781 331.941406 11.605469 C 332.53125 11.773438 333.121094 11.773438 333.714844 11.605469 C 337.011719 10.675781 340.390625 10.84375 343.773438 10.84375 C 345.71875 10.84375 347.746094 10.503906 349.605469 10.925781 C 351.71875 11.351562 353.917969 11.351562 356.113281 11.011719 C 357.972656 10.84375 359.832031 10.675781 361.609375 10.589844 C 362.539062 10.589844 363.550781 10.675781 364.480469 10.589844 C 366.171875 10.503906 367.863281 10.421875 369.46875 10.335938 C 370.144531 10.335938 370.820312 10.25 371.582031 10.082031 C 373.019531 9.574219 373.78125 9.660156 374.710938 10.421875 C 377.074219 10.25 379.1875 9.914062 381.21875 9.914062 C 384.007812 9.828125 386.882812 10.335938 389.585938 9.914062 C 391.023438 9.746094 392.121094 10.503906 393.472656 10.167969 C 394.828125 9.828125 396.09375 9.574219 397.445312 9.40625 C 397.953125 9.320312 398.460938 9.40625 398.882812 9.574219 C 399.898438 10.335938 401.25 10.25 402.265625 10.589844 C 404.125 11.265625 405.984375 12.109375 407.757812 12.871094 C 408.605469 13.210938 408.605469 15.324219 409.113281 16.507812 C 409.789062 17.859375 409.449219 18.703125 408.097656 19.042969 C 407.929688 20.902344 407.757812 22.675781 407.503906 24.621094 L 408.773438 25.296875 C 408.605469 25.464844 408.179688 25.550781 408.179688 25.71875 C 408.011719 26.902344 407.082031 26.902344 406.070312 26.902344 C 405.222656 26.902344 404.632812 26.988281 404.632812 28.085938 C 404.632812 28.507812 404.125 28.933594 403.617188 29.691406 C 403.53125 29.015625 403.53125 28.847656 403.449219 28.59375 C 403.195312 28.679688 402.773438 28.761719 402.6875 28.933594 C 402.09375 31.128906 399.730469 31.804688 398.546875 33.496094 C 399.304688 33.75 399.898438 33.917969 400.488281 34.003906 C 401.082031 34.085938 401.589844 34.171875 402.179688 34.171875 C 402.601562 36.285156 403.027344 38.230469 403.53125 40.511719 L 402.011719 41.101562 C 402.011719 41.609375 402.011719 42.117188 402.179688 42.625 C 403.027344 44.570312 402.941406 44.738281 400.574219 44.992188 C 400.152344 47.273438 399.136719 49.472656 397.617188 51.246094 C 395.757812 53.527344 393.21875 53.867188 391.023438 55.050781 C 390.175781 55.472656 388.488281 55.132812 387.386719 55.980469 C 387.132812 56.148438 386.542969 55.894531 386.121094 55.8125 C 385.527344 55.640625 384.9375 55.640625 384.34375 55.8125 C 383.078125 56.488281 381.472656 56.148438 380.457031 57.585938 C 380.117188 58.09375 378.597656 57.839844 377.667969 57.839844 C 376.0625 57.839844 374.539062 57.585938 373.019531 57.671875 C 371.921875 57.671875 370.820312 58.175781 369.722656 58.175781 C 368.199219 58.175781 366.679688 57.925781 365.15625 57.925781 C 364.480469 58.09375 363.804688 58.261719 363.128906 58.429688 C 361.945312 58.515625 360.679688 58.601562 359.496094 58.855469 C 358.058594 59.277344 356.789062 59.953125 355.269531 58.9375 C 354.847656 58.683594 353.832031 59.359375 353.070312 59.445312 C 350.535156 59.785156 347.914062 59.953125 345.378906 60.207031 C 345.042969 60.207031 344.789062 60.121094 344.449219 59.953125 C 344.28125 59.867188 344.027344 59.613281 343.859375 59.613281 C 341.40625 59.699219 338.957031 59.699219 336.589844 59.867188 C 335.828125 59.953125 335.152344 60.035156 334.390625 60.207031 C 332.953125 60.460938 331.515625 60.628906 330.078125 60.96875 C 329.148438 61.136719 328.558594 61.304688 328.304688 60.121094 C 328.050781 58.769531 327.207031 58.007812 325.601562 58.601562 C 325.683594 59.105469 325.769531 59.53125 325.769531 60.035156 C 322.050781 59.359375 318.585938 60.796875 315.117188 60.460938 C 313.851562 60.375 312.582031 60.035156 311.230469 59.953125 C 308.527344 59.867188 305.738281 59.359375 303.117188 59.785156 C 301.085938 60.035156 298.972656 59.699219 297.113281 58.855469 C 296.269531 58.515625 295 59.359375 293.902344 59.613281 C 292.71875 59.953125 291.453125 60.375 290.183594 60.714844 C 289.929688 59.699219 290.945312 58.347656 289.085938 58.261719 C 288.664062 60.035156 287.5625 60.628906 285.621094 60.121094 C 285.367188 60.035156 285.027344 59.867188 284.773438 59.953125 C 282.914062 60.796875 280.96875 60.289062 279.027344 60.121094 C 278.011719 60.035156 276.746094 60.714844 275.898438 60.375 C 273.53125 59.445312 271.671875 61.050781 269.558594 61.050781 C 267.953125 60.882812 266.347656 60.628906 264.742188 60.375 C 264.066406 60.207031 263.390625 60.207031 262.796875 60.375 C 259.585938 61.726562 256.121094 62.320312 252.65625 62.234375 C 250.289062 62.066406 247.667969 61.644531 245.554688 62.320312 C 242.425781 63.332031 239.382812 62.828125 236.339844 62.996094 C 234.652344 63.078125 232.621094 62.742188 230.929688 63.839844 C 230.425781 64.179688 229.832031 64.261719 229.242188 64.09375 C 226.113281 62.402344 223.238281 64.09375 220.28125 64.433594 C 219.351562 64.515625 218.421875 64.179688 217.492188 64.179688 C 216.476562 64.179688 215.464844 64.347656 214.449219 64.601562 C 212.335938 65.277344 210.222656 64.6875 208.195312 64.515625 C 205.660156 64.433594 203.039062 64.515625 200.503906 64.855469 C 199.488281 64.941406 198.390625 65.445312 197.542969 64.433594 C 197.207031 64.179688 196.785156 64.09375 196.359375 64.179688 C 194.417969 65.191406 192.386719 65.109375 190.191406 64.941406 C 187.148438 64.6875 184.019531 65.109375 180.976562 65.109375 C 179.878906 65.023438 178.777344 64.769531 177.679688 64.515625 C 177.089844 64.433594 176.414062 64.011719 175.988281 64.261719 C 173.285156 65.617188 170.664062 63.925781 167.960938 64.179688 C 166.945312 64.261719 165.929688 64.011719 164.832031 64.09375 C 163.648438 64.179688 162.210938 64.769531 161.199219 64.433594 C 158.15625 63.332031 155.113281 64.601562 152.070312 64.179688 C 151.140625 64.011719 150.210938 63.839844 149.28125 63.585938 C 149.027344 63.585938 148.773438 63.417969 148.605469 63.503906 C 146.238281 64.855469 143.617188 63.839844 141.082031 64.261719 C 139.726562 64.515625 138.207031 63.925781 136.769531 63.925781 C 134.402344 63.839844 132.035156 63.839844 129.753906 63.925781 C 127.726562 64.011719 125.613281 64.261719 123.585938 64.347656 C 122.570312 64.347656 121.554688 64.011719 120.542969 64.011719 C 117.328125 64.179688 114.117188 64.601562 110.90625 64.6875 C 108.453125 64.769531 106.003906 64.347656 103.550781 64.347656 C 101.609375 64.347656 99.746094 64.769531 97.804688 64.855469 C 94.761719 65.109375 91.71875 65.617188 88.675781 65.363281 C 85.039062 65.109375 81.828125 66.800781 78.363281 66.628906 C 76.417969 66.546875 74.390625 67.476562 72.445312 66.546875 C 72.023438 66.375 71.515625 66.375 71.09375 66.460938 C 69.65625 66.714844 68.304688 67.222656 66.78125 67.390625 C 64.585938 67.644531 62.472656 67.730469 60.273438 67.898438 C 58.5 67.984375 56.722656 68.066406 54.863281 68.152344 C 54.527344 68.152344 54.105469 68.066406 53.933594 68.320312 C 52.5 69.589844 50.890625 69.417969 49.203125 69.335938 C 47.511719 69.25 45.484375 69.757812 43.707031 69.417969 C 41.933594 69.082031 40.75 69.925781 39.3125 70.179688 C 38.71875 70.347656 38.128906 70.347656 37.621094 70.09375 C 36.183594 68.742188 34.664062 69.082031 32.972656 69.503906 C 31.28125 69.84375 29.589844 69.925781 27.902344 69.84375 C 27.308594 69.757812 26.71875 69.417969 26.296875 68.996094 C 25.367188 68.066406 24.605469 67.8125 23.253906 68.488281 C 21.308594 69.589844 18.265625 68.066406 17.757812 65.871094 C 17.84375 65.617188 17.589844 65.109375 17.167969 64.601562 Z M 17.167969 64.601562 "/>
</g>
</g>
</svg>
