<?xml version="1.0" encoding="UTF-8"?>
<svg xmlns="http://www.w3.org/2000/svg" xmlns:xlink="http://www.w3.org/1999/xlink" width="75pt" height="74.999997pt" viewBox="0 0 75 74.999997" version="1.2">
<defs>
<clipPath id="clip1">
  <path d="M 4.089844 0 L 70.839844 0 L 70.839844 75 L 4.089844 75 Z M 4.089844 0 "/>
</clipPath>
</defs>
<g id="surface1">
<g clip-path="url(#clip1)" clip-rule="nonzero">
<path style=" stroke:none;fill-rule:nonzero;fill:#db7558;fill-opacity:1;" d="M 60.429688 10.171875 C 60.429688 10.628906 60.339844 11.085938 60.980469 11.363281 L 60.707031 10.539062 C 60.980469 10.449219 61.34375 10.449219 61.617188 10.539062 C 61.710938 10.628906 61.800781 10.90625 61.890625 11.085938 L 62.257812 11.085938 L 61.984375 11.726562 L 62.074219 11.820312 L 62.441406 11.363281 L 62.714844 12.640625 L 62.53125 12.730469 L 62.898438 12.914062 L 62.714844 13.371094 L 63.171875 13.554688 L 62.988281 13.921875 L 63.902344 14.742188 L 63.992188 14.285156 L 64.8125 14.558594 C 64.632812 14.742188 64.449219 14.835938 64.449219 14.925781 C 64.449219 15.015625 64.539062 15.472656 64.632812 15.472656 C 65.363281 15.65625 65.453125 16.296875 65.726562 16.84375 C 65.820312 17.027344 65.910156 17.121094 66 17.210938 C 66.09375 17.300781 66.183594 17.394531 66.183594 17.394531 C 66 17.941406 66.550781 18.308594 66.550781 18.855469 C 66.550781 18.945312 66.640625 19.039062 66.730469 19.128906 C 67.1875 19.128906 67.1875 19.496094 67.097656 19.859375 C 67.003906 20.226562 67.097656 20.5 67.460938 20.683594 C 67.554688 20.683594 67.734375 20.773438 67.734375 20.867188 C 67.644531 21.507812 68.375 21.964844 68.285156 22.601562 C 68.285156 22.785156 68.191406 23.058594 68.191406 23.242188 L 67.828125 22.878906 L 67.734375 22.96875 L 68.101562 23.515625 L 67.554688 23.335938 L 67.460938 22.328125 L 67.003906 23.242188 L 68.011719 24.246094 L 68.101562 23.425781 C 68.375 23.335938 68.558594 23.425781 68.742188 23.699219 C 69.378906 24.703125 69.835938 25.800781 70.019531 26.898438 C 70.109375 27.082031 70.109375 27.265625 70.203125 27.445312 C 69.835938 27.722656 69.105469 27.8125 69.472656 28.542969 C 70.109375 28.179688 70.382812 28.359375 70.566406 29.367188 L 69.835938 29 L 69.746094 29.09375 C 69.929688 29.273438 70.109375 29.457031 70.292969 29.640625 C 70.75 30.003906 70.566406 30.554688 70.660156 31.011719 C 70.75 31.46875 70.75 32.015625 70.566406 32.382812 C 70.476562 32.65625 70.476562 32.929688 70.476562 33.203125 C 70.476562 33.480469 70.660156 33.753906 70.660156 34.117188 C 70.566406 34.667969 70.476562 35.125 70.382812 35.671875 C 70.382812 35.761719 70.203125 35.761719 70.109375 35.761719 C 70.019531 35.945312 69.929688 36.128906 69.929688 36.3125 C 70.660156 36.21875 70.839844 36.496094 70.660156 37.132812 C 70.566406 37.410156 70.75 37.683594 70.660156 37.867188 C 70.566406 38.046875 70.566406 38.140625 70.382812 38.324219 C 70.292969 38.414062 70.109375 38.597656 70.109375 38.6875 C 70.109375 38.78125 70.292969 38.960938 70.382812 39.238281 L 69.929688 39.96875 L 70.292969 40.332031 L 70.109375 40.332031 C 70.109375 40.515625 70.109375 40.699219 70.109375 40.972656 C 70.019531 41.246094 69.929688 41.519531 69.835938 41.796875 C 69.652344 42.070312 69.472656 42.253906 69.378906 42.527344 C 69.378906 42.617188 69.378906 42.710938 69.472656 42.800781 L 69.105469 43.898438 L 68.464844 44.082031 C 69.472656 44.902344 68.921875 45.542969 68.285156 46.089844 L 67.644531 45.90625 C 68.285156 46.546875 68.285156 46.820312 67.828125 47.554688 C 67.460938 48.191406 67.28125 48.925781 67.371094 49.5625 C 67.371094 49.5625 67.371094 49.5625 67.371094 49.65625 C 67.1875 49.929688 66.824219 50.386719 66.914062 50.570312 C 67.097656 51.027344 67.097656 51.210938 66.640625 51.484375 L 66.640625 51.117188 L 66.273438 51.390625 C 66.273438 51.664062 66.457031 51.941406 66.367188 52.03125 C 66.183594 52.121094 65.910156 52.855469 65.542969 51.941406 L 65.363281 52.855469 L 64.90625 52.761719 L 64.8125 52.945312 L 65.910156 53.492188 L 65.453125 54.683594 L 65.269531 54.042969 L 65.179688 54.683594 L 64.90625 54.042969 L 64.722656 54.042969 L 64.175781 55.414062 L 64.449219 55.320312 C 64.539062 55.320312 64.722656 55.320312 64.8125 55.320312 C 64.8125 55.414062 64.8125 55.503906 64.8125 55.6875 C 64.632812 56.144531 64.359375 56.511719 64.082031 56.875 C 63.808594 57.148438 63.535156 57.421875 63.171875 57.605469 L 63.078125 58.0625 C 62.804688 58.0625 62.347656 57.421875 62.347656 58.15625 C 62.347656 58.519531 62.257812 58.886719 62.167969 59.25 C 62.074219 59.800781 61.527344 60.164062 60.980469 60.074219 C 60.886719 60.074219 60.886719 60.074219 60.796875 60.074219 C 60.796875 60.257812 60.886719 60.441406 60.796875 60.53125 C 60.613281 60.621094 60.429688 60.714844 60.25 60.804688 C 60.066406 60.804688 59.792969 60.804688 59.792969 60.804688 C 59.519531 61.445312 59.335938 60.988281 58.96875 60.804688 C 58.96875 60.988281 58.96875 61.171875 59.0625 61.261719 C 59.425781 61.445312 59.792969 61.535156 60.15625 61.628906 C 60.523438 61.71875 60.707031 61.902344 60.429688 62.175781 C 60.15625 62.449219 60.15625 62.816406 59.699219 62.722656 C 59.519531 62.722656 59.335938 63 59.152344 63.179688 C 59.0625 63.179688 58.878906 62.722656 58.695312 63.179688 C 58.605469 63.363281 58.238281 63.457031 57.964844 63.636719 C 57.691406 63.820312 57.417969 64.003906 57.691406 64.371094 C 57.691406 64.460938 57.691406 64.460938 57.691406 64.550781 C 57.417969 64.917969 57.144531 65.191406 56.777344 65.464844 C 56.597656 65.558594 56.230469 65.375 55.957031 65.464844 C 55.683594 65.558594 55.316406 65.648438 55.042969 65.742188 C 55.226562 65.742188 55.5 65.742188 55.683594 65.832031 C 55.773438 65.921875 55.867188 66.105469 55.957031 66.378906 C 55.410156 66.746094 54.769531 67.019531 54.222656 67.386719 C 53.675781 67.75 53.398438 68.117188 52.945312 68.390625 C 52.578125 68.757812 52.121094 69.03125 51.664062 69.304688 C 51.390625 69.394531 51.027344 69.214844 50.660156 69.214844 L 50.113281 69.121094 L 50.113281 69.304688 L 49.839844 68.9375 L 49.746094 69.03125 L 50.203125 70.21875 C 49.566406 70.765625 48.835938 71.222656 48.105469 71.5 C 47.828125 71.589844 47.648438 71.773438 47.375 71.957031 C 46.917969 72.230469 46.367188 72.230469 45.914062 71.957031 L 45.363281 72.414062 C 45.363281 72.777344 45.089844 72.960938 44.632812 72.871094 C 44.359375 72.777344 43.902344 72.414062 43.539062 73.144531 L 43.355469 72.320312 L 43.265625 72.320312 L 43.265625 73.050781 L 42.992188 73.234375 L 43.082031 73.417969 C 42.808594 73.507812 42.441406 73.507812 42.167969 73.507812 C 41.984375 73.507812 41.894531 73.144531 41.710938 72.960938 L 41.804688 72.777344 C 41.710938 72.777344 41.621094 72.871094 41.53125 72.871094 C 41.710938 73.601562 41.074219 73.601562 40.707031 73.691406 C 40.160156 73.78125 39.429688 73.964844 38.882812 73.507812 C 38.789062 73.417969 38.699219 73.417969 38.605469 73.507812 C 38.332031 73.78125 37.875 73.507812 37.695312 73.601562 C 37.238281 73.691406 37.054688 73.417969 36.78125 73.234375 C 36.691406 73.144531 36.507812 73.144531 36.414062 73.144531 L 36.691406 73.78125 L 35.046875 73.875 L 33.675781 74.148438 C 33.585938 74.058594 33.492188 73.875 33.402344 73.78125 C 33.21875 73.78125 33.128906 73.691406 32.945312 73.691406 C 32.761719 73.875 32.582031 74.058594 32.308594 74.148438 C 31.851562 74.238281 31.300781 74.332031 30.753906 74.332031 C 30.480469 74.332031 30.207031 74.421875 29.933594 74.515625 C 29.476562 74.789062 29.203125 74.421875 28.835938 74.332031 C 28.746094 74.332031 28.652344 74.238281 28.5625 74.238281 C 28.105469 74.421875 27.558594 74.238281 27.375 73.78125 C 27.375 73.691406 27.285156 73.691406 27.285156 73.601562 C 27.191406 73.328125 26.917969 73.144531 26.738281 73.050781 L 27.191406 74.148438 L 27.101562 74.238281 C 26.917969 74.058594 26.738281 73.875 26.460938 73.78125 C 26.371094 73.78125 26.28125 73.78125 26.097656 73.78125 C 25.730469 73.964844 25.640625 73.691406 25.640625 73.417969 C 25.640625 73.234375 25.550781 73.050781 25.457031 72.960938 C 25.367188 72.6875 25.183594 72.503906 25 72.230469 C 24.910156 72.136719 24.726562 72.046875 24.636719 71.957031 C 24.453125 71.957031 24.269531 71.957031 24.089844 71.957031 L 24.363281 72.230469 L 22.808594 72.136719 C 22.808594 72.136719 22.71875 72.136719 22.71875 72.136719 C 22.261719 71.5 21.441406 71.589844 20.890625 71.132812 C 20.34375 70.675781 19.980469 70.859375 19.429688 70.765625 C 18.882812 71.589844 18.152344 70.675781 17.515625 71.042969 C 17.332031 71.132812 16.964844 70.765625 16.785156 70.675781 L 16.875 70.492188 L 18.335938 70.035156 L 17.789062 69.488281 C 17.695312 69.851562 17.421875 69.578125 17.238281 69.394531 L 17.238281 69.945312 L 16.507812 70.21875 L 16.507812 69.761719 L 16.875 69.851562 L 16.875 69.761719 C 16.691406 69.578125 16.507812 69.488281 16.328125 69.394531 L 15.960938 69.03125 C 15.777344 68.847656 15.414062 68.757812 15.324219 68.574219 C 15.230469 68.390625 15.324219 67.933594 15.230469 67.75 C 14.867188 67.386719 14.59375 67.113281 14.136719 66.746094 C 13.3125 65.832031 12.402344 64.917969 11.578125 64.003906 C 12.21875 63.457031 12.21875 63.273438 11.578125 62.816406 L 11.394531 63.546875 C 11.304688 63.457031 11.03125 63.363281 11.03125 63.179688 C 10.847656 62.449219 10.207031 62.542969 9.753906 62.269531 C 9.660156 62.175781 9.660156 61.992188 9.660156 61.902344 C 9.753906 61.628906 9.660156 61.535156 9.296875 61.355469 C 9.023438 61.261719 8.839844 60.898438 8.839844 60.621094 C 8.839844 60.621094 8.839844 60.53125 8.929688 60.53125 L 7.925781 58.886719 L 8.292969 58.703125 C 7.105469 57.878906 6.738281 56.601562 6.375 55.230469 L 6.738281 55.414062 L 7.195312 54.683594 L 6.375 54.132812 C 6.832031 55.046875 6.832031 55.046875 6.375 55.230469 C 6.375 55.230469 6.28125 55.140625 6.28125 55.140625 C 6.28125 54.316406 5.644531 53.675781 5.550781 52.855469 C 5.460938 51.941406 5.003906 51.027344 5.1875 50.019531 C 5.1875 49.839844 5.003906 49.382812 5.003906 49.015625 C 4.914062 48.925781 5.003906 48.742188 5.003906 48.648438 C 5.09375 48.742188 5.277344 48.742188 5.371094 48.832031 C 5.460938 48.925781 5.644531 49.015625 5.734375 49.105469 C 5.734375 48.925781 5.734375 48.742188 5.644531 48.648438 C 5.371094 48.375 5.09375 48.191406 4.820312 48.011719 C 4.730469 47.917969 4.730469 47.828125 4.730469 47.734375 C 4.730469 47.097656 4.730469 46.363281 4.640625 45.726562 C 4.640625 45.632812 4.546875 45.542969 4.546875 45.359375 C 4.546875 45.175781 4.546875 44.902344 4.640625 44.71875 C 4.640625 44.628906 4.730469 44.445312 4.730469 44.355469 L 4.183594 44.261719 C 4.183594 43.625 4.273438 42.984375 4.273438 42.253906 C 4.273438 41.519531 4.183594 41.15625 4.089844 40.515625 C 4.089844 39.875 4.089844 39.328125 4.089844 38.6875 C 4.089844 38.503906 4.273438 38.324219 4.363281 38.324219 C 4.820312 38.324219 4.640625 38.046875 4.730469 37.773438 L 4.183594 37.867188 C 4.183594 37.132812 4.183594 36.496094 4.183594 35.855469 C 4.273438 34.757812 4.273438 33.660156 4.457031 32.566406 C 4.546875 31.742188 4.730469 30.917969 4.914062 30.1875 C 5.003906 29.914062 4.914062 29.367188 5.460938 29.367188 C 5.460938 29.273438 5.460938 29.09375 5.460938 28.910156 L 5.09375 29.183594 L 5.003906 29.09375 L 5.371094 28.542969 C 5.09375 28.085938 5.1875 27.8125 5.550781 27.539062 C 5.460938 27.265625 5.371094 27.082031 5.460938 26.898438 C 5.644531 26.257812 5.917969 25.527344 6.101562 24.886719 C 6.191406 24.523438 6.28125 24.246094 6.464844 23.882812 C 6.648438 23.515625 6.464844 22.878906 7.195312 22.785156 C 7.195312 22.785156 7.285156 22.601562 7.285156 22.511719 C 7.285156 22.144531 7.195312 21.78125 7.5625 21.507812 C 7.652344 21.507812 7.652344 21.230469 7.652344 21.140625 L 8.292969 21.050781 L 7.925781 20.59375 L 8.015625 20.5 L 8.382812 20.683594 C 8.199219 20.226562 8.382812 20.136719 8.746094 20.042969 C 8.566406 19.585938 8.199219 19.128906 8.65625 18.671875 C 9.023438 18.308594 9.296875 17.941406 9.570312 17.484375 C 9.570312 17.394531 9.476562 17.300781 9.386719 17.300781 L 10.027344 17.121094 L 10.027344 17.027344 L 9.660156 17.027344 L 10.207031 16.84375 C 9.84375 16.386719 10.207031 16.207031 10.484375 15.929688 C 10.847656 15.472656 11.121094 15.015625 11.394531 14.46875 C 11.578125 14.195312 11.667969 13.921875 11.851562 13.644531 C 12.035156 13.464844 12.308594 13.1875 12.582031 13.097656 L 12.855469 13.644531 L 13.039062 13.554688 C 12.855469 13.007812 12.582031 12.457031 12.949219 11.910156 C 13.222656 11.363281 13.496094 10.8125 13.863281 10.265625 C 14.316406 9.898438 14.773438 9.625 15.324219 9.441406 C 15.046875 9.078125 15.503906 8.984375 15.777344 8.800781 C 16.054688 8.621094 16.144531 8.34375 16.328125 8.164062 C 16.601562 7.980469 16.875 7.707031 17.148438 7.523438 L 17.421875 7.980469 L 17.789062 7.707031 C 18.152344 8.164062 18.335938 7.613281 18.699219 7.523438 L 18.152344 7.429688 C 17.96875 7.066406 18.425781 6.792969 18.699219 6.609375 C 19.613281 6.152344 20.527344 5.695312 21.441406 5.148438 C 22.078125 4.78125 22.71875 4.414062 23.449219 3.957031 C 23.539062 3.867188 23.722656 3.867188 23.90625 3.777344 C 24.089844 3.683594 24.179688 3.59375 24.363281 3.5 C 24.726562 3.226562 25.183594 3.136719 25.550781 3.226562 C 25.730469 3.320312 25.824219 3.320312 26.007812 3.410156 L 25.824219 2.679688 L 26.917969 2.222656 L 27.101562 2.585938 C 27.191406 2.039062 27.375 1.949219 28.015625 2.039062 L 28.015625 1.582031 L 29.109375 1.492188 C 29.203125 1.492188 29.292969 1.398438 29.203125 1.398438 C 28.929688 0.851562 29.476562 0.941406 29.660156 0.941406 C 30.296875 0.761719 30.9375 0.667969 31.667969 0.484375 C 31.667969 0.484375 31.757812 0.484375 31.757812 0.484375 C 32.214844 0.851562 32.761719 0.484375 33.21875 0.667969 C 33.492188 0.761719 33.859375 0.761719 34.132812 0.578125 C 34.773438 0.394531 34.589844 0.941406 34.863281 1.125 C 35.046875 1.035156 35.410156 1.21875 35.410156 0.761719 C 35.410156 0.667969 35.683594 0.667969 35.777344 0.667969 C 36.324219 0.667969 36.871094 1.035156 37.144531 1.582031 L 38.058594 1.125 C 38.152344 1.125 38.242188 1.125 38.332031 1.125 C 38.699219 1.308594 39.0625 1.492188 39.335938 1.765625 C 39.429688 1.765625 39.429688 1.949219 39.519531 1.949219 C 40.160156 1.855469 40.617188 1.492188 40.890625 0.941406 L 41.804688 0.394531 L 43.355469 0.667969 L 43.355469 0.304688 L 43.539062 0.210938 L 44.175781 1.125 L 44.359375 0.394531 L 45.730469 1.21875 L 45.636719 0.941406 L 45.546875 0.667969 C 45.636719 0.667969 45.730469 0.667969 45.820312 0.667969 C 46.09375 0.761719 46.277344 0.761719 46.550781 0.851562 C 46.824219 0.941406 47.007812 0.851562 46.824219 1.21875 C 46.824219 1.21875 47.007812 1.398438 47.007812 1.308594 C 47.554688 0.941406 47.648438 1.582031 47.921875 1.765625 C 48.195312 1.949219 48.105469 2.222656 48.195312 2.40625 C 48.925781 1.949219 49.109375 1.949219 49.472656 2.40625 C 49.382812 2.679688 49.289062 2.953125 49.289062 3.226562 C 49.289062 3.320312 49.472656 3.410156 49.65625 3.5 L 49.929688 2.953125 L 49.65625 3.042969 L 49.65625 2.496094 L 50.296875 2.953125 L 50.296875 3.226562 L 50.660156 3.136719 L 50.660156 3.867188 C 50.933594 3.683594 51.207031 3.5 51.484375 3.320312 C 51.664062 3.226562 51.757812 3.226562 51.9375 3.320312 C 51.9375 3.320312 51.9375 3.5 51.9375 3.683594 L 53.21875 3.777344 L 53.398438 4.324219 L 52.945312 4.324219 L 52.851562 4.691406 L 53.949219 5.238281 C 54.496094 4.871094 54.679688 4.964844 54.859375 5.695312 L 54.40625 5.96875 C 55.042969 6.425781 55.042969 6.425781 55.683594 5.878906 L 55.867188 6.152344 L 56.140625 5.695312 L 56.871094 6.335938 C 56.777344 6.699219 56.140625 6.519531 56.503906 7.066406 L 56.6875 6.792969 L 57.328125 6.882812 L 58.332031 8.070312 L 58.96875 7.613281 L 58.96875 8.621094 L 59.976562 8.894531 C 60.066406 8.894531 60.15625 8.984375 60.066406 8.984375 C 59.976562 8.984375 59.976562 9.167969 59.976562 9.167969 C 59.792969 9.257812 59.609375 9.257812 59.425781 9.257812 L 60.066406 10.171875 Z M 56.597656 20.410156 L 56.140625 21.78125 L 56.777344 21.964844 C 56.503906 21.6875 56.503906 21.230469 56.6875 20.410156 L 56.960938 20.226562 L 56.503906 19.769531 L 56.414062 19.859375 L 56.414062 19.585938 C 56.230469 19.953125 56.046875 20.316406 56.597656 20.410156 Z M 23.90625 6.609375 L 23.265625 5.785156 C 23.175781 5.878906 23.175781 5.96875 23.085938 6.0625 C 22.808594 6.425781 23.632812 6.335938 23.359375 6.792969 L 23.722656 6.882812 C 23.816406 6.792969 23.90625 6.699219 23.90625 6.609375 C 24.546875 7.25 24.636719 7.25 25 6.519531 Z M 57.144531 7.613281 L 56.503906 7.429688 C 56.414062 7.613281 56.414062 7.796875 56.414062 7.980469 C 56.503906 8.164062 56.6875 8.253906 56.6875 8.34375 L 57.144531 7.613281 C 56.777344 8.34375 57.691406 8.164062 57.78125 8.621094 L 58.238281 8.253906 Z M 21.714844 53.859375 C 21.167969 53.949219 20.710938 54.042969 20.253906 54.132812 C 19.980469 54.226562 19.707031 54.40625 19.980469 54.683594 C 20.34375 54.957031 20.617188 55.230469 21.074219 55.414062 L 20.800781 54.5 L 21.167969 54.773438 Z M 36.597656 52.671875 L 37.144531 53.128906 C 37.238281 53.128906 37.328125 53.21875 37.328125 53.21875 C 37.328125 53.21875 37.511719 53.035156 37.511719 53.035156 C 37.328125 52.761719 37.695312 52.488281 37.511719 52.121094 C 37.328125 51.757812 36.871094 51.847656 36.691406 51.757812 C 36.691406 51.757812 36.324219 51.941406 36.234375 52.121094 C 36.140625 52.304688 36.324219 52.488281 36.324219 52.671875 L 36.78125 51.941406 L 36.964844 52.03125 Z M 21.441406 44.628906 C 20.890625 45.453125 21.714844 45.359375 22.078125 45.542969 C 22.171875 45.632812 22.445312 45.632812 22.445312 45.542969 C 22.628906 45.359375 22.71875 45.085938 22.808594 44.902344 L 22.71875 44.8125 C 22.171875 45.269531 21.804688 45.175781 21.441406 44.628906 Z M 27.375 37.042969 C 27.46875 37.132812 27.46875 37.226562 27.558594 37.316406 C 27.742188 37.683594 27.832031 38.324219 28.472656 37.683594 C 28.5625 37.683594 28.746094 37.773438 28.835938 37.773438 L 28.835938 37.316406 L 27.832031 37.316406 L 28.105469 36.953125 Z M 22.992188 29.457031 L 23.722656 29.457031 L 23.359375 29.824219 L 23.449219 30.003906 L 24.089844 29.730469 C 23.996094 29.546875 23.90625 29.367188 23.816406 29.273438 C 23.539062 28.816406 22.992188 28.910156 22.992188 29.457031 Z M 56.414062 58.613281 L 56.6875 59.25 C 57.144531 58.976562 57.328125 59.25 57.417969 59.707031 L 57.78125 58.976562 Z M 54.40625 61.078125 C 54.679688 61.355469 55.136719 61.535156 55.410156 61.171875 C 55.589844 60.898438 55.589844 60.53125 55.316406 60.257812 C 55.226562 60.164062 55.136719 60.164062 55.042969 60.164062 L 55.316406 61.078125 Z M 61.527344 53.585938 L 61.800781 54.316406 L 61.253906 54.132812 L 61.253906 54.863281 L 62.347656 54.042969 Z M 46.1875 2.863281 L 47.375 2.128906 L 46.003906 2.128906 Z M 66.457031 28.179688 L 67.644531 28.085938 L 67.644531 27.902344 L 67.097656 28.085938 L 66.457031 27.445312 L 66.273438 27.539062 Z M 51.207031 64.09375 L 50.660156 64.277344 C 50.660156 64.550781 50.753906 64.734375 50.84375 65.007812 C 50.933594 65.101562 51.117188 65.191406 51.300781 65.191406 L 51.300781 65.101562 L 50.933594 64.644531 L 51.027344 64.550781 L 51.207031 64.828125 L 51.300781 64.828125 Z M 53.035156 7.613281 L 53.21875 8.253906 L 53.582031 7.25 L 52.667969 7.339844 L 52.761719 7.980469 Z M 52.667969 62.632812 L 52.667969 62.816406 L 53.035156 63 C 53.398438 63.273438 53.398438 63.273438 53.675781 62.632812 Z M 61.160156 56.964844 C 61.070312 56.691406 60.980469 56.511719 60.796875 56.328125 C 60.613281 55.960938 60.613281 56.054688 60.25 56.234375 C 60.523438 56.511719 60.523438 57.148438 61.160156 56.964844 Z M 63.628906 16.296875 L 63.808594 16.296875 L 63.628906 15.472656 C 63.902344 15.382812 64.359375 15.382812 64.082031 14.742188 C 63.902344 15.472656 63.535156 15.199219 63.261719 15.199219 Z M 52.761719 14.378906 L 53.582031 14.742188 L 53.492188 13.828125 Z M 62.988281 14.742188 L 62.988281 14.652344 C 62.714844 14.652344 62.53125 14.652344 62.347656 14.742188 C 62.167969 14.835938 62.074219 15.109375 62.074219 15.199219 C 62.074219 15.292969 62.347656 15.566406 62.53125 15.75 C 62.621094 15.65625 62.621094 15.472656 62.53125 15.382812 L 62.347656 15.015625 C 62.441406 14.925781 62.53125 14.925781 62.714844 14.835938 C 62.714844 14.835938 62.804688 14.835938 62.988281 14.742188 Z M 61.160156 14.195312 L 61.253906 14.378906 C 61.4375 14.378906 61.710938 14.378906 61.890625 14.378906 C 61.984375 14.378906 62.167969 14.285156 62.257812 14.195312 C 62.167969 14.101562 62.074219 13.921875 61.984375 13.921875 C 61.617188 14.011719 61.34375 14.101562 61.160156 14.195312 Z M 31.667969 2.496094 C 31.667969 2.3125 31.667969 2.222656 31.667969 2.039062 C 31.667969 2.039062 31.484375 1.949219 31.394531 1.949219 C 31.121094 1.949219 30.9375 1.949219 30.664062 1.949219 L 30.753906 2.40625 C 31.027344 2.496094 31.394531 1.855469 31.667969 2.496094 Z M 25.457031 6.152344 L 25.09375 6.609375 L 26.1875 6.882812 C 25.824219 6.335938 25.367188 6.0625 25 6.242188 Z M 19.980469 8.253906 L 20.070312 8.4375 L 21.167969 7.980469 L 21.257812 7.429688 C 21.074219 7.613281 20.890625 7.796875 20.890625 7.796875 C 20.34375 7.429688 20.4375 8.253906 19.980469 8.253906 Z M 45.273438 18.214844 C 45.363281 18.398438 45.457031 18.398438 45.457031 18.582031 C 45.457031 19.128906 45.820312 18.945312 46.09375 18.855469 C 46.1875 18.855469 46.1875 18.765625 46.277344 18.671875 C 46.367188 18.582031 46.277344 18.582031 46.1875 18.582031 C 45.914062 18.398438 45.636719 18.308594 45.273438 18.214844 Z M 52.03125 7.339844 L 52.03125 7.066406 C 51.664062 6.972656 51.300781 6.972656 50.933594 6.882812 C 50.933594 6.882812 50.84375 6.972656 50.84375 7.066406 C 50.84375 7.15625 50.933594 7.15625 50.933594 7.25 Z M 58.96875 57.878906 L 58.878906 58.246094 C 59.0625 58.246094 59.242188 58.335938 59.242188 58.246094 C 59.335938 58.15625 59.335938 57.972656 59.335938 57.789062 C 59.335938 57.699219 59.242188 57.605469 59.152344 57.421875 L 58.695312 57.605469 Z M 30.113281 35.488281 L 29.109375 35.761719 C 29.566406 36.3125 29.75 36.21875 30.113281 35.488281 Z M 50.386719 4.78125 L 50.386719 4.871094 L 50.933594 5.148438 C 50.84375 4.597656 51.390625 5.238281 51.574219 4.78125 Z M 23.265625 8.34375 C 23.449219 8.34375 23.722656 8.4375 23.816406 8.34375 C 23.90625 8.253906 24.089844 7.980469 24.179688 7.796875 L 23.996094 7.613281 Z M 9.296875 59.34375 C 9.296875 59.527344 9.296875 59.707031 9.386719 59.800781 C 9.386719 59.890625 9.476562 59.984375 9.570312 59.984375 C 9.660156 59.984375 9.660156 59.890625 9.753906 59.890625 C 9.84375 59.617188 9.933594 59.34375 9.933594 58.886719 Z M 57.601562 20.957031 L 57.507812 20.957031 L 57.234375 22.054688 L 57.601562 22.144531 Z M 48.105469 13.554688 L 47.464844 13.28125 C 47.375 13.554688 47.097656 13.921875 47.464844 14.101562 Z M 14.683594 65.375 C 14.5 65.558594 14.316406 66.015625 14.042969 65.464844 C 14.042969 65.464844 13.863281 65.464844 13.679688 65.558594 L 14.226562 66.105469 L 14.773438 65.742188 Z M 60.523438 52.488281 L 60.523438 53.492188 L 60.707031 53.492188 L 60.980469 52.945312 Z M 38.242188 37.867188 C 38.152344 38.046875 38.152344 38.230469 38.152344 38.414062 C 38.242188 38.503906 38.332031 38.597656 38.515625 38.597656 C 38.605469 38.597656 38.699219 38.503906 38.789062 38.414062 Z M 57.691406 63.457031 L 57.691406 63.273438 L 56.320312 63 L 56.320312 63.179688 Z M 21.441406 7.429688 L 21.804688 8.4375 C 21.988281 7.707031 21.898438 7.429688 21.441406 7.429688 Z M 15.046875 16.664062 C 14.683594 16.570312 14.316406 16.664062 14.136719 17.027344 C 14.136719 17.121094 14.042969 17.210938 14.136719 17.300781 Z M 60.523438 10.171875 C 60.429688 10.082031 60.339844 10.082031 60.25 9.992188 C 60.15625 9.898438 60.15625 9.714844 60.066406 9.625 C 60.15625 9.625 60.339844 9.535156 60.429688 9.535156 C 60.707031 9.714844 60.886719 9.898438 61.160156 10.171875 L 61.160156 10.265625 Z M 53.675781 55.320312 C 54.222656 55.6875 54.3125 56.328125 53.765625 56.601562 L 53.949219 55.960938 C 53.125 56.054688 53.398438 55.503906 53.308594 55.230469 Z M 51.9375 31.46875 C 52.488281 31.375 52.667969 31.558594 52.578125 32.015625 L 52.121094 32.199219 L 51.9375 31.832031 L 51.847656 31.925781 Z M 40.160156 32.566406 L 39.792969 33.660156 C 39.335938 33.386719 39.0625 32.929688 39.15625 32.382812 L 39.429688 32.746094 Z M 21.898438 19.769531 L 22.355469 20.226562 L 22.355469 20.316406 L 21.347656 19.859375 L 21.347656 19.679688 Z M 21.898438 19.769531 "/>
</g>
</g>
</svg>
