<?xml version="1.0" encoding="UTF-8"?><svg xmlns="http://www.w3.org/2000/svg" xmlns:xlink="http://www.w3.org/1999/xlink" height="499.9" preserveAspectRatio="xMidYMid meet" version="1.1" viewBox="0.0 0.0 653.4 499.9" width="653.4" zoomAndPan="magnify">
 <defs>
  <clipPath id="clip1">
   <path d="m0 234h653.41v212h-653.41z"/>
  </clipPath>
  <clipPath id="clip2">
   <path d="m101 0h450v499.88h-450z"/>
  </clipPath>
 </defs>
 <g id="surface1">
  <g id="change1_1"><path d="m524.71 437.91c1 5.2 6-4.8 12.5-21.3-0.5 3.8-1.8 4.39-2.3 9.5-0.3 3.19-1.2 11.69 3 14 3 1.69 7.2-0.5 8.8-1.41 3 2 11.4 7.1 23 6.71 7.9-0.3 13.9-3 17.1-4.8 1.2 1.09 7.9 6.89 17.6 6.09 12.2-0.9 18.4-11.4 18.8-12.29 5.2 2.29 11.3 1.59 15.8-1.91 6.8-5.2 6.2-13.5 6.2-14-1.2-1.8-4.9-6.7-11.7-9-9.9-3.3-18.4 1.7-19.7 2.5-2.4-1.09-7.2-2.89-13.4-2.59-6.1 0.29-10.7 2.39-13 3.59-2-0.89-5.8-2.39-10.7-2.2-3.4 0.11-6.2 1-8 1.7 2.4-2.2 5.8-5.89 7.9-11.2 4.4-11.5-2-18.39 1.1-29.8 2.8-10.39 9.4-8.8 14.1-19.59 6.2-14.3 3-36.8-10.4-43.41-2.2-1.09-4.5-1.7-6.7-1.89l9.9-33.2c0.7-3.91 2-13.8-3.6-23.3-1.2-2-6.7-11.31-13-10.7-5.2 0.5-8.6 7.5-12 16.7-9.5 25.39-11.5 46.3-11.5 46.3-3.2 33.39-10.1 31.09-16.2 69.7-2.4 15.3-9 38.19-3.6 65.8zm-395.9 1.5c-1 5.2-6-4.8-12.5-21.3 0.5 3.8 1.8 4.39 2.3 9.5 0.3 3.19 1.2 11.69-3 14-3 1.69-7.2-0.5-8.8-1.41-3 2-11.404 7.1-23.005 6.71-7.899-0.3-13.899-3-17.098-4.8-1.199 1.09-7.902 6.89-17.602 6.09-12.199-0.9-18.398-11.4-18.8-12.29-5.2 2.29-11.297 1.59-15.797-1.91-6.801-5.2-6.2033-13.5-6.2033-14 1.2031-1.8 4.9023-6.7 11.703-9 9.898-3.3 18.398 1.7 19.699 2.5 2.398-1.09 7.199-2.89 13.398-2.59 6.102 0.29 10.7 2.39 13 3.59 2-0.89 5.801-2.39 10.7-2.2 3.402 0.11 6.203 1 8 1.7-2.399-2.2-5.797-5.89-7.899-11.2-4.398-11.5 2-18.39-1.101-29.8-2.797-10.39-9.399-8.8-14.098-19.59-6.199-14.3-3-36.8 10.398-43.41 2.2-1.09 4.5-1.7 6.7-1.89l-9.899-33.2c-0.699-3.91-2-13.8 3.602-23.3 1.199-2 6.699-11.31 13-10.7 5.199 0.5 8.597 7.5 12 16.7 9.502 25.39 11.502 46.3 11.502 46.3 3.2 33.39 10.1 31.09 16.2 69.7 2.5 15.3 9.1 38.3 3.6 65.8" fill="#a1b5cc"/></g>
  <g clip-path="url(#clip1)" id="change2_2">
   <path d="m646.01 428.8c-1.4 1-2.9 1.81-4.5 2.31l-11.9-13.61c7.5-1.09 15-2.09 22.4-3 1.2 4.8-1.3 10.8-6 14.3zm-15.8 1.5c-0.1-0.1-0.3-0.1-0.4 0-0.1 0.11-0.3 0.2-0.3 0.31-0.8 1.89-1.9 3.59-3.2 5.09-1 1.21-2.2 2.21-3.4 3l-18.1-17.4c7.8-1.3 15.6-2.39 23.5-3.6l12 13.71c-3.3 0.7-6.9 0.39-10.1-1.11zm-22 12.11c-7.3-0.41-12.6-4-15.1-6.11-0.1-0.1-0.2-0.1-0.4-0.1-0.1 0-0.2 0-0.3 0.1-1 0.61-2.3 1.4-4 2.11l-10.6-12.41c5.1-0.89 10.3-1.89 15.4-2.7 3.3-0.6 6.7-1.1 10-1.69l18.5 17.8c-5.3 3.09-11.4 3.09-13.5 3zm-34.1-1.91c-4.1-0.5-7.9-1.8-11.6-4.09-1.3-0.5-5.4-2.3-6.9-6.21 7-1.4 14-2.79 21-4.09l10.7 12.59c-3.4 1.41-8 2.5-13.2 1.8zm-28.2-2.59l12.1-41.71 27.2-11.9c0.3 3.61 0.1 7.4-1.7 11.9-1.8 4.71-4.9 9-9 12.8-5.5 0.91-11.8 3.11-16.2 8.5-1.6 1.91-5.7 6.91-4 12.5 0.5 1.7 1.4 3 2.5 4.11-3.4 3.5-7.7 4.59-10.9 3.8zm-1-0.41c-0.4-0.2-0.9-0.39-1.2-0.7-2.4-1.8-2.8-5.19-2.9-6.3-0.5-4.09 0.9-7.3 2.1-9.8 0.2-0.5 0.4-1 0.6-1.4 2-4.69 1.2-8.1 0.2-12.3-0.7-3-1.5-6.3-1.6-11.09-0.1-2.8 0.1-4.8 0.5-6.8l12.7 12.69zm-4.4-14.2l-5.1 11.11c-1 1.2-2.7 2.59-3.7 2.59 3.8-32.59 9.6-65.3 17.2-97.3 7.6-31.7 17.2-63.29 28.5-93.9 0.1-0.3 0-0.6-0.3-0.69-0.3-0.11-0.6 0-0.7 0.3-11.3 30.59-20.9 62.29-28.5 94.09-7.6 31.61-13.3 64-17.1 96.41-0.1-0.5-0.2-1.3-0.1-2.5 1.8-46.21 2.8-69.41 7.7-87.71 1-3.79 1.7-6.2 2.6-9.09 1.1-3.81 2.4-8 4.7-16.61 1.5-5.59 2.8-10 3.8-13.5 2.1-7.3 3.4-11.7 4.2-17.3 0.7-5.4 8.9-47.09 19.1-53 1.2-0.7 2.4-0.79 3.6-0.29 11.6 4.7 14.5 21.2 11.5 30.89-2.7 8.81-7.6 30.5-8.4 33.81-9.6 0.39-19.5 7.09-23.5 14.8-1.8 3.39-1.9 5.79-2.2 10.7-0.2 4-0.5 9.59-1.9 18.59-0.9 5.6-1.7 9.5-2.7 14.5-2.6 12.6-4.7 19.3-6 23.8-1.6 5.11-2.4 7.61-2.2 13.11 0.2 4.8 1 8.39 1.7 11.3 1 4.2 1.7 7.29-0.2 11.59-0.2 0.41-0.4 0.91-0.6 1.41-0.5 0.7-1 1.79-1.4 2.89zm45.7-120.8c12.8 4.3 17.9 24 13.8 38.11-1.7 5.8-4.4 8.39-7.3 11.19-1.4 1.4-2.8 2.7-4.1 4.5l-19.7 1.81 12.4-42.7c0.1-0.3-0.1-0.61-0.4-0.71-0.3-0.09-0.6 0.1-0.7 0.41l-4.6 15.8-17.1-17.71c5.9-7.9 18.1-13.9 27.7-10.7zm-36.6 60c0.2-1 0.4-2.09 0.7-3.2 1-5 1.8-8.89 2.7-14.5 1.4-9.1 1.7-14.69 1.9-18.69 0.3-4.7 0.4-7.11 2-10.2 0.3-0.61 0.7-1.21 1.1-1.8l17.4 18-7.6 26.5-4.9 17.09zm12.8 14.41l-6.8 23.7-12.8-12.81c0.3-1.39 0.8-2.8 1.4-4.6 1.2-3.9 3-9.5 5.1-19.4zm22.5-12.41c-1.5 5.91-0.9 10.61-0.3 15.11 0.2 1.19 0.3 2.3 0.4 3.39l-26.7 11.7 10.3-35.5 19.2-1.79c-1.1 1.89-2.1 4.2-2.9 7.09zm-24 63.5c-1.9 0.41-3.7 0.7-5.6 1.11-1.1-4.81 2.5-9.31 3.9-11 3.6-4.31 8.6-6.5 13.3-7.61zm22.7-18.7c3.9 0 7.9 0.4 11.7 1.4 0.2 0 0.4 0 0.5-0.09 1-1 2.7-2.31 5-3.41l-10.3 15.21c-4.6 0.79-9.3 1.59-14 2.5h-0.1c-4.8 0.89-9.5 1.79-14.2 2.7l11.6-17.5c4.2-0.7 7.8-0.7 9.8-0.81zm19.2-2.69c1.3-0.41 2.6-0.7 4.2-0.91 5.2-0.4 9.2 1.5 11.2 2.71 0.2 0.09 0.4 0.09 0.5 0 2.3-1.11 4.7-2 7.1-2.5l-7.8 12.09c-8.3 1.3-16.6 2.61-24.9 4-0.3 0.11-0.6 0.11-0.9 0.2zm24.5-0.91c2.1-0.4 4.1-0.5 6.2-0.4 12.4 0.61 16.7 4.7 18.1 8.2-7.7 1-15.4 2-23.1 3.11h-0.3c-2.9 0.39-5.8 0.8-8.8 1.3zm25.5 7.71c-2-5.71-8.5-8.8-19.3-9.3-2.2-0.11-4.4 0.09-6.6 0.5h-0.2c-2.8 0.5-5.7 1.39-8.3 2.69-2.1-1.3-6.3-3.19-11.6-2.69-1.7 0.09-3.2 0.5-4.5 0.89h-0.1c-3.2 1.11-5.5 2.8-6.9 4-3.8-1-7.8-1.39-11.7-1.39-1.6 0-4.2 0-7.2 0.39 3.7-3.59 6.4-7.7 8.1-12.09 1.9-5 2-9.21 1.7-13.11-0.1-1.3-0.3-2.6-0.5-3.89-0.6-4.41-1.2-9 0.2-14.71 0.8-3.29 2-5.7 3.4-7.59 1.3-1.81 2.7-3.11 4.1-4.61 2.9-2.8 5.8-5.59 7.6-11.7 3.7-12.8-0.1-34.5-14.6-39.39-1.9-0.71-4-1-6-1 0.9-4.11 5.6-24.91 8.3-33.5 3-9.91 0.5-27.11-12.2-32.3-1.5-0.61-3.1-0.5-4.6 0.39-10.8 6.2-18.9 48.11-19.7 53.91-0.7 5.5-2 9.89-4.1 17.09-1 3.5-2.3 8-3.8 13.5-2.3 8.5-3.6 12.8-4.7 16.61-0.8 2.89-1.6 5.39-2.6 9.09-5 18.3-5.9 41.6-7.7 87.91-0.1 1.8 0 3.89 1.3 4.59h0.1c0.3 0.1 0.5 0.21 0.8 0.21 1.9 0 4.2-2.5 4.7-3l0.1-0.11 3.1-6.8c0 0.8 0 1.61 0.1 2.5 0.2 1.2 0.6 5 3.4 7.11 0.6 0.39 1.2 0.69 2 1 0 0 0.1 0.09 0.2 0.09h0.1c0.9 0.3 1.8 0.41 2.9 0.41 3.1 0 6.7-1.41 9.6-4.41 1.8 1.5 3.7 2.3 4.4 2.6 3.7 2.31 7.7 3.81 12 4.2 8.5 1 15.2-2.2 18.7-4.3 2.7 2.21 8.1 5.71 15.4 6.1h1.3c3 0 8.6-0.5 13.6-3.6 0.1 0 0.2-0.09 0.2-0.09 1.4-0.91 2.7-2 3.9-3.31 1.3-1.39 2.3-3.1 3.1-4.89 3.6 1.5 7.6 1.7 11.2 0.7 1.8-0.5 3.6-1.41 5.2-2.5 5.3-3.91 8-10.91 6.1-16.2zm-529.9 24c-3.8-32.3-9.5-64.71-17.1-96.41-7.603-31.8-17.205-63.39-28.505-94.09-0.098-0.3-0.399-0.41-0.7-0.3-0.3 0.09-0.398 0.39-0.3 0.69 11.3 30.61 20.902 62.2 28.505 93.9 7.6 31.91 13.4 64.71 17.2 97.3-1 0-2.7-1.39-3.7-2.59l-5.1-11.11c-0.4-1.19-0.9-2.19-1.3-3.1-0.2-0.5-0.4-0.9-0.6-1.4-1.9-4.39-1.1-7.39-0.2-11.6 0.7-2.9 1.5-6.4 1.7-11.29 0.2-5.5-0.6-8-2.2-13.11-1.4-4.39-3.5-11.1-6-23.8-1-5-1.8-8.89-2.7-14.5-1.4-9-1.7-14.59-1.9-18.59-0.303-4.91-0.405-7.3-2.205-10.71-4.098-7.79-13.899-14.4-23.5-14.79-0.7-3.3-5.598-25-8.399-33.8-3-9.7 0-26.11 11.5-30.91 1.199-0.5 2.399-0.4 3.602 0.3 10.199 5.91 18.398 47.61 19.102 53 0.8 5.61 2 10 4.2 17.3 1 3.5 2.3 7.9 3.8 13.5 2.3 8.61 3.6 12.81 4.7 16.61 0.8 2.89 1.6 5.29 2.6 9.09 4.9 18.2 5.9 41.41 7.7 87.7 0 1.3-0.1 2.1-0.2 2.71zm-10.1-5.3c-0.1 1.09-0.6 4.5-2.9 6.3-0.4 0.29-0.8 0.5-1.2 0.7l-10.304-35.7 12.704-12.71c0.4 2 0.6 4 0.5 6.8-0.2 4.7-0.9 8.11-1.6 11.11-1 4.3-1.8 7.59 0.2 12.3 0.2 0.39 0.4 0.89 0.6 1.39 1.1 2.5 2.6 5.7 2 9.81zm-16.005 3.5c1.101-1.11 2-2.41 2.5-4.11 1.605-5.59-2.5-10.59-4-12.5-4.399-5.3-10.7-7.5-16.2-8.5-4.199-3.8-7.199-8.09-9-12.8-1.699-4.5-2-8.29-1.699-11.9l27.199 11.9 12.105 41.71c-3.3 0.79-7.6-0.21-10.905-3.8zm-5.899 2.39c-3.5 2.2-7.398 3.61-11.5 4.11-5.199 0.59-9.801-0.41-13.301-1.81l10.7-12.6c7 1.3 14.101 2.6 21 4.1-1.399 3.81-5.5 5.7-6.899 6.2zm-29.801-0.2c-0.199-0.1-0.5-0.1-0.699 0-2.5 2.11-7.801 5.7-15.101 6.11-2.098 0.09-8.297 0.09-13.7-3.11l18.5-17.8c3.403 0.5 6.7 1.11 10 1.7 5.102 0.91 10.301 1.8 15.403 2.71l-10.403 12.5c-1.597-0.71-3-1.5-4-2.11zm-33.8-0.5c-1.297-1.5-2.399-3.19-3.2-5.1-0.097-0.09-0.199-0.29-0.3-0.29h-0.2c-0.097 0-0.199 0-0.199 0.09-3.199 1.5-6.801 1.8-10.101 1.11l12-13.7c7.8 1.09 15.703 2.29 23.5 3.59l-18.098 17.41c-1.199-1-2.402-2-3.402-3.11zm-15.2-4.69c-1.597-0.5-3.0972-1.31-4.4995-2.31-4.8008-3.5-7.1992-9.5-6-14.3 7.5 0.91 14.902 1.91 22.402 3zm7.903-25.81c2-0.1 4.097 0.11 6.199 0.4l7.801 12.21c-2.903-0.41-5.801-0.91-8.801-1.3h-0.301c-7.699-1.11-15.398-2.11-23.101-3.11 1.4997-3.5 5.8005-7.59 18.203-8.2zm14.898 3.2c0.199 0.11 0.399 0.11 0.5 0 1.899-1.2 5.899-3.09 11.199-2.7 1.5 0.11 2.903 0.4 4.2 0.9l10.601 15.6c-0.301-0.1-0.601-0.1-0.898-0.19-8.203-1.41-16.602-2.7-24.903-4l-7.8-12.11c2.402 0.61 4.8 1.41 7.101 2.5zm46.199 2c4.7 1.11 9.7 3.3 13.301 7.61 1.399 1.69 5 6.19 3.899 11-1.899-0.41-3.7-0.7-5.598-1.11zm-23.5 0.2c0.102 0.1 0.301 0.21 0.5 0.1 3.801-1 7.801-1.5 11.7-1.39 2.101 0 5.703 0.09 9.703 0.79l11.597 17.5c-4.699-0.9-9.5-1.79-14.199-2.7h-0.101c-4.7-0.89-9.297-1.7-13.899-2.5l-10.301-15.2c2.301 1.11 4 2.5 5 3.4zm8.102-53.2l19.199 1.8 10.199 35.5-26.699-11.69c0.102-1.11 0.301-2.31 0.399-3.41 0.601-4.5 1.203-9.2-0.297-15.09-0.602-3-1.602-5.2-2.801-7.11zm38.603 6.41c2.2 9.79 3.9 15.5 5.1 19.39 0.6 1.81 1 3.31 1.4 4.61l-12.802 12.79-6.903-23.79zm-13.505 11.79l-12.598-43.59 17.398-18c0.403 0.59 0.7 1.19 1.102 1.8 1.598 3.09 1.801 5.5 2 10.2 0.199 4.09 0.5 9.59 1.903 18.69 0.9 5.61 1.7 9.61 2.7 14.5 0.2 1.11 0.5 2.2 0.7 3.2zm-30-23.9c-2.899-2.8-5.598-5.39-7.297-11.19-4.102-14 1-33.7 13.797-38.11 2-0.7 4.101-1 6.203-0.89h0.297c8.101 0.19 16.5 5.19 21.101 11.5l-17.101 17.69-4.598-15.8c-0.102-0.3-0.402-0.5-0.699-0.39-0.301 0.09-0.5 0.39-0.403 0.69l12.403 42.7-19.703-1.8c-1.2-1.59-2.598-3-4-4.4zm55.605-6.39c-1-3.8-1.8-6.3-2.6-9.11-1.1-3.8-2.4-8-4.7-16.6-1.5-5.59-2.8-10-3.8-13.5-2.1-7.2-3.4-11.59-4.1-17.09-0.8-5.7-8.905-47.61-19.702-53.91-1.5-0.9-3.102-1-4.602-0.4-12.699 5.2-15.199 22.4-12.199 32.31 2.598 8.59 7.398 29.39 8.301 33.5-2 0-4.102 0.3-6 1-14.5 4.89-18.301 26.59-14.602 39.39 1.801 6.11 4.699 8.91 7.602 11.7 1.5 1.41 2.898 2.8 4.097 4.6 1.403 1.9 2.5 4.31 3.403 7.61 1.398 5.7 0.797 10.29 0.199 14.7-0.199 1.3-0.301 2.59-0.5 3.89-0.402 3.91-0.301 8.11 1.699 13.11 1.699 4.39 4.399 8.5 8.102 12.09-3-0.4-5.5-0.4-7.203-0.4-3.899 0-7.899 0.4-11.7 1.4-1.398-1.2-3.699-2.9-6.898-4h-0.102c-1.398-0.5-2.8-0.79-4.5-0.9-5.3-0.39-9.5 1.4-11.597 2.7-2.703-1.3-5.5-2.2-8.403-2.7h-0.097c-2.203-0.39-4.403-0.6-6.602-0.5-10.8 0.5-17.3 3.61-19.301 9.31-1.898 5.3 0.8012 12.3 6.1997 16.3 1.6015 1.2 3.3003 2 5.2033 2.5 3.597 1 7.597 0.79 11.199-0.71 0.801 1.8 1.898 3.41 3.098 4.91 1.203 1.39 2.5 2.39 3.902 3.3 0.098 0.09 0.098 0.09 0.199 0.09 5 3.11 10.602 3.61 13.602 3.61h1.297c7.3-0.41 12.703-3.91 15.402-6.11 1.098 0.7 2.5 1.41 4.199 2.11 3.699 1.5 8.699 2.8 14.5 2.09 4.199-0.5 8.301-1.9 11.801-4.2 0.801-0.3 2.699-1.09 4.5-2.7 2.898 3.11 6.403 4.5 9.503 4.5 1.1 0 2.1-0.19 3-0.5 0.8-0.3 1.5-0.6 2.1-1.1 2.7-2 3.2-5.79 3.4-7.09 0.1-0.91 0.1-1.7 0.1-2.5l3.1 6.8 0.1 0.09c0.5 0.61 2.8 3 4.7 3 0.3 0 0.6-0.09 0.8-0.2h0.1c1.3-0.69 1.4-2.8 1.3-4.6-1.6-46.2-2.5-69.4-7.5-87.79" fill="#000"/>
  </g>
  <g id="change3_1"><path d="m156.01 164h-48.7v277.2h24.2l-25.8 23.8 6.2 7.3 27.6-20.3c2-3.59 4-7.2 5.9-10.8h1.1l-1.1 43.3h10.5l10-43.3h315.5l12 51.71h10.5l-1.2-45.5c2.4 4.29 4.8 8.7 7.1 13l27.6 20.29 6.2-7.29-28-25.91c0.1-2.09 0.2-4.09 0.3-6.2h23.1v-277.3h-383" fill="#fff"/></g>
  <g id="change1_2"><path d="m213.61 453.91v-25.71h158.9v43.1h0.1-27.3v25.7h-132m0.1 0h-27.1v-43.09h27.3" fill="#a1b5cc"/></g>
  <g id="change1_3"><path d="m140.71 342.5h124.7v9.3h-124.7zm105.5-100.09h-52.6v-7h52.6zm23.3-11.11h-75.9v-7h75.9zm-60.5 171.7c0 4.2-3.5 7.7-7.7 7.7h-36.5c0-1.4-0.1-2.79-0.4-4.2-0.5-1.8-1-3.5-1.5-5.2-0.4-1.89-0.6-3.8-0.6-5.8v-0.2h39.1c4.1 0 7.6 3.5 7.6 7.7zm61.1 7.8h-46c-3.8 0-6.8-3.1-6.8-6.8v-1.8c0-3.79 3.1-6.79 6.8-6.79h46c3.8 0 6.8 3.09 6.8 6.79v1.8c0.1 3.7-3 6.8-6.8 6.8zm-129.4-100.8h137v22.41h-137zm273.1 48.3l-54.9-39.8-48.4 63.8-18.3-121.5 229.1-34.1 17.6 94.71-63.8-45.61zm115.2-139.8l-243.2 35.61 20.7 141.5 243.2-35.61-20.7-141.5" fill="#a1b5cc"/></g>
  <g id="change1_4"><path d="m519.81 189.3h-17.3c-0.9 0-1.6-0.69-1.6-1.6 0-0.9 0.7-1.59 1.6-1.59h17.3c0.9 0 1.6 0.69 1.6 1.59 0 0.91-0.7 1.6-1.6 1.6zm0 5.61h-17.3c-0.9 0-1.6-0.71-1.6-1.61 0-0.89 0.7-1.6 1.6-1.6h17.3c0.9 0 1.6 0.71 1.6 1.6 0 0.9-0.7 1.61-1.6 1.61zm0 5.5h-17.3c-0.9 0-1.6-0.71-1.6-1.61 0-0.89 0.7-1.6 1.6-1.6h17.3c0.9 0 1.6 0.71 1.6 1.6 0 0.9-0.7 1.61-1.6 1.61zm-29-5.41c0 3.3-2.7 6-6 6h-319.7c-3.3 0-6-2.7-6-6v-5.59c0-3.3 2.7-6 6-6h319.8c3.3 0 6 2.7 6 6zm-383.5-16v27.61h431.7v-27.61h-431.7" fill="#a1b5cc"/></g>
  <g id="change1_5"><path d="m171.91 364.61l34.2 5.09v-4.2l-24.8-8.89-20.4-19.2-26.9-4.21c-2.4 0-9.8-0.4-16.7-5.9-8.9-7.19-9.8-17.5-9.9-19.19h-3.3c-0.5 3.69-1 11.39 2.4 20.09 2.7 7 6.8 11.6 9.4 14.1zm305.7 8.39l-34.2 5.11v-4.2l24.8-8.91 20.4-19.2 26.9-4.19c2.4 0 9.8-0.41 16.7-5.91 8.9-7.2 9.8-17.5 9.9-19.2h3.5c0.5 3.7 1 11.41-2.4 20.11-2.7 7-6.8 11.59-9.4 14.09l-56.2 22.3" fill="#a1b5cc"/></g>
  <g id="change3_2"><path d="m205.41 369.41c1.7 0.39 4.2 0.89 7.2 1.09 4 0.3 8.6 0.11 8.7-0.39 0-0.31-1.8-0.91-10.6-2 1.9-1.31 2.8-2.31 2.6-2.81-0.3-0.8-2.9-0.8-7.9 0v4.11zm-98.6-61.61c1.2-5.89 1.6-9 0.9-9.19-0.3-0.11-0.8 0.39-1.5 1.59 0-4.79-0.3-5.9-0.7-6-0.6-0.09-1.5 2.91-1.9 4.91-0.8 3.59-0.6 6.59-0.3 8.69zm45 8.81c0 2.89 4 4.8 7.9 6.89 1.7-4.8-1.1-13.3-1.1-13.3-3.3 1.41-6.8 3.71-6.8 6.41zm292.3 57c-4.9-0.81-7.6-0.81-7.9 0-0.2 0.59 0.7 1.5 2.6 2.8-8.7 1.09-10.6 1.7-10.6 2 0 0.5 4.7 0.7 8.7 0.39 3-0.19 5.5-0.69 7.2-1.1v-4.09zm102.1-57.41c0.3-2.09 0.4-5.09-0.3-8.7-0.4-2-1.3-5-1.9-4.89-0.3 0-0.7 1.09-0.7 6-0.7-1.2-1.2-1.7-1.5-1.61-0.6 0.2-0.3 3.3 0.9 9.2zm-291.9-211.29c2.3-3.41 3.3-5.305 2.9-5.605-0.2-0.2-0.8 0.101-1.7 0.805 0.8-3.805 0.8-5.805 0.3-6.005-0.8-0.3-2.7 2.5-5.7 8.305zm16.7-18.105c6.5-2.102 9.6-3.801 9.5-4.899-0.1-0.703-1.4-1.101-4-1.402 5.3-2.801 6.3-3.801 6.2-4.199-0.3-0.602-4.6 0.101-8.2 2.101-2.7 1.5-4.6 3.399-5.7 4.797zm-6 67.605l19.4 9.09c2.4-1.39 4.7-2.8 7.1-4.3-2.6-2.59-6.5-6.29-11.6-10.4-8-6.3-12-9.5-17.1-10.6-10.6-2.2-20.6 5.5-24.4 8.8l-34.3 19.3 30.5 30.61 31.5 23.09 4.9-5.89-19.5-25.61-17.5-28 3.8 6.11c8.9-4 18.3-8.2 27.2-12.2zm225.9 164.09s-2.8 8.61-1.1 13.3c3.9-2.1 7.9-4 7.9-6.89 0-2.61-3.5-4.91-6.8-6.41zm-288.1-241.7c-1.3 2-2.8 3.3-3.9 4.199-1.9-0.301-3.7 0.699-4.3 2.301-0.7 1.898 0.3 4.3 2.5 5.101 0 0.5 0.2 2.399-1.2 4.098-1 1.199-2.2 1.699-2.7 1.902 0.5 1.797 1.1 3.598 1.6 5.399 1 0.305 3.2 0.895 6 0.305 2.2-0.505 3.8-1.505 4.6-2.204v-6.203c1-0.598 2.4-1.699 3.5-3.5 2.6-4.199 1.4-9.098 0.5-12.699-0.5-2.199-1.6-5.5-4.1-9.199 0.2 1.601 0.3 6.101-2.5 10.5zm299.9 364.5h0.9l-0.8 6.2z" fill="#fff"/></g>
  <g clip-path="url(#clip2)" id="change2_1">
   <path d="m264.81 222.91h-74.7v5.89h74.7zm1.1 7h-77v-8.21h77zm283.2 129.59l-3.8-25.7c-0.3 1-0.6 2-1 3-2.1 5.31-5.4 10.31-9.5 14.31 0.6 0.5 1.1 1.09 1.6 1.8 1.6 2.2 2.6 5.09 2.8 8.09zm-10.7 6.8c-3.7 10-19.4 10.81-19.9 18.7-0.5 6.7 10 9.3 9.2 15.7-0.4 3-3.1 5.91-6.6 8 0 0.1 0.1 0.1 0.1 0.21 0.1 1.59 0.1 3.2-0.2 4.7-0.5 3.39-1.7 6.69-3.7 9.69l-0.8 17.4h21.9zm-23.1 81.61c-0.1-0.11-0.2-0.3-0.2-0.41l1.2-24.3c0-0.09 0-0.2 0.1-0.29 1.9-2.91 3.2-6 3.6-9.3 0.2-1.41 0.2-2.81 0.2-4.2-3.8 2-8.4 2.89-12 1.89 0.5 1.5 0.9 3.61 0.4 6.2-0.5 2.5-1.7 4.3-2.7 5.41l-2.7 17.59 0.2 6.91 7 12.79 27.1 19.91 5.5-6.5zm-21.3 44.5h9.4l-1.3-52.11 2.7-17.8c0-0.09 0.1-0.2 0.1-0.3 0.9-1 2-2.7 2.5-5 0.5-2.5 0-4.59-0.5-5.9-0.1-0.1 0-0.3 0-0.39-0.2-0.11-0.4-0.21-0.6-0.3-5.1-2.7-2.8-8.61-8.4-16.31-2.1-2.89-4.5-4.89-6.9-6.39l-9.5 50.89zm-49.3-115l33.6-5c0.2 0 0.4 0 0.5 0.2 6-5.81 18.7-11.41 17.9-18.81-0.4-3.5-3.6-5.69-6.8-7.8 0 0 0 0.11-0.1 0.11l-20.4 19.19c-0.1 0.11-0.1 0.11-0.2 0.11l-24.4 8.79v3.21zm-1.2 0.2v-3.31c-6-1-6.7-0.3-6.8-0.3 0 0 0.1 0.61 2.4 2.2 0.2 0.1 0.3 0.41 0.2 0.6-0.1 0.2-0.2 0.4-0.5 0.4-4.7 0.6-7.3 1.1-8.7 1.3 1.6 0.11 4.1 0.11 6.7 0 2.3 0 4.6-0.39 6.7-0.89zm47.8-58.31c-0.6 1.9-2.1 7.9-1.1 11.7l0.3-0.09c3.5-1.8 6.8-3.61 6.8-5.91-0.1-1.8-2.2-3.8-6-5.7zm-184.3 75.61l121.1-17.71c0.3 0 0.6 0.21 0.6 0.5v0.21c1.1-0.41 3.5-0.8 8.7-1.5-1.4-1.11-1.9-1.91-1.6-2.71 0.3-0.9 1.6-1.5 8.3-0.4l24.5-8.89 20.2-19c-3.2-2-6-4-5.8-6.8 0.2-2.7 3.2-4.7 6.5-6.41-0.1-0.09-0.2-0.09-0.2-0.29-1.7-4.91 0.9-13.21 1.1-13.71-0.2-0.09-0.4-0.2-0.6-0.29 0.5-2.3 1.1-4.71 1.6-7 13.9-1.5 19.8 1.59 22.5 5.09 5.4 7.11-1.1 17.41 2 24.91h0.2c3.5 0 10.2-0.8 16.3-5.8 8.2-6.61 9.5-15.91 9.7-18.81-1.6-7.6-1.4-9.19-0.8-9.69l-7.9-53.91-25.8-30.7-206 30.11-9.6 36.19c-0.1 0.31-0.3 0.4-0.5 0.4h-0.1zm-15.8-107.61l9.2-34.8-14 2zm10.8-36.1l204.9-30-1.1-1.29-77.5-55.3h-25.5l-100.2 84.3zm102.1-87.7h22.5l-9.3-6.59c-1.4-0.11-2.6-0.61-3.8-1.3zm124.5 55.7l-19.5 2.91 24.2 28.8zm-98.4-54.59l76.3 54.39 0.1 0.11 1.6 1.89 20.8-3c0.1 0 0.3 0 0.4 0.11 0.1 0.09 0.2 0.19 0.2 0.39l5 34 2.9 3.5c0.2 0.2 0.2 0.61-0.1 0.8-0.2 0.2-0.6 0.2-0.8-0.1l-1.7-2.09 3.6 24.5v-114.5zm111.8 143.39c0 0.7 0.1 2.7 1.1 7.8h2.5c0.3-2.69 0.2-5.39-0.4-8-0.4-1.69-0.9-3.19-1.2-4-0.1 0.61-0.3 2-0.2 5 0 0.31-0.2 0.5-0.4 0.5-0.2 0.11-0.5 0-0.6-0.3-0.3-0.39-0.6-0.8-0.8-1zm-8 42.3c4-3.89 7.2-8.69 9.2-13.89 0.7-1.91 1.3-3.71 1.7-5.5v-0.11c1.3-5.39 1.2-10.3 0.8-13.8h-2.4c-0.3 3.41-1.9 12.61-10.1 19.11-6.2 5-13 5.89-16.7 6 0.3 0.59 0.7 1.19 1.2 1.69 4.5 5 11.2 2.9 16.3 6.5-0.1 0 0 0 0 0zm-166.5 83.9h-157.8v15.8h132.1c0.3 0 0.6 0.3 0.6 0.61v25.59h25.1zm-26.2 17h-157.8v42h157.8zm-173.3-20.79l-9.5-50.91c-2.4 1.5-4.8 3.5-6.9 6.41-5.6 7.7-3.3 13.5-8.4 16.29-0.2 0.1-0.4 0.21-0.6 0.3 0 0.11 0.1 0.3 0 0.41-0.5 1.29-1 3.39-0.5 5.89 0.5 2.4 1.6 4 2.5 5 0.1 0.11 0.1 0.2 0.1 0.31l2.7 17.8-0.2 7.29v0.1l-1.1 44.7h9.4zm-21.9 8.5l0.2-7-2.7-17.5c-1-1.11-2.2-2.91-2.7-5.41s-0.1-4.7 0.4-6.2c-3.6 1-8.2 0.11-12-1.89-0.1 1.39 0 2.79 0.2 4.2 0.5 3.3 1.7 6.39 3.6 9.3 0.1 0.09 0.1 0.2 0.1 0.29l1.2 24.3c0 0.2-0.1 0.3-0.2 0.41l-27.8 25.59 5.5 6.5 27.1-19.89zm-14.8 1.79l2-1.9-1.1-23.89c-2-3-3.2-6.21-3.7-9.71-0.2-1.5-0.3-3.09-0.2-4.7 0-0.09 0-0.2 0.1-0.2-3.5-2.1-6.2-5-6.6-8-0.8-6.39 9.7-9 9.2-15.69-0.6-8.2-17.5-8.81-20.3-20.11-1-4.2 0.1-8.89 2.4-12.09 0.5-0.71 1.1-1.3 1.6-1.8-2.6-2.61-4.9-5.61-6.8-8.81v106.81h23.4zm-25-112.7c2 5.2 5.2 10 9.2 13.91v0.09c5.1-3.59 11.8-1.59 16.2-6.5 0.5-0.5 0.9-1.09 1.2-1.7-3.7-0.1-10.5-1-16.7-6-8.1-6.5-9.7-15.69-10.1-19.1h-2.4c-0.4 4.6-0.4 11.6 2.6 19.3zm-2.5-20.5h2.5c1.1-5.2 1.2-7.09 1.1-7.8-0.2 0.21-0.4 0.5-0.7 1.1-0.1 0.2-0.4 0.31-0.6 0.31-0.2-0.11-0.4-0.31-0.4-0.5 0-2.91-0.1-4.31-0.2-5-0.4 0.8-0.9 2.3-1.2 4-0.6 2.5-0.8 5.19-0.5 7.89zm3-9.09v0.29l0.1-0.09c-0.1 0-0.1-0.11-0.1-0.2zm51.4 12.5c-3.9 1.89-5.9 3.89-5.9 5.7 0 2.3 3.3 4.09 6.8 5.89l0.3 0.11c0.9-3.81-0.6-9.81-1.2-11.7zm1.6 26.79c-3.2 2.1-6.4 4.3-6.8 7.8-0.8 7.3 11.9 12.91 17.9 18.8 0.1-0.1 0.3-0.19 0.5-0.19l33.6 5v-3.11l-24.4-8.8c-0.1 0-0.1-0.09-0.2-0.09l-20.4-19.2c-0.2-0.11-0.2-0.21-0.2-0.21zm46.2 28.3v3.3c2.2 0.5 4.4 0.81 6.7 1 2.6 0.2 5.1 0.2 6.7 0-1.4-0.3-3.9-0.69-8.7-1.3-0.2 0-0.4-0.2-0.5-0.39-0.1-0.2 0-0.5 0.2-0.61 2.3-1.59 2.4-2.2 2.4-2.2-0.1-0.19-0.8-0.8-6.8 0.2zm-42.3 35.41l2.7 14.29h29c3.9 0 7.2-3.2 7.2-7.2s-3.2-7.2-7.2-7.2h-31.7zm121.1-237.91zm-39.8 0h39.1l-19.1-9zm173.6-150.8c0-6.3983-5.2-11.598-11.6-11.598-2.3 0.0005-4.6 0.6997-6.5 2.0005-3.2 2.1992-5.1 5.6992-5.1 9.5975 0 6.402 5.2 11.602 11.6 11.602s11.6-5.2 11.6-11.602zm131.7 347.21c0 0.29-0.2 0.59-0.5 0.59l-10.2 1.5v79.2c0 0.3-0.3 0.6-0.6 0.6h-22.5l-0.3 5.4 28 25.8c0.2 0.2 0.2 0.61 0 0.8l-0.1 0.11 3.7 4.39c-7.5 12-11.9 17.7-13.3 17.11-1.1-0.5-0.2-5.21 2.8-14.11-0.1 0-0.1 0-0.2-0.1l-27.6-20.29c-0.1 0-0.1-0.11-0.2-0.21l-6-11 1.1 43.21c0 0.2-0.1 0.29-0.2 0.39-0.1 0.11-0.3 0.2-0.4 0.2h-0.1l-1.1 5.41c-16.5 1.29-24.9 1.29-25.1 0-0.2-1.11 4.9-3 15.3-5.8l-11.7-51.31h-112.4v34.9c0 0.3-0.3 0.6-0.6 0.6h-25.7v16.4c0 0.3-0.3 0.6-0.6 0.6h-158.9c-0.3 0-0.6-0.3-0.6-0.6v-43.09c0-0.31 0.3-0.61 0.6-0.61h25.7v-8.2h-42.1l-9.9 42.9c10.3 2.8 15.4 4.71 15.3 5.8-0.2 1.3-8.6 1.3-25.1 0l-1.1-5.39h-0.1c-0.2 0-0.3-0.11-0.4-0.2-0.1-0.11-0.2-0.3-0.2-0.41l1.1-43.2-6 11c0 0.11-0.1 0.11-0.2 0.2l-27.6 20.3s-0.1 0-0.2 0.11c3 8.89 3.9 13.59 2.8 14.09-1.3 0.7-5.8-5-13.3-17.09l3.7-4.41-0.1-0.09c-0.2-0.21-0.2-0.61 0-0.8l24.7-22.81h-22.7c-0.3 0-0.6-0.3-0.6-0.6v-107.59c0-0.31 0.3-0.61 0.6-0.61h0.1c-0.8-1.5-1.6-3.09-2.2-4.7-3.2-8.1-3.1-15.5-2.5-20.3-0.4-3-0.3-5.89 0.4-8.8 1.2-5.5 2.2-5.4 2.5-5.29 0.6 0.09 1 0.5 1.1 4.29v-134.2c0-0.3 0.3-0.59 0.6-0.59h93.2c0.3 0 0.6 0.29 0.6 0.59s-0.3 0.61-0.6 0.61h-92.6v133.69c0.8 0.31 1.2 1.2-0.6 9.81 0.2 2.8 1.5 12.19 9.7 18.8 6.1 4.89 12.8 5.7 16.3 5.79h0.2c3.1-7.5-3.3-17.79 2-24.9 2.7-3.5 8.6-6.69 22.5-5.1 0.5 2.3 1.1 4.71 1.6 7-0.2 0.1-0.4 0.21-0.6 0.3 0.2 0.5 2.8 8.8 1.1 13.7 0 0.1-0.1 0.21-0.2 0.3 3.2 1.7 6.2 3.7 6.5 6.41 0.2 2.79-2.6 4.7-5.8 6.79l20.2 19 24.5 8.91c6.8-1.11 8-0.5 8.3 0.39 0.3 0.7-0.2 1.5-1.6 2.7 9.8 1.3 9.7 1.8 9.7 2.41 0 0.59-0.6 0.89-3.4 1h-2.1c-1.3 0-2.6 0-3.8-0.11-2.4-0.2-4.9-0.5-7.3-1.09l-33.5-5c1.5 1.7 2.3 3.39 2 5.09-0.7 4.41-7.5 4.61-14.3 8.5 0 0.11 0.1 0.11 0.1 0.2l4 21.21h31.9c4.6 0 8.3 3.7 8.3 8.29 0 4.6-3.7 8.3-8.3 8.3h-28.8l2.5 13.41v0.2l-2.4 10.19h41.8v-7c0-0.3 0.3-0.6 0.6-0.6h159.2c0.3 0 0.6 0.3 0.6 0.6v7h112.2l-0.4-1.8v-0.2l9.6-51.19c0-0.11 0-0.11 0.1-0.2-6.8-3.91-13.6-4.11-14.3-8.5-0.3-1.8 0.5-3.5 2-5.11l-33.5 5c-2.4 0.61-4.8 0.9-7.3 1.11-1 0.09-2.5 0.09-3.9 0.09-2.3 0-4.6-0.09-5.1-0.59-0.1-0.11-0.2-0.3-0.2-0.5 0-0.11 0-0.3 0.1-0.41l-121.2 17.7h-0.1c-0.1 0-0.2 0-0.3-0.09-0.1-0.11-0.2-0.2-0.2-0.41l-20.1-135.9h-142.7c-0.3 0-0.6-0.3-0.6-0.6 0-0.29 0.3-0.59 0.6-0.59h142.5l-0.7-4.5c0-0.31 0.2-0.61 0.5-0.61l15.1-2.2 0.8-2.89c0-0.11 0.1-0.21 0.2-0.3l99.3-83.5h-92c-0.1 0-0.2 0-0.2-0.11-1.3 1.11-8.7 1.5-22.1 1.2l-1.1-1.29c-0.1 0.09-0.2 0.09-0.3 0.09h-42.8l-3.8 1.7 13.3 21.41 19.5 25.59v0.1c7.7-4.19 12-5.8 12.7-4.8 0.9 1.2-3.5 6.5-13.2 15.61l-4.5-4.31c-0.1 0.11-0.3 0.2-0.4 0.2s-0.2 0-0.3-0.09l-31.5-23.21-30.6-30.59c-0.2-0.2-0.2-0.61 0-0.81 0.2-0.19 0.6-0.19 0.8 0l30.5 30.61 31 22.79 4.3-5.09-19.3-25.31-17.5-28.1c-0.2-0.29-0.1-0.59 0.2-0.79 0.3-0.21 0.6-0.11 0.8 0.2l3.6 5.69s0.1-0.1 0.2-0.1l3.9-1.7 22.7-10.2c0.2-0.1 0.3-0.1 0.5 0l19.2 9 6.2-3.69c-3.5-3.5-7.2-6.81-11-9.81-7.9-6.3-11.9-9.39-16.8-10.5-9.8-2.1-19.2 4.61-23.9 8.7-0.2 0.2-0.6 0.2-0.8-0.09-0.2-0.21-0.2-0.61 0.1-0.8 4.9-4.31 14.7-11.11 24.9-9 5.2 1.09 9.2 4.3 17.3 10.69 4.1 3.2 8 6.7 11.6 10.4 0.1 0.1 0.2 0.3 0.2 0.5 9.6 2 15.1 3.6 16.6 4.8 0.1-0.09 0.2-0.2 0.4-0.2h93.4l10.3-8.69c-0.5-0.41-1-0.91-1.4-1.41-1.7-2.2-2.2-5.2-1.3-7.79 0.7-2 2.1-3.41 3.4-4.5 0.6-0.61 1.2-1.11 1.7-1.71 1.3-1.7 2.1-3.9 2.3-6.29v-0.11c-4.4-0.8-7.7-4.6-7.7-9.19 0-5 4-9.11 8.9-9.31v-96.394c-2 4.399-6.4 7.5-11.6 7.5-7 0-12.7-5.703-12.7-12.703 0-2.5 0.7-4.7968 2-6.7968l-114.2 71.5c-0.7 0.598-2 1.399-4.4 2.699 1.8 0.399 2.6 0.899 2.8 1.7 0.2 1.101-0.9 2.5-9.7 5.5l-13.4 12.199c0 0.696-0.7 2.106-3.1 5.696-0.1 0.21-0.3 0.21-0.5 0.21-0.1 0-0.2 0-0.3-0.11-0.3-0.19-0.3-0.5-0.1-0.8 1.7-2.5 2.4-3.8 2.7-4.5-0.2 0.11-0.4 0.3-0.7 0.5-0.2 0.11-0.4 0.2-0.6 0-0.2-0.09-0.3-0.39-0.3-0.594 0.7-3.703 0.7-4.902 0.6-5.301-0.4 0.301-1.7 1.7-5 7.895-0.1 0.3-0.5 0.41-0.8 0.2-0.3-0.09-0.4-0.5-0.2-0.79 4.5-8.504 5.6-8.906 6.4-8.605 0.7 0.3 1.1 1.3 0.3 5.3 0.3-0.101 0.5-0.199 0.8-0.199l13.5-12.301s0.1 0 0.1-0.101c0 0 0.1 0 0.1-0.098 9-3 9.1-4.203 9.1-4.301 0 0-0.2-0.601-3.5-1-0.2 0-0.4-0.199-0.5-0.5 0-0.199 0.1-0.5 0.3-0.601 0.5-0.301 1-0.5 1.5-0.801l4-2.5c-1.3 0.102-4.2 0.801-7 2.301-2.1 1.199-3.9 2.699-5.5 4.699-0.2 0.203-0.6 0.301-0.8 0.102-0.2-0.2-0.3-0.602-0.1-0.801 1.7-2.098 3.6-3.699 5.9-4.899 3.3-1.8 7.3-2.699 8.5-2.3 0.1 0.101 0.2 0.101 0.3 0.199l114.7-71.801c0.1-0.0975 0.3-0.0975 0.5-0.0975 0.5-0.5 1.1-1 1.7-1.4024 2.1-1.3984 4.6-2.1992 7.1-2.1992 5.7 0.0000062 10.6 3.8008 12.1 9 0.3 0 0.6 0.3008 0.6 0.6016v104.89c4.8 0.41 8.7 4.41 8.7 9.3 0 4.61-3.3 8.4-7.7 9.2v0.3c-0.2 3.11-1.3 6.11-3 8.2-0.6 0.8-1.4 1.5-2.1 2.11-1.1 1-2.1 1.89-2.5 3.19-0.5 1.5-0.2 3.31 0.8 4.61 1.3 1.7 3.4 2.5 5.5 2 2.2-0.5 3.8-2.21 4.3-4.41 0.2-0.89 1.1-1.5 2-1.3 0.9 0.21 1.5 1.1 1.3 2-0.8 3.5-3.4 6.21-6.9 6.91-0.3 0.09-0.6 0.09-0.9 0.19l9.3 6.61h110.4c0.3 0 0.6 0.29 0.6 0.59v118.41c0 0.29-0.2 0.59-0.6 0.59l3.5 24c0.1 0.11 0.1 0.11 0.2 0.2 0.1-4.29 0.5-4.7 1.2-4.79 0.9-0.11 1.7 1.7 2.5 5.29 0.6 2.91 0.7 5.8 0.4 8.8 0.5 3.7 0.6 8.8-0.7 14.61zm-379.5-169c0-1.61-1.3-3-3-3-1.6 0-3 1.29-3 3 0 1.59 1.3 3 3 3s3-1.3 3-3zm1.1 0c0 0.79-0.2 1.5-0.6 2.09l3.4 2.8c0.2 0.2 0.3 0.61 0.1 0.81-0.1 0.09-0.3 0.19-0.4 0.19s-0.3 0-0.4-0.1l-3.4-2.79c-0.7 0.7-1.7 1.09-2.8 1.09-2.3 0-4.1-1.8-4.1-4.09 0-2.3 1.8-4.11 4.1-4.11s4.1 1.9 4.1 4.11zm18.1 48.89h51.4v-5.89h-51.4zm-1.1-7h53.7v8.2h-53.7zm20-157.3c-0.6-2.5-1.6-5-2.9-7.301-0.1 2.402-0.7 5.703-2.7 8.801-1.1 1.699-2.4 3.101-4.1 4.301-0.1 0.101-0.3 0.101-0.4 0.101-1.6-0.301-3.2 0.598-3.7 2-0.3 0.797-0.3 1.699 0.1 2.5 0.4 0.899 1.2 1.598 2.1 1.899 0.2 0.101 0.4 0.3 0.4 0.5 0.1 0.8 0.1 2.699-1.3 4.5-0.8 1-1.7 1.601-2.5 1.898l1.4 4.602c1.3 0.398 3.2 0.695 5.4 0.199 1.5-0.301 2.9-1 4.2-1.899v-6c0-0.199 0.1-0.402 0.3-0.5 1.4-0.902 2.5-2 3.3-3.3 2.4-4 1.2-8.801 0.4-12.301zm-28.1 7.402c-0.9-8 5.1-13.301 5.7-13.801 0.7-5.601 5-9.8 10.2-10.3 4.3-0.399 8.5 1.898 10.7 5.898 0.4 2.102 0.7 4.102 1.1 6.203 0.6 1.5 1.1 2.899 1.5 4.5 0.9 3.699 2.1 8.699-0.6 13.199-0.9 1.399-2 2.598-3.4 3.5v5.899c0 0.199-0.1 0.301-0.2 0.402-1.4 1.098-3.1 1.894-4.8 2.294-0.9 0.21-1.8 0.3-2.6 0.3-1.5 0-2.8-0.3-3.7-0.59-0.2-0.11-0.3-0.21-0.4-0.41l-1-3.395c-6.8-1.8-11.7-7.3-12.5-13.699zm82.6 318.5h-44.3c-3.9 0-7.2 3.2-7.2 7.2s3.2 7.19 7.2 7.19h44.3c3.9 0 7.2-3.19 7.2-7.19s-3.2-7.2-7.2-7.2zm-44.3-1.11h44.3c4.6 0 8.3 3.7 8.3 8.31 0 4.59-3.7 8.3-8.3 8.3h-44.3c-4.6 0-8.3-3.71-8.3-8.3 0-4.61 3.7-8.31 8.3-8.31zm104.1 76.4h-95.1v2h95.2v-2zm-10.8-5.79h-84.3v2.79h84.3zm10.8-5.21h-95.1v2.41h95.1zm-117.9 7.21l-9.8 11.09c0.8 0.41 1.6 0.61 2.5 0.61h14.1c1.2 0 2.2-0.41 3.1-1zm-10.9-11.91c-1.1 1-1.9 2.5-1.9 4.11v14.09c0 1.8 0.9 3.41 2.3 4.41l10-11.31zm21.4 22.11c1.1-1 1.7-2.41 1.7-4v-14.11c0-1.59-0.7-3.09-1.8-4.09l-9.9 11.2zm-20.8-22.61c0.9-0.5 1.9-0.89 2.9-0.89h14.1c1.1 0 2.1 0.3 3 0.89l-9.8 11.11-10.2-11.11" fill="#000"/>
  </g>
  <g id="change1_6"><path d="m200.81 100.11c-2.7 0.59-4.9 0.09-6-0.305-2.9 4.395-6.1 10.695-7.5 18.695-4.4 24.5 11.7 43.8 14.5 47.2 3.6 0.3 11.5 0.5 20-3.7 10.7-5.2 15.8-13.8 17.5-16.89l-17.1-20.7c2.4 0.79 8.8 2.59 16 0 12.8-4.61 16-18.61 16.2-19.5l-4.3-2.41c-1.2 1.61-5.1 6.7-12.2 8.5-4.2 1.11-7.7 0.61-9.8 0.2 5.1-3.59 10.7-7.29 16.9-11 9.2-5.395 17.9-9.794 26-13.395l-2.2-3.5-63.4 14.601c-0.9 0.598-2.4 1.699-4.6 2.204zm26.9 188.59l-10.7 12.1c0.8 0.4 1.7 0.7 2.7 0.7h15.3c1.3 0 2.4-0.39 3.4-1.09zm-11.9-12.9c-1.3 1.11-2.1 2.7-2.1 4.5v15.31c0 2 1 3.69 2.5 4.8l10.8-12.3zm23.3 24.11c1.2-1.11 1.9-2.61 1.9-4.3v-15.31c0-1.8-0.8-3.3-2-4.39l-10.7 12.2zm-11.4-12.5l10.7-12.11c-0.9-0.6-2.1-1-3.3-1h-15.3c-1.2 0-2.3 0.4-3.2 1zm-36.6 1.5l-10.6 12.09c0.8 0.41 1.7 0.7 2.7 0.7h15.3c1.3 0 2.4-0.4 3.4-1.09zm-11.8-12.91c-1.3 1.11-2.1 2.7-2.1 4.5v15.3c0 2 1 3.7 2.5 4.81l10.8-12.31zm23.3 24.11c1.2-1.11 1.9-2.61 1.9-4.31v-15.3c0-1.8-0.8-3.3-2-4.39l-10.7 12.19zm-11.5-12.5l10.7-12.11c-0.9-0.59-2.1-1-3.3-1h-15.3c-1.2 0-2.3 0.41-3.2 1zm-36.6 1.09l-10.7 12.1c0.8 0.4 1.7 0.7 2.7 0.7h15.3c1.3 0 2.4-0.39 3.4-1.09zm-11.8-12.9c-1.3 1.11-2.1 2.7-2.1 4.5v15.31c0 2 1 3.69 2.5 4.8l10.8-12.3zm23.3 24.2c1.2-1.09 1.9-2.59 1.9-4.3v-15.29c0-1.8-0.8-3.3-2-4.41l-10.8 12.11zm-11.5-12.5l10.7-12.09c-0.9-0.61-2.1-1-3.3-1h-15.3c-1.2 0-2.3 0.39-3.2 1zm5.8-72.2c-9.4 0-16.9 7.61-16.9 16.9 0 9.3 7.6 16.91 16.9 16.91s16.9-7.61 16.9-16.91c0-9.29-7.5-16.9-16.9-16.9zm261.2 63.61c0 10.89-8.8 19.7-19.7 19.7s-19.7-8.81-19.7-19.7c0-10.91 8.8-19.71 19.7-19.71s19.7 8.8 19.7 19.71" fill="#a1b5cc"/></g>
 </g>
</svg>
