<?xml version="1.0" encoding="UTF-8"?><svg xmlns="http://www.w3.org/2000/svg" xmlns:xlink="http://www.w3.org/1999/xlink" height="500.0" preserveAspectRatio="xMidYMid meet" version="1.1" viewBox="0.0 -0.0 797.3 500.0" width="797.3" zoomAndPan="magnify">
 <defs>
  <clipPath id="clip1">
   <path d="m0 29h788.31v471h-788.31z"/>
  </clipPath>
 </defs>
 <g id="surface1">
  <g id="change1_1"><path d="m169.2 27.398c93.9-22 176.3 19.102 202.3 32.5 103.6 53.502 95.6 112.8 171.6 130 83.9 19.1 131.6-44.7 178.8-12.6 45.6 31.1 37.3 116.8 34.2 149.9-8.3 86.3-52.9 146.3-74.7 172.1h-495.7-56c-47.302-34.5-97.7-82.7-92.399-134.2 4.398-42.5 42.699-48.2 56-99.3 19.899-76.6-52-122.8-27.102-178.8 17.699-39.602 69.801-51.801 103-59.602" fill="#fff"/></g>
  <g id="change2_2"><path d="m634.5 484.9h7.4l11.7-81.8c0.1-0.4 0.4-0.7 0.8-0.7l3.7 0.2c0.4 0 0.7 0.4 0.7 0.8v35l5.3 45.7 7.5 0.8 2-53.2 2.2-55.2c-6.2 1.5-12.5 2-18.9 1.5-6.1-0.5-12.1-1.9-17.7-4.3l-5.7 58.8zm37.9 1.5l-9.1-0.9c-0.4 0-0.7-0.3-0.7-0.7l-5.4-46.4v-34.3l-2.2-0.1-11.7 81.8c-0.1 0.4-0.4 0.7-0.8 0.7h-8.8c-0.4 0-0.8-0.3-0.8-0.8l-0.9-53.3 5.8-60c0-0.2 0.2-0.5 0.4-0.6s0.5-0.1 0.7 0c5.8 2.5 11.9 4.1 18.2 4.6 6.5 0.5 13 0 19.4-1.7 0.2-0.1 0.5 0 0.7 0.1 0.2 0.2 0.3 0.4 0.3 0.6l-2.2 56.2-2.1 54.1c0 0.2-0.1 0.4-0.3 0.6-0.1 0.1-0.3 0.1-0.5 0.1" fill="#0f0e0c"/></g>
  <g id="change3_1"><path d="m299.2 339.8l8.9-9.9-8.4-18.7-9.4 8.8 3 11.3 2.8-4.6 0.1 7.8 0.4 6.9zm179.5-172.2c-12.2 0-22.2 9.9-22.2 22.2 0 12.2 9.9 22.2 22.2 22.2 12.2 0 22.2-9.9 22.2-22.2 0-12.2-9.9-22.2-22.2-22.2zm38.2 22.2c0-21.1-17.1-38.2-38.2-38.2s-38.2 17.1-38.2 38.2 17.1 38.2 38.2 38.2 38.2-17.1 38.2-38.2zm16.5 0c0 30.2-24.5 54.7-54.7 54.7s-54.7-24.5-54.7-54.7 24.5-54.7 54.7-54.7 54.7 24.5 54.7 54.7zm20 0c0-41.2-33.4-74.7-74.7-74.7s-74.7 33.4-74.7 74.7 33.4 74.7 74.7 74.7 74.7-33.5 74.7-74.7zm51.8 55.3l-19.5 29.2-24.3-15.8c-4.2 5.2-9 10-14.1 14.3h0.1l14 28.6-29.7 17.4-14.6-27.9 0.1-0.1c-7 2.7-14.4 4.8-22.1 6h0.1v29.3h-32.5v-29h0.1c-8-1.1-15.7-3.1-23-5.9l0.1 0.1-14.9 27.6-28.6-18 14.3-26.4 0.1 0.1c-5.3-4.2-10.1-8.9-14.5-14l0.1 0.1-25.9 13.9-17.9-29.2 25-16 0.1 0.1c-2.5-6.6-4.5-13.5-5.7-20.6v0.1h-30.6v-36.5h30.6v0.1c1.2-7.3 3.2-14.4 5.9-21.2l-0.1 0.2-25.2-13.9 17.9-30.5 23.7 16.2-0.1 0.1c4.8-6 10.3-11.5 16.3-16.4h-0.1l-13.9-23.998 30.3-19 13.3 25.699-0.1 0.097c7.3-2.796 15-4.796 23-5.898h-0.1v-30.301h32.5v30.199h-1.8c8.3 1.204 16.3 3.301 23.8 6.301l-0.2-0.097 14.1-26.204 30.3 19-15.5 24.002h-0.1c5.7 4.6 11 9.9 15.6 15.6v-0.1l6.2-3.6-0.2-1.7s22.1-68.498 74.9-86.498c0 0 9.7 60.199-22.4 101.8 0 0 70-5.6 91.3 9.7 0 0-25.5 33.3-85.7 45.3l-9.6-0.9v22.2h-31.7c-0.8 4.6-2 9.5-3.7 14.8-0.6 2-1.3 3.9-2 5.8l0.1-0.1zm-279.8-122.7c2.1-4 3.8-8.3 4.9-12.8h31.1v-32.401h-31.7c-1.2-4-2.8-7.898-4.7-11.5l20.5-24.097-21.8-23.5-22.4 23.5c-3.7-2.102-7.7-3.801-11.8-5.102v-30.699l-32.5-0.0002v29.801c-4.5 1.097-8.8 2.699-12.9 4.796l-21.4-22.296-24.7 24.097 22 20.403c-2.8 4.5-5 9.398-6.5 14.597h-31.4v1.801c2.7 0.699 4.4 2.199 5.2 3.102 2.9-1.403 5.4-2.301 7.3-2.801 0.5 0.597 1.8 2.199 4.2 2.898 1.6 0.403 3 0.301 3.7 0.102 2.1 0.699 5.1 2 8.2 4.301 3.7 2.898 5.3 5.796 6.9 7.898 2.6 3.398 7.1 7.7 15.8 10.9 2-0.4 4.3-1.1 6.8-2.1s4.6-2.1 6.4-3.3c-0.5-2-0.8-4.102-0.8-6.199 0-14.301 11.6-25.801 25.8-25.801s25.8 11.602 25.8 25.801-11.6 25.799-25.8 25.799c-5.7 0-10.9-1.8-15.1-4.9-1.5 1.2-3.2 2.7-5.2 4.3-5.7 4.6-8.6 6.9-10.1 7.7-2.5 1.2-9.1 3.3-21.9-4.1-0.6 13.2-1.3 26.3-1.9 39.5h-0.2l5.2 5.5 19.8-20.1c4.6 2.5 9.6 4.5 14.8 5.8v28.7h32.5v-28.7h-3.4c5.4-1.3 10.5-3.4 15.2-6.1l22.1 20.4 24.2-22.7zm371.9 168.3c1.6-3.7 2-6.9 2-8.4h2.9v-10.1h-18.1c-0.7-2.3-1.6-4.5-2.7-6.6l11.8-13.8-12.5-13.5-12.8 13.5c-2.1-1.2-4.4-2.2-6.8-2.9v-17.6h-18.6v17.1c-2.6 0.6-5 1.6-7.4 2.7l-12.2-12.7-14.1 13.8 12.5 11.7c-1.6 2.6-2.9 5.4-3.7 8.4h-17.9v18.5h17.6c0.8 3 1.9 5.8 3.4 8.4l-9 7.7c1.4 0.9 2.9 1.6 4.6 2.1 6.8 2.1 13.1-0.1 20.4-2.7 2.4-0.9 4.6-1.8 6.5-2.8-8.9-3.2-15.3-11.7-15.3-21.7 0-12.7 10.3-23 23-23s23 10.3 23 23c0 8.4-4.5 15.7-11.1 19.7 6.7 0.9 13.4 1.8 20.1 2.7 0.8-0.3 1.9-0.7 3.3-1.5l-4.6-4.6c1.2-2.3 2.2-4.8 2.8-7.4zm88.8 87.4c-2.8-5.4-9.4-9.7-15.8-10.2-12.8-0.9-22.2 13.6-23.2 15.3 2-11.9 3.3-27.9 1.3-46.6-1.5-14-4.5-26-7.7-35.5-5.5 3.1-36.2 21-60.2 53.5 0.3-9.2 0.7-18.4 1-27.6 13.6-6.3 18.5-13.4 20.2-19.2 0 0 0.8-2.7 1.3-20.8h-4c-0.1 2.2-0.8 8.1-5.2 13.7-4.1 5.2-9.2 7.4-11.3 8.1-11-1.5-22.1-3-33.1-4.5-3 2-7.4 4.5-13.1 6.5-7.3 2.6-13.6 4.8-20.4 2.7-8.4-2.6-12.7-10.2-14.1-13l-3.6 4.5c0.3 2.9 1.7 11.6 9 18.8 2 2 8.2 8.2 18 8.6 5.2 0.2 9.4-1.3 11.6-2.4l0.1 41.8c5.2 2.4 14.4 5.9 26.2 5.6 1.1 0 2.2-0.1 3.3-0.2-7.8 15.2-13.5 32.5-15.3 52.2-2.7 29.5 4.6 54.1 11.1 69.9 10.6-3.5 25.3-9.2 41.5-18.7 48.6-28.5 93.6-80.7 82.4-102.5zm-709.6-15.2c-13.199-40.7-12.102-58-25.5-62.7-8.602-3-19.699 0.3-25.398 6.7-13.602 15.1-2.204 52.6 29.199 97.6-5.801-4.9-13.699-10.6-23.602-15.7-9.199-4.8-17.699-7.8-24.699-9.7 0.5 12.7 3.1992 37.8 18.699 64 21 35.3 52.102 50.5 63.602 55.4 1.801-3.2 3.597-7 5.199-11.5 2.199-6.3 3.301-12 3.898-16.7 1.301-7.8 2.602-19.5 1.602-33.6-1.898-27.5-10.398-35.1-23-73.8zm451.1 37c-5.2-1.6-11.9 1.7-16.7 8.2 5.9-8.9 13.2-22.8 11.4-36.9-0.4-3.2-1.2-8.9-4.8-10.4-4.2-1.7-9.8 3.3-11.2 4.5-8.7 7.8-11.1 20.4-10.9 19.1 2.3-11.1 0.2-20.8-4.5-25-3.9-3.5-8-4.1-8-4.1-0.3 0-3.4-0.5-5.2 0.3-4.4 1.8-5.6 12.9-2.2 26.9-6.2-10.7-13.8-16.5-18.9-14.9-3.1 1-4.5 4.3-5 5.6-6 13.9 11.1 33.4 13.3 35.8-0.7-0.8-12.1-12.4-17.5-9.3-1.8 1-2.2 3.2-2.4 4-2.3 10.6 21.5 28 25.8 31.1h33.7c4.6-5.6 9.1-8.9 12.5-10.9 7.5-4.5 12.5-4.5 15.4-9.8 0.5-0.8 2.9-5.6 0.8-9.8-1.7-3-4.9-4.1-5.6-4.4zm-68.7 37.6h62.6v8.1h-5.6l-6.7 53.8h-37.6l-8.1-53.8h-4.5v-8.1h-0.1" fill="#a1b5cc"/></g>
  <g id="change2_3"><path d="m607.8 213.7h-30.9c-0.4 0-0.7 0.3-0.8 0.6-0.9 5-2.1 9.9-3.6 14.7-0.6 1.9-1.3 3.8-2 5.7-0.1 0.4 0.1 0.7 0.4 0.9 0.1 0 0.2 0.1 0.2 0.1l25.7 15.5-18.6 27.9-23.4-15.3c0-0.1-0.1-0.1-0.2-0.2-0.3-0.2-0.8-0.2-1 0.1-4.2 5.1-8.9 9.9-14 14.2-0.3 0.3-0.3 0.7-0.1 1 0 0 0 0.1 0.1 0.1l13.6 27.7-28.4 16.6-14-26.8c0-0.2 0-0.3-0.1-0.5-0.2-0.4-0.6-0.5-1-0.4-7.1 2.8-14.5 4.8-21.9 6-0.4 0.1-0.7 0.4-0.6 0.8v0.2 28.4h-30.9v-27.8c0.1-0.1 0.1-0.2 0.1-0.4 0-0.4-0.3-0.8-0.7-0.8-7.8-1.1-15.5-3.1-22.9-5.9-0.4-0.2-0.8 0.1-0.9 0.4 0 0.1-0.1 0.2-0.1 0.2l-14.3 26.7-27.3-17.1 13.8-25.4c0.1-0.1 0.2-0.1 0.3-0.2 0.2-0.3 0.2-0.8-0.2-1-5.2-4.2-10-8.9-14.4-13.9-0.3-0.3-0.7-0.3-1-0.1-0.1 0-0.1 0.1-0.2 0.2l-25 13.4-17.1-27.9 24-15.4c0.1 0 0.2 0 0.4-0.1 0.4-0.2 0.5-0.6 0.4-1-2.6-6.6-4.5-13.5-5.6-20.5-0.1-0.4-0.4-0.6-0.8-0.6h-0.2-29.6v-35h29.4c0.1 0.1 0.2 0.1 0.4 0.1 0.4 0.1 0.8-0.2 0.8-0.6 1.2-7.2 3.2-14.3 5.9-21 0.1-0.4 0-0.8-0.4-1-0.2-0.1-0.3-0.1-0.5-0.1l-18.3-10.1 0.2-0.2c-0.5-0.3-0.9-0.6-1.2-1l-0.4 0.4-4.4-2.4 4.9-8.3 0.2 0.2c0.2-0.5 0.5-0.9 0.8-1.2v-0.1l-0.3-0.3 11.3-19.4 22.6 15.5c0.1 0.1 0.1 0.3 0.3 0.3 0.3 0.2 0.8 0.2 1.1-0.2 4.8-6 10.2-11.5 16.2-16.3 0.3-0.3 0.3-0.7 0.1-1 0-0.1-0.1-0.1-0.1-0.2l-13.4-23.201 28.9-18.097 12.6 24.796c0 0.102 0 0.301 0.1 0.403 0.2 0.398 0.6 0.5 1 0.398 7.4-2.801 15-4.801 22.8-5.898 0.4-0.102 0.6-0.403 0.6-0.801v-0.199-28.903h30.9v28.602h-1c-0.4 0-0.7 0.301-0.8 0.699-0.1 0.403 0.3 0.801 0.7 0.801 8.1 1.102 16 3.199 23.7 6.199 0.4 0.102 0.8 0 1-0.398 0.1-0.199 0.1-0.301 0.1-0.5l13.4-25.102 28.9 18.102-15 23.199c-0.1 0.1-0.2 0.1-0.2 0.2-0.2 0.3-0.2 0.8 0.2 1 5.7 4.6 10.9 9.8 15.5 15.5 0.3 0.3 0.7 0.4 1 0.1l0.1-0.1 26.1-15 16.1 27.5-25.5 17.2c-0.3 0.2-0.4 0.6-0.3 0.9 2.2 5.9 3.8 12.2 5 18.7 0.1 0.4 0.4 0.6 0.8 0.6h31zm0.8-36.5h-31.1c-1.1-6.1-2.7-12.1-4.7-17.7l25.6-17.3c0.3-0.2 0.4-0.7 0.2-1l-16.8-28.8c-0.2-0.4-0.7-0.5-1.1-0.3l-26.4 15.2c-4.4-5.3-9.3-10.2-14.7-14.6l15.2-23.501c0.1-0.199 0.2-0.398 0.1-0.597 0-0.204-0.2-0.403-0.3-0.5l-30.3-19c-0.2-0.102-0.4-0.102-0.6-0.102-0.2 0.102-0.4 0.199-0.5 0.398l-13.8 25.602c-6.7-2.602-13.6-4.398-20.7-5.602v-29.796c0-0.403-0.3-0.801-0.8-0.801h-32.5c-0.4 0-0.8 0.301-0.8 0.801v29.5c-7.4 1.097-14.6 3-21.6 5.597l-12.9-25.301c-0.1-0.199-0.3-0.296-0.5-0.398s-0.4 0-0.6 0.102l-30.3 19c-0.4 0.199-0.5 0.699-0.3 1.097l13.6 23.501c-5.6 4.6-10.7 9.8-15.3 15.4l-23.1-15.8c-0.2-0.1-0.4-0.2-0.6-0.1-0.2 0-0.4 0.2-0.5 0.4l-11.5 19.5-14.6-14.8c2-3.8 3.5-7.8 4.6-11.9h30.5c0.4 0 0.8-0.3 0.8-0.8v-32.299c0-0.403-0.3-0.801-0.8-0.801h-31.1c-1.1-3.699-2.6-7.199-4.4-10.602l20.2-23.699c0.3-0.301 0.2-0.699 0-1l-21.8-23.5c-0.1-0.199-0.3-0.301-0.6-0.301-0.2 0-0.4 0.102-0.6 0.204l-22 23.097c-3.5-1.898-7.1-3.5-10.9-4.699v-30.199c0-0.40256-0.3-0.801-0.8-0.801h-32.5c-0.2 0-0.4 0.10156-0.6 0.19922-0.1 0.10156-0.2 0.30078-0.2 0.60156v29.199c-4.1 1.102-8.1 2.5-11.9 4.398l-21-21.898c-0.1-0.102-0.3-0.199-0.5-0.199s-0.4 0.097-0.6 0.199l-24.7 24.102c-0.2 0.097-0.2 0.398-0.2 0.597s0.1 0.403 0.2 0.602l21.4 20c-2.6 4.301-4.6 8.898-6.1 13.699h-9.1c0 0.5 0 1-0.1 1.602h9.6c0.4 0.097 0.7-0.204 0.9-0.602 1.5-5.102 3.7-9.898 6.4-14.398 0.2-0.301 0.1-0.704-0.1-1l-21.3-19.903 23.5-23 20.8 21.602c0.2 0.301 0.6 0.398 1 0.199 4-2.102 8.3-3.602 12.7-4.699 0.3-0.102 0.6-0.403 0.6-0.801v-28.898l31-0.0004v29.898c0 0.398 0.2 0.699 0.5 0.801 4 1.199 7.9 2.898 11.7 5 0.3 0.199 0.7 0.097 0.9-0.102l21.8-22.898 20.7 22.398-20 23.5c-0.3 0.199-0.3 0.602-0.2 0.903 1.9 3.597 3.5 7.398 4.7 11.296 0.1 0.301 0.4 0.602 0.7 0.602h30.9v30.8h-30.3c-0.4 0-0.7 0.2-0.8 0.6-1.1 4.4-2.8 8.6-4.9 12.7-0.2 0.3-0.1 0.8 0.2 1l15.2 15.4-5.5 9.4c-0.1 0.2-0.1 0.4-0.1 0.6 0.1 0.2 0.2 0.4 0.4 0.5l4.6 2.5-16.1 15.1-21.4-19.8c-0.2-0.3-0.7-0.4-1-0.2-4.7 2.7-9.8 4.7-15 6-0.4 0.1-0.6 0.5-0.6 0.9s0.4 0.7 0.8 0.7h2.6v27.1h-31v-27.8c0-0.4-0.2-0.8-0.6-0.9-5.1-1.3-10-3.2-14.6-5.7-0.3-0.2-0.8-0.1-1 0.2l-19.1 19.5-23.3-24.6 19.9-17 0.1-0.1c0.3-0.2 0.4-0.7 0.2-1-2.6-4.6-4.5-9.4-5.8-14.4-0.1-0.3-0.4-0.6-0.8-0.6h-30v-19.002c-0.6-0.398-1.1-0.796-1.6-1.296v20.998c0 0.4 0.3 0.8 0.8 0.8h30.2c1.3 4.7 3.1 9.3 5.5 13.6l-20.2 17.3c-0.2 0.1-0.3 0.3-0.3 0.6 0 0.2 0.1 0.4 0.2 0.6l24.4 25.8c0.1 0.2 0.3 0.2 0.6 0.2s0.4-0.1 0.6-0.2l19.4-19.7c4.4 2.4 9 4.2 13.8 5.4v28c0 0.4 0.3 0.8 0.8 0.8h32.5c0.4 0 0.8-0.3 0.8-0.8v-28.7c0-0.1 0-0.2-0.1-0.4 3.8-1.2 7.5-2.8 11-4.7l21.7 20c0.3 0.3 0.8 0.3 1.1 0l17-16 18.6 10.2c-2.4 6.4-4.3 13-5.5 19.7h-30c-0.4 0-0.8 0.3-0.8 0.8v36.5c0 0.4 0.3 0.8 0.8 0.8h30c1.2 6.6 3 13.1 5.3 19.3l-24.1 15.8c-0.4 0.2-0.5 0.7-0.2 1.1l17.9 29.2c0.2 0.4 0.7 0.5 1 0.3l25.4-13.6c4.1 4.7 8.6 9.1 13.5 13.1l-14 25.8c-0.2 0.4-0.1 0.8 0.3 1l28.6 18c0.2 0.1 0.4 0.1 0.6 0.1 0.2-0.1 0.4-0.2 0.5-0.4l14.5-27c7 2.6 14.3 4.5 21.6 5.6v28.4c0 0.4 0.3 0.8 0.8 0.8h32.5c0.4 0 0.8-0.3 0.8-0.8v-28.6c7-1.2 14-3.1 20.7-5.6l14.3 27.3c0.1 0.2 0.3 0.3 0.5 0.4s0.4 0 0.6-0.1l29.7-17.4c0.4-0.2 0.5-0.6 0.3-1l-13.7-28c4.8-4.1 9.2-8.6 13.2-13.4l23.7 15.5c0.4 0.2 0.8 0.1 1.1-0.2l19.5-29.2c0.1-0.2 0.2-0.4 0.1-0.6 0-0.2-0.2-0.4-0.4-0.5l-26.1-15.7c0.6-1.7 1.2-3.4 1.8-5 1.5-4.6 2.7-9.4 3.6-14.3h31.1c0.4 0 0.8-0.3 0.8-0.8v-36.7c-0.2-0.5-0.6-0.8-1-0.8" fill="#0f0e0c"/></g>
  <g id="change1_2"><path d="m322 317.6c-8.7-6.6-13.6-9.4-14.5-8.5-0.7 0.7 0.9 3.5 4.7 8.5-3.3 0.1-5 0.5-5.1 1-0.1 1 4.2 2.5 13 4.7zm-25.9 18.2c0.7-5.9 0.7-9 0-9.2-0.5-0.1-1.5 1.4-2.8 4.6-1.4-7.6-2.4-11.4-3-11.3-0.8 0.1-0.9 6.7-0.4 19.8 2.1-1.2 4.2-2.6 6.2-3.9zm30.3-55.4c-2.3 2.6-3.4 5.2-3.9 6.7-0.8 2.4-2 6-0.3 9.5 1.2 2.4 3.1 3.6 4.2 4.2v5.9c1.3 0 2.9-0.1 4.8-0.6 4.3-1.1 7.1-3.7 8.4-5.1-0.7-2.5-1.5-5.1-2.2-7.6 1.7-0.7 2.9-2.4 2.8-4.2-0.1-1.7-1.2-3.3-2.8-3.9-1 0.1-3.6 0.3-6.5-1.1-2.5-1.1-3.9-2.9-4.5-3.8zm-71.8-174c1.5-1.5 3.9-4.3 4.7-8.502 0.8-4.296-0.3-9.199-1.5-9.296-0.5 0-1.6 0.796-3.3 8 0-3.903-0.3-5.801-0.7-5.903-0.6-0.097-1.7 3.699-3.2 11.201zm-73.4-31.502c1.5 0.704 2.5 1.704 3.2 2.301l6.9-2.597-3.6-3.801c-0.8-0.403-2.4-0.903-4.4-0.699-3.6 0.398-5.7 3.097-6 3.597 0.9 0.102 2.4 0.403 3.9 1.199zm27.9-7.296c-2.1 0.699-4 0.699-5.1 0.597 1.8 5.199 0.3 10.301-3.2 12.301-2.4 1.5-5.1 1-6.2 0.699 0.3 0.699 1.1 2.602 3.2 3.699 2.5 1.301 5.7 0.903 8.2-1.097 2.9 0.199 4.6-0.801 5.3-1.301 3.2-2.398 3.2-7.102 3.2-10.699 0-2.903-0.5-5.199-0.9-6.699-0.9 0.796-2.4 1.796-4.5 2.5zm4.1 88.998l-28.9-11.9-9.5 8.3 1.6 65.3 0.9 49.2 11.8 1.5 7.3-82.9v1.7l4.9 16.1 7.5 65.1h11l0.7-48.8zm101.4 225.3l-11.7 41.9 4.3 61h11.8l1.5-55.4 10.3-32.9v33.3l2.9 55h12.9l3.1-87.9-2-19.2c-1.9 1.8-7.2 6-15.2 7.2-8.9 1.3-15.7-1.9-17.9-3zm388.4-95.3c0.8-2.1 1.7-5.5 1.3-9.5-0.4-3.8-2-7.8-2.8-7.7-0.5 0.1-1 1.4-0.7 8.6-1.2-1.5-2.1-2.1-2.6-1.8-1 0.4-0.7 3.9 0.9 10.4zm-101.2 13.5c1.9-4.7 2.7-7.2 2.2-7.4-0.3-0.2-1.1 0.6-2.4 2.2 0.3-7.9-0.3-9.6-0.9-9.7-1-0.2-2.8 3.7-3.6 7.1-1.1 5.2 0.1 9.8 1.1 12.3zm48.7-1c-0.6-2-1.5-2.4-3-4.7 0 0-1.1-1.7-2-3.8-0.6-1.5-1.5-4.7-0.1-9.6-4 6.4-4 13.5-0.4 17.7 0.8 0.9 2.5 2.6 5.8 3.4 0-1.6-0.2-2.5-0.3-3" fill="#fff"/></g>
  <g clip-path="url(#clip1)" id="change2_1">
   <path d="m457.2 443.9h50.7l-6.4 51.4h-36.5zm-4.6-8.1h61v6.6h-61zm-14.8-34.9c0.9-1.8 4.5-3.2 7.7-2.9 5.7 0.4 9 6 9.6 7.1l0.1 0.1c5.4 9.9 11.8 19.9 17.3 28-3.7-3.3-7.4-6.6-10.9-10.1-5.7-5.7-11.1-11.8-16.1-18.1-0.3-0.3-0.8-0.4-1.1-0.1s-0.4 0.8-0.1 1.1c5 6.4 10.5 12.5 16.2 18.2 3.5 3.5 7.1 6.8 10.8 10.1h-2.7c-28.2-22-32.3-30.3-30.8-33.4zm9.8-32.8c0.6-0.7 3.7-4.1 7.5-3.9 4.6 0.2 9 5.4 11.5 13.6 0.9 11.9 3.5 27.5 7.7 46.9-2.4-8.5-5.2-16.9-8.3-25.1-3.6-9.4-7.7-18.8-12.2-27.8-0.2-0.4-0.7-0.5-1-0.3-0.4 0.2-0.5 0.7-0.3 1 4.5 9 8.6 18.2 12.1 27.6 4.2 11.1 7.8 22.6 10.8 34.1h-0.1c-24-34.6-34-58.7-27.7-66.1zm25.2-17.3c1.9-0.9 6.2-1.2 9.6 0.7 5.5 3.2 6.6 11.6 6.9 18.6 1 20.7-4.1 46.2-8.6 64.1h-0.4c1.7-15.8 2.2-31.7 1.6-47.5-0.4-9.8-1.3-19.7-2.5-29.4-0.1-0.4-0.5-0.7-0.9-0.7-0.4 0.1-0.7 0.4-0.7 0.9 1.3 9.7 2.1 19.6 2.5 29.3 0.6 15.8 0.1 31.7-1.6 47.4h-0.7c-14.7-64.2-10.9-80.8-5.2-83.4zm-149 139.7c-2.1 1-3.5 2.9-4.4 4.8h-2.7v-9.8h2.2c0.4 0 0.8-0.3 0.8-0.8l1.5-55.3 8.8-28v28.2l2.9 55c0 0.4 0.4 0.7 0.8 0.7h3.2c-3.4 2.8-6.4 3.8-8.6 4.2-1.9 0.5-3 0.3-4.5 1zm-20.2-66.7l11.4-40.9c3.5 1.7 9.8 3.8 17.5 2.6 6.7-1 11.7-4.1 14.5-6.4l1.8 17.6-3.1 87.2h-11.4l-2.8-54.2v-33.3c0-0.4-0.3-0.7-0.7-0.8s-0.7 0.2-0.9 0.5l-10.3 32.9v0.2l-1.5 54.6h-10.3zm-299.4-41c41.301 8.7 73.403 32.7 84.5 62.1 0.5 1.6 1.102 3.1 1.602 4.7 0.801 2.8 1.5 5.7 2 8.6 1.801 11.9 0.301 24.3-4.602 36.9-2.5-3.1-5.097-6.2-7.597-9.3l1.898-37.8c0-0.4-0.301-0.8-0.699-0.8-0.403 0-0.801 0.3-0.801 0.7l-1.801 36c-4.301-5.3-8.5-10.7-12.801-16.1v-40.1c0-0.4-0.296-0.8-0.796-0.8s-0.801 0.3-0.801 0.8v38.3c-5.199-6.7-10.403-13.5-15.403-20.2-2.097-2.8-4.097-5.6-6.199-8.3l-2.301-29.8c0-0.4-0.398-0.8-0.796-0.7-0.403 0-0.801 0.4-0.704 0.8l2.102 27.2c-10.398-14.2-20.5-28.6-30.199-43.1-0.199-0.4-0.699-0.5-1.1018-0.2-0.3984 0.2-0.5 0.7-0.1992 1.1 7.199 10.8 14.699 21.5 22.301 32.1l-15.903-2.9c-0.398-0.1-0.796 0.2-0.898 0.6s0.199 0.8 0.602 0.9l17.5 3.2c2.699 3.8 5.5 7.6 8.199 11.3 0 0.1 0.097 0.2 0.199 0.3 1.699 2.3 3.398 4.6 5.102 6.9l-14.704-1.5c-0.398-0.1-0.796 0.3-0.898 0.7 0 0.4 0.301 0.8 0.699 0.9l16.102 1.6c5.398 7.3 11 14.5 16.597 21.7 0 0.1 0.102 0.1 0.204 0.2 1.898 2.4 3.796 4.8 5.699 7.3h-11.403c-0.398 0-0.796 0.3-0.796 0.8 0 0.4 0.296 0.8 0.796 0.8h12.602c2.398 3 4.801 6 7.199 9 0 0 0 0.1 0.102 0.1 2.301 2.8 4.5 5.6 6.801 8.4-16-5.5-30.301-13.9-42.403-25.1-32.5-30.3-38.097-70.4-39-87.3zm47.699 17.4c-5.898-8.9-35-54.5-28.5-80.9 1.102-4.6 3.5-14.1 11-17.4 5.801-2.5 12-0.1 14 0.7 12.301 4.8 16.704 21 23.903 47.9 3.5 13 7.898 29.2 14.199 47.8 1.602 4.7 3.102 8.9 4.5 12.8 6.199 17.4 9.9 27.9 8.602 44.2-0.704 9.2-2.903 18.2-6.403 27.1 1.699-8.2 1.903-16.3 0.699-24.2-0.398-2.9-1.097-5.7-1.898-8.5v-0.1c0-0.1-0.102-0.2-0.102-0.3-0.5-1.6-1-3.2-1.597-4.7-5.801-17.1-12.301-34.1-19.5-50.6-9.602-22-20.5-43.7-32.602-64.4-0.199-0.4-0.699-0.5-1.097-0.3-0.403 0.2-0.5 0.7-0.301 1.1 12 20.7 22.898 42.3 32.5 64.3 5.398 12.4 10.5 25.1 15.097 37.9-7.5-12.5-18.597-23.5-32.5-32.4zm647.3 24.2c0.2-0.5 0.4-0.9 0.6-1.4 0-0.1 0.1-0.1 0.1-0.2 3-6.7 5.8-13.4 8.4-20.3l17.7-13.5c-9.8 10.6-18.9 23.2-26.8 35.4zm69 70.9h-108.5c-9.8-16.2-15.4-32.9-16.4-50-2.7-44.3 25.7-79.2 48.5-107.2 13.1-16 27.9-30.7 44.2-43.7 3.1 11.8 5.3 24 6.4 36.2 1.5 16.1 1.5 29.1 0 43.4-2.7 2-5.4 4.2-8 6.6l-24.9 19.1c0.5-1.4 1.1-2.8 1.6-4.2 1.2-3.2 2.3-6.4 3.4-9.6 7.4-21.8 13-44.2 16.7-66.8 0.1-0.4-0.2-0.8-0.6-0.9s-0.8 0.2-0.9 0.6c-3.6 21.9-9 43.7-16 64.8l-19.7-39.9c-0.2-0.4-0.7-0.5-1-0.4-0.4 0.2-0.5 0.7-0.4 1l20.2 41.4c-1.1 3.1-2.1 6.2-3.3 9.3-3.2 8.7-6.7 17.3-10.5 25.8l-21.6-39.9c-0.2-0.4-0.7-0.5-1.1-0.3s-0.5 0.7-0.3 1.1l22.2 41c-2 4.4-4.1 8.8-6.2 13.2-1.7 2.8-3.3 5.5-4.8 8.1l-21.1-28.4c-0.3-0.3-0.7-0.4-1.1-0.2-0.3 0.3-0.4 0.7-0.2 1.1l21.5 29c-7.4 13-12.5 23.2-14.1 26.5-0.2 0.4 0 0.9 0.4 1 0.4 0.2 0.9 0 1-0.4 0.3-0.5 0.6-1.2 1-2.1 4.8-7.9 9.3-15.9 13.6-24.1 0.1-0.1 0.1-0.2 0.2-0.3 1.7-3.3 3.4-6.6 5.1-10 11-18.2 25.5-39.3 40.7-53.6l1-0.7c0.1-0.1 0.2-0.2 0.3-0.4 2.6-2.3 5.1-4.5 7.7-6.4 0.2-0.1 0.4-0.2 0.5-0.4 9.4-6.8 19-10.4 28.1-8.7 3.1 0.6 10.7 2.6 13.7 8.6 9.9 19.9-40.2 67.6-80.2 94.4-10.1 6.8-20.8 13-31.7 18.5-0.4 0.2-0.5 0.7-0.3 1 0.1 0.3 0.4 0.4 0.7 0.4 0.1 0 0.2 0 0.4-0.1 10.9-5.5 21.6-11.8 31.8-18.6 38.9-26.1 91.4-74.8 80.7-96.4-3.3-6.6-11.4-8.8-14.8-9.4-9.1-1.7-18.7 1.7-28.1 8.3 1.4-13.8 1.4-26.6-0.1-42.4-1.2-12.6-3.5-25.3-6.8-37.6-0.1-0.3-0.3-0.5-0.5-0.5-0.2-0.1-0.5 0-0.7 0.1-16.7 13.2-32 28.2-45.4 44.7-23 28.2-51.5 63.3-48.8 108.3 1 17 6.5 33.7 16.1 49.9h-17.1v-9.7h-5.7c-0.8 0.3-4.5 1.7-6.4 5.6-0.7 1.5-0.9 2.9-1 4h-124.6l6.4-51.4h4.9c0.4 0 0.8-0.3 0.8-0.8v-7.8c0-0.4-0.3-0.8-0.8-0.8h-18.5c3.9-4.9 8.2-9.5 12.7-13.8 4.9-4.7 10.1-9.1 15.6-13 0.3-0.3 0.4-0.7 0.2-1.1-0.3-0.4-0.7-0.4-1.1-0.2-5.5 4-10.9 8.4-15.8 13.2-4.9 4.6-9.5 9.7-13.7 14.9h-7.3c4.7-8.7 8.9-17.7 12.5-26.8 4.5-11.4 8.1-23.2 10.7-35.1 0.1-0.4-0.2-0.8-0.6-0.9s-0.8 0.2-0.9 0.6c-2.6 11.8-6.2 23.6-10.6 34.9-3.7 9.3-8 18.5-12.8 27.4h-2.5c3.4-13.7 7.2-31.6 8.3-48.5 1-6.4 3.9-15.4 11.6-21.6 2.3-1.8 7.6-6.1 11.4-4.6 2.1 0.9 5.4 4.5 4.4 18.9-0.7 10.3-5.1 20.7-12.7 30.1-0.3 0.3-0.2 0.8 0.1 1.1 0.1 0.1 0.3 0.2 0.5 0.2s0.5-0.1 0.6-0.3c7.8-9.6 12.3-20.3 13-30.9 1-14.6-2.3-19.1-5.3-20.4-4.6-1.9-10.5 2.8-12.9 4.8-5.3 4.3-8.4 9.8-10.2 15 0-2.7 0-5.3-0.1-7.9-0.4-7.4-1.5-16.4-7.7-19.9-3.6-2.1-8.4-2-11-0.8-4.5 2-6.5 9.7-5.9 23.2-2.8-6.1-6.9-9.8-11.1-10-4.4-0.2-7.8 3.4-8.7 4.5-4.8 5.7-1.1 18.3 5.7 32-1.7-1.4-3.9-2.5-6.5-2.7-3.4-0.2-7.8 1.1-9.2 3.8-1.7 3.3-0.3 10.5 29.7 34h-14.3c-0.4 0-0.8 0.3-0.8 0.8v8.1c0 0.4 0.3 0.8 0.8 0.8h3.8l7.8 51.4h-118.7v-9.8h1.7c0.4 0 0.8-0.3 0.8-0.8l3.1-88-2-19.2c0-0.3-0.2-0.5-0.5-0.6s-0.6 0-0.8 0.2c-2.4 2.2-7.5 5.9-14.8 7-7.9 1.2-14.3-1.3-17.4-2.9-0.2-0.1-0.5-0.1-0.7 0s-0.4 0.3-0.4 0.5l-11.7 41.9v0.3l4.3 61c0 0.4 0.4 0.7 0.8 0.7h1.5c-3.4 2.8-6.4 3.8-8.6 4.2-1.7 0.3-2.8 0.1-4.3 0.8-2.1 1-3.5 2.9-4.4 4.8h-202c0.498-1.3 0.998-2.6 1.401-3.8 5.898-11.7 9.399-23.8 10.399-36.2 1.3-16.7-2.399-27.3-8.7-44.9-1.398-3.9-2.898-8.1-4.398-12.7-6.403-18.8-10.801-34.9-14.301-47.9-7.403-27.3-11.801-43.8-24.903-48.9-2.199-0.8-8.796-3.4-15.199-0.6-8.199 3.6-10.801 14-11.801 18.5-6.097 24.7 17.102 64.2 26.903 79.4-13.102-7.8-28.403-13.8-45.301-17.2-0.1992 0-0.5 0-0.6992 0.2s-0.3008 0.4-0.3008 0.6c0.6992 16.4 5.8984 58.1 39.5 89.2 11.398 10.5 24.602 18.7 39.5 24.2h-79.199c-1.301 0-2.301 1-2.301 2.3s1 2.3 2.3008 2.3h765.8c1.3 0 2.3-1 2.3-2.3s-0.9-2.4-2.2-2.4zm-296.8-373.5c40.7 0 73.9 33.1 73.9 73.9s-33.1 73.9-73.9 73.9-73.9-33.1-73.9-73.9 33.2-73.9 73.9-73.9zm0 149.3c41.6 0 75.4-33.8 75.4-75.4s-33.8-75.4-75.4-75.4-75.4 33.8-75.4 75.4 33.8 75.4 75.4 75.4zm0-129.3c29.7 0 53.9 24.2 53.9 53.9s-24.2 53.9-53.9 53.9-53.9-24.2-53.9-53.9 24.2-53.9 53.9-53.9zm0 109.4c30.6 0 55.5-24.9 55.5-55.5s-24.9-55.5-55.5-55.5-55.5 24.9-55.5 55.5 24.9 55.5 55.5 55.5zm0-92.9c20.6 0 37.4 16.8 37.4 37.4s-16.8 37.4-37.4 37.4-37.4-16.8-37.4-37.4 16.8-37.4 37.4-37.4zm0 76.3c21.5 0 38.9-17.5 38.9-38.9 0-21.5-17.5-38.9-38.9-38.9-21.5 0-38.9 17.5-38.9 38.9 0 21.5 17.4 38.9 38.9 38.9zm230.3 36.5c0.6 1.1 1.5 3.8 1.8 6.5 0.3 2.8-0.1 5.7-1.1 8.6h-2.8c-1.6-6.7-1.4-8.5-1.2-8.9 0.2 0.1 0.7 0.4 1.7 1.6 0.2 0.3 0.6 0.3 0.9 0.2s0.5-0.4 0.5-0.8c-0.2-4.4 0-6.4 0.2-7.2zm-58.3 16.9c1 3.7 2.7 6.4 3 6.8 0.5 0.7 0.9 1.2 1.2 1.7 0.2 0.3 0.4 0.5 0.6 0.7 0 0 0 0.1 0.1 0.1 0.5 0.6 0.8 1.2 1.1 2.2l0.3 0.3c0.1 0.4 0.2 0.9 0.2 1.4 0 0.1 0 0.1-0.1 0.2-1.8-0.6-3.3-1.6-4.4-2.8-2.2-2.6-2.9-6.5-2-10.6zm-0.5 9.5zm0.2 0.4zm-8.5-18.6c0-12.3 10-22.3 22.3-22.3s22.3 10 22.3 22.3c0 6.1-2.4 11.8-6.7 15.9-1.1-4.5 2.8-6.6 1.9-12-1.2-7.7-10.5-11.7-11.6-12.2-2.7-1.1-8.4-3.5-13.5-0.7-6.2 3.4-6.4 11.8-6.5 12.9v1.4c-1.5 3.9-1.7 8-0.6 11.3-4.7-4.1-7.6-10.1-7.6-16.6zm53.7-16l11.4-13.4c0.3-0.3 0.2-0.7 0-1l-12.5-13.5c-0.1-0.2-0.4-0.2-0.6-0.3-0.2 0-0.4 0.1-0.6 0.2l-12.4 13c-1.9-1-3.8-1.9-5.8-2.5v-17c0-0.4-0.3-0.8-0.8-0.8h-18.6c-0.2 0-0.4 0.1-0.6 0.2-0.1 0.1-0.2 0.3-0.2 0.6v16.5c-2.2 0.6-4.3 1.4-6.4 2.4l-11.8-12.3c-0.1-0.1-0.3-0.2-0.5-0.2-0.3 0-0.4 0.1-0.6 0.2l-14.1 13.8c-0.2 0.1-0.2 0.4-0.2 0.6s0.1 0.4 0.2 0.6l12.1 11.2c-1.4 2.3-2.5 4.8-3.3 7.4h-17.4c-0.4 0-0.8 0.3-0.8 0.8v18.5c0 0.4 0.3 0.8 0.8 0.8h17c0.7 2.5 1.7 5 3 7.4l-8.5 7.2c-0.2 0.2-0.3 0.4-0.3 0.7 0 0.2 0.2 0.5 0.4 0.6 1.5 0.9 3.1 1.7 4.8 2.2 2 0.6 4 0.9 5.9 0.9 4.9 0 9.7-1.7 15-3.6 1.8-0.6 3.5-1.4 5.2-2.2 0.5 0.2 1 0.4 1.6 0.6-0.2 1.5-0.6 3.5-1.8 6-3.4 7.2-7.3 7.4-7.6 10.8-0.5 5.5 8.9 13.1 18.8 13.6 12 0.7 18.8-9.4 19.5-10.4 0.4-0.5 6.8-10.6 2.8-18.1-1-1.8-2.3-2.9-3.5-3.8l10.9 1.5h0.4c1.1-0.4 2.3-0.9 3.4-1.5 0.2-0.1 0.4-0.3 0.4-0.6 0-0.2 0-0.5-0.2-0.7l-4.2-4.2c1-2.1 1.9-4.2 2.5-6.4h6.8c0-0.5 0.1-1.1 0.2-1.6h-7.6c-0.4 0-0.7 0.2-0.8 0.6-0.6 2.5-1.6 4.9-2.8 7.2-0.2 0.3-0.1 0.7 0.2 1l3.8 3.8-2.1 0.9-13.8-1.9c-0.7-0.6-1.4-1.3-1.9-2.3 4.9-4.5 7.7-10.7 7.7-17.5 0-13.1-10.7-23.8-23.8-23.8s-23.8 10.7-23.8 23.8c0 8.2 4.3 15.7 11 20-0.2-0.1-0.3-0.3-0.4-0.5 0.2 0.3 0.4 0.5 0.6 0.8 0.6 0.7 1.3 1.3 2.1 1.8-1.3 0.6-2.7 1.1-4.1 1.6-7.1 2.5-13.3 4.7-19.9 2.7-1.2-0.4-2.3-0.9-3.5-1.5l8-6.9s0.1 0 0.1-0.1c0.3-0.2 0.4-0.7 0.2-1-1.5-2.6-2.6-5.3-3.3-8.2-0.1-0.3-0.4-0.6-0.8-0.6h-16.8v-16.9h17c0.4 0.1 0.8-0.2 0.9-0.5 0.8-2.9 2.1-5.6 3.6-8.2 0.2-0.3 0.1-0.7-0.1-1l-11.9-11.1 13-12.7 11.7 12.2c0.2 0.2 0.6 0.3 0.9 0.2 2.3-1.2 4.7-2.1 7.2-2.7 0.3-0.1 0.6-0.4 0.6-0.8v-16.3h17v16.8c0 0.3 0.2 0.6 0.5 0.7 2.3 0.7 4.5 1.7 6.6 2.9 0.3 0.2 0.7 0.1 0.9-0.1l12.3-12.9 11.4 12.3-11.3 13.2c-0.3 0.2-0.3 0.6-0.1 0.9 1.1 2 2 4.2 2.6 6.4 0.1 0.3 0.4 0.6 0.7 0.6h10.1c0-0.4 0.2-0.9 0.5-1.2-0.5 0.6-0.9 2.3-0.8 7-0.7-0.6-1.4-0.9-2.1-0.6-1 0.4-1.9 1.7 0.5 11.3 0.1 0.3 0.4 0.6 0.8 0.6h3.9c0.3 0 0.6-0.2 0.7-0.5 1.2-3.3 1.7-6.6 1.4-9.9-0.3-3.1-1.6-7.1-2.8-8.1-0.3-0.2-0.5-0.3-0.7-0.3h0.2c1 0 1.5 0.8 1.5 1.6h4.2v8.5h-2c0.1 0.4 0.1 0.9-0.1 1.2 0.3 0.2 0.5 0.4 0.8 0.7v-0.4h2.1c0.4 0 0.8-0.3 0.8-0.8v-10.1c0-0.4-0.3-0.8-0.8-0.8h-17.5c-0.6-1.6-1.4-3.5-2.3-5.3zm-131.3-145.6c0.2-0.6 24.1-65.2 76.6-87.899 0.2-0.102 0.5-0.102 0.7 0 0.2 0.097 0.4 0.301 0.4 0.597 0.1 0.5 3.7 28-3.8 59.403 0.1 0.301 0 0.597-0.2 0.801-3.4 13.598-8.8 27.898-17.6 41.098 9.3-1.3 55.6-6.8 89.6 10.3 0.2 0.1 0.4 0.3 0.4 0.6 0 0.2 0 0.5-0.2 0.7-0.4 0.4-40 41.8-78.7 41.8-2.8 0-5.5-0.2-8.2-0.7-0.4-0.1-0.7-0.5-0.6-0.9s0.5-0.7 0.9-0.6c37.5 6.2 78.8-33.9 84.8-39.9-36-17.5-85.5-10.1-89.1-9.5-5.6 8.1-12.5 15.7-21 22.4 2.7-0.7 6.2-1.4 10.3-2.1 5.8-1 12.9-2.1 20.5-3.2l14.3-16c0.3-0.3 0.8-0.3 1.1-0.1 0.3 0.3 0.3 0.8 0.1 1.1l-13.3 14.7c7.6-1 15.7-2.1 23.5-3l12.9-12.7c0.3-0.3 0.8-0.3 1.1 0s0.3 0.8 0 1.1l-11.5 11.3c20.8-2.5 39-4.4 40.7-4.6 0.4 0 0.8 0.3 0.9 0.7 0 0.4-0.3 0.8-0.7 0.9-0.5 0-24.6 2.5-49.6 5.7l21.4 11c0.4 0.2 0.5 0.7 0.3 1-0.1 0.3-0.4 0.4-0.7 0.4-0.1 0-0.2 0-0.4-0.1l-23.4-12c-12.7 1.6-25.5 3.4-35.2 5l26.4 17.9c0.4 0.2 0.4 0.7 0.2 1.1-0.2 0.2-0.4 0.3-0.6 0.3s-0.3 0-0.4-0.1l-27.7-18.8c-7 1.2-12.2 2.4-14.2 3.4-1.5 1.1-3.1 2.2-4.7 3.2-0.1 0.1-0.3 0.1-0.4 0.1-0.3 0-0.5-0.1-0.7-0.4-0.2-0.4-0.1-0.8 0.2-1.1 27.7-17.6 41.1-44.3 47.4-68.799l-26.3 15.399c-2.7 4.8-5.1 8.6-7.3 10.8-0.2 0.2-0.4 0.2-0.6 0.2s-0.4-0.1-0.5-0.2c-0.3-0.3-0.3-0.8 0-1.1 3.1-3.2 7.1-10.2 11.3-18.599-1.3-4.699-9.7-33.903-9.8-35.102-0.1-0.398 0.2-0.801 0.7-0.898 0.4-0.102 0.8 0.199 0.9 0.699 0.2 0.898 5.5 19.699 9.3 33.199 10.1-20.801 20.8-48.801 21.1-50.398 0-0.403 0.3-0.699 0.8-0.699 0.4 0 0.8 0.398 0.8 0.796 0 0.301-11.4 30.801-22.1 52.602 0 0.102-0.1 0.199-0.2 0.301-1 1.999-2 3.899-2.9 5.699l25.4-14.898c6.8-27.903 4.6-52.704 4-58-51.2 22.796-74.6 85.898-74.8 86.498-0.1 0.4-0.6 0.6-1 0.5-0.5 0-0.7-0.5-0.6-0.9zm35.4 53.8c0.3 0.3 0.4 0.8 0.1 1.1-0.2 0.2-0.4 0.3-0.6 0.3s-0.4-0.1-0.5-0.2c-2.9-2.5-5.7-5.5-8.3-8.8-0.3-0.3-0.2-0.8 0.1-1.1s0.8-0.2 1.1 0.1c2.5 3.2 5.2 6.1 8.1 8.6zm-6.6-63.4l-5.8-24.6c-0.1-0.398 0.2-0.801 0.6-0.898 0.4-0.102 0.8 0.199 0.9 0.597l5.8 24.601c0.1 0.4-0.2 0.8-0.6 0.9h-0.2c-0.3 0-0.6-0.3-0.7-0.6zm-114.4 66.2c11.8 0 21.4 9.6 21.4 21.4s-9.6 21.4-21.4 21.4-21.4-9.6-21.4-21.4 9.6-21.4 21.4-21.4zm0 44.3c12.7 0 22.9-10.3 22.9-22.9s-10.3-22.9-22.9-22.9c-12.7 0-22.9 10.3-22.9 22.9s10.2 22.9 22.9 22.9zm202.2 264.7c-0.2 0.2-0.4 0.3-0.6 0.3s-0.3 0-0.5-0.2c-0.3-0.3-0.4-0.7-0.2-1.1 15.3-20.8 32.3-40.8 50.4-59.2 15.3-15.5 31.7-30.3 48.7-43.8 0.3-0.3 0.8-0.2 1.1 0.1s0.2 0.8-0.1 1.1c-17 13.5-33.3 28.2-48.6 43.7-18 18.5-34.9 38.3-50.2 59.1zm-352.1-165.1c-9.9-7.4-12.6-8.5-13.3-8.5 0.1 0.5 0.7 2.2 4.7 7.4 0.2 0.2 0.2 0.5 0.1 0.8s-0.4 0.4-0.7 0.4c-2.3 0.1-3.5 0.3-4 0.4 0.9 0.5 3.6 1.7 12.1 3.8 0.4 0.1 0.7 0.5 0.6 0.9s-0.4 0.6-0.8 0.6h-0.2c-12.8-3.2-13.7-4.5-13.6-5.6 0.1-0.8 0.9-1.4 4.3-1.6-4.2-5.7-4.6-7.4-3.7-8.3 0.9-1 2.9-1.1 15.5 8.4 0.3 0.3 0.4 0.7 0.2 1.1-0.4 0.4-0.9 0.5-1.2 0.2zm-26.2 17.6c0.6-4.8 0.6-6.9 0.5-7.8-0.3 0.5-0.9 1.6-1.8 3.7-0.1 0.3-0.5 0.5-0.8 0.5s-0.6-0.3-0.7-0.6c-0.9-5.2-1.6-7.9-2-9.3-0.2 2.1-0.2 6.9 0.2 17.6 0 0.4-0.3 0.8-0.7 0.8s-0.8-0.3-0.8-0.7c-0.8-20.4 0-20.5 1.1-20.6 0.8-0.1 1.5-0.2 3.4 9.5 1.2-2.5 1.9-2.9 2.7-2.8 1 0.2 1.6 1.1 0.6 10 0 0.4-0.4 0.7-0.9 0.7-0.5-0.2-0.8-0.6-0.8-1zm28.7-53.5c0-1.7-0.5-2.8-0.9-3.6-0.7-1.2-1.6-1.8-2.1-3.3-0.4-1.3-0.3-2.4-0.2-3.2 2.2-0.7 7.6-2.2 13.5 0 2 0.7 5.5 2.1 7.7 5.7 1.3 2.3 1.6 4.6 1.6 5.9 2.3 1.8 3.4 4.7 2.8 7.4-0.7 3.2-3.6 5.6-7.1 5.8l1.1 3.8c0.1 0.4-0.1 0.8-0.5 1-0.4 0.1-0.8-0.1-1-0.5l-2.2-7.6c-0.1-0.4 0.1-0.8 0.5-0.9 1.4-0.6 2.4-1.9 2.3-3.5 0-1.4-0.9-2.6-2.1-3.2-1.7 0.2-4.1 0.1-6.7-1.2-1.9-1-3.3-2.3-4.2-3.4-1.4 1.7-2.5 3.7-3.1 5.7-0.8 2.4-1.9 5.7-0.3 9 1 2 2.7 3.2 3.9 3.9 0.3 0.1 0.4 0.4 0.4 0.7v5.9c0 0.4-0.3 0.8-0.8 0.8-0.4 0-0.8-0.3-0.8-0.8v-5.4c-1.4-0.8-3.1-2.2-4.1-4.3-1.9-3.8-0.6-7.6 0.2-10.1 0.4-1.6 1.1-3.1 2.1-4.6zm-68.1-192.5zm25.9-26c13.8 0 25 11.199 25 25 0 13.799-11.2 24.999-25 24.999-9.7 0-18.2-5.6-22.3-13.7 0.3-0.702 0.5-1.401 0.6-2.202 0.7-3.796 0-8.097-1.1-9.5-0.3-0.398-0.7-0.597-1.1-0.699-0.3 0-0.7 0.102-1.1 0.5 0.4-13.398 11.4-24.398 25-24.398zm-31.3 38.899c0.4 0.1 0.8-0.2 0.9-0.6 1.1-5.498 1.8-8.202 2.2-9.498 0.1 0.796 0.2 2 0.2 4 0 0.398 0.3 0.699 0.7 0.796 0.4 0 0.8-0.199 0.8-0.597 1.3-5.5 2.2-6.903 2.5-7.301 0.6 0.801 1.4 4.5 0.7 8.199-0.6 3.001-2.1 5.801-4.5 8.101-0.3 0.3-0.3 0.8 0 1.1 0.2 0.2 0.4 0.2 0.6 0.2s0.4-0.1 0.5-0.2c1.5-1.5 2.7-3.2 3.6-4.9 4.6 8 13.2 13.5 23.1 13.5 14.7 0 26.6-11.9 26.6-26.602 0-14.699-11.9-26.597-26.6-26.597s-26.6 11.898-26.6 26.597c0 0.704 0.1 1.403 0.1 2.204 0-0.204 0.1-0.301 0.2-0.403-0.1 0.301-0.3 0.699-0.4 1.102-0.2-1.403-0.6-1.801-1.2-1.801-0.9-0.102-1.7-0.199-4.1 11.8 0 0.4 0.3 0.8 0.7 0.9zm-73.7-28.399c-0.3-0.301-0.4-0.699-0.2-1.102 0.8-1 2.9-3.5 6.6-4 1.9-0.199 3.5 0.199 4.5 0.602 0.2-2.903 1.1-6.602 3.8-10 3.2-4.199 7.4-5.801 9.2-6.403 2.2 0.204 6.4 0.903 10.7 3.704 3.1 2 5 4.398 6.2 6l-2.7 4c0.3 1.5 0.4 3 0.4 4.5 0 3.699 0 8.699-3.5 11.296-1.3 1-3 1.5-5 1.5h-0.8c-0.4 0-0.8-0.398-0.7-0.796 0-0.403 0.4-0.704 0.8-0.704 1.9 0.102 3.6-0.296 4.8-1.199 2.9-2.097 2.9-6.699 2.9-10 0-1.801-0.2-3.597-0.6-5.398-1.2 0.801-2.4 1.398-3.8 1.801-1.4 0.398-2.8 0.597-4.2 0.597 1.3 5-0.2 10-3.9 12.199-2.5 1.5-5.3 1.204-6.7 0.801-0.4-0.097-0.7-0.5-0.6-0.898 0-0.102 0.1-0.301 0.2-0.403-1.6-1.5-3.3-3-4.9-4.5l-4.5 1.704h-0.3c-0.3 0-0.6-0.204-0.7-0.5-0.2-0.403 0.1-0.903 0.5-1l3.7-1.102c-0.1-0.5-0.3-1.602-0.3-3.102l-0.4-0.5c-0.9-0.398-2.3-0.699-3.9-0.597-3.1 0.398-5 2.597-5.5 3.301-0.2 0.398-0.7 0.5-1.1 0.199zm426.3 220.3c-0.3 0.9-0.8 2.6-2 5.5l-2.7 3.3c-1.1-3.6-1.3-7.1-0.6-10.6 0.7-3 2-5.6 2.6-6.3 0.2 0.6 0.6 2.5 0.3 8.7 0 0.3 0.2 0.6 0.5 0.8 0.3 0.1 0.7 0 0.9-0.2 0.5-0.6 0.8-1 1-1.2zm-2.3-9.8c-2.2-0.4-4.1 6-4.5 7.7-0.9 4.1-0.5 8.4 1.1 12.7 0.1 0.3 0.3 0.5 0.6 0.5h0.1c0.2 0 0.5-0.1 0.6-0.3l3.6-4.5c0-0.1 0.1-0.1 0.1-0.2 3-7.1 2.7-8 1.9-8.4-0.5-0.3-1.1-0.1-2 0.7 0.3-7.2-0.6-8.1-1.5-8.2" fill="#0f0e0c"/>
  </g>
  <g id="change3_2"><path d="m334 305.2c-3.2 1.4-6 1.6-7.6 1.6-0.9 1.9-2.3 4.9-3.7 8.9-5.4 14.6-4.6 21.7-10.7 26-0.8 0.5-4.5 3.1-8.6 2.1-5.1-1.3-7.1-7.2-7.3-7.9l-8 5.1c1.8 7.7 7.6 13.8 15 15.9 9.2 2.5 16.6-2.4 17.7-3.2-2.7 9-5.4 18.1-8.1 27.1 2 1.2 9.6 5.7 19.8 4.1 9.2-1.4 14.9-6.8 16.6-8.6 0.1-4 0.4-10.5 0.9-18.5 2.1-29.8 5.8-42.2-1.9-51-1.5-1.7-4-4-8.5-5.6-1 1.1-2.9 2.7-5.6 4zm-135.1-219.8c1.6 0.403 3 0.301 3.7 0.102 2.1 0.699 5.1 2 8.2 4.301 3.7 2.898 5.3 5.801 6.9 7.898 2.6 3.401 7.1 7.701 15.8 10.901 2-0.4 4.3-1.1 6.8-2.1 4.1-1.6 7.2-3.7 9.5-5.4 2 2.2 4 4.5 6 6.7-1.7 1.4-4.3 3.6-7.5 6.2-5.7 4.6-8.6 6.9-10.1 7.7-2.5 1.2-9.1 3.3-21.9-4.1-0.6 13.2-1.3 26.3-1.9 39.5-4.7 1.5-13.4 3.5-24.1 1.9-7.2-1.1-12.9-3.6-16.6-5.6l-2.4-40.2c-1.1-1.1-8.2-8.6-7.3-20.001 1-12.097 10.3-18.5 11.4-19.301 0.9-0.097 2-0.097 3.4 0.204 2.9 0.597 4.8 2.398 5.6 3.199-1.7 1.301-4.3 3.699-5.9 7.5-0.4 0.898-2 4.597-0.9 5.398 1 0.801 3.5-1.5 8.2-3.898 3.5-1.801 6.7-2.903 8.9-3.602 0.4 0.5 1.8 2.102 4.2 2.699" fill="#a1b5cc"/></g>
  <g id="change2_4"><path d="m236.2 281.6h-12.9c0.3-0.4 0.5-0.9 0.7-1.6 0.2-1.2 0-2.3-1.6-5.6-0.5-1.1-1.2-2.4-2-3.9 0.2-0.1 0.4-0.4 0.4-0.6l0.6-39.5h30.4zm-17.4 57.5h-82.1l16.1-52.9h81.9zm-17.3 57.6h-82.3l16.1-52.9h82.1zm-17 56.2h-82.5l15.7-51.6h82.3zm-14.6-222.6h6l0.7 38c0 0.4 0.3 0.7 0.7 0.8l1.7 0.2c-0.4 2.1-0.7 4.6-0.6 7.6 0.1 1.7 0.3 3.2 0.5 4.6h-24.5zm5.5-18.4l0.2 7.2 0.1 6.5h-4.5zm16.4 18.4l-3.4 38.7-10.3-1.3-0.7-37.3h14.4zm4.9-38l3.8 12.5 2.4 20.8h-9.1zm13.4 78.3c0 3.7-0.1 7.3-0.1 11h-19.3c-0.1-1.5-0.3-3.2-0.9-5.2-0.7-2.5-1.6-4.5-2.5-6l1.6 0.2h0.1c0.2 0 0.4-0.1 0.5-0.2 0.2-0.1 0.3-0.3 0.3-0.5l3.5-39.6h10.1l4.6 39.6c0 0.4 0.4 0.7 0.8 0.7zm9.5-40.3l-0.6 38.7h-9.6l-4.5-38.7zm48.4-46.3c-1.2-0.4-2.5 0.3-2.9 1.6l-12.1 40h-31.7l0.1-4.7-7.4-63.6c-0.1-0.4-0.4-0.7-0.9-0.7-0.4 0-0.7 0.4-0.7 0.9l7.4 63.5-0.1 4.6h-15.2l-2.4-21.1-4.9-16.1c0-0.1-0.1-0.1-0.1-0.2l0.1-1.3v-13.1c0-0.4-0.3-0.8-0.8-0.8-0.4 0-0.8 0.3-0.8 0.8v13l-3.4 38.7h-14.9l-0.1-6.5-0.3-11.9 7.5-24.6c0.4-1.2-0.3-2.5-1.6-2.9-1.2-0.4-2.5 0.3-2.9 1.6l-3.4 11.1-1-38.6c0-0.4-0.4-0.7-0.8-0.8-0.4 0-0.8 0.4-0.8 0.8l1.1 43.3-91 299c-0.398 1.2 0.301 2.5 1.602 2.9 0.199 0.1 0.5 0.1 0.699 0.1 1 0 1.898-0.6 2.199-1.7l12.1-39.8h82.5l-11.5 38.5c-0.4 1.2 0.3 2.5 1.6 2.9 0.2 0.1 0.5 0.1 0.7 0.1 1 0 1.9-0.7 2.2-1.7l93.5-310.5c0.3-1.1-0.4-2.5-1.6-2.8" fill="#0f0e0c"/></g>
 </g>
</svg>
