<?xml version="1.0" encoding="UTF-8"?>
<svg xmlns="http://www.w3.org/2000/svg" xmlns:xlink="http://www.w3.org/1999/xlink" width="370.5pt" height="132.749998pt" viewBox="0 0 370.5 132.749998" version="1.2">
<defs>
<clipPath id="clip1">
  <path d="M 0.0976562 0 L 368 0 L 368 131.90625 L 0.0976562 131.90625 Z M 0.0976562 0 "/>
</clipPath>
</defs>
<g id="surface1">
<g clip-path="url(#clip1)" clip-rule="nonzero">
<path style=" stroke:none;fill-rule:nonzero;fill:rgb(100%,100%,100%);fill-opacity:1;" d="M 243.441406 96.285156 C 240.542969 97.402344 237.941406 98.886719 235.414062 100.375 C 231.550781 102.605469 227.386719 104.242188 223.222656 105.878906 C 220.324219 106.996094 217.351562 108.183594 214.453125 109.300781 C 213.414062 109.746094 212.296875 110.265625 211.183594 110.5625 C 206.574219 111.828125 201.964844 113.242188 197.355469 114.355469 C 193.863281 115.175781 190.222656 115.621094 186.652344 116.214844 C 185.167969 116.4375 183.679688 116.589844 182.265625 116.738281 C 181.597656 116.8125 180.929688 116.960938 180.261719 116.8125 C 177.285156 116.363281 174.3125 116.515625 171.339844 116.363281 C 165.691406 115.992188 160.859375 113.613281 156.398438 110.339844 C 155.878906 109.96875 155.285156 109.523438 154.988281 108.929688 C 153.054688 105.65625 150.378906 102.828125 148.816406 99.410156 C 148 97.625 147.035156 95.839844 146.8125 93.832031 C 146.515625 91.453125 145.027344 89.59375 144.285156 87.4375 C 144.210938 87.285156 143.6875 87.136719 143.464844 87.210938 C 142.351562 87.585938 141.234375 87.882812 140.269531 88.550781 C 138.484375 89.742188 136.332031 90.113281 134.398438 91.152344 C 132.6875 92.121094 130.753906 92.714844 128.898438 93.460938 C 126.890625 94.277344 124.957031 95.09375 122.949219 95.914062 C 121.6875 96.359375 120.496094 96.804688 119.234375 97.253906 C 115.144531 98.589844 111.058594 99.929688 106.96875 101.269531 C 105.410156 101.789062 103.773438 102.085938 102.136719 102.234375 C 99.386719 102.53125 96.5625 102.980469 93.8125 103.5 C 90.988281 104.019531 88.238281 104.09375 85.414062 103.425781 C 84.445312 103.203125 83.480469 102.980469 82.515625 102.902344 C 77.3125 102.382812 73.296875 99.632812 69.582031 96.210938 C 67.871094 94.648438 66.382812 92.863281 65.046875 90.929688 C 63.78125 89.144531 63.261719 88.921875 61.402344 89.667969 C 57.390625 91.304688 53.152344 91.972656 48.992188 93.011719 C 45.644531 93.757812 42.152344 93.980469 38.660156 93.160156 C 35.757812 92.492188 32.785156 92.046875 29.886719 91.527344 C 29.367188 91.453125 28.921875 91.453125 28.402344 91.304688 C 22.824219 89.667969 17.324219 87.734375 12.566406 84.3125 C 10.1875 82.601562 8.035156 80.445312 5.878906 78.363281 C 5.058594 77.542969 4.390625 76.578125 3.945312 75.535156 C 3.128906 73.902344 2.53125 72.191406 1.789062 70.554688 C 0.898438 68.398438 0.378906 66.167969 0.898438 63.785156 C 1.046875 63.117188 1.121094 62.449219 1.046875 61.851562 C 0.527344 59.101562 1.566406 56.648438 2.011719 54.042969 C 2.308594 51.960938 3.871094 50.550781 4.910156 48.914062 C 5.207031 48.390625 5.953125 48.09375 6.546875 47.871094 C 7.511719 47.574219 8.480469 47.5 9.445312 47.425781 C 9.890625 47.425781 10.488281 47.5 10.859375 47.722656 C 12.9375 49.285156 15.242188 50.625 16.285156 53.300781 C 16.953125 55.160156 18.066406 56.796875 19.035156 58.582031 C 20.296875 60.960938 22.007812 62.96875 23.792969 64.902344 C 26.023438 67.28125 28.921875 68.472656 31.96875 69.363281 C 34.644531 70.109375 37.46875 70.554688 40.292969 70.480469 C 42.449219 70.40625 44.605469 70.480469 46.761719 70.480469 C 47.058594 70.480469 47.429688 70.480469 47.726562 70.480469 C 48.023438 70.480469 48.394531 70.480469 48.691406 70.332031 C 51.441406 68.992188 54.566406 69.511719 57.390625 68.472656 C 58.949219 67.875 60.363281 67.132812 61.851562 66.539062 C 61.925781 66.09375 62.074219 65.792969 62.074219 65.496094 C 62 60.214844 63.707031 55.382812 65.789062 50.699219 C 66.828125 48.464844 68.019531 46.234375 69.207031 44.078125 C 71.140625 40.582031 73 37.089844 75.15625 33.742188 C 78.425781 28.535156 81.84375 23.480469 85.265625 18.421875 C 85.785156 17.605469 86.453125 16.859375 87.195312 16.117188 C 90.988281 12.398438 94.628906 8.605469 98.941406 5.480469 C 100.578125 4.292969 102.359375 3.546875 104.21875 2.878906 C 105.929688 2.210938 107.710938 1.910156 109.050781 0.5 C 109.570312 -0.0234375 110.3125 0.128906 110.910156 0.351562 C 112.320312 0.871094 113.734375 1.316406 114.847656 2.359375 C 117.003906 4.292969 119.308594 5.035156 122.132812 3.84375 C 122.355469 3.769531 122.875 3.917969 122.949219 4.144531 C 123.917969 5.703125 124.734375 7.339844 124.734375 9.199219 C 124.734375 12.175781 124.882812 15.148438 124.289062 18.125 C 124.140625 19.089844 124.066406 20.058594 123.992188 21.097656 C 123.84375 23.554688 123.320312 26.007812 122.652344 28.386719 C 122.28125 29.652344 122.058594 30.988281 121.835938 32.253906 C 121.613281 33.371094 121.316406 34.484375 121.019531 35.601562 C 120.570312 37.238281 119.753906 38.648438 119.160156 40.136719 C 118.492188 41.625 118.640625 43.410156 118.042969 44.898438 C 116.929688 47.425781 115.515625 49.878906 114.105469 52.332031 C 113.363281 53.597656 112.394531 54.789062 111.355469 55.828125 C 109.273438 57.910156 107.042969 59.917969 104.664062 61.703125 C 103.996094 62.226562 103.328125 62.746094 102.804688 63.339844 C 101.171875 65.496094 98.941406 66.984375 96.710938 68.324219 C 94.257812 69.808594 92.175781 71.59375 90.246094 73.527344 C 89.574219 75.683594 90.394531 77.542969 91.285156 79.328125 C 91.878906 80.59375 93.070312 81.261719 94.480469 81.484375 C 95.96875 81.710938 97.453125 81.859375 98.941406 81.785156 C 101.246094 81.636719 103.550781 81.636719 105.78125 80.816406 C 107.339844 80.222656 109.050781 80.222656 110.613281 80.890625 C 111.429688 81.261719 112.246094 81.261719 113.0625 81.113281 C 116.484375 80.59375 119.902344 79.851562 123.171875 78.585938 C 126.445312 77.320312 129.714844 76.28125 132.984375 75.015625 C 136.257812 73.75 139.378906 72.265625 142.351562 70.40625 C 143.019531 69.960938 143.6875 69.363281 144.433594 69.066406 C 147.183594 67.949219 148.222656 65.71875 148.742188 62.894531 C 149.265625 59.992188 150.15625 57.09375 151.046875 54.265625 C 151.492188 52.855469 151.941406 51.367188 152.757812 50.175781 C 155.433594 46.160156 157.070312 41.625 159.375 37.386719 C 162.421875 31.660156 165.988281 26.304688 169.929688 21.171875 C 173.347656 16.636719 177.363281 12.695312 182.339844 9.945312 C 183.53125 9.273438 184.496094 8.457031 185.167969 7.265625 C 185.613281 6.375 186.429688 5.777344 187.320312 5.257812 C 189.253906 4.292969 191.113281 3.25 193.046875 2.285156 C 193.863281 1.835938 195.125 2.136719 195.796875 2.804688 C 195.945312 2.953125 196.09375 3.027344 196.167969 3.175781 C 197.503906 5.628906 198.769531 8.085938 199.660156 10.761719 C 199.957031 11.652344 200.105469 12.695312 200.328125 13.664062 C 200.554688 14.628906 200.925781 15.445312 201.59375 16.265625 C 202.410156 17.304688 202.929688 18.570312 203.601562 19.6875 C 205.234375 22.363281 205.832031 25.113281 204.417969 28.164062 C 203.527344 30.097656 203.007812 32.179688 202.113281 34.1875 C 201 36.566406 200.03125 39.023438 199.4375 41.625 C 199.140625 43.113281 198.398438 44.449219 197.429688 45.566406 C 195.050781 48.539062 192.675781 51.515625 190.222656 54.417969 C 189.625 55.160156 188.808594 55.753906 187.992188 56.425781 C 185.464844 58.507812 182.863281 60.589844 180.707031 63.117188 C 180.039062 63.859375 179.292969 64.53125 178.550781 65.125 C 175.800781 67.207031 172.976562 69.214844 170.152344 71.296875 C 169.183594 71.96875 168.21875 72.636719 167.328125 73.378906 C 165.914062 74.570312 165.394531 76.058594 165.988281 77.84375 C 167.699219 83.492188 169.109375 86.171875 172.828125 90.335938 C 173.71875 91.304688 174.6875 92.195312 175.652344 93.085938 C 176.914062 94.203125 178.328125 94.945312 180.039062 95.320312 C 181.300781 95.617188 182.640625 95.839844 183.828125 96.433594 C 186.132812 97.550781 188.585938 97.699219 191.039062 97.699219 C 195.574219 97.773438 199.957031 97.027344 204.34375 96.136719 C 214.453125 93.980469 224.042969 90.484375 233.40625 86.171875 C 236.53125 84.757812 239.578125 82.898438 242.625 81.261719 C 243.367188 80.890625 243.886719 80.222656 244.039062 79.328125 C 244.484375 77.023438 244.855469 74.792969 245.300781 72.488281 C 245.597656 71 245.96875 69.585938 246.191406 68.101562 C 246.566406 65.71875 247.53125 63.636719 249.089844 61.851562 C 250.578125 60.214844 251.542969 58.359375 252.363281 56.351562 C 252.734375 55.457031 253.328125 54.640625 253.847656 53.746094 C 254.519531 52.707031 256.226562 52.78125 256.671875 53.894531 C 257.195312 55.085938 257.714844 56.351562 258.085938 57.613281 C 258.308594 58.359375 258.234375 59.25 258.160156 60.066406 C 258.011719 61.183594 257.714844 62.375 257.492188 63.488281 C 257.121094 65.496094 257.195312 67.429688 257.566406 69.363281 C 257.714844 69.960938 258.679688 70.40625 259.125 70.109375 C 260.613281 69.066406 262.25 68.175781 263.585938 66.910156 C 267.230469 63.5625 271.09375 60.441406 274.140625 56.425781 C 274.4375 56.050781 274.734375 55.605469 275.109375 55.308594 C 278.824219 51.960938 281.648438 47.796875 285.066406 44.300781 C 286.183594 43.113281 287.074219 41.699219 288.042969 40.359375 C 289.304688 38.574219 289.972656 36.640625 290.121094 34.335938 C 290.273438 31.882812 290.792969 29.429688 291.164062 26.972656 C 291.535156 24.445312 292.875 22.363281 294.136719 20.207031 C 294.433594 19.761719 295.402344 19.539062 295.921875 19.835938 C 296.367188 20.058594 296.8125 20.28125 297.183594 20.652344 C 298.96875 22.511719 300.082031 24.742188 299.933594 27.347656 C 299.859375 28.980469 299.5625 30.617188 299.117188 32.253906 C 298.671875 33.890625 298.226562 35.453125 298.226562 37.089844 C 298.226562 39.023438 297.554688 40.65625 296.441406 42.144531 C 295.773438 43.113281 295.324219 44.152344 294.359375 44.898438 C 293.988281 45.195312 293.765625 45.714844 293.617188 46.160156 C 293.246094 48.09375 292.054688 49.507812 290.792969 50.699219 C 288.488281 52.855469 286.554688 55.382812 284.621094 57.835938 C 280.535156 63.042969 276.222656 68.027344 271.539062 72.710938 C 269.011719 75.3125 266.410156 77.84375 263.808594 80.371094 C 263.066406 81.113281 262.695312 82.007812 262.917969 83.046875 C 263.066406 83.867188 263.214844 84.683594 263.511719 85.429688 C 264.925781 89.296875 266.632812 93.085938 268.9375 96.507812 C 271.761719 100.894531 275.40625 104.464844 279.9375 107.070312 C 280.683594 107.515625 281.425781 107.8125 282.09375 108.332031 C 285.960938 111.457031 290.570312 112.648438 295.324219 113.6875 C 296.738281 113.984375 298.300781 114.058594 299.785156 114.132812 C 307.292969 114.582031 314.652344 113.761719 322.011719 112.421875 C 326.097656 111.679688 330.113281 111.011719 334.203125 110.191406 C 338.066406 109.375 341.785156 107.886719 345.5 106.621094 C 350.851562 104.761719 355.757812 102.011719 360.738281 99.410156 C 362.074219 98.664062 363.488281 98.292969 364.976562 98.144531 C 365.867188 98.070312 366.535156 98.515625 367.128906 99.113281 C 367.726562 99.632812 367.875 100.375 367.503906 100.894531 C 366.238281 102.605469 365.050781 104.464844 363.710938 106.027344 C 362.375 107.664062 361.035156 109.375 359.027344 110.339844 C 357.988281 111.679688 356.277344 112.199219 355.089844 113.316406 C 353.972656 114.355469 352.636719 115.027344 351.371094 115.769531 C 350.109375 116.589844 348.917969 117.40625 348.25 118.894531 C 347.730469 120.007812 346.765625 120.679688 345.648438 121.125 C 343.789062 121.867188 342.007812 122.613281 340.074219 123.132812 C 335.316406 124.398438 330.484375 125.585938 325.652344 126.703125 C 323.722656 127.148438 321.789062 127.445312 319.78125 127.742188 C 315.839844 128.339844 311.976562 129.304688 308.035156 129.527344 C 306.921875 129.601562 305.808594 130.050781 304.617188 130.199219 C 302.3125 130.570312 300.082031 131.089844 297.703125 130.867188 C 297.183594 130.792969 296.664062 130.792969 296.21875 130.941406 C 293.320312 131.90625 290.273438 131.3125 287.371094 131.460938 C 285.960938 131.535156 284.472656 131.015625 282.988281 130.792969 C 279.046875 130.273438 275.257812 129.230469 271.390625 128.039062 C 268.195312 127.074219 265.222656 125.585938 262.324219 123.949219 C 259.871094 122.539062 257.863281 120.53125 256.078125 118.371094 C 252.214844 113.761719 249.464844 108.480469 247.234375 102.90625 C 246.714844 101.492188 246.191406 100.078125 245.523438 98.8125 C 244.855469 97.699219 244.113281 97.027344 243.441406 96.285156 Z M 187.246094 24.296875 C 187.246094 23.480469 187.320312 22.957031 187.246094 22.511719 C 186.875 20.726562 186.503906 19.015625 186.058594 17.230469 C 185.984375 17.007812 185.613281 16.785156 185.316406 16.710938 C 184.496094 16.488281 183.679688 16.5625 182.9375 16.933594 C 181.597656 17.605469 180.410156 18.496094 179.589844 19.761719 C 177.660156 22.585938 175.652344 25.414062 173.71875 28.3125 C 172.828125 29.652344 172.382812 31.363281 171.339844 32.625 C 169.855469 34.484375 169.183594 36.640625 168.292969 38.796875 C 167.921875 39.691406 167.625 40.730469 167.699219 41.625 C 167.847656 43.632812 167.476562 45.566406 166.878906 47.5 C 166.582031 48.617188 166.210938 49.730469 166.507812 50.921875 C 166.582031 51.292969 166.878906 51.515625 167.253906 51.367188 C 167.847656 51.144531 168.441406 50.847656 168.960938 50.472656 C 172.976562 47.351562 176.839844 44.003906 180.484375 40.359375 C 181.523438 39.320312 182.566406 38.277344 183.605469 37.164062 C 184.496094 36.195312 185.09375 35.082031 185.390625 33.667969 C 185.835938 31.214844 186.429688 28.832031 186.949219 26.453125 C 187.097656 25.636719 187.171875 24.816406 187.246094 24.296875 Z M 84.371094 53.078125 C 84.371094 53.152344 84.296875 53.375 84.371094 53.523438 C 84.519531 53.820312 84.59375 54.191406 84.894531 54.265625 C 85.117188 54.417969 85.5625 54.492188 85.785156 54.339844 C 87.644531 53.226562 88.90625 51.515625 90.46875 50.027344 C 92.625 47.871094 94.109375 45.34375 94.777344 42.367188 C 95.671875 38.5 96.933594 34.78125 98.644531 31.214844 C 98.867188 30.765625 98.867188 30.246094 98.867188 29.800781 C 98.867188 29.503906 98.644531 29.207031 98.496094 28.980469 C 98.421875 28.90625 98.199219 28.90625 98.050781 28.980469 C 96.710938 29.28125 95.746094 30.246094 94.925781 31.214844 C 93.367188 33.148438 92.175781 35.304688 91.210938 37.609375 C 90.46875 39.46875 89.722656 41.253906 89.054688 43.113281 C 88.535156 44.523438 87.792969 45.789062 86.527344 46.683594 C 85.488281 47.425781 85.191406 48.464844 85.042969 49.65625 C 84.894531 50.773438 84.59375 51.886719 84.371094 53.078125 Z M 84.371094 53.078125 "/>
</g>
</g>
</svg>
