<svg width="800" height="105" xmlns="http://www.w3.org/2000/svg">
 <!-- Created with Method Draw - http://github.com/duopixel/Method-Draw/ -->
 <g>
  <title>Layer 1</title>
  <path id="svg_1" d="m53.5,4.45313c337,11 315,11 339,11c24,0 107,6 132,8c25,2 77,12 99,17c22,5 63,10 82,15c19,5 87,27 108,29c21,2 59,15 69,18c10,3 53,18 60,15c7,-3 -14,222 -14.5,221.54687c0.5,0.45313 -441.5,5.45313 -442,5c0.5,0.45313 -364.5,-17.54687 -365.5,-17.54687c-1,0 -404,-333 -67,-322z" stroke-width="0" stroke="#c7afdb" fill="#c7afdb"/>
 </g>
</svg>
